<svg width="500" height="500" viewBox="0 0 500 500" fill="none" xmlns="http://www.w3.org/2000/svg">
<path d="M231.5 334.2H220.3V407.7H231.5V334.2Z" fill="#4F3429"/>
<path d="M231.501 408.9H220.301C219.601 408.9 219.101 408.3 219.101 407.7V334.2C219.101 333.5 219.601 333 220.301 333H231.501C232.201 333 232.701 333.6 232.701 334.2V407.7C232.801 408.3 232.201 408.9 231.501 408.9ZM221.501 406.4H230.201V335.4H221.501V406.4Z" fill="#4F3429"/>
<path d="M293.6 334.2H282.4V407.7H293.6V334.2Z" fill="#4F3429"/>
<path d="M293.6 408.9H282.4C281.7 408.9 281.2 408.3 281.2 407.7V334.2C281.2 333.5 281.8 333 282.4 333H293.6C294.3 333 294.8 333.5 294.8 334.2V407.7C294.8 408.3 294.3 408.9 293.6 408.9ZM283.6 406.4H292.3V335.4H283.6V406.4Z" fill="#4F3429"/>
<path d="M173.601 250.1L220.401 232.5V268.3L185.401 288.2L173.601 250.1Z" fill="#4F3429"/>
<path d="M185.401 289.5C184.901 289.5 184.401 289.1 184.201 288.6L172.401 250.5C172.201 249.9 172.501 249.2 173.201 249L220.001 231.4C220.601 231.2 221.301 231.5 221.601 232.1C221.701 232.2 221.701 232.4 221.701 232.6V268.4C221.701 268.8 221.501 269.3 221.101 269.5L186.101 289.4C185.801 289.4 185.601 289.5 185.401 289.5ZM175.101 250.9L186.101 286.4L219.101 267.6V234.3L175.101 250.9Z" fill="#4F3429"/>
<path d="M150.7 191.6C148.2 185.3 141.1 182.2 134.8 184.7C134.2 184.9 133.6 185.2 133 185.6L121.4 192.4L109.4 199.5L97.8002 206.3C92.0002 209.7 90.0002 217.3 93.5002 223.1C93.8002 223.6 94.2002 224.2 94.6002 224.7L154.2 297.2C158 301.9 164.7 303 169.9 300L180.1 294C185.3 290.9 187.5 284.5 185.3 278.9L150.7 191.6Z" fill="white"/>
<path d="M163.6 303C159.5 303 155.7 301.1 153.2 298L93.5999 225.5C88.8999 219.7 89.6999 211.2 95.3999 206.5C95.8999 206 96.4999 205.6 97.0999 205.3L132.3 184.5C138.7 180.7 147 182.9 150.8 189.3C151.2 189.9 151.5 190.5 151.7 191.2L186.3 278.4C188.8 284.6 186.4 291.7 180.6 295L170.4 301C168.4 302.3 166.1 303 163.6 303ZM139.3 185.1C137.3 185.1 135.4 185.6 133.7 186.6L98.4999 207.4C93.1999 210.4 91.3999 217.2 94.4999 222.4C94.7999 222.9 95.1999 223.5 95.5999 223.9L155.2 296.4C158.6 300.6 164.7 301.7 169.3 298.9L179.5 292.9C184.2 290.2 186.2 284.4 184.2 279.3L149.6 192C147.9 187.9 143.8 185.1 139.3 185.1Z" fill="#4F3429"/>
<path d="M131.2 209.7C144.8 199.4 138.1 181.3 132.1 173.6C127.2 167.3 106.8 156.4 94.8003 151.2C82.8003 146 70.0003 146 66.5003 151.6C63.0003 157.2 64.9003 161.6 72.0003 166.1L82.3003 171C82.3003 171 72.3002 175 72.2002 184C72.2002 184 63.9003 188.4 67.0003 197.1C70.1003 205.8 71.8003 219.6 77.3003 219.9C89.1003 220.6 90.4003 207.7 90.4003 207.7C90.4003 207.7 110.4 225.4 131.2 209.7Z" fill="url(#paint0_linear_2087_495)"/>
<path d="M107.001 227C98.0005 227 92.8005 223.6 92.5005 223.4C92.0005 223 91.9005 222.2 92.3005 221.7C92.7005 221.2 93.3005 221.1 93.9005 221.4C94.0005 221.5 106.401 229.5 127.001 219.5C143.101 211.7 149.901 198.6 149.501 191.8C149.501 191.1 150.101 190.6 150.801 190.6C151.401 190.6 151.901 191.1 152.001 191.7C152.401 198.7 146.201 213 128.101 221.8C119.601 225.7 112.601 227 107.001 227Z" fill="#4F3429"/>
<path d="M104.1 201.1C103.5 201.1 103 200.7 102.9 200.1C102.1 195.3 104.1 190.7 105.8 187.7L101.3 189.4C96.7 191 93.7 189.2 92.3 187C90.6 184.4 91 181 93.2 178.8L100.3 171.8C103 169.2 106.5 167.5 110.2 167.1L122.8 165.8C123.5 165.7 124.1 166.1 124.2 166.8C124.3 167.5 123.9 168.1 123.2 168.2C123.1 168.2 123.1 168.2 123 168.2L110.4 169.5C107.2 169.8 104.3 171.3 102 173.5L94.9 180.5C93.6 181.9 93.4 184 94.4 185.7C95.6 187.6 97.8 188.1 100.5 187.1L108.6 184C109.2 183.7 110 184 110.2 184.7C110.4 185.2 110.3 185.7 110 186C109.9 186.1 104.3 192.8 105.3 199.7C105.4 200.4 105 201 104.3 201.1H104.1Z" fill="#4F3429"/>
<path d="M90.3999 207.7C80.3999 207.7 72.8999 186.2 72.5999 185.3C72.3999 184.7 72.6999 184 73.3999 183.7C73.9999 183.5 74.6999 183.8 74.9999 184.5C76.9999 190.3 83.5999 205.2 90.3999 205.2H90.4999C93.5999 205.2 95.8999 204.1 97.2999 202.2C99.1999 199.5 99.4999 194.9 97.8999 190C97.6999 189.4 97.9999 188.7 98.6999 188.4C99.2999 188.2 99.9999 188.5 100.3 189.2C102.1 195 101.8 200.2 99.3999 203.6C97.4999 206.2 94.4999 207.6 90.6999 207.7H90.3999Z" fill="#4F3429"/>
<path d="M95.4002 179C95.0002 179 94.7002 178.9 94.5002 178.6C94.4002 178.5 88.5002 172 82.4002 172.3C81.7002 172.3 81.2002 171.7 81.2002 171C81.2002 170.4 81.7002 169.9 82.3002 169.8C89.6002 169.5 96.1002 176.7 96.3002 177C96.8002 177.5 96.7002 178.3 96.2002 178.7C96.0002 178.9 95.7002 179 95.4002 179Z" fill="#4F3429"/>
<path d="M168.7 282.6C168.3 282.6 167.9 282.4 167.7 282.1L135.7 234.1C135.3 233.6 135.5 232.8 136 232.4L158.7 215.5C159.3 215.1 160 215.2 160.4 215.8C160.8 216.4 160.7 217.1 160.1 217.5L138.3 233.7L169.1 279.9L182.8 273.9C183.4 273.6 184.2 273.9 184.4 274.5C184.7 275.1 184.4 275.9 183.8 276.1L169.2 282.6C169.1 282.6 168.9 282.6 168.7 282.6Z" fill="#4F3429"/>
<path d="M156.1 267.2C158.641 267.2 160.7 265.141 160.7 262.6C160.7 260.059 158.641 258 156.1 258C153.559 258 151.5 260.059 151.5 262.6C151.5 265.141 153.559 267.2 156.1 267.2Z" fill="white"/>
<path d="M156.1 268.4C152.9 268.4 150.3 265.8 150.3 262.6C150.3 259.4 152.9 256.8 156.1 256.8C159.3 256.8 161.9 259.4 161.9 262.6C161.9 265.8 159.3 268.4 156.1 268.4ZM156.1 259.3C154.3 259.3 152.8 260.8 152.8 262.6C152.8 264.4 154.3 265.9 156.1 265.9C157.9 265.9 159.4 264.4 159.4 262.6C159.5 260.8 158 259.3 156.1 259.3Z" fill="#4F3429"/>
<path d="M338.6 270.5L299 239.9L288.5 274.1L316 303.5L338.6 270.5Z" fill="#4F3429"/>
<path d="M316 304.7C315.7 304.7 315.3 304.6 315.1 304.3L287.6 274.9C287.3 274.6 287.2 274.1 287.3 273.7L297.9 239.5C298.1 238.8 298.8 238.5 299.4 238.7C299.5 238.7 299.7 238.8 299.8 238.9L339.3 269.6C339.8 270 339.9 270.7 339.6 271.3L317 304.2C316.8 304.5 316.5 304.7 316 304.7ZM289.9 273.8L315.9 301.5L336.9 270.8L299.7 242L289.9 273.8Z" fill="#4F3429"/>
<path d="M377.7 221.5C382 216.2 389.7 215.4 395 219.6C395.5 220 396 220.4 396.4 220.9L405.4 230.9L414.8 241.2L423.8 251.2C428.4 256.2 428 264 423 268.5C422.5 268.9 422 269.3 421.5 269.7L343.1 321.3C338 324.6 331.3 323.8 327.3 319.3L319.3 310.5C315.2 306 315 299.2 318.8 294.5L377.7 221.5Z" fill="white"/>
<path d="M336.401 324.6C332.601 324.6 329.001 323 326.401 320.1L318.401 311.3C313.901 306.4 313.701 298.9 317.901 293.7L376.801 220.6C381.501 214.8 390.001 213.9 395.801 218.6C396.301 219 396.901 219.5 397.301 220L424.801 250.3C429.801 255.8 429.401 264.4 423.901 269.4C423.401 269.9 422.801 270.3 422.201 270.7L343.801 322.3C341.601 323.8 339.001 324.6 336.401 324.6ZM387.301 218.1H387.001C383.801 218.2 380.801 219.7 378.701 222.2L319.801 295.3C316.401 299.5 316.601 305.6 320.201 309.7L328.201 318.5C331.801 322.5 337.901 323.3 342.401 320.3L420.801 268.7C425.901 265.4 427.301 258.6 424.001 253.5C423.701 253 423.301 252.5 422.901 252L395.401 221.8C393.401 219.4 390.401 218.1 387.301 218.1Z" fill="#4F3429"/>
<path d="M391 244.5C381.1 230.7 392.8 215.4 400.8 209.7C407.4 205.1 430.1 200.8 443 199.3C455.9 197.8 468.2 201.7 469.9 208.1C471.6 214.5 468.4 218.1 460.4 220.3L449.1 222C449.1 222 457.5 228.7 455 237.4C455 237.4 461.6 244 456.1 251.5C450.6 259 444.9 271.6 439.5 270.2C428 267.3 430.6 254.6 430.6 254.6C430.6 254.6 406.2 265.7 391 244.5Z" fill="url(#paint1_linear_2087_495)"/>
<path d="M418.5 269.7C412.5 269.7 402.1 267.7 390.5 256.9C375.8 243.1 374.1 227.6 376.5 221.1C376.7 220.5 377.5 220.1 378.1 220.4C378.7 220.6 379.1 221.4 378.8 222C376.4 228.4 379 242.9 392.1 255.2C408.9 270.9 423 266.9 423.1 266.8C423.7 266.6 424.5 266.9 424.7 267.5C424.9 268.1 424.6 268.9 424 269.1H423.9C422.2 269.5 420.3 269.7 418.5 269.7Z" fill="#4F3429"/>
<path d="M419.9 244.4C419.7 244.4 419.5 244.4 419.4 244.3C418.8 244 418.5 243.3 418.8 242.7C421.8 236.4 418.4 228.3 418.4 228.2C418.1 227.6 418.4 226.9 419 226.6C419.4 226.4 419.9 226.5 420.3 226.8L427.2 232.1C429.5 233.8 431.7 234 433.4 232.6C434.9 231.3 435.3 229.2 434.4 227.5L429.7 218.7C428.2 215.9 425.8 213.7 422.8 212.4L411.2 207.4C410.6 207.1 410.3 206.4 410.6 205.8C410.9 205.2 411.6 204.9 412.2 205.2L423.8 210.2C427.3 211.7 430.1 214.3 431.9 217.6L436.6 226.4C438 229.2 437.4 232.5 435 234.5C433 236.2 429.5 237 425.7 234.1L421.9 231.1C422.7 234.4 423.2 239.4 421 243.8C420.8 244.1 420.3 244.4 419.9 244.4Z" fill="#4F3429"/>
<path d="M432.8 255C432 255 431.2 254.9 430.5 254.6C426.8 253.4 424.4 251.2 423.4 248.1C422.1 244.1 423.3 239 426.8 234.1C427.2 233.6 428 233.5 428.5 233.9C429 234.3 429.1 235 428.8 235.5C425.8 239.7 424.7 244.2 425.8 247.3C426.6 249.6 428.4 251.2 431.4 252.2C437.9 254.3 448.7 241.9 452.4 237C452.8 236.5 453.6 236.4 454.1 236.8C454.6 237.2 454.7 237.9 454.4 238.4C453.6 239.2 442.1 255 432.8 255Z" fill="#4F3429"/>
<path d="M434.6 225.8C433.9 225.8 433.4 225.2 433.4 224.6C433.4 224.2 433.6 223.8 434 223.5C434.4 223.3 442.7 218.4 449.5 220.8C450.1 221 450.5 221.7 450.2 222.4C450 223 449.3 223.4 448.6 223.1C442.8 221 435.2 225.5 435.2 225.6C435.1 225.8 434.9 225.8 434.6 225.8Z" fill="#4F3429"/>
<path d="M334.001 303.1C333.701 303.1 333.401 303 333.201 302.8L321.101 292.3C320.601 291.8 320.501 291.1 321.001 290.5C321.401 290 322.201 289.9 322.701 290.4L334.001 300.2L377.101 265.2L361.101 243.2C360.701 242.6 360.901 241.9 361.501 241.5C362.001 241.2 362.701 241.3 363.101 241.8L379.801 264.7C380.201 265.2 380.101 266 379.601 266.4L334.801 302.8C334.601 302.9 334.301 303 334.001 303.1Z" fill="#4F3429"/>
<path d="M351.5 292.2C354.041 292.2 356.1 290.141 356.1 287.6C356.1 285.059 354.041 283 351.5 283C348.96 283 346.9 285.059 346.9 287.6C346.9 290.141 348.96 292.2 351.5 292.2Z" fill="white"/>
<path d="M351.501 293.5C350.901 293.5 350.3 293.4 349.8 293.2C346.7 292.3 345.001 289 346.001 286C347.001 283 350.201 281.2 353.201 282.2C356.301 283.1 358.001 286.4 357.001 289.4C356.301 291.8 354.101 293.5 351.501 293.5ZM351.501 284.3C350.001 284.3 348.8 285.2 348.3 286.6C347.8 288.4 348.701 290.2 350.501 290.8C352.301 291.3 354.101 290.4 354.701 288.6C355.201 286.8 354.301 285 352.501 284.4C352.201 284.4 351.901 284.3 351.501 284.3Z" fill="#4F3429"/>
<path d="M255.2 209.2C263 209.2 269.4 215.6 269.4 223.4V246.8H241V223.4C241 215.5 247.3 209.2 255.2 209.2Z" fill="#4F3429"/>
<path d="M269.4 248H241C240.3 248 239.8 247.5 239.8 246.8V223.4C239.8 214.9 246.7 208 255.2 208C263.7 208 270.6 214.9 270.6 223.4V246.8C270.6 247.4 270.1 248 269.4 248ZM242.3 245.5H268.2V223.3C267.6 216.1 261.3 210.8 254.2 211.4C247.9 211.9 242.9 216.9 242.3 223.3V245.5Z" fill="#4F3429"/>
<path d="M308 256.3L306.9 301.6C306.8 305.1 306 308.6 304.4 311.7L280.2 359.6L279.2 361.6C275.2 369.6 267 374.6 258.1 374.6H251.6C242.7 374.6 234.5 369.6 230.5 361.6L229.5 359.6L205.3 311.7C203.7 308.6 202.8 305.1 202.8 301.6L201.7 256.3C201.4 243.3 211.7 232.4 224.7 232.1C224.9 232.1 225.1 232.1 225.3 232.1H284.5C297.5 232.1 308.1 242.6 308.1 255.7C308.1 255.9 308.1 256.1 308 256.3Z" fill="white"/>
<path d="M258.101 375.8H251.601C242.201 375.8 233.601 370.5 229.401 362.2L204.201 312.3C202.501 309 201.601 305.4 201.501 301.7L200.401 256.4C200.101 242.7 210.901 231.3 224.701 230.9C224.901 230.9 225.101 230.9 225.301 230.9H284.501C298.201 230.9 309.301 242 309.301 255.8C309.301 256 309.301 256.2 309.301 256.4L308.201 301.7C308.101 305.4 307.201 309 305.501 312.3L280.301 362.2C276.101 370.5 267.501 375.8 258.101 375.8ZM225.301 233.4C212.901 233.4 202.901 243.4 202.901 255.8C202.901 256 202.901 256.1 202.901 256.3L204.001 301.6C204.101 304.9 204.901 308.2 206.401 311.1L231.601 361C235.401 368.6 243.101 373.3 251.601 373.3H258.101C266.601 373.3 274.301 368.6 278.101 361L303.301 311.1C304.801 308.1 305.601 304.9 305.701 301.6L306.801 256.3C307.101 243.9 297.301 233.7 285.001 233.4C284.801 233.4 284.601 233.4 284.501 233.4H225.301Z" fill="#4F3429"/>
<path d="M280.2 317V359.6L279.2 361.6C275.2 369.6 267 374.6 258.1 374.6H251.6C242.7 374.6 234.5 369.6 230.5 361.6L229.5 359.6V317C229.2 303 240.3 291.4 254.3 291.2C268.3 290.9 279.9 302 280.1 316C280.2 316.3 280.2 316.7 280.2 317Z" fill="white"/>
<path d="M258.1 375.8H251.6C242.2 375.8 233.6 370.5 229.4 362.2L228.4 360.2C228.3 360 228.3 359.8 228.3 359.6V317C228.3 302.3 240.2 290.4 254.9 290.4C269.6 290.4 281.5 302.3 281.5 317V359.6C281.5 359.8 281.5 360 281.4 360.2L280.4 362.2C276.1 370.5 267.5 375.8 258.1 375.8ZM230.8 359.3L231.7 361C235.5 368.6 243.2 373.3 251.7 373.3H258.2C266.7 373.3 274.4 368.6 278.2 361L279.1 359.3V317C278.8 303.7 267.8 293.1 254.5 293.4C241.6 293.7 231.2 304.1 230.9 317L230.8 359.3Z" fill="#4F3429"/>
<path d="M235.5 273.9H202.3C201.6 274 201 273.5 201 272.8C200.9 272.1 201.4 271.5 202.1 271.5C202.2 271.5 202.2 271.5 202.3 271.5H234.3V232.5C234.3 231.8 234.9 231.3 235.5 231.3C236.2 231.3 236.7 231.9 236.7 232.5V272.7C236.8 273.4 236.3 273.9 235.5 273.9C235.6 273.9 235.6 273.9 235.5 273.9Z" fill="#4F3429"/>
<path d="M306.901 302.9H288.801C288.101 302.9 287.601 302.4 287.601 301.7V233.5C287.501 232.8 288.001 232.2 288.701 232.2C289.401 232.1 290.001 232.6 290.001 233.3C290.001 233.4 290.001 233.4 290.001 233.5V300.5H306.801C307.501 300.4 308.101 300.9 308.101 301.6C308.201 302.3 307.701 302.9 307.001 302.9C307.101 302.8 307.001 302.8 306.901 302.9Z" fill="#4F3429"/>
<path d="M235.1 262.1C237.972 262.1 240.3 259.772 240.3 256.9C240.3 254.028 237.972 251.7 235.1 251.7C232.229 251.7 229.9 254.028 229.9 256.9C229.9 259.772 232.229 262.1 235.1 262.1Z" fill="white"/>
<path d="M235.101 263.4C231.501 263.4 228.601 260.5 228.601 256.9C228.601 253.3 231.501 250.4 235.101 250.4C238.701 250.4 241.601 253.3 241.601 256.9C241.601 260.5 238.701 263.4 235.101 263.4ZM235.101 252.9C232.901 252.9 231.101 254.7 231.101 256.9C231.101 259.1 232.901 260.9 235.101 260.9C237.301 260.9 239.101 259.1 239.101 256.9C239.101 254.7 237.301 252.9 235.101 252.9Z" fill="#4F3429"/>
<path d="M289.4 292.9C292.272 292.9 294.6 290.572 294.6 287.7C294.6 284.828 292.272 282.5 289.4 282.5C286.528 282.5 284.2 284.828 284.2 287.7C284.2 290.572 286.528 292.9 289.4 292.9Z" fill="white"/>
<path d="M289.4 294.2C285.8 294.2 282.9 291.3 282.9 287.7C282.9 284.1 285.8 281.2 289.4 281.2C293 281.2 295.9 284.1 295.9 287.7C295.8 291.3 292.9 294.2 289.4 294.2ZM289.4 283.7C287.2 283.7 285.4 285.5 285.4 287.7C285.4 289.9 287.2 291.7 289.4 291.7C291.6 291.7 293.4 289.9 293.4 287.7C293.4 285.5 291.6 283.7 289.4 283.7Z" fill="#4F3429"/>
<path d="M279.6 352.4H259.1C258.4 352.4 257.9 351.8 257.9 351.2V318.2H229.5C228.8 318.2 228.3 317.6 228.3 317C228.3 316.3 228.9 315.8 229.5 315.8H259.1C259.8 315.8 260.3 316.4 260.3 317V350H279.5C280.2 350 280.7 350.6 280.7 351.2C280.9 351.8 280.3 352.4 279.6 352.4Z" fill="#4F3429"/>
<path d="M244.6 321.9C247.417 321.9 249.7 319.617 249.7 316.8C249.7 313.983 247.417 311.7 244.6 311.7C241.783 311.7 239.5 313.983 239.5 316.8C239.5 319.617 241.783 321.9 244.6 321.9Z" fill="white"/>
<path d="M244.6 323.2C241.1 323.2 238.2 320.3 238.2 316.8C238.2 313.3 241.1 310.4 244.6 310.4C248.1 310.4 251 313.3 251 316.8C251 320.4 248.1 323.2 244.6 323.2ZM244.6 312.9C242.4 312.9 240.7 314.7 240.7 316.8C240.7 319 242.5 320.7 244.6 320.7C246.8 320.7 248.5 318.9 248.5 316.8C248.5 314.7 246.7 312.9 244.6 312.9Z" fill="#4F3429"/>
<path d="M324.8 190.3C331.427 190.3 336.8 183.405 336.8 174.9C336.8 166.395 331.427 159.5 324.8 159.5C318.172 159.5 312.8 166.395 312.8 174.9C312.8 183.405 318.172 190.3 324.8 190.3Z" fill="white"/>
<path d="M324.8 191.5C317.5 191.5 311.5 184 311.5 174.9C311.5 165.8 317.5 158.3 324.8 158.3C332.1 158.3 338.1 165.8 338.1 174.9C338.1 184 332.1 191.5 324.8 191.5ZM324.8 160.7C318.8 160.7 314 167.1 314 174.8C314 182.5 318.9 189 324.8 189C330.7 189 335.6 182.6 335.6 174.8C335.6 167 330.7 160.7 324.8 160.7Z" fill="#4F3429"/>
<path d="M320.3 190.3C326.927 190.3 332.3 183.405 332.3 174.9C332.3 166.395 326.927 159.5 320.3 159.5C313.672 159.5 308.3 166.395 308.3 174.9C308.3 183.405 313.672 190.3 320.3 190.3Z" fill="#4F3429"/>
<path d="M308.5 201.3C319.877 201.3 329.1 189.48 329.1 174.9C329.1 160.32 319.877 148.5 308.5 148.5C297.123 148.5 287.9 160.32 287.9 174.9C287.9 189.48 297.123 201.3 308.5 201.3Z" fill="url(#paint2_linear_2087_495)"/>
<path d="M225.901 131.9H272.301C296.501 131.9 316.101 151.5 316.101 175.7C316.101 199.9 296.501 219.5 272.301 219.5H225.901C201.701 219.5 182.101 199.9 182.101 175.7C182.201 151.5 201.801 131.9 225.901 131.9Z" fill="white"/>
<path d="M272.3 220.7H225.9C201 220.7 180.9 200.6 180.9 175.7C180.9 150.8 201 130.7 225.9 130.7H272.3C297.2 130.7 317.3 150.8 317.3 175.7C317.3 200.6 297.2 220.7 272.3 220.7ZM225.9 133.1C202.4 134 184.1 153.7 185 177.2C185.8 199.4 203.7 217.3 225.9 218.1H272.3C295.8 219 315.5 200.7 316.4 177.2C317.3 153.7 299 134 275.5 133.1C274.4 133.1 273.4 133.1 272.3 133.1H225.9Z" fill="#4F3429"/>
<path d="M195.201 201.3C206.578 201.3 215.801 189.48 215.801 174.9C215.801 160.32 206.578 148.5 195.201 148.5C183.824 148.5 174.601 160.32 174.601 174.9C174.601 189.48 183.824 201.3 195.201 201.3Z" fill="url(#paint3_linear_2087_495)"/>
<path d="M183.4 190.3C190.082 190.3 195.5 183.405 195.5 174.9C195.5 166.395 190.082 159.5 183.4 159.5C176.717 159.5 171.3 166.395 171.3 174.9C171.3 183.405 176.717 190.3 183.4 190.3Z" fill="#4F3429"/>
<path d="M179.7 190.3C184.339 190.3 188.1 183.405 188.1 174.9C188.1 166.395 184.339 159.5 179.7 159.5C175.061 159.5 171.3 166.395 171.3 174.9C171.3 183.405 175.061 190.3 179.7 190.3Z" fill="white"/>
<path d="M179.7 191.5C174.3 191.5 170 184.2 170 174.9C170 165.6 174.2 158.3 179.7 158.3C185.2 158.3 189.4 165.6 189.4 174.9C189.4 184.2 185.1 191.5 179.7 191.5ZM179.7 160.7C175.8 160.7 172.5 167.2 172.5 174.8C172.5 182.4 175.8 189 179.7 189C183.6 189 186.9 182.5 186.9 174.8C186.9 167.1 183.6 160.7 179.7 160.7Z" fill="#4F3429"/>
<path d="M192.2 201.4C191.9 201.4 191.7 201.2 191.6 201C191.5 200.7 191.6 200.3 192 200.2C205.8 195.3 209.3 182.1 208.1 171.4C206.8 159.9 200.1 150.8 192.1 149.9C191.8 149.9 191.5 149.6 191.5 149.2C191.5 148.9 191.8 148.6 192.2 148.6C192.2 148.6 192.2 148.6 192.3 148.6C200.9 149.6 208 158.9 209.4 171.2C211.3 188.2 201.9 197.9 192.5 201.3C192.4 201.4 192.3 201.4 192.2 201.4Z" fill="white"/>
<path d="M240.601 153.7H289.901C299.501 153.7 307.401 161.5 307.401 171.2V178.9C307.401 188.5 299.601 196.4 289.901 196.4H240.601C231.001 196.4 223.101 188.6 223.101 178.9V171.2C223.101 161.5 230.901 153.7 240.601 153.7Z" fill="#4F3429"/>
<path d="M289.9 193.2H240.6C232.7 193.2 226.2 186.8 226.2 178.8V171.1C226.2 163.2 232.6 156.7 240.6 156.7H289.9C297.8 156.7 304.3 163.1 304.3 171.1V178.8C304.3 186.7 297.8 193.2 289.9 193.2ZM240.6 158C233.3 158 227.5 163.9 227.5 171.1V178.8C227.5 186.1 233.4 192 240.6 192H289.9C297.2 192 303 186.1 303 178.9V171.2C303 163.9 297.1 158 289.9 158H240.6Z" fill="white"/>
<path d="M258 170.2H253.3V165.5H245.4V170.2H240.7V178H245.4V182.7H253.3V178H258V170.2Z" fill="white"/>
<path d="M296.5 170.2H291.8V165.5H284V170.2H279.3V178H284V182.7H291.8V178H296.5V170.2Z" fill="white"/>
<path d="M258.1 375.8C283.9 375.8 304.7 396.7 304.7 422.4V432.1H211.4V422.4C211.5 396.7 232.4 375.8 258.1 375.8Z" fill="white"/>
<path d="M304.8 433.4H211.5C210.8 433.4 210.3 432.9 210.3 432.2V422.5C210.3 396.1 231.7 374.6 258.1 374.6C284.5 374.6 306 396 306 422.4V432.1C306 432.8 305.4 433.4 304.8 433.4ZM212.8 430.9H303.6V422.4C304 397.3 283.9 376.7 258.9 376.3C233.8 375.9 213.2 396 212.8 421C212.8 421.4 212.8 421.9 212.8 422.3V430.9Z" fill="#4F3429"/>
<path d="M338.501 433.4H200.901C200.201 433.5 199.601 433 199.601 432.3C199.501 431.6 200.001 431 200.701 431C200.801 431 200.801 431 200.901 431H338.501C339.201 430.9 339.801 431.4 339.801 432.1C339.901 432.8 339.401 433.4 338.701 433.4C338.601 433.4 338.501 433.4 338.501 433.4Z" fill="#4F3429"/>
<path d="M259.8 432.6C259.1 432.6 258.6 432.1 258.6 431.4V409H233C232.3 409 231.8 408.4 231.8 407.8V382.8C231.7 382.1 232.2 381.5 232.9 381.5C233.6 381.4 234.2 381.9 234.2 382.6C234.2 382.7 234.2 382.7 234.2 382.8V406.6H259.8C260.5 406.6 261 407.2 261 407.8V431.5C261 432 260.4 432.6 259.8 432.6Z" fill="#4F3429"/>
<path d="M245.8 412.1C248.341 412.1 250.4 410.04 250.4 407.5C250.4 404.959 248.341 402.9 245.8 402.9C243.26 402.9 241.2 404.959 241.2 407.5C241.2 410.04 243.26 412.1 245.8 412.1Z" fill="white"/>
<path d="M245.8 413.3C242.6 413.3 240 410.7 240 407.5C240 404.3 242.6 401.7 245.8 401.7C249 401.7 251.6 404.3 251.6 407.5C251.6 410.7 249 413.3 245.8 413.3ZM245.8 404.2C244 404.2 242.5 405.7 242.5 407.5C242.5 409.3 244 410.8 245.8 410.8C247.6 410.8 249.1 409.3 249.1 407.5C249.1 405.7 247.6 404.2 245.8 404.2Z" fill="#4F3429"/>
<path d="M294.8 396.1H269.9C269.2 396.1 268.7 395.5 268.7 394.9V378.5C268.7 377.8 269.3 377.3 269.9 377.3C270.6 377.3 271.1 377.9 271.1 378.5V393.7H294.7C295.4 393.6 296 394.1 296 394.8C296.1 395.5 295.6 396.1 294.9 396.1C294.9 396.1 294.9 396.1 294.8 396.1Z" fill="#4F3429"/>
<path d="M117.8 149.3H117.6C115.6 149.3 114.9 148.4 114.8 147.7C114.4 145.6 121.7 137.4 123.9 135V134.9C123.6 134.7 123.3 134.6 123 134.4C111.8 128.3 97.5 130 80.5 139.3C79 140.1 78.6 140.3 78.2 140.3C77.5 140.3 77 139.7 77 139.1C77 138.5 77.4 138 78 137.9C78.2 137.8 78.8 137.5 79.4 137.2C97.2 127.4 112.3 125.7 124.3 132.3C124.8 132.6 125.3 132.9 125.7 133.1C138.6 119.6 153.4 108.1 169.7 98.9C194.1 85.3 218.4 80 242 83C242.7 83.1 243.1 83.7 243 84.4C242.9 85.1 242.3 85.5 241.6 85.5C205.9 81 174.4 97.2 154.3 111.5C144.7 118.3 135.8 126 127.7 134.5C130.7 136.8 131.9 139.3 131.2 141.8C129.9 146.4 121.8 149.3 117.8 149.3ZM117.5 146.8C119.8 146.9 126.8 145.1 128.6 141.7C129.6 139.8 128.1 137.8 126 136.2C121.3 141.3 118.4 145.2 117.5 146.8Z" fill="#4F3429"/>
<path d="M250.5 84.8C260.3 85.5 268.1 93.2 269.1 102.9C270.1 93.1 277.9 85.5 287.7 84.8C277.9 84.1 270.1 76.4 269.1 66.7C268.2 76.4 260.3 84 250.5 84.8Z" fill="#FED490"/>
<path d="M233.8 101.2C239.1 101.6 243.3 105.7 243.8 110.9C244.3 105.7 248.5 101.6 253.8 101.2C248.5 100.8 244.3 96.7 243.8 91.5C243.2 96.7 239 100.8 233.8 101.2Z" fill="#FED490"/>
<path d="M130.8 369.2H130.7C130 369.1 62 361.2 10.5 319.1C10.2 318.9 10 318.5 10 318.1L13.9 127.7C13.9 127 14.4 126.5 15.1 126.5C15.1 126.5 15.1 126.5 15.2 126.5C15.9 126.5 16.4 127.1 16.4 127.7L12.5 317.5C59.4 355.5 119.8 365.1 129.6 366.5L132.8 161C104.5 161.4 76.3 155.5 53.1 144.5C33 135 18.8 122.4 16.1 111.7C14.5 105.5 17 100.3 23.1 97.1999C56.5 79.8999 172.1 108.1 177 109.3C177.6 109.4 178 110 177.9 110.6L173 158C172.9 158.7 172.2 159.1 171.6 159C171 158.9 170.6 158.4 170.6 157.7L175.4 111.3C163.5 108.5 55.2 83.1999 24.3 99.2999C19.2 102 17.3 105.9 18.6 111C23.6 130.6 72.2 159.6 134.1 158.4C134.4 158.4 134.7 158.5 135 158.8C135.2 159 135.4 159.4 135.4 159.7L132 368C132 368.7 131.5 369.2 130.8 369.2Z" fill="#4F3429"/>
<path d="M22.2998 250.1C22.2998 250.1 75.6998 278 118.1 282.6L117.8 355.6C117.8 355.6 56.8998 343.6 22.3998 311.4L22.2998 250.1Z" fill="url(#paint4_linear_2087_495)"/>
<path d="M23.2998 239.6L23.5998 215.5C23.5998 215.5 67.4998 244.7 119.5 250.7L119 271.7C119 271.8 48.0998 258.4 23.2998 239.6Z" fill="#FED490"/>
<path d="M175.3 128.3H175.1C174.4 128.2 102.4 115.3 68.7003 112.4C35.9003 109.6 28.1004 120.3 28.1004 120.4C27.7004 121 27.0004 121.1 26.4004 120.7C25.8004 120.3 25.7004 119.6 26.1004 119C26.4004 118.5 34.5004 106.9 69.0004 109.9C102.9 112.8 174.9 125.7 175.6 125.8C176.3 125.9 176.7 126.6 176.6 127.2C176.4 127.9 175.9 128.3 175.3 128.3Z" fill="#4F3429"/>
<path d="M359 380.9C353.6 380.9 350.4 380.8 350.3 380.8C349.7 380.8 349.1 380.2 349.1 379.6L345.3 204.9C345.3 204.6 345.4 204.2 345.7 204C345.9 203.8 346.2 203.6 346.6 203.6C347.8 203.6 467.8 202.6 485.4 169.5C489.1 162.6 487.9 154.7 482.1 145.9C455.3 105.5 324.8 106.4 323.5 106.4C322.8 106.4 322.3 105.9 322.3 105.2C322.3 105.2 322.3 105.2 322.3 105.1C322.3 104.4 322.8 103.9 323.5 103.9C346.8 103.9 370.1 105.4 393.2 108.4C442 114.8 472.6 127 484.2 144.5C490.6 154.2 491.7 163 487.6 170.7C470 203.6 361.6 205.9 347.9 206L351.6 378.3C362.5 378.6 447.6 379.9 479.3 344.1L486.6 183.2C486.6 182.5 487.2 182 487.9 182C488.6 182 489.1 182.6 489.1 183.3L481.7 344.6C481.7 344.9 481.6 345.1 481.4 345.4C463.5 366.1 428.7 374.6 402.8 378.1C388.2 379.9 373.6 380.9 359 380.9Z" fill="#4F3429"/>
<path d="M373.9 367.4C371.2 367.4 368.5 367.3 365.7 367.2C365 367.2 364.5 366.6 364.5 366V317.2C364.5 316.9 364.6 316.5 364.9 316.3C365.2 316.1 365.5 315.9 365.9 316C366.5 316 426.5 320.8 466.1 292.5C466.5 292.2 467 292.2 467.4 292.4C467.8 292.6 468.1 293.1 468 293.6L465.2 339.9C465.2 340.3 465 340.6 464.7 340.8C464.4 341.1 429.5 367.4 373.9 367.4ZM367 364.8C422.3 367 458.4 342.3 462.8 339.2L465.4 296C428.5 320.9 376 319.1 367 318.5V364.8Z" fill="#4F3429"/>
<path d="M388.4 301.2C381.5 301.2 374.7 300.8 367.8 300.1L366.7 300C366 300 365.5 299.4 365.5 298.8C365.5 298.1 366.1 297.6 366.7 297.6C366.9 297.6 367.3 297.6 368.1 297.7C388.3 299.9 427.5 300.7 461.8 280.8C462.4 280.5 463.2 280.8 463.5 281.4C463.8 282 463.6 282.6 463.1 283C437.6 297.6 409.6 301.2 388.4 301.2Z" fill="#4F3429"/>
<path d="M388.9 333.5C383.6 333.5 378.3 333.3 373 332.7C372.3 332.6 371.8 332 371.9 331.3C372 330.6 372.6 330.2 373.3 330.2C373.8 330.3 421.3 336 457.4 314.9C458 314.5 458.7 314.7 459.1 315.3C459.5 315.9 459.3 316.6 458.7 317H458.6C434.9 331 406.3 333.5 388.9 333.5Z" fill="#4F3429"/>
<path d="M375.6 348.6H374.4C373.7 348.6 373.2 348 373.2 347.3C373.2 346.6 373.8 346.1 374.5 346.1C374.9 346.1 414.4 346.8 441.8 334C442.5 333.8 443.1 334.2 443.3 334.8C443.5 335.3 443.2 335.9 442.8 336.2C417.5 348 382.5 348.6 375.6 348.6Z" fill="#4F3429"/>
<defs>
<linearGradient id="paint0_linear_2087_495" x1="64.8635" y1="183.619" x2="139.195" y2="183.619" gradientUnits="userSpaceOnUse">
<stop stop-color="#F38374"/>
<stop offset="1" stop-color="#C64234"/>
</linearGradient>
<linearGradient id="paint1_linear_2087_495" x1="497.114" y1="250.179" x2="425.757" y2="227.88" gradientUnits="userSpaceOnUse">
<stop stop-color="#F38374"/>
<stop offset="1" stop-color="#C64234"/>
</linearGradient>
<linearGradient id="paint2_linear_2087_495" x1="329.15" y1="174.85" x2="287.891" y2="174.85" gradientUnits="userSpaceOnUse">
<stop stop-color="#F38374"/>
<stop offset="1" stop-color="#C64234"/>
</linearGradient>
<linearGradient id="paint3_linear_2087_495" x1="174.561" y1="174.85" x2="215.821" y2="174.85" gradientUnits="userSpaceOnUse">
<stop stop-color="#F38374"/>
<stop offset="1" stop-color="#C64234"/>
</linearGradient>
<linearGradient id="paint4_linear_2087_495" x1="82.7218" y1="182.57" x2="62.1718" y2="377.74" gradientUnits="userSpaceOnUse">
<stop stop-color="#F38374"/>
<stop offset="1" stop-color="#C64234"/>
</linearGradient>
</defs>
</svg>
