<svg width="500" height="500" viewBox="0 0 500 500" fill="none" xmlns="http://www.w3.org/2000/svg">
<path d="M56.8994 312.9H455.399C473.899 312.9 488.899 327.9 488.899 346.4C488.899 364.9 473.899 379.9 455.399 379.9H56.8994C38.3994 379.9 23.3994 364.9 23.3994 346.4C23.3994 327.9 38.3994 312.9 56.8994 312.9Z" fill="white"/>
<path d="M455.4 381H56.8999C37.7999 380.7 22.5999 364.9 22.8999 345.8C23.1999 327.2 38.1999 312.1 56.8999 311.8H455.4C474.5 312.1 489.7 327.9 489.4 347C489.1 365.7 474.1 380.7 455.4 381ZM56.8999 314C38.9999 314 24.3999 328.6 24.3999 346.5C24.3999 364.4 38.9999 379 56.8999 379H455.4C473.3 379 487.9 364.4 487.9 346.5C487.9 328.6 473.4 314 455.4 314H56.8999Z" fill="#4F3429"/>
<path d="M56.8998 369.5C44.0998 369.5 33.7998 359.2 33.7998 346.4C33.7998 333.6 44.0998 323.3 56.8998 323.3H321.4C334.2 323.3 344.5 333.6 344.5 346.4C344.5 359.2 334.2 369.5 321.4 369.5H56.8998Z" fill="url(#paint0_linear_2086_234)"/>
<path d="M455.4 370.5H56.8998C43.5998 370.5 32.7998 359.7 32.7998 346.4C32.7998 333.1 43.5998 322.3 56.8998 322.3H455.4C468.7 322.3 479.5 333.1 479.5 346.4C479.6 359.7 468.8 370.5 455.4 370.5ZM56.8998 324.3C44.6998 324 34.5998 333.7 34.3998 345.9C34.0998 358.1 43.7998 368.2 55.9998 368.4C56.2998 368.4 56.5998 368.4 56.8998 368.4H455.4C467.6 368.1 477.2 358.1 477 345.9C476.7 334.1 467.2 324.6 455.4 324.3H56.8998Z" fill="#4F3429"/>
<path d="M240.4 363.7C239.8 363.7 239.4 363.3 239.4 362.7C239.4 355.5 243 347.9 249.8 340.7C252.2 338.2 254.7 335.9 257.5 333.8H239.9L241.8 338.6C242 339.1 241.8 339.7 241.2 339.9C240.7 340.1 240.1 339.9 239.9 339.3L237.4 333.1C237.2 332.6 237.4 332 237.9 331.8C238.1 331.7 238.3 331.7 238.4 331.7H260.7C261.2 331.5 261.8 331.8 261.9 332.4C262.1 332.9 261.8 333.5 261.2 333.6C261 333.7 241.3 346.6 241.3 362.7C241.5 363.2 241 363.7 240.4 363.7Z" fill="white"/>
<path d="M271.899 364C270.599 364 269.399 363.8 268.199 363.4C266.299 362.8 264.799 361.4 264.099 359.6C262.399 355.5 264.899 350.2 264.999 350C265.199 349.5 265.899 349.3 266.399 349.5C266.899 349.7 267.099 350.4 266.899 350.9C266.899 350.9 264.699 355.6 265.999 358.9C266.499 360.2 267.599 361.2 268.899 361.6C273.199 363.2 279.099 361 282.199 356.7C284.899 353 284.799 348.8 281.899 345.1C276.199 337.8 266.599 343.5 266.199 343.7C265.899 343.9 265.499 343.9 265.199 343.7C264.899 343.5 264.699 343.2 264.699 342.8V332.8C264.699 332.2 265.099 331.8 265.699 331.8H283.299C283.899 331.8 284.299 332.2 284.299 332.8V335.8C284.299 336.4 283.799 336.8 283.299 336.8C282.699 336.8 282.299 336.3 282.299 335.8V333.8H266.899V341.1C270.299 339.6 278.399 337 283.699 343.8C287.199 348.3 287.299 353.4 283.999 357.9C281.099 361.6 276.699 363.9 271.899 364Z" fill="white"/>
<path d="M296 361C295.8 361 295.6 360.9 295.4 360.8C294.9 360.5 294.8 359.8 295.2 359.3L314.6 332.1C314.9 331.6 315.5 331.5 316 331.8C316 331.8 316 331.8 316.1 331.8C316.6 332.1 316.7 332.7 316.4 333.2C316.4 333.2 316.4 333.2 316.4 333.3L297 360.5C296.7 360.8 296.3 361 296 361Z" fill="white"/>
<path d="M301.499 339.4C298.899 339.4 296.899 337.3 296.899 334.8C296.899 332.3 298.999 330.2 301.499 330.2C303.999 330.2 306.099 332.3 306.099 334.8C306.099 337.3 303.999 339.4 301.499 339.4ZM301.499 332.2C300.099 332.2 298.899 333.3 298.899 334.7C298.899 336.1 299.999 337.3 301.399 337.3C302.799 337.3 303.999 336.2 303.999 334.8C303.999 333.4 302.899 332.3 301.499 332.2Z" fill="white"/>
<path d="M313.9 360.5C310.2 360.5 307.2 357.5 307.2 353.9C307.2 350.2 310.2 347.2 313.8 347.2C317.5 347.2 320.5 350.2 320.5 353.8C320.6 357.5 317.6 360.5 313.9 360.5ZM313.9 349.3C311.4 349.3 309.3 351.3 309.3 353.9C309.3 356.4 311.3 358.5 313.9 358.5C316.4 358.5 318.5 356.5 318.5 353.9C318.5 351.3 316.4 349.3 313.9 349.3Z" fill="white"/>
<path d="M312.5 170.9C312.5 170.9 295.2 166.3 286.1 175.3L270.4 196L224 176L226.7 241.2L302.1 247.1L312.5 170.9Z" fill="url(#paint1_linear_2086_234)"/>
<path d="M307.601 141.4C310.001 143.1 312.801 144.2 315.701 144.4C319.201 144.6 322.701 143.5 325.401 141.2C325.901 146.1 331.601 150.9 333.401 149.3C333.401 149.3 333.401 142.6 339.401 142.8C344.501 143 345.401 151.5 342.001 154.2C341.501 154.6 340.801 154.9 340.201 155C340.201 155 340.701 159.5 341.201 164.8C333.101 173 320.001 173.1 311.801 165C305.501 158.8 303.801 149.4 307.601 141.4Z" fill="#FFC2A7"/>
<path d="M307.601 141.4C310.001 143.1 312.801 144.2 315.701 144.4C319.201 144.6 322.701 143.5 325.401 141.2C325.901 146.1 331.601 150.9 333.401 149.3C333.401 149.3 333.401 142.6 339.401 142.8C344.501 143 345.401 151.5 342.001 154.2C341.501 154.6 340.801 154.9 340.201 155C340.201 155 336.901 162.9 341.201 164.8C343.701 162.3 345.401 159.2 346.401 155.9C347.001 153.8 347.301 151.6 347.201 149.4C346.701 137.9 337.101 129 325.601 129.5C317.801 129.7 310.901 134.3 307.601 141.4Z" fill="#FFC2A7"/>
<path d="M305.981 159.771C309.401 158.681 311.78 156.561 311.294 155.035C310.808 153.509 307.641 153.155 304.221 154.245C300.8 155.334 298.421 157.455 298.907 158.981C299.394 160.507 302.56 160.861 305.981 159.771Z" fill="#FFC2A7"/>
<path d="M302.1 129C301.8 116.3 321.9 116.8 323.3 124.9C323.3 124.9 340.7 119.9 345.8 132.1C352.5 131.6 356.7 141.2 353.5 146C356 155.5 350.3 164.5 341.2 164.7C341.1 161.4 340.7 158.1 340.2 154.9C340.9 154.8 341.5 154.6 342 154.1C345.4 151.4 344.5 142.9 339.4 142.7C333.5 142.5 333.4 149.2 333.4 149.2C331.5 150.8 325.9 146 325.4 141.1C319.2 145.8 308.2 148.2 305.1 143.3C289.4 148.5 291.1 123.8 302.1 129Z" fill="#4F3429"/>
<path d="M338.1 153.4C340 153.3 341.5 151.7 341.4 149.7C341.3 147.7 339.7 146.3 337.7 146.4C337.4 146.4 337.1 146.5 336.9 146.5L338.2 147.5C338.2 147.4 338.2 147.3 338.2 147.2C338.2 147.4 338.2 147.1 338.2 147.1C338.3 146.9 338.1 147.2 338.2 147C338.2 146.9 338.3 146.8 338.3 146.8C338.2 146.9 338.4 146.7 338.4 146.7C338.4 146.7 338.4 146.7 338.5 146.6L338.7 146.5H338.8C339 146.5 338.9 146.5 338.8 146.5H339.1C338.9 146.5 339.2 146.5 339.2 146.5C339.2 146.5 339.5 146.6 339.3 146.5L339.5 146.6C339.7 146.7 339.4 146.5 339.6 146.7L339.8 146.9C339.8 147 339.9 147 339.9 147.1C340.2 147.6 340.8 147.8 341.3 147.5C341.8 147.2 342 146.6 341.7 146.1C340.9 144.6 339 144 337.5 144.9C336.5 145.5 335.8 146.6 335.9 147.7C335.9 148.3 336.4 148.7 337 148.7C337.1 148.7 337.2 148.7 337.2 148.7L337.4 148.6C337.7 148.5 337.3 148.6 337.5 148.6H337.9C338 148.6 337.8 148.6 338 148.6H338.2L338.4 148.7C338.2 148.6 338.4 148.7 338.5 148.7L338.7 148.8C338.8 148.9 338.6 148.7 338.8 148.9L338.9 149C339.1 149.2 339.2 149.4 339.2 149.7C339.2 149.8 339.2 149.8 339.2 149.7C339.2 149.8 339.2 149.8 339.2 149.9C339.2 150 339.2 150.2 339.2 150.1C339.2 150 339.2 150.2 339.2 150.2L339.1 150.4C339.1 150.6 339.2 150.2 339.1 150.5C339 150.6 339 150.7 338.9 150.8C339 150.7 338.9 150.8 338.8 150.9L338.7 151C338.8 150.9 338.6 151.1 338.7 151L338.5 151.1L338.3 151.2L338.1 151.3C337.9 151.3 338.3 151.3 338 151.3C337.4 151.3 337 151.8 337 152.3C337 152.9 337.5 153.3 338 153.3V153.4H338.1Z" fill="#D88260"/>
<path d="M315.451 152.029C315.736 150.397 314.82 148.874 313.406 148.627C311.991 148.38 310.614 149.504 310.329 151.136C310.044 152.768 310.96 154.291 312.375 154.538C313.789 154.784 315.167 153.661 315.451 152.029Z" fill="white"/>
<path d="M314.054 151.91C314.244 150.822 313.648 149.809 312.723 149.648C311.798 149.486 310.895 150.238 310.705 151.326C310.515 152.414 311.111 153.427 312.036 153.588C312.961 153.749 313.865 152.998 314.054 151.91Z" fill="#005045"/>
<path d="M318.201 163.8C316.601 163.8 315.101 163.3 313.801 162.6C313.301 162.3 313.101 161.7 313.401 161.2C313.701 160.7 314.301 160.5 314.801 160.8C316.301 161.7 318.101 162 319.801 161.5C321.501 160.8 322.901 159.5 323.701 157.8C323.901 157.3 324.501 157 325.001 157.2H325.101C325.601 157.4 325.901 158.1 325.601 158.6C324.601 160.8 322.701 162.5 320.501 163.4C319.701 163.6 319.001 163.8 318.201 163.8Z" fill="#D88260"/>
<path d="M325.801 159.3C325.501 159.3 325.201 159.3 325.001 159.2C323.601 158.8 322.501 157.8 321.901 156.5C321.601 156 321.801 155.4 322.301 155.1H322.401C322.901 154.9 323.501 155.1 323.801 155.6C324.101 156.3 324.801 156.9 325.501 157.2C326.301 157.3 327.101 157 327.601 156.4C328.001 156 328.601 156.1 329.001 156.5C329.001 156.5 329.001 156.5 329.101 156.6C329.501 157 329.401 157.6 329.001 158C329.001 158 329.001 158 328.901 158C328.101 158.8 327.001 159.3 325.801 159.3Z" fill="#D88260"/>
<path d="M298.601 247.1L280.801 201C274.101 183.5 255.401 173.8 237.201 178.3C218.401 182.9 202.701 201 201.901 223.6L199.301 300.4L298.601 247.1Z" fill="url(#paint2_linear_2086_234)"/>
<path d="M139.601 294L207.501 241.9C207.501 241.9 229.201 226.8 263.801 229.7L315.701 237.1C336.601 240.1 351.201 259.4 348.401 280.4C345.601 301.5 326.201 316.3 305.101 313.5C304.301 313.4 303.601 313.3 302.801 313.1L246.401 302L178.601 344.6L139.601 294Z" fill="url(#paint3_linear_2086_234)"/>
<path d="M178.6 344.6C174.8 347.5 170.7 350.1 166.6 352.5C166.6 352.5 92.9999 309 119.3 305.6C125.7 305.6 129.5 302.2 139.6 293.9C152.6 311 169 332 178.6 344.6Z" fill="#FFC2A7"/>
<path d="M166.6 352.5L138 369.6L87.4004 304.1L119.3 305.6C119.3 305.6 110.5 310.2 129.6 323.2C153.8 339.7 172 347 166.6 352.5Z" fill="#4F3429"/>
<path d="M169.6 308.2C169.3 308.2 169 308 168.8 307.8C168.5 307.3 168.6 306.7 169 306.3L219 270.2C219.2 270.1 240.7 252.6 272.5 253.9C272.6 253.9 272.6 253.9 272.7 253.9L348.7 273.9C349.3 274 349.6 274.6 349.4 275.2C349.3 275.8 348.7 276.1 348.1 275.9L272.2 256C241.4 254.7 220.4 271.7 220.2 271.9L170.2 308C170 308.1 169.8 308.2 169.6 308.2Z" fill="white"/>
<path d="M190.701 336.7C190.401 336.7 190.101 336.6 189.901 336.3L151.301 286.7C150.901 286.3 151.001 285.6 151.401 285.3C151.401 285.3 151.401 285.3 151.501 285.2C151.901 284.8 152.601 284.9 152.901 285.3C152.901 285.3 152.901 285.3 153.001 285.4L191.601 335C192.001 335.4 192.001 336 191.601 336.4C191.201 336.6 191.001 336.7 190.701 336.7Z" fill="#4F3429"/>
<path d="M200.901 248C200.601 248 200.201 247.8 200.001 247.6C199.701 247.2 199.801 246.5 200.201 246.2C200.201 246.2 200.201 246.2 200.301 246.2C200.601 246 230.601 225.2 260.701 229.1L292.701 233.7C293.301 233.8 293.701 234.3 293.601 234.9C293.501 235.5 293.001 235.9 292.401 235.8L260.401 231.2C231.101 227.5 201.701 247.8 201.401 248C201.301 247.9 201.101 248 200.901 248Z" fill="#4F3429"/>
<path d="M370.5 329.6C370.5 329.6 382.9 350 432.3 346.5C435.7 346.3 439.2 356.9 442 359.1C444.8 361.3 449.1 360.6 449.9 358C449.9 358 454.9 360.4 458.8 357C461.1 355.3 461.8 352.2 460.7 349.6L454.1 337L461.7 337.1C461.7 337.1 465.8 335.7 463.2 330.8C463.2 330.8 457.6 327.6 455.8 326.4C454 325.2 447.6 316 441.1 312.2C434.6 308.4 420.6 301 420.6 301L370.5 329.6Z" fill="#FFC2A7"/>
<path d="M453.9 336.8C453.4 336.8 453 336.5 452.9 336.1C452.9 336 449.9 326.3 445.4 319.9C445.1 319.4 445.2 318.8 445.7 318.5C446.2 318.2 446.8 318.3 447.1 318.8C451.7 325.4 454.7 335.2 454.8 335.6C455 336.1 454.7 336.7 454.2 336.9H454.1C454.1 336.8 454 336.8 453.9 336.8Z" fill="#D88260"/>
<path d="M449.8 358.9C449.3 358.9 448.9 358.6 448.8 358.1C448.8 358 445.8 344 443.2 339.9C440.6 335.8 434.3 331.8 434.2 331.7C433.7 331.4 433.6 330.7 433.9 330.3C434.2 329.9 434.9 329.7 435.3 330C435.6 330.2 442.1 334.4 444.9 338.8C447.7 343.2 450.7 357.1 450.8 357.7C450.9 358.2 450.6 358.8 450.1 358.9H450H449.8Z" fill="#D88260"/>
<path d="M440.4 354.4C440.4 354.4 437.5 357.7 432 356C426.5 354.3 422.9 342.6 413 340.1C413 340 431.1 332 440.4 354.4Z" fill="#FFC2A7"/>
<path d="M440.401 355.5C440.001 355.5 439.601 355.3 439.401 354.9C439.401 354.8 435.601 345.8 432.901 343.1C430.001 340.3 426.301 336.8 426.301 336.8L427.701 335.3C427.701 335.3 431.401 338.8 434.301 341.7C437.201 344.6 441.101 353.8 441.201 354.2C441.401 354.7 441.201 355.3 440.601 355.6C440.701 355.4 440.601 355.5 440.401 355.5Z" fill="#D88260"/>
<path d="M331.301 248.8L311.901 245.2C301.901 243.3 294.501 234.8 294.001 224.6L292.301 185.3C292.301 185.3 290.201 168.1 312.501 171L357.701 179.4C357.701 179.4 365.401 182.2 361.001 204.6L356.901 230.6C355.001 242.6 343.801 250.7 331.901 248.9C331.701 248.8 331.501 248.8 331.301 248.8Z" fill="url(#paint4_linear_2086_234)"/>
<path d="M357.7 179.4C357.7 179.4 372.2 185 376.9 199L422 301.6L369.4 330.1L334.2 246.3L357.7 179.4Z" fill="url(#paint5_linear_2086_234)"/>
<path d="M321 209.7C320 209.7 319 209.7 318 209.6C311 209 306.6 206.6 304.7 202.4C300 191.5 314.6 172.8 315.3 172C315.6 171.6 316.3 171.5 316.7 171.8C316.7 171.8 316.7 171.8 316.8 171.8C317.2 172.1 317.4 172.7 317 173.2C317 173.2 317 173.3 316.9 173.3C316.8 173.5 302.4 191.8 306.6 201.6C308.1 205.1 312 207.1 318.1 207.6C345.6 209.8 356.5 179.4 356.6 179.1C356.8 178.5 357.4 178.3 357.9 178.4C358.4 178.5 358.7 179.2 358.6 179.7C358.6 180 347.9 209.7 321 209.7Z" fill="#FED490"/>
<path d="M358.9 308.3C358.3 308.4 357.9 307.9 357.8 307.4C357.8 307.1 357.9 306.8 358.1 306.6C358.2 306.5 366.3 295.9 374 283.9C386.6 264 388.1 255.6 387.1 252.1C386.8 250.9 386 249.9 384.9 249.5C371.1 243.8 341.3 260.5 341 260.6C340.5 260.9 339.9 260.7 339.6 260.2C339.3 259.7 339.5 259.1 340 258.8C341.3 258.1 371 241.4 385.7 247.6C387.4 248.3 388.7 249.8 389.1 251.6C392.7 265.1 361.1 306.2 359.7 308C359.6 308.2 359.2 308.3 358.9 308.3Z" fill="#FED490"/>
<path d="M380.1 283.8C383.469 283.8 386.2 281.069 386.2 277.7C386.2 274.331 383.469 271.6 380.1 271.6C376.731 271.6 374 274.331 374 277.7C374 281.069 376.731 283.8 380.1 283.8Z" fill="#FED490"/>
<path d="M335.8 250C335.3 250 334.9 249.7 334.8 249.2L327.6 219.4V219.3C327.5 218.6 326 201.4 337.6 192.5C338.1 192.1 338.7 192.2 339.1 192.7C339.5 193.2 339.4 193.8 338.9 194.2C328.5 202.1 329.6 217.9 329.7 219.1L336.9 248.8C337 249.4 336.7 249.9 336.1 250.1C336 250 335.9 250 335.8 250Z" fill="#4F3429"/>
<path d="M286.401 217.3C285.801 217.3 285.401 216.9 285.401 216.3C284.401 196.2 293.301 178 293.401 177.8C293.701 177.3 294.301 177.1 294.801 177.3C295.301 177.6 295.501 178.2 295.301 178.7C295.201 178.9 286.601 196.6 287.501 216.2C287.501 216.8 287.101 217.2 286.601 217.3C286.601 217.2 286.601 217.3 286.401 217.3Z" fill="#4F3429"/>
<path d="M248.5 219L282 217.3C286.6 217.1 290.1 213.2 289.9 208.6C289.9 207.8 289.7 207.1 289.5 206.3L267.6 142.3C266.4 138.8 263 136.5 259.3 136.7L225.7 138.5C221.1 138.7 217.6 142.7 217.8 147.2C217.8 148 218 148.7 218.2 149.5L240.1 213.5C241.4 216.9 244.8 219.2 248.5 219Z" fill="#4F3429"/>
<path d="M248 220.1C244 220.1 240.5 217.6 239.2 213.8L217.3 149.8C215.6 144.9 218.2 139.6 223.1 137.9C223.9 137.6 224.8 137.5 225.6 137.4L259.2 135.6C263.4 135.4 267.2 138 268.5 141.9L290.4 205.9C292.1 210.8 289.5 216.1 284.6 217.8C283.8 218.1 282.9 218.2 282.1 218.3L248.5 220.1H248ZM259.6 137.7H259.2L225.6 139.5C221.6 139.7 218.5 143.1 218.7 147.1C218.7 147.8 218.9 148.4 219.1 149.1L241 213.1C242.1 216.2 245 218.2 248.2 218L281.8 216.2C285.8 216 288.9 212.6 288.7 208.6C288.7 207.9 288.5 207.3 288.3 206.6L266.4 142.6C265.5 139.7 262.8 137.7 259.6 137.7Z" fill="#4F3429"/>
<path d="M243 219.3L276.6 217.5C281.2 217.3 284.7 213.3 284.5 208.8C284.5 208 284.3 207.3 284.1 206.5L262.2 142.5C261 139 257.6 136.7 253.9 136.9L220.3 138.7C215.7 138.9 212.2 142.9 212.4 147.4C212.4 148.2 212.6 148.9 212.8 149.7L234.7 213.7C235.9 217.2 239.3 219.5 243 219.3Z" fill="white"/>
<path d="M242.5 220.4C238.5 220.4 235 217.9 233.7 214.1L211.8 150.1C210.1 145.2 212.7 139.9 217.6 138.2C218.4 137.9 219.3 137.8 220.1 137.7L253.7 136C257.9 135.8 261.7 138.4 263 142.3L284.9 206.3C286.6 211.2 284 216.5 279.1 218.2C278.3 218.5 277.4 218.6 276.6 218.7L243 220.4H242.5ZM254.2 138H253.8L220.2 139.8C216.2 140 213.1 143.4 213.3 147.4C213.3 148.1 213.5 148.7 213.7 149.4L235.6 213.4C236.6 216.5 239.6 218.5 242.8 218.3L276.4 216.5C280.4 216.3 283.5 212.9 283.3 208.9C283.3 208.2 283.1 207.6 282.9 206.9L261 142.9C260.1 140 257.3 138 254.2 138Z" fill="#4F3429"/>
<path d="M239.9 151.1L251.1 150.5C253.2 150.4 254.9 148.6 254.8 146.4C254.8 146 254.7 145.6 254.5 145.2C253.9 143.6 252.3 142.6 250.7 142.7L239.5 143.3C237.4 143.4 235.7 145.2 235.8 147.4C235.8 147.8 235.9 148.2 236.1 148.6C236.6 150.2 238.2 151.2 239.9 151.1Z" fill="#4F3429"/>
<path d="M250.4 150.5H251.1C253.2 150.4 254.9 148.6 254.8 146.4C254.8 146 254.7 145.6 254.5 145.2C253.9 143.6 252.3 142.6 250.7 142.7H250C247.8 142.8 246.2 144.7 246.3 146.8C246.3 147.2 246.4 147.6 246.6 148C247.2 149.6 248.7 150.6 250.4 150.5Z" fill="white"/>
<path d="M250.2 151.6C248.2 151.6 246.3 150.4 245.6 148.5C244.6 146 245.9 143.1 248.4 142.1C248.9 141.9 249.4 141.8 249.9 141.8H250.6C252.7 141.7 254.7 143 255.5 144.9C256.5 147.4 255.2 150.3 252.7 151.3C252.2 151.5 251.7 151.6 251.2 151.6H250.5H250.2ZM250.9 143.8H250.7H250C248.4 143.9 247.2 145.2 247.3 146.8C247.4 148.4 248.7 149.6 250.3 149.5H251C251.9 149.5 252.8 149 253.3 148.2C254.2 146.9 253.8 145.1 252.4 144.3C251.9 143.9 251.4 143.7 250.9 143.8Z" fill="#4F3429"/>
<path d="M197.601 173.8C197.601 173.8 198.401 164.5 204.001 159.9C208.201 156.4 216.301 154.3 226.701 156.4C234.701 158 249.201 162 253.801 166.2C258.401 170.5 257.901 176.8 252.401 178C252.401 178 262.301 187.4 255.001 195.3C255.001 195.3 259.701 201.8 254.501 207.4C249.301 213 243.601 212 236.101 219C232.001 222.4 222.401 222.8 211.801 211.5C201.201 200.2 197.601 173.8 197.601 173.8Z" fill="#FFC2A7"/>
<path d="M197.901 171.8C197.901 171.8 193.901 150.7 202.301 144.3C210.701 137.9 215.701 146 216.901 149.3C218.101 152.6 219.001 157.1 214.301 160.4C209.601 163.7 197.901 171.8 197.901 171.8Z" fill="#FFC2A7"/>
<path d="M197.601 174.8C197.501 174.8 197.401 174.8 197.301 174.8C196.701 174.6 196.401 174.1 196.601 173.5C196.701 173.1 198.901 165 204.401 159.7C209.901 154.4 215.401 154.4 215.601 154.4C216.201 154.4 216.601 154.9 216.601 155.4C216.601 155.9 216.101 156.4 215.601 156.4C215.401 156.4 210.701 156.5 205.901 161.1C200.801 166 198.701 173.9 198.701 173.9C198.501 174.5 198.101 174.9 197.601 174.8Z" fill="#D88260"/>
<path d="M252.4 178.9C252.2 178.9 252 178.9 251.9 178.8C251.8 178.7 242.1 173 236.5 170.4C233.1 168.9 229.4 168.4 225.7 169.1C225.1 169.2 224.6 168.9 224.5 168.3C224.4 167.7 224.7 167.2 225.3 167.1C229.4 166.3 233.6 166.9 237.4 168.6C243.1 171.3 252.9 177 253 177.1C253.5 177.2 253.9 177.8 253.7 178.3C253.5 178.8 253 179.1 252.4 178.9Z" fill="#D88260"/>
<path d="M255.001 196.3C254.801 196.3 254.601 196.2 254.501 196.2C254.401 196.1 245.201 190.9 237.701 190.1C230.201 189.3 226.301 191 226.301 191C225.801 191.2 225.201 191 224.901 190.4C224.701 189.9 224.901 189.3 225.501 189C225.701 188.9 229.901 187.2 237.901 188C245.901 188.8 255.201 194.1 255.601 194.3C256.201 194.4 256.501 195 256.301 195.6C256.101 196.2 255.601 196.5 255.001 196.3Z" fill="#D88260"/>
<path d="M231.301 213.1C230.801 213.2 230.201 212.9 230.101 212.3C230.001 211.8 230.201 211.4 230.701 211.2C234.601 208.4 241.701 208.6 242.001 208.6C242.601 208.6 243.001 209.1 243.001 209.7C243.001 210.3 242.501 210.7 241.901 210.7C241.801 210.7 235.101 210.6 231.801 212.9C231.701 213 231.501 213.1 231.301 213.1Z" fill="#D88260"/>
<path d="M269.901 151.5C271.401 151 273.101 151.8 273.601 153.4L279.401 170.8C279.901 172.3 279.101 174 277.501 174.5C276.001 175 274.301 174.2 273.801 172.6L268.001 155.2C267.501 153.7 268.301 152 269.901 151.5Z" fill="white"/>
<path d="M276.6 175.7C274.9 175.7 273.4 174.6 272.8 173L267 155.6C266.5 153.4 267.9 151.3 270 150.8C271.8 150.4 273.7 151.3 274.5 153.1L280.3 170.5C281 172.6 279.8 174.8 277.8 175.5C277.4 175.6 277 175.7 276.6 175.7ZM270.8 152.4C270.6 152.4 270.4 152.4 270.2 152.5C269.2 152.8 268.7 153.9 269 154.9L274.8 172.3C275.1 173.3 276.2 173.8 277.2 173.5C277.7 173.3 278.1 173 278.3 172.6C278.5 172.1 278.6 171.6 278.4 171.2L272.6 153.8C272.4 153.3 272.1 152.9 271.6 152.7C271.4 152.5 271.1 152.4 270.8 152.4Z" fill="#4F3429"/>
<path d="M278.901 176.3C280.401 175.8 282.101 176.6 282.601 178.2L288.401 195.6C288.901 197.1 288.101 198.8 286.501 199.3C285.001 199.8 283.301 199 282.801 197.4L277.001 180C276.501 178.5 277.301 176.8 278.901 176.3Z" fill="white"/>
<path d="M285.6 200.5C283.9 200.5 282.4 199.4 281.8 197.8L276 180.4C275.1 178.4 275.9 176 277.9 175.1C279.9 174.2 282.3 175 283.2 177C283.3 177.3 283.4 177.6 283.5 177.9L289.3 195.3C289.6 196.3 289.6 197.4 289.1 198.3C288.6 199.2 287.8 200 286.8 200.3C286.4 200.4 286 200.5 285.6 200.5ZM279.8 177.2C279.6 177.2 279.4 177.2 279.2 177.3C278.2 177.6 277.7 178.7 278 179.7L283.8 197.1C284.1 198.1 285.2 198.6 286.2 198.3C287.2 198 287.7 196.9 287.4 195.9L281.6 178.5C281.3 177.7 280.6 177.2 279.8 177.2Z" fill="#4F3429"/>
<path d="M485 381H11C10.4 381 10 380.5 10 380C10 379.4 10.5 379 11 379H485C485.6 379 486 379.5 486 380C486 380.5 485.6 381 485 381Z" fill="#4F3429"/>
<defs>
<linearGradient id="paint0_linear_2086_234" x1="321.069" y1="237.289" x2="156.239" y2="373.649" gradientUnits="userSpaceOnUse">
<stop stop-color="#F38374"/>
<stop offset="1" stop-color="#C64234"/>
</linearGradient>
<linearGradient id="paint1_linear_2086_234" x1="181.984" y1="68.4614" x2="250.324" y2="175.731" gradientUnits="userSpaceOnUse">
<stop stop-color="#0A6B5B"/>
<stop offset="0.78" stop-color="#005146"/>
<stop offset="0.91" stop-color="#005045"/>
</linearGradient>
<linearGradient id="paint2_linear_2086_234" x1="257.027" y1="141.88" x2="246.767" y2="282.64" gradientUnits="userSpaceOnUse">
<stop stop-color="#F38374"/>
<stop offset="1" stop-color="#C64234"/>
</linearGradient>
<linearGradient id="paint3_linear_2086_234" x1="254.462" y1="143.579" x2="244.742" y2="276.969" gradientUnits="userSpaceOnUse">
<stop stop-color="#F38374"/>
<stop offset="1" stop-color="#C64234"/>
</linearGradient>
<linearGradient id="paint4_linear_2086_234" x1="251.328" y1="87.0254" x2="310.138" y2="179.325" gradientUnits="userSpaceOnUse">
<stop stop-color="#0A6B5B"/>
<stop offset="0.78" stop-color="#005146"/>
<stop offset="0.91" stop-color="#005045"/>
</linearGradient>
<linearGradient id="paint5_linear_2086_234" x1="248.254" y1="67.7214" x2="340.504" y2="212.511" gradientUnits="userSpaceOnUse">
<stop stop-color="#0A6B5B"/>
<stop offset="0.78" stop-color="#005146"/>
<stop offset="0.91" stop-color="#005045"/>
</linearGradient>
</defs>
</svg>
