<svg width="500" height="500" viewBox="0 0 500 500" fill="none" xmlns="http://www.w3.org/2000/svg">
<path d="M320 98.8C318.5 91.6 315.7 84.7 311.6 78.6L320 70.2L303.1 53.3L294.7 61.6C288.6 57.6 281.7 54.7 274.5 53.2V41.5H250.6V53.3C243.4 54.8 236.5 57.6 230.4 61.7L222 53.3L205.1 70.2L213.5 78.5C209.5 84.6 206.6 91.5 205.1 98.7H193.3V122.6H205.1C206.6 129.8 209.4 136.7 213.5 142.8L205.1 151.2L222 168.1L230.4 159.7C236.5 163.7 243.4 166.6 250.6 168.1V179.9H274.5V168.1C281.7 166.6 288.6 163.8 294.7 159.7L303.1 168.1L320 151.2L311.6 142.8C315.6 136.7 318.5 129.8 320 122.6H331.8V98.8H320ZM262.6 141.4C245.6 141.4 231.9 127.7 231.9 110.7C231.9 93.7 245.6 80 262.6 80C279.6 80 293.3 93.7 293.3 110.7C293.3 127.7 279.5 141.4 262.6 141.4Z" fill="white"/>
<path d="M274.499 181H250.599C249.999 181 249.599 180.6 249.599 180V169C242.799 167.5 236.399 164.8 230.499 161.1L222.699 168.9C222.299 169.3 221.699 169.3 221.299 168.9L204.499 152C204.099 151.6 204.099 151 204.499 150.6L212.299 142.8C208.599 137 205.899 130.5 204.399 123.8H193.399C192.799 123.8 192.399 123.4 192.399 122.8V98.8001C192.399 98.2001 192.799 97.8001 193.399 97.8001H204.399C205.899 91.1001 208.599 84.6001 212.299 78.8001L204.499 71.0001C204.099 70.6001 204.099 70.0001 204.499 69.6001L221.399 52.7001C221.799 52.3001 222.399 52.3001 222.799 52.7001L230.599 60.5001C236.399 56.8001 242.899 54.1001 249.699 52.6001V41.6001C249.699 41.0001 250.099 40.6001 250.699 40.6001H274.599C275.199 40.6001 275.599 41.0001 275.599 41.6001V52.6001C282.299 54.1001 288.799 56.8001 294.599 60.5001L302.399 52.7001C302.799 52.3001 303.399 52.3001 303.799 52.7001L320.699 69.6001C321.099 70.0001 321.099 70.6001 320.699 71.0001L312.899 78.8001C316.599 84.6001 319.299 91.1001 320.799 97.8001H331.799C332.399 97.8001 332.799 98.2001 332.799 98.8001V122.7C332.799 123.3 332.399 123.7 331.799 123.7H320.799C319.299 130.4 316.599 136.9 312.899 142.7L320.699 150.5C321.099 150.9 321.099 151.5 320.699 151.9L303.799 168.8C303.399 169.2 302.799 169.2 302.399 168.8L294.599 161C288.799 164.7 282.299 167.4 275.599 168.9V179.9C275.599 180.5 275.199 180.9 274.499 181C274.599 181 274.599 181 274.499 181ZM251.599 179H273.499V168.1C273.499 167.6 273.799 167.2 274.299 167.1C281.399 165.6 288.099 162.8 294.199 158.9C294.599 158.6 295.099 158.7 295.499 159L303.099 166.6L318.599 151.1L310.999 143.5C310.699 143.2 310.599 142.6 310.899 142.2C314.899 136.2 317.699 129.4 319.099 122.4C319.199 121.9 319.599 121.6 320.099 121.6H330.899V99.8001H319.999C319.499 99.8001 319.099 99.5001 318.999 99.0001C317.499 91.9001 314.699 85.2001 310.799 79.1001C310.499 78.7001 310.599 78.2001 310.899 77.8001L318.499 70.2001L303.099 54.7001L295.499 62.3001C295.199 62.6001 294.599 62.7001 294.199 62.4001C288.199 58.4001 281.399 55.6001 274.299 54.2001C273.799 54.1001 273.499 53.7001 273.499 53.2001V42.5001H251.699V53.3001C251.699 53.8001 251.399 54.2001 250.899 54.3001C243.799 55.8001 237.099 58.6001 231.099 62.5001C230.699 62.8001 230.199 62.7001 229.799 62.4001L222.199 54.8001L206.699 70.3001L214.299 77.9001C214.599 78.2001 214.699 78.8001 214.399 79.2001C210.399 85.2001 207.599 92.0001 206.199 99.1001C206.099 99.6001 205.699 99.9001 205.199 99.9001H194.399V121.8H205.199C205.699 121.8 206.099 122.1 206.199 122.6C207.699 129.7 210.499 136.4 214.399 142.5C214.699 142.9 214.599 143.4 214.299 143.8L206.699 151.4L222.099 166.9L229.699 159.2C229.999 158.9 230.599 158.8 230.999 159.1C236.999 163.1 243.799 165.9 250.899 167.3C251.399 167.4 251.699 167.8 251.699 168.3V179H251.599ZM262.599 142.5C245.099 142.5 230.799 128.3 230.799 110.8C230.799 93.3001 244.999 79.0001 262.599 79.0001C280.099 79.0001 294.399 93.2001 294.399 110.7C294.299 128.3 280.099 142.4 262.599 142.5ZM262.599 81.1001C246.199 81.1001 232.899 94.4001 232.899 110.8C232.899 127.2 246.199 140.5 262.599 140.5C278.999 140.5 292.299 127.2 292.299 110.8C292.299 94.4001 278.999 81.0001 262.599 81.1001Z" fill="#4F3429"/>
<path d="M291.9 210.9C291.3 207.9 290.1 205 288.4 202.3L291.9 198.8L284.8 191.7L281.3 195.2C278.7 193.5 275.8 192.3 272.7 191.6V186.6H262.6V191.6C259.5 192.2 256.6 193.4 254 195.2L250.5 191.7L243.4 198.8L246.9 202.3C245.2 204.9 244 207.8 243.3 210.9H238.3V221H243.3C243.9 224.1 245.1 227 246.9 229.6L243.4 233.1L250.5 240.2L254 236.7C256.6 238.4 259.5 239.6 262.6 240.3V245.3H272.7V240.3C275.8 239.7 278.7 238.5 281.3 236.7L284.8 240.2L291.9 233.1L288.4 229.6C290.1 227 291.3 224.1 291.9 221H296.9V210.9H291.9ZM267.6 226.4C261.8 226.4 257.1 221.7 257.1 215.9C257.1 210.1 261.8 205.4 267.6 205.4C273.4 205.4 278.1 210.1 278.1 215.9C278.1 221.7 273.4 226.4 267.6 226.4Z" fill="url(#paint0_linear_2084_2)"/>
<path d="M195 65.2001C194.4 62.1001 193.2 59.2001 191.4 56.6001L195 53.1001L187.8 45.9001L184.3 49.4001C181.7 47.7001 178.8 46.5001 175.7 45.9001V40.9001H165.6V45.9001C162.5 46.5001 159.6 47.7001 157 49.4001L153.5 45.9001L146.3 53.1001L149.9 56.6001C148.2 59.2001 147 62.1001 146.3 65.2001H141.3V75.3001H146.3C146.9 78.4001 148.1 81.3001 149.9 83.9001L146.4 87.4001L153.6 94.6001L157.1 91.1001C159.7 92.8001 162.6 94.0001 165.7 94.7001V99.7001H175.8V94.7001C178.9 94.1001 181.8 92.9001 184.4 91.1001L187.9 94.6001L195 87.4001L191.5 83.9001C193.2 81.3001 194.4 78.4001 195 75.3001H200V65.2001H195ZM170.7 80.8001C164.9 80.8001 160.2 76.1001 160.2 70.3001C160.2 64.5001 164.9 59.8001 170.7 59.8001C176.5 59.8001 181.2 64.5001 181.2 70.3001C181.2 76.0001 176.5 80.8001 170.7 80.8001Z" fill="#4F3429"/>
<path d="M457.8 131.8C457.7 131.8 457.6 131.8 457.4 131.7L380.1 103.4C364.8 98.1002 363.3 85.8002 363.2 85.3002L358 52.2002C357.9 51.7002 358.3 51.1002 358.8 51.0002C358.9 51.0002 358.9 51.0002 359 51.0002C404.7 50.4002 429.4 72.1002 442.1 90.4002C450.4 102.5 456.1 116.2 458.8 130.6C458.9 131.1 458.5 131.7 458 131.7C458 131.8 457.9 131.8 457.8 131.8ZM360.3 53.1002L365.3 85.1002C365.4 85.6002 366.8 96.7002 380.9 101.6L456.6 129.3C453.8 115.8 448.3 103 440.5 91.6002C428.3 74.0002 404.5 53.1002 360.8 53.1002H360.3Z" fill="#4F3429"/>
<path d="M321.2 317.1C320.7 317.1 320.3 316.7 320.2 316.2L303.1 204.4C303.1 204.2 297.8 179.4 320.6 172.7L339.8 168.6H340C340.5 168.6 351.1 168 351.3 157.3L344.9 56.8002C344.9 56.2002 345.3 55.8002 345.8 55.7002C345.9 55.7002 345.9 55.7002 346 55.7002L360.1 56.4002C360.7 56.4002 361.1 56.9002 361 57.5002C361 58.1002 360.5 58.5002 360 58.4002L347 57.8002L353.4 157.3C353.1 169.4 341.4 170.6 340.3 170.7L321.3 174.7C300.4 180.8 305.1 203.1 305.3 204L322.3 315.9C322.4 316.4 322 317 321.5 317.1H321.2Z" fill="#4F3429"/>
<path d="M429.6 365.3H389.7C388 365.2 349.2 362.8 331.1 346.4C330.7 346 330.7 345.4 331 345C331.3 344.6 332 344.6 332.4 344.9C350 360.9 389.4 363.3 389.7 363.3H429.5C448.3 363.3 450.9 347.7 451.1 346.4V326C451.1 322.3 452.4 321.4 453.9 320.2C455.1 319.4 456.1 318.4 456.8 317.2C459.3 313.2 457.9 307.4 457.8 307.4C457.7 306.9 457.9 306.4 458.4 306.2C460.6 305.3 463.3 302.2 463.9 298.2C464.4 294.7 461.9 281.8 460.9 277.1C460.8 276.8 460.9 276.5 461.1 276.2C461.3 276 461.6 275.8 461.9 275.8H478.7C481.5 275.9 484.2 274.4 485.5 271.9C488.4 267.1 488.3 258.8 486.7 255.9L457.7 200C457.6 199.7 457.6 199.4 457.7 199.1C457.8 199 464.5 184.3 463.5 170C462.5 155.4 456.7 131.2 456.6 130.9C456.5 130.3 456.8 129.8 457.4 129.7C458 129.6 458.5 129.9 458.6 130.5C458.7 130.7 464.5 155.2 465.5 169.9C466.4 183.5 460.9 196.9 459.7 199.5L488.4 255C490.3 258.3 490.5 267.3 487.1 273C485.4 276.1 482.1 278 478.6 277.9H463.2C464 281.9 466.6 294.6 465.9 298.5C465.3 302.3 463.1 305.6 459.9 307.6C460.3 309.5 460.8 314.4 458.4 318.2C457.5 319.6 456.3 320.8 455 321.8C453.7 322.8 453 323.3 453 325.9V346.2V346.3C453.2 346.7 450.6 365.3 429.6 365.3Z" fill="#4F3429"/>
<path d="M435.8 204.1L452 206.5L451.5 204.6C449.3 195.6 442 188.7 432.8 187.2L416 184.3L416.2 185.5C418.2 195.3 426 202.7 435.8 204.1Z" fill="#4F3429"/>
<path d="M460 141.7C459.9 141.7 459.8 141.7 459.7 141.6L369.4 111.2C358 106.8 357.3 99.5 357.3 98.6L351.5 57.9C351.4 57.3 351.8 56.8 352.4 56.8C353 56.7 353.5 57.1 353.5 57.7L359.3 98.5V98.6C359.3 98.9 359.6 105.3 370.1 109.3L460.4 139.7C461 139.8 461.3 140.3 461.2 140.9C461.1 141.5 460.5 141.8 460 141.7Z" fill="#4F3429"/>
<path d="M370.399 369.6C369.899 369.6 369.499 369.5 368.999 369.5L332.399 361.7C306.099 355.3 293.699 328.5 292.999 326.9L218.899 204.9C218.599 204.4 218.799 203.8 219.199 203.5C219.699 203.2 220.299 203.4 220.599 203.8L294.799 325.9L294.899 326C294.999 326.3 306.999 353.4 332.899 359.7L369.399 367.5C371.899 368 374.299 366.4 374.899 363.9C374.999 363.6 374.999 363.3 374.999 362.9C374.999 362.3 375.399 361.9 375.999 361.9C376.599 361.9 376.999 362.3 376.999 362.9C376.999 366.7 373.999 369.6 370.399 369.6Z" fill="#4F3429"/>
<path d="M410.3 459.1H271.8C271.2 459.1 270.8 458.7 270.8 458.1V341.6L199.2 219C198.9 218.5 199.1 217.9 199.6 217.6C200.1 217.3 200.7 217.5 201 218L272.7 340.9C272.8 341.1 272.8 341.2 272.8 341.4V457H409.3V392C409.3 380.9 422.1 364.8 422.6 364.1C423 363.7 423.6 363.6 424 363.9C424.4 364.2 424.5 364.9 424.2 365.3C424.1 365.5 411.3 381.5 411.3 391.9V457.9C411.4 458.6 411 459 410.3 459.1C410.4 459.1 410.4 459.1 410.3 459.1Z" fill="#4F3429"/>
<path d="M345.9 57.8H315.8C315.2 57.8 314.8 57.4 314.8 56.8C314.8 56.2 315.2 55.8 315.8 55.8H345.9C346.5 55.8 346.9 56.2 346.9 56.8C346.9 57.4 346.5 57.8 345.9 57.8Z" fill="#4F3429"/>
<path d="M314.999 278.7H285.399C284.799 278.7 284.399 278.3 284.399 277.7V255C284.399 254.4 284.799 254 285.399 254C285.999 254 286.399 254.4 286.399 255V276.6H314.999C315.599 276.6 315.999 277 315.999 277.6C315.999 278.2 315.599 278.6 314.999 278.7Z" fill="#4F3429"/>
<path d="M285.2 256C281.9 256 279.3 253.4 279.3 250.1C279.3 246.8 281.9 244.2 285.2 244.2C288.5 244.2 291.1 246.8 291.1 250.1C291.1 253.4 288.5 256 285.2 256ZM285.2 246.3C283.1 246.3 281.3 248 281.3 250.2C281.3 252.3 283 254 285.2 254C287.3 254 289.1 252.3 289.1 250.2C289.1 248 287.4 246.3 285.2 246.3Z" fill="#4F3429"/>
<path d="M272.9 266.6C269.6 266.6 267 264 267 260.7C267 257.4 269.6 254.8 272.9 254.8C276.2 254.8 278.8 257.4 278.8 260.7C278.8 264 276.2 266.6 272.9 266.6ZM272.9 256.9C270.8 256.9 269 258.6 269 260.8C269 262.9 270.7 264.7 272.9 264.7C275 264.7 276.8 263 276.8 260.8C276.8 258.6 275 256.9 272.9 256.9Z" fill="#4F3429"/>
<path d="M310.6 382.9C307.3 382.9 304.7 380.3 304.7 377C304.7 373.7 307.3 371.1 310.6 371.1C313.9 371.1 316.5 373.7 316.5 377C316.5 380.3 313.9 382.9 310.6 382.9ZM310.6 373.2C308.5 373.2 306.7 374.9 306.8 377.1C306.8 379.2 308.5 381 310.7 381C312.8 381 314.6 379.3 314.5 377.1C314.5 374.9 312.8 373.2 310.6 373.2Z" fill="#4F3429"/>
<path d="M302.6 414.6C299.3 414.6 296.7 412 296.7 408.7C296.7 405.4 299.3 402.8 302.6 402.8C305.9 402.8 308.5 405.4 308.5 408.7C308.5 412 305.8 414.6 302.6 414.6ZM302.6 404.9C300.5 404.9 298.7 406.6 298.7 408.8C298.7 410.9 300.4 412.7 302.6 412.7C304.7 412.7 306.5 411 306.5 408.8C306.5 406.6 304.7 404.9 302.6 404.9Z" fill="#4F3429"/>
<path d="M324.1 427C320.8 427 318.2 424.4 318.2 421.1C318.2 417.8 320.8 415.2 324.1 415.2C327.4 415.2 330 417.8 330 421.1C330 424.4 327.4 427 324.1 427ZM324.1 417.3C322 417.3 320.2 419 320.2 421.2C320.2 423.3 321.9 425.1 324.1 425.1C326.2 425.1 328 423.4 328 421.2C328 419 326.2 417.3 324.1 417.3Z" fill="#4F3429"/>
<path d="M338.2 433.5C334.9 433.5 332.3 430.9 332.3 427.6C332.3 424.3 334.9 421.7 338.2 421.7C341.5 421.7 344.1 424.3 344.1 427.6C344.1 430.9 341.4 433.5 338.2 433.5ZM338.2 423.7C336.1 423.7 334.3 425.4 334.3 427.6C334.3 429.7 336 431.5 338.2 431.5C340.3 431.5 342.1 429.8 342.1 427.6C342 425.5 340.3 423.7 338.2 423.7Z" fill="#4F3429"/>
<path d="M282.7 345.2C279.4 345.2 276.8 342.6 276.8 339.3C276.8 336 279.4 333.4 282.7 333.4C286 333.4 288.6 336 288.6 339.3C288.6 342.6 285.9 345.2 282.7 345.2ZM282.7 335.5C280.6 335.5 278.8 337.2 278.8 339.4C278.8 341.5 280.5 343.3 282.7 343.3C284.8 343.3 286.6 341.6 286.6 339.4C286.5 337.2 284.8 335.5 282.7 335.5Z" fill="#4F3429"/>
<path d="M319.799 308H303.099C302.499 308 302.099 307.6 302.099 307V286.5H268.899C268.299 286.5 267.899 286.1 267.899 285.5C267.899 284.9 268.299 284.5 268.899 284.5H303.099C303.699 284.5 304.099 284.9 304.099 285.5V306H319.699C320.299 306 320.699 306.4 320.699 307C320.699 307.6 320.299 308 319.799 308Z" fill="#4F3429"/>
<path d="M284.8 274.4H273C272.4 274.4 272 274 272 273.4V266.3C272 265.7 272.4 265.3 273 265.3C273.6 265.3 274 265.7 274 266.3V272.4H284.8C285.4 272.4 285.8 272.8 285.8 273.4C285.8 274 285.4 274.3 284.8 274.4Z" fill="#4F3429"/>
<path d="M295 328.7C294.4 328.7 294 328.3 294 327.7V297.2C294 296.6 294.4 296.2 295 296.2H302.9C303.5 296.2 303.9 296.6 303.9 297.2C303.9 297.8 303.5 298.2 302.9 298.2H296V327.7C296 328.2 295.6 328.7 295 328.7Z" fill="#4F3429"/>
<path d="M348.599 99.8H331.399C330.799 99.8 330.399 99.4 330.399 98.8C330.399 98.2 330.799 97.8 331.399 97.8H348.599C349.199 97.8 349.599 98.2 349.599 98.8C349.599 99.4 349.199 99.8 348.599 99.8Z" fill="#4F3429"/>
<path d="M336.7 99.6001C336.1 99.6001 335.7 99.2001 335.7 98.6001V81.6001H325.5C324.9 81.6001 324.5 81.2001 324.5 80.6001C324.5 80.0001 324.9 79.6001 325.5 79.6001H336.7C337.3 79.6001 337.7 80.0001 337.7 80.6001V98.6001C337.7 99.1001 337.3 99.6001 336.7 99.6001Z" fill="#4F3429"/>
<path d="M461.1 195.3C461 195.3 461 195.3 460.9 195.3C460.4 195.2 460 194.7 460.1 194.1C461.2 189.1 454 186.5 454 186.5L417.1 173.6C410.9 174.4 408.9 182.6 408.9 182.7C408.8 183 408.7 183.2 408.4 183.4C408.1 183.5 407.8 183.6 407.6 183.5L351.6 163.8C351.1 163.6 350.8 163 351 162.5C351.2 162 351.8 161.7 352.3 161.9L407.3 181.3C408.1 178.7 410.9 172.3 417.3 171.7C417.4 171.7 417.6 171.7 417.7 171.7L454.8 184.6C457.9 185.7 463.5 189.2 462.3 194.6C462 195 461.6 195.3 461.1 195.3Z" fill="#4F3429"/>
<path d="M462.1 278H449.7C449.1 278 448.7 277.6 448.7 277C448.7 276.4 449.1 276 449.7 276H462.1C462.7 276 463.1 276.4 463.1 277C463.1 277.6 462.6 278 462.1 278Z" fill="#4F3429"/>
<path d="M348.6 459.3C348 459.3 347.6 458.9 347.6 458.3V409.4H326.3C325.7 409.4 325.3 409 325.3 408.4V359.2C325.3 358.6 325.7 358.2 326.3 358.2C326.9 358.2 327.3 358.6 327.3 359.2V407.4H348.5C349.1 407.4 349.5 407.8 349.5 408.4V458.3C349.6 458.8 349.2 459.3 348.6 459.3Z" fill="#4F3429"/>
<path d="M295.499 403.4H272.899C272.299 403.4 271.899 403 271.899 402.4C271.899 401.8 272.299 401.4 272.899 401.4H294.499V359.5C294.499 358.9 294.899 358.5 295.499 358.5H307.999V347.8C307.999 347.2 308.399 346.8 308.999 346.8C309.599 346.8 309.999 347.2 309.999 347.8V359.5C309.999 360.1 309.599 360.5 308.999 360.5H296.499V402.4C296.499 402.9 296.099 403.4 295.499 403.4Z" fill="#4F3429"/>
<path d="M310.6 391.7H295.5C294.9 391.7 294.5 391.3 294.5 390.7C294.5 390.1 294.9 389.7 295.5 389.7H309.6V382.3C309.6 381.7 310 381.3 310.6 381.3C311.2 381.3 311.6 381.7 311.6 382.3V390.8C311.6 391.3 311.2 391.7 310.6 391.7Z" fill="#4F3429"/>
<path d="M295.3 372.8H283C282.4 372.8 282 372.4 282 371.8V344.7C282 344.1 282.4 343.7 283 343.7C283.6 343.7 284 344.1 284 344.7V370.8H295.3C295.9 370.8 296.3 371.2 296.3 371.8C296.3 372.4 295.9 372.7 295.3 372.8Z" fill="#4F3429"/>
<path d="M302.7 431.7H272C271.4 431.7 271 431.3 271 430.7C271 430.1 271.4 429.7 272 429.7H301.7V414C301.7 413.4 302.1 413 302.7 413C303.3 413 303.7 413.4 303.7 414V430.7C303.7 431.2 303.3 431.7 302.7 431.7Z" fill="#4F3429"/>
<path d="M300.5 458.8C299.9 458.8 299.5 458.4 299.5 457.8V446C299.5 445.4 299.9 445 300.5 445H323.2V426C323.2 425.4 323.6 425 324.2 425C324.8 425 325.2 425.4 325.2 426V446C325.2 446.6 324.8 447 324.2 447H301.5V457.8C301.5 458.4 301.1 458.8 300.6 458.9C300.6 458.8 300.6 458.8 300.5 458.8Z" fill="#4F3429"/>
<path d="M338.1 441.5H324.3C323.7 441.5 323.3 441.1 323.3 440.5C323.3 439.9 323.7 439.5 324.3 439.5H337.1V433C337.1 432.4 337.5 432 338.1 432C338.7 432 339.1 432.4 339.1 433V440.4C339.1 441 338.7 441.5 338.1 441.5Z" fill="#4F3429"/>
<path d="M332.7 408.9C332.1 408.9 331.7 408.5 331.7 407.9V360.6C331.7 360 332.1 359.6 332.7 359.6C333.3 359.6 333.7 360 333.7 360.6V407.9C333.7 408.5 333.3 408.9 332.7 408.9Z" fill="#4F3429"/>
<path d="M325.6 344.8C317.5 344.8 311 338.3 311 330.2C311 322.1 317.5 315.6 325.6 315.6C333.7 315.6 340.2 322.1 340.2 330.2C340.2 338.3 333.7 344.8 325.6 344.8ZM325.6 317.7C318.7 317.7 313 323.3 313 330.2C313 337.1 318.6 342.8 325.5 342.8C332.4 342.8 338.1 337.2 338.1 330.3C338.2 323.3 332.6 317.7 325.6 317.7Z" fill="#4F3429"/>
<path d="M325.599 336.4C322.199 336.4 319.399 333.6 319.399 330.2C319.399 326.8 322.199 324 325.599 324C328.999 324 331.799 326.8 331.799 330.2C331.799 333.6 328.999 336.4 325.599 336.4ZM325.599 326.1C323.299 326.1 321.499 328 321.499 330.2C321.499 332.4 323.399 334.3 325.599 334.3C327.899 334.3 329.699 332.4 329.699 330.2C329.799 327.9 327.899 326.1 325.599 326.1Z" fill="#4F3429"/>
<path d="M280.1 325C279.7 325 279.4 324.8 279.2 324.5L214 218.9C213.7 218.4 213.8 217.8 214.3 217.5L223.3 211C223.8 210.7 224.4 210.8 224.7 211.2C225 211.7 224.9 212.3 224.5 212.6L216.3 218.5L280.5 322.6L288.6 318.4C289.1 318.1 289.7 318.3 290 318.8C290.3 319.3 290.1 319.9 289.6 320.2L280.6 324.8C280.4 325 280.3 325 280.1 325Z" fill="#4F3429"/>
<path d="M411.2 176.4C411.1 176.4 411 176.4 410.9 176.3L352.2 156.2C351.7 156 351.4 155.4 351.6 154.9C351.8 154.4 352.4 154.1 352.9 154.3L411.6 174.4C412.2 174.5 412.5 175 412.4 175.6C412.3 176.2 411.8 176.5 411.2 176.4Z" fill="#4F3429"/>
<path d="M369 147.8C362.8 147.8 357.8 142.8 357.8 136.6C357.8 130.4 362.8 125.4 369 125.4C375.2 125.4 380.2 130.4 380.2 136.6C380.2 142.7 375.2 147.7 369 147.8ZM369 127.4C364 127.4 359.9 131.5 359.9 136.5C359.9 141.5 364 145.6 369 145.6C374 145.6 378.1 141.5 378.1 136.5C378.1 131.5 374 127.4 369 127.4Z" fill="#4F3429"/>
<path d="M368.999 141.2C366.399 141.2 364.399 139.1 364.399 136.6C364.399 134.1 366.499 132 368.999 132C371.599 132 373.599 134.1 373.599 136.6C373.599 139.1 371.599 141.2 368.999 141.2ZM368.999 134C367.599 134 366.399 135.2 366.399 136.6C366.399 138 367.599 139.2 368.999 139.2C370.399 139.2 371.599 138 371.599 136.6C371.599 135.2 370.399 134 368.999 134Z" fill="#4F3429"/>
<path d="M323.8 205.7C317.6 205.7 312.6 200.7 312.6 194.5C312.6 188.3 317.6 183.3 323.8 183.3C330 183.3 335 188.3 335 194.5C335 200.7 330 205.7 323.8 205.7ZM323.8 185.4C318.8 185.4 314.7 189.5 314.7 194.5C314.7 199.5 318.8 203.6 323.8 203.6C328.8 203.6 332.9 199.5 332.9 194.5C333 189.5 328.9 185.4 323.8 185.4Z" fill="#4F3429"/>
<path d="M323.8 199.1C321.2 199.1 319.2 197 319.2 194.5C319.2 192 321.3 189.9 323.8 189.9C326.4 189.9 328.4 192 328.4 194.5C328.4 197.1 326.4 199.1 323.8 199.1ZM323.8 191.9C322.4 191.9 321.2 193.1 321.2 194.5C321.2 195.9 322.4 197.1 323.8 197.1C325.2 197.1 326.4 195.9 326.4 194.5C326.4 193.1 325.2 192 323.8 191.9Z" fill="#4F3429"/>
<path d="M459 308.2H458.8L450.5 306.7C449.9 306.6 449.6 306.1 449.7 305.5C449.8 304.9 450.3 304.6 450.9 304.7L459.2 306.2C459.8 306.2 460.2 306.7 460.1 307.3C460 307.9 459.6 308.2 459 308.2Z" fill="#4F3429"/>
<path d="M271.8 459.1H235C234.4 459.1 234 458.7 234 458.1C234 457.5 234.4 457.1 235 457.1H271.8C272.4 457.1 272.8 457.5 272.8 458.1C272.8 458.7 272.3 459.1 271.8 459.1Z" fill="#4F3429"/>
<path d="M449.9 459.1H410.3C409.7 459.1 409.3 458.7 409.3 458.1C409.3 457.5 409.7 457.1 410.3 457.1H449.9C450.5 457.1 450.9 457.5 450.9 458.1C450.9 458.7 450.4 459.1 449.9 459.1Z" fill="#4F3429"/>
<path d="M239.9 101.3L250.2 93.4001C250.2 93.4001 257.4 84.6001 261.6 82.6001C265.8 80.6001 269.4 80.6001 272.2 80.1001C274 79.9001 275.7 80.5001 276.9 81.9001C276.9 81.9001 285.8 81.2001 290.4 79.6001C295 78.0001 296.3 76.4001 298.9 77.5001C300.4 78.2001 301.6 79.5001 302.1 81.1001C303.9 80.6001 305.8 80.9001 307.4 81.8001C309.7 83.3001 309.5 89.1001 307.9 91.8001C306.3 94.5001 305.3 96.1001 305.3 96.1001C305.3 96.1001 309.2 97.0001 309.4 100.9C309.6 104.8 306.3 108.1 303.8 109.7C301.3 111.3 295.6 113 295.6 113C295.6 113 297.7 115 302.4 115.1C307.1 115.2 307.8 115.4 308.4 117.8C309 120.2 307.5 122.9 305 124.5C302.5 126.1 297.3 125.2 293.1 125.9C288.9 126.6 277.5 128.4 269.4 127.7C261.3 127 256.4 130.1 256.4 130.1L239.9 101.3Z" fill="#FFC2A7"/>
<path d="M268 85.0002C267.4 85.1002 267 84.7001 266.9 84.1001C266.8 83.5001 267.2 83.1002 267.8 83.0002L276.7 81.0002C277.3 80.9002 277.8 81.2002 277.9 81.8002C278 82.4002 277.7 82.9002 277.1 83.0002L268.2 85.0002H268Z" fill="#4F3429"/>
<path d="M282.2 93.1C281.6 93.2 281.1 92.8 281.1 92.2C281.1 91.6 281.4 91.1 282 91.1C285.6 90.1 289 89 292.5 87.6C296 86 299.1 83.6 301.5 80.6C301.8 80.1 302.5 80.1001 302.9 80.4001C303.3 80.7001 303.4 81.4001 303.1 81.8001C300.5 85.1001 297.1 87.7001 293.3 89.4001C289.8 90.8001 286.2 92 282.6 93C282.4 93.1 282.3 93.1 282.2 93.1Z" fill="#4F3429"/>
<path d="M286.9 104C286.3 104 285.9 103.6 285.8 103.1C285.7 102.6 286.2 102.1 286.7 102L294.8 100.8C298.5 100.2 301.9 98.3001 304.5 95.6001C304.8 95.1001 305.4 95.0001 305.9 95.3001C306.4 95.6001 306.5 96.2001 306.2 96.7001C303.3 100 299.4 102.1 295.1 102.8L287 104H286.9Z" fill="#4F3429"/>
<path d="M295.7 114.2H295.6C292.8 113.8 287.9 113.1 287.1 112.6C286.6 112.3 286.4 111.7 286.7 111.3C287 110.8 287.6 110.6 288.1 110.9C290.7 111.5 293.3 111.9 295.9 112.2C296.5 112.2 296.9 112.7 296.8 113.3C296.7 113.9 296.3 114.2 295.7 114.2Z" fill="#4F3429"/>
<path d="M258.9 142.8C258.5 142.8 258.2 142.6 258 142.3C248.6 126.8 234.1 103.5 232.9 101.9C232.6 101.6 232.4 101.1 232.6 100.7C232.8 100.2 233.4 100 233.9 100.2C234.3 100.4 234.9 100.6 259.7 141.2C260 141.7 259.9 142.3 259.4 142.6C259.3 142.7 259.1 142.7 258.9 142.8Z" fill="#4F3429"/>
<path d="M241.7 156.3L223.5 199.1C218.1 212.9 195.9 227.6 172.7 216.1L133.5 189.9L241.7 156.3Z" fill="#4F3429"/>
<path d="M69.2004 292.4C69.2004 292.4 102 290.5 91.7004 256.9L123.5 331.8C123.5 331.8 100.6 352.6 58.9004 340.2L69.2004 292.4Z" fill="url(#paint1_linear_2084_2)"/>
<path d="M114.8 208.8C130.8 206.9 143.4 221 145.6 239.7L170.1 358.3H121.3L84.3005 244.1C81.9005 227.2 93.6005 211.6 110.4 209.2C111.9 208.9 113.4 208.8 114.8 208.8Z" fill="url(#paint2_linear_2084_2)"/>
<path d="M170.2 358.2C171.4 366.6 172 368.7 181.1 381.5C183.2 398.8 122.9 373.6 122.9 373.6L121.3 358.2H170.2Z" fill="#FFC2A7"/>
<path d="M122.9 373.6L127.8 402.8L194.8 402.9L181 381.4C181 381.4 182.5 390 163.2 383.7C138.7 375.7 123.8 366.9 122.9 373.6Z" fill="#4F3429"/>
<path d="M187.6 392.7C186.8 392.7 186 392.4 185.4 391.9C183.8 390.6 183.8 388.5 185.3 386.6C187.7 383.7 191.5 382.4 195.2 383.1C195.8 381.9 196.1 380.6 196.3 379.3C196.5 377.6 196 376.3 195 375.7C194 375.1 192.9 374.9 191.8 375.1C185.6 376.4 178.2 388 178.1 388.1C177.8 388.6 177.2 388.7 176.7 388.4C176.2 388.1 176.1 387.5 176.4 387C176.7 386.5 184.3 374.6 191.4 373.1C193 372.7 194.8 373 196.2 374C197.9 375.1 198.7 377 198.4 379.5C198.2 380.9 197.8 382.3 197.3 383.6C198.3 384 199.3 384.5 200.2 385.1C200.7 385.4 200.8 386.1 200.5 386.5C200.2 386.9 199.5 387.1 199.1 386.8C198.3 386.2 197.4 385.8 196.4 385.4C194.7 388.5 192.1 391.2 189.7 392.3C188.9 392.6 188.3 392.7 187.6 392.7ZM193.3 385C190.9 385 188.5 386 186.9 387.9C186.5 388.4 185.7 389.7 186.7 390.4C186.9 390.6 187.5 391 188.8 390.5C190.7 389.7 192.7 387.5 194.2 385.1C193.9 385 193.6 385 193.3 385Z" fill="#C64234"/>
<path d="M58.7996 340.2C50.2996 339.6 48.0996 339.7 33.6996 345.9C16.3996 344.3 53.6996 290.7 53.6996 290.7L69.0996 292.4L58.7996 340.2Z" fill="#FFC2A7"/>
<path d="M53.8 290.7L24.3 289.3L10 354.8L33.9 345.8C33.9 345.8 25.2 345.4 35.4 327.9C48.5 305.7 60.2 293.1 53.8 290.7Z" fill="#4F3429"/>
<path d="M25.4999 364C25.1999 364 24.8999 363.9 24.6999 363.7C24.2999 363.3 24.2999 362.7 24.6999 362.3C25.3999 361.6 26.0999 360.8 26.5999 360C23.9999 357.6 21.7999 354.6 21.2999 352C20.8999 350.5 21.3999 349 22.4999 348C24.0999 346.7 26.0999 347.1 27.6999 349C29.9999 352 30.4999 356 29.0999 359.4C30.0999 360.2 31.2999 360.8 32.4999 361.3C34.1999 361.8 35.3999 361.7 36.2999 360.8C37.0999 360 37.5999 358.9 37.4999 357.8C37.4999 351.4 27.7999 341.8 27.6999 341.7C27.2999 341.3 27.2999 340.7 27.6999 340.3C28.0999 339.9 28.6999 339.9 29.0999 340.3C29.4999 340.7 39.5999 350.7 39.4999 357.9C39.5999 359.6 38.8999 361.2 37.6999 362.4C36.1999 363.8 34.1999 364.2 31.7999 363.4C30.4999 362.9 29.1999 362.3 27.9999 361.4C27.3999 362.3 26.6999 363.2 25.8999 363.9C25.9999 363.9 25.6999 364 25.4999 364ZM24.6999 349.2C24.3999 349.2 24.1999 349.3 23.9999 349.5C23.7999 349.6 23.1999 350.1 23.4999 351.5C23.8999 353.5 25.5999 355.9 27.6999 357.9C28.5999 355.3 28.0999 352.4 26.4999 350.2C25.8999 349.7 25.2999 349.3 24.6999 349.2Z" fill="#C64234"/>
<path d="M114.5 336C114 336 113.6 335.6 113.5 335.2C113.1 333.4 98.9002 289.6 93.5002 272.8C93.3002 272.3 93.6002 271.7 94.2002 271.5C94.8002 271.3 95.3002 271.6 95.5002 272.2C97.5002 278.4 115.3 333 115.6 334.9C115.7 335.4 115.3 336 114.8 336.1L114.5 336Z" fill="#4F3429"/>
<path d="M167.8 352H120.1C119.5 352 119.1 351.6 119.1 351C119.1 350.4 119.5 350 120.1 350H167.8C168.4 350 168.8 350.4 168.8 351C168.8 351.6 168.4 352 167.8 352Z" fill="white"/>
<path d="M153 350.8C152.5 350.8 152.1 350.5 152 350.1L111.4 212.9C111.2 212.3 111.6 211.8 112.1 211.6C112.7 211.4 113.2 211.8 113.4 212.3L154 349.5C154.2 350 153.9 350.6 153.4 350.8C153.2 350.8 153.1 350.8 153 350.8Z" fill="white"/>
<path d="M75.0004 344.4H74.8004C74.3004 344.3 73.9004 343.8 73.9004 343.3C77.0004 322.2 81.6004 290.2 81.6004 288.1C81.5004 287.5 81.8004 287 82.4004 286.9C83.0004 286.8 83.5004 287.1 83.6004 287.7C83.7004 288 84.0004 288.9 75.9004 343.7C76.0004 344.1 75.5004 344.4 75.0004 344.4Z" fill="white"/>
<path d="M83.7005 309.9C82.7005 309.9 81.7005 309.8 80.7005 309.7C80.1005 309.6 79.7005 309.1 79.8005 308.6C79.9005 308 80.4005 307.6 80.9005 307.7C91.9005 308.9 101.6 302.2 101.7 302.1C102.2 301.8 102.8 301.9 103.1 302.3C103.4 302.8 103.3 303.4 102.9 303.7C102.5 304 94.1005 309.9 83.7005 309.9Z" fill="white"/>
<path d="M171.8 366.9C171.6 366.9 171.5 366.9 171.3 366.8L163.4 362.6C162.9 362.3 162.7 361.7 163 361.3C163.2 360.8 163.8 360.6 164.3 360.8L172.2 365C172.7 365.2 172.9 365.9 172.6 366.3C172.6 366.7 172.2 366.9 171.8 366.9Z" fill="#4F3429"/>
<path d="M49.6004 340.3C49.4004 340.3 49.1004 340.2 49.0004 340.1C48.6004 339.8 48.5004 339.1 48.8004 338.7L52.8004 333.7C53.1004 333.3 53.8004 333.2 54.2004 333.5C54.6004 333.8 54.7004 334.5 54.4004 334.9L50.4004 339.9C50.2004 340.1 49.9004 340.3 49.6004 340.3Z" fill="#4F3429"/>
<path d="M106.2 236.3C99.6001 236.3 91.9001 234.3 87.3001 226.3C87.0001 225.8 87.2001 225.2 87.7001 224.9C88.2001 224.6 88.8001 224.8 89.1001 225.3C97.3001 239.8 117.4 232.5 117.6 232.4C118.1 232.2 118.7 232.5 118.9 233C119.1 233.5 118.8 234.1 118.3 234.3C114.4 235.6 110.3 236.3 106.2 236.3Z" fill="white"/>
<path d="M103.6 139.2C103.6 139.2 88.9998 141.6 83.0998 156C80.9998 161.2 78.8998 170.4 77.4998 179.1C75.8998 188.8 82.4998 198 92.2998 199.5C93.4998 199.7 94.6998 199.8 95.8998 199.7L115.9 198.9C124.1 198.6 131 192.7 132.6 184.7L139 153.5C139 153.5 131.6 135.8 103.6 139.2Z" fill="url(#paint3_linear_2084_2)"/>
<path d="M103.6 139.2L180.4 132.8L244.3 94L268.5 135.7L209.8 182.6C198.7 190.4 185.4 194.1 171.9 193.3L102.4 191.1C102.4 191.1 94.3998 150.7 103.6 139.2Z" fill="url(#paint4_linear_2084_2)"/>
<path d="M129.6 192.1H129.4L101.5 186.5C96.3003 185 92.6003 179.2 91.9003 171.7C90.9003 160.7 96.9003 150.2 106.9 145.5C107.4 145.2 108 145.4 108.2 145.9C108.5 146.4 108.3 147 107.8 147.2C98.5003 151.5 93.0003 161.2 94.0003 171.4C94.6003 178.1 97.7003 183.2 102 184.4L129.8 189.9C130.4 190 130.8 190.4 130.7 191C130.7 191.7 130.2 192.1 129.6 192.1Z" fill="#4F3429"/>
<path d="M177.9 192.4H177.6C176.4 192.3 174.4 191.4 174.6 186.9C175 178.5 181.6 172.2 192.5 169.5C193.8 169.2 195.1 168.9 196.3 168.7C197.5 166.1 198.3 163.4 198.8 160.6C199.6 154.6 197.3 151.1 191.8 150.1C167.6 145.7 140.5 190.8 140.2 191.3C139.9 191.8 139.3 192 138.8 191.7C138.3 191.4 138.1 190.8 138.4 190.3C143.4 182.2 149.1 174.6 155.4 167.6C169 152.7 181.3 146.2 192.1 148.2C198.6 149.4 201.7 153.9 200.7 161C200.3 163.6 199.6 166.1 198.6 168.5C209.1 167.5 217.6 170.6 220.2 174.9C220.5 175.4 220.3 176 219.9 176.3C219.4 176.6 218.8 176.4 218.5 176C216 171.8 207 169.7 197.7 170.8C195.8 174.7 193.6 178.4 191 181.8C187 186.9 181.5 192.4 177.9 192.4ZM195.2 171C194.4 171.1 193.7 171.3 192.9 171.5C188.1 172.7 177 176.5 176.5 187C176.4 188.5 176.6 190.2 177.6 190.3H177.8C181.6 190.3 190.3 180.9 195.2 171Z" fill="#FED490"/>
<path d="M192.3 138C191.8 138 191.3 137.9 190.9 137.8C187.9 137 186.1 133.6 185.6 127.8C185.5 127.3 185.9 126.8 186.5 126.7C187 126.6 187.5 127.1 187.6 127.6C188 132.5 189.3 135.2 191.4 135.8C198.9 137.8 216 115.6 222 106.9C222.3 106.4 223 106.3 223.4 106.6C223.9 106.9 224 107.6 223.7 108C219.9 113.4 215.8 118.7 211.5 123.7C203.2 133.3 196.7 138 192.3 138Z" fill="#FED490"/>
<path d="M160.1 168.4C163.027 168.4 165.4 166.027 165.4 163.1C165.4 160.173 163.027 157.8 160.1 157.8C157.173 157.8 154.8 160.173 154.8 163.1C154.8 166.027 157.173 168.4 160.1 168.4Z" fill="#FED490"/>
<path d="M123.6 95.4001C123.6 95.4001 139.9 86.1001 126 79.7001C106.1 70.6001 109.8 82.6001 109.8 82.6001C109.8 82.6001 105.7 84.0001 99.2999 86.5001C86.5999 91.3001 81.5999 103.1 87.3999 112.8L123.6 95.4001Z" fill="#4F3429"/>
<path d="M87.5998 115.6C89.1998 121.2 92.9998 126 98.1998 128.7C108.6 134.1 121.4 130.1 126.8 119.7C132.2 109.3 128.2 96.5001 117.8 91.1001C107.4 85.7001 94.5998 89.7001 89.1998 100.1C86.6998 104.9 86.1998 110.4 87.5998 115.6Z" fill="#FFC2A7"/>
<path d="M133.2 112.5C132.2 112.5 131.1 111.7 130 110.1C128.7 108.2 127.7 106.2 127 104C126.2 101.9 125.8 99.6 125.6 97.4C125.5 95.1 126 93.7 127.2 93.2C128.4 92.8 129.7 93.5 131 95.5C133.5 99.3 135 103.7 135.4 108.2C135.5 110.5 135 112 133.8 112.4C133.6 112.4 133.4 112.5 133.2 112.5ZM127.9 95.2C127.5 95.7 127.3 98.7 128.9 103.4C130.5 108.1 132.5 110.3 133.1 110.5C133.5 110 133.7 107 132.1 102.3C130.5 97.6 128.5 95.3 127.9 95.2Z" fill="#4F3429"/>
<path d="M130.915 112.601C134.561 112.583 137.509 111.271 137.501 109.669C137.493 108.067 134.532 106.783 130.887 106.801C127.242 106.819 124.293 108.132 124.301 109.733C124.309 111.335 127.27 112.619 130.915 112.601Z" fill="#FFC2A7"/>
<path d="M87.6004 115.6C89.2004 121.2 93.0004 126 98.2004 128.7C101.9 125.5 96.1004 118.8 96.1004 118.8C90.6004 119.8 87.4004 108.8 93.0004 106.8C98.6004 104.8 100.8 111.2 100.8 111.2C101.4 106.7 101.4 103.5 104.6 101.1C113.2 100.9 123.3 95.5001 123.4 95.4001C115.4 86.8001 102 86.4001 93.4004 94.4001C87.8004 99.8001 85.5004 108 87.6004 115.6Z" fill="#4F3429"/>
<path d="M97.1004 114.7H97.0004H96.7004C96.8004 114.7 96.4004 114.7 96.7004 114.7L96.3004 114.6C96.5004 114.6 96.3004 114.6 96.2004 114.6L96.0004 114.5C95.8004 114.4 96.0004 114.5 95.9004 114.5L95.8004 114.4C95.7004 114.3 95.7004 114.3 95.6004 114.2C95.7004 114.3 95.6004 114.2 95.6004 114.1L95.5004 113.9C95.5004 113.8 95.4004 113.7 95.4004 113.7C95.4004 113.7 95.4004 113.5 95.4004 113.6C95.4004 113.5 95.4004 113.3 95.4004 113.2C95.4004 113.1 95.4004 113.4 95.4004 113.1C95.4004 113 95.4004 113 95.4004 112.9C95.4004 112.9 95.5004 112.7 95.4004 112.7C95.3004 112.7 95.5004 112.6 95.5004 112.6C95.5004 112.5 95.6004 112.5 95.6004 112.4C95.8004 112.2 95.5004 112.5 95.6004 112.4C95.7004 112.3 95.7004 112.3 95.8004 112.2L96.2004 112C96.4004 111.9 96.2004 112 96.3004 112L96.5004 111.9H96.7004C96.5004 111.9 96.8004 111.9 96.8004 111.9C97.4004 111.9 97.8004 111.5 97.8004 110.9C97.8004 110.8 97.8004 110.7 97.8004 110.6C97.3004 109 95.6004 108 94.0004 108.4C92.9004 108.7 92.0004 109.6 91.8004 110.7C91.7004 111.3 92.0004 111.8 92.5004 112C93.1004 112.1 93.6004 111.8 93.8004 111.3C93.8004 111.2 93.8004 111.1 93.9004 111C93.9004 110.9 93.9004 110.9 93.9004 111C93.9004 110.9 94.0004 110.9 94.0004 110.8C94.0004 110.8 94.2004 110.6 94.1004 110.7L94.3004 110.5C94.5004 110.3 94.2004 110.5 94.4004 110.4C94.4004 110.4 94.7004 110.2 94.6004 110.3C94.5004 110.4 94.8004 110.3 94.8004 110.2C95.0004 110.1 94.7004 110.2 94.9004 110.2H95.0004C94.8004 110.2 95.0004 110.2 95.1004 110.2L95.3004 110.3C95.2004 110.3 95.2004 110.3 95.3004 110.3L95.6004 110.5C95.5004 110.4 95.6004 110.5 95.7004 110.6C95.8004 110.7 95.9004 110.8 95.8004 110.7C95.8004 110.8 95.9004 110.9 95.9004 110.9C95.9004 111 95.9004 111 95.9004 111.1L96.9004 109.8C94.9004 109.8 93.4004 111.4 93.3004 113.3C93.3004 114.5 93.9004 115.6 94.9004 116.2C95.8004 116.7 96.8004 116.9 97.8004 116.7C98.4004 116.5 98.7004 116 98.5004 115.4C98.3004 114.8 97.8004 114.5 97.2004 114.7H97.1004Z" fill="#4F3429"/>
<path d="M122.972 109.756C124.242 109.086 124.623 107.315 123.823 105.801C123.024 104.287 121.346 103.603 120.077 104.274C118.807 104.944 118.426 106.715 119.225 108.229C120.025 109.743 121.702 110.427 122.972 109.756Z" fill="white"/>
<path d="M123.315 108.471C124.145 108.033 124.4 106.885 123.884 105.909C123.368 104.932 122.277 104.495 121.447 104.934C120.616 105.372 120.362 106.52 120.877 107.496C121.393 108.473 122.484 108.91 123.315 108.471Z" fill="#005045"/>
<path d="M117 124.2H116.9C115.2 124.1 113.7 123.2 112.7 121.8C110.9 119.2 112 115.5 112 115.3C112.2 114.7 112.7 114.4 113.3 114.6C113.9 114.8 114.2 115.3 114 115.9C114 116 113.2 118.9 114.4 120.7C115.1 121.6 116.1 122.1 117.2 122.2C117.8 122.2 118.2 122.7 118.1 123.3C118.1 123.7 117.6 124.2 117 124.2Z" fill="#4F3429"/>
<path d="M112.9 116.4H112.7C111.6 116.3 110.5 115.7 109.8 114.8C109.4 114.4 109.5 113.7 110 113.4C110.4 113 111.1 113.1 111.4 113.5C111.7 114 112.2 114.3 112.8 114.3C113.5 114.3 114.1 114 114.6 113.5C115 113.1 115.6 113.1 116 113.5C116.4 113.9 116.4 114.5 116 114.9C115.2 115.8 114 116.4 112.9 116.4Z" fill="#4F3429"/>
<path d="M123.2 117.6C120.2 117.6 116.9 114.3 115.2 109.4C114.3 107 114.1 104.5 114.4 102C114.8 99.6002 116 98.0002 117.6 97.4002C119.2 96.8002 121.2 97.4002 123 99.1002C126.6 102.7 128.3 107.8 127.7 112.8C127.3 115.2 126.1 116.8 124.5 117.4C124.1 117.6 123.7 117.6 123.2 117.6ZM118.9 99.3002C118.7 99.3002 118.5 99.3002 118.3 99.4002C117.4 99.7002 116.7 100.8 116.4 102.4C116.1 104.6 116.4 106.7 117.1 108.8C118.7 113.6 121.9 116.2 123.8 115.5C124.7 115.2 125.4 114.1 125.7 112.5C126.2 108.1 124.7 103.8 121.6 100.7C120.9 99.8002 119.9 99.4002 118.9 99.3002Z" fill="#4F3429"/>
<path d="M107.5 425.6H192.8L187.3 418.7H104.8L107.5 425.6Z" fill="#4F3429"/>
<path d="M92 449H182.2L176.7 442H94.2L92 449Z" fill="#4F3429"/>
<path d="M83.5996 458.5H91.5996L116.9 407.9L118.9 403.9H195.8L168.5 458.5H176.5L201.8 407.9L204.8 401.9C205.7 400.1 205 398 203.2 397.1C202.7 396.9 202.2 396.7 201.6 396.7H116.7C115.3 396.7 114.1 397.5 113.5 398.7L83.5996 458.5Z" fill="#4F3429"/>
<path d="M130 425.6H215.3L209.8 418.7H127.3L130 425.6Z" fill="white"/>
<path d="M215.299 426.6H129.999C129.599 426.6 129.199 426.4 128.999 426L126.299 419C126.099 418.5 126.299 417.9 126.799 417.7C126.899 417.6 127.099 417.6 127.299 417.6H209.799C210.099 417.6 210.399 417.7 210.599 418L216.099 425C216.499 425.4 216.399 426.1 215.999 426.4C215.799 426.6 215.599 426.7 215.299 426.6ZM130.699 424.6H213.199L209.299 419.7H128.799L130.699 424.6Z" fill="#4F3429"/>
<path d="M141.099 448.9H226.399L220.999 441.9H138.399L141.099 448.9Z" fill="white"/>
<path d="M226.4 449.9H141.1C140.7 449.9 140.3 449.7 140.1 449.2L137.4 442.2C137.3 441.9 137.3 441.5 137.5 441.3C137.7 441 138 440.9 138.3 440.9H221C221.3 440.9 221.6 441 221.8 441.3L227.3 448.3C227.5 448.6 227.6 449 227.4 449.4C227.2 449.7 226.8 449.9 226.4 449.9ZM141.8 447.9H224.3L220.4 443H139.9L141.8 447.9Z" fill="#4F3429"/>
<path d="M113.9 401.9L116.9 407.9L142.2 458.5H150.2L122.9 403.9H199.8L201.8 407.9L227.1 458.6H235.1L205.2 398.8C204.6 397.6 203.4 396.8 202 396.8H117.2C115.2 396.8 113.6 398.4 113.6 400.4C113.5 400.8 113.6 401.4 113.9 401.9Z" fill="white"/>
<path d="M234.999 459.5H226.999C226.599 459.5 226.299 459.3 226.099 458.9L199.099 404.8H124.499L151.099 458C151.299 458.3 151.199 458.7 150.999 459C150.799 459.3 150.499 459.5 150.099 459.5H142.099C141.699 459.5 141.399 459.3 141.199 458.9L112.999 402.4C112.299 401 112.399 399.3 113.199 397.9C113.999 396.5 115.499 395.7 117.099 395.7H201.999C203.699 395.7 205.299 396.7 206.099 398.2L235.999 458C236.199 458.3 236.199 458.7 235.999 459C235.799 459.4 235.399 459.6 234.999 459.5ZM227.599 457.5H233.299L204.199 399.1C203.799 398.2 202.899 397.7 201.899 397.7H117.099C116.199 397.7 115.399 398.2 114.899 398.9C114.399 399.7 114.399 400.6 114.799 401.4L142.799 457.5H148.499L121.899 404.3C121.599 403.8 121.799 403.2 122.299 402.9C122.499 402.8 122.599 402.8 122.799 402.8H199.699C200.099 402.8 200.399 403 200.599 403.4L227.599 457.5Z" fill="#4F3429"/>
<defs>
<linearGradient id="paint0_linear_2084_2" x1="238.28" y1="215.935" x2="296.91" y2="215.935" gradientUnits="userSpaceOnUse">
<stop stop-color="#F38374"/>
<stop offset="1" stop-color="#C64234"/>
</linearGradient>
<linearGradient id="paint1_linear_2084_2" x1="134.135" y1="190.978" x2="61.0243" y2="425.298" gradientUnits="userSpaceOnUse">
<stop stop-color="#F38374"/>
<stop offset="1" stop-color="#C64234"/>
</linearGradient>
<linearGradient id="paint2_linear_2084_2" x1="157.738" y1="198.342" x2="84.6275" y2="432.662" gradientUnits="userSpaceOnUse">
<stop stop-color="#F38374"/>
<stop offset="1" stop-color="#C64234"/>
</linearGradient>
<linearGradient id="paint3_linear_2084_2" x1="159.729" y1="30.8524" x2="97.6191" y2="198.282" gradientUnits="userSpaceOnUse">
<stop stop-color="#0A6B5B"/>
<stop offset="0.78" stop-color="#005146"/>
<stop offset="0.91" stop-color="#005045"/>
</linearGradient>
<linearGradient id="paint4_linear_2084_2" x1="217.349" y1="52.2259" x2="155.239" y2="219.656" gradientUnits="userSpaceOnUse">
<stop stop-color="#0A6B5B"/>
<stop offset="0.78" stop-color="#005146"/>
<stop offset="0.91" stop-color="#005045"/>
</linearGradient>
</defs>
</svg>
