<svg width="500" height="500" viewBox="0 0 500 500" fill="none" xmlns="http://www.w3.org/2000/svg">
<path d="M430.7 261.5C440 262.2 447.5 269.5 448.5 278.8C449.4 269.5 456.9 262.2 466.3 261.5C457 260.8 449.5 253.5 448.5 244.2C447.5 253.5 440 260.8 430.7 261.5Z" fill="#FED490"/>
<path d="M414.7 277.1C419.7 277.5 423.7 281.4 424.2 286.4C424.7 281.4 428.7 277.5 433.7 277.1C428.7 276.7 424.7 272.8 424.2 267.8C423.7 272.9 419.7 276.8 414.7 277.1Z" fill="#FED490"/>
<path d="M263.3 308.9C268.3 309.3 272.3 313.2 272.8 318.2C273.3 313.2 277.3 309.3 282.3 308.9C277.3 308.5 273.3 304.6 272.8 299.6C272.3 304.6 268.3 308.6 263.3 308.9Z" fill="#FED490"/>
<path d="M285.7 153.4C290.7 153.8 294.7 157.7 295.2 162.7C295.7 157.7 299.7 153.8 304.7 153.4C299.7 153 295.7 149.1 295.2 144.1C294.7 149.1 290.7 153 285.7 153.4Z" fill="#FED490"/>
<path d="M46 422.3C46 422.3 44.6 411.9 51.4 404.4H126.2C126.2 404.4 108.2 412.8 109 419.3C109.7 423.7 111.4 427.8 113.9 431.4C113.9 431.4 121 439.8 105.9 443.1C90.8 446.4 46 422.3 46 422.3Z" fill="#FFC2A7"/>
<path d="M138.9 229.8C157.6 227.6 174.9 238.4 178.4 266.8L203.5 404.3H146.4L98.1005 277.1C91.4005 246.7 116.9 229.8 138.9 229.8Z" fill="url(#paint0_linear_2087_408)"/>
<path d="M203.5 404.4C205 414.2 212.6 423.9 219.7 431.2C222.2 451.4 151.2 422.1 151.2 422.1L146.4 404.4H203.5Z" fill="#FFC2A7"/>
<path d="M151.8 422L157.6 456.1L235.9 456.2L219.8 431.1C219.8 431.1 221.5 441.1 199 433.8C170.3 424.4 153 414.2 151.8 422Z" fill="#4F3429"/>
<path d="M46 422.3L51.8 456.4L130.1 456.5L114 431.5C114 431.5 115.7 441.5 93.2 434.1C64.5 424.7 47.1 414.5 46 422.3Z" fill="#4F3429"/>
<path d="M200.8 397H145.1C144.4 397 143.9 396.5 143.9 395.8C143.9 395.1 144.4 394.6 145.1 394.6H200.8C201.5 394.6 202 395.1 202 395.8C202 396.5 201.5 397 200.8 397Z" fill="white"/>
<path d="M205.5 414.5C205.3 414.5 205.1 414.4 204.9 414.4L195.6 409.5C195 409.2 194.8 408.5 195.1 407.9C195.4 407.3 196.1 407.1 196.7 407.4L206 412.3C206.6 412.6 206.8 413.3 206.5 413.9C206.3 414.2 205.9 414.5 205.5 414.5Z" fill="#D88260"/>
<path d="M176.8 258.6C176.8 258.6 181.4 269.6 193.4 304.5C204 335.3 187 352 171.8 366.6C157.4 380.2 142.1 392.9 126.1 404.5H51.4004L118.2 322L176.8 258.6Z" fill="url(#paint1_linear_2087_408)"/>
<path d="M134.6 397H59.6004C58.9004 397 58.4004 396.5 58.4004 395.8C58.4004 395.1 58.9004 394.6 59.6004 394.6H134.6C135.3 394.6 135.8 395.1 135.8 395.8C135.8 396.5 135.2 397 134.6 397Z" fill="white"/>
<path d="M115.701 326H115.401C114.801 325.9 114.401 325.2 114.501 324.6C114.601 324 117.801 309.7 126.301 304.2C126.901 303.8 127.601 304 127.901 304.6C128.301 305.2 128.101 305.9 127.501 306.2C119.901 311.1 116.801 325 116.801 325.1C116.701 325.6 116.301 326 115.701 326Z" fill="#4F3429"/>
<path d="M100.101 397.1C99.8007 397.1 99.5007 397 99.3007 396.8C98.8007 396.4 98.8007 395.6 99.2007 395.1L141.601 347.6L141.801 347.5C142.001 347.4 160.901 332.7 155.401 313L119.501 235.5C119.201 234.9 119.501 234.2 120.101 233.9C120.701 233.6 121.401 233.9 121.701 234.5L157.601 312.1C157.601 312.2 157.601 312.2 157.701 312.3C160.201 321.2 158.501 330.4 152.701 339.1C150.101 343 147.001 346.5 143.301 349.4L101.001 396.7C100.801 397 100.501 397.1 100.101 397.1Z" fill="white"/>
<path d="M178.3 397C177.8 397 177.3 396.7 177.2 396.2C177.1 396 177.1 395.8 177.1 395.7C176.8 393.7 171.8 378.6 168.7 369.3C168.5 368.7 168.8 368 169.4 367.8C170 367.6 170.7 367.9 170.9 368.5C170.9 368.5 173.1 375.2 175.3 381.9C180 396.4 180 396.4 178.6 396.9C178.5 397 178.4 397 178.3 397Z" fill="white"/>
<path d="M141.301 393C140.901 393 140.501 392.8 140.301 392.5C139.901 392 140.001 391.2 140.601 390.9C141.101 390.6 186.301 357.8 191.101 341.7C191.301 341.1 191.901 340.7 192.601 340.9C193.201 341.1 193.601 341.7 193.401 342.4C188.301 359.2 143.901 391.4 142.001 392.8C141.801 393 141.501 393 141.301 393Z" fill="#4F3429"/>
<path d="M109 420.6C108.7 420.6 108.4 420.5 108.2 420.2L99 411C98.5 410.5 98.5 409.8 99 409.3C99.5 408.8 100.2 408.8 100.7 409.3L109.8 418.5C110.2 419 110.2 419.7 109.7 420.2C109.5 420.4 109.2 420.5 109 420.6Z" fill="#D88260"/>
<path d="M247.2 442.4C247 442.4 246.9 442.4 246.7 442.3C239.8 439.3 232.1 439 225 441.5C224.4 441.7 223.7 441.4 223.5 440.8C223.3 440.3 223.5 439.7 224 439.4C230 435.7 239.6 428.4 239.8 424.3C239.8 423.5 239.5 422.8 238.8 422.4C233.5 418.6 222.7 430.7 219 435.7C218.6 436.2 217.9 436.3 217.3 435.9C216.7 435.5 216.7 434.8 217.1 434.2C219.5 431 222.2 428 225.2 425.2C231.5 419.4 236.6 417.7 240.2 420.3C241.5 421.1 242.3 422.6 242.2 424.2C242 428.5 235.7 433.9 230.8 437.5C236.6 436.7 242.5 437.6 247.8 440C248.4 440.3 248.7 441 248.4 441.6C248.2 442.1 247.8 442.3 247.2 442.4Z" fill="#C64234"/>
<path d="M137.7 446.8C137.5 446.8 137.4 446.8 137.2 446.7C130.3 443.7 122.6 443.4 115.5 445.9C114.9 446.1 114.3 445.9 114 445.3C113.7 444.8 113.9 444.1 114.4 443.8C120.4 440.1 130 432.8 130.2 428.7C130.2 427.9 129.9 427.2 129.2 426.8C123.9 423 113.1 435.1 109.4 440.1C109 440.6 108.3 440.7 107.8 440.4C107.3 440 107.2 439.3 107.6 438.7C110 435.5 112.7 432.5 115.7 429.7C122 423.9 127.1 422.2 130.7 424.8C132 425.7 132.8 427.1 132.7 428.7C132.5 433 126.2 438.4 121.4 442C127.2 441.2 133.1 442.1 138.4 444.5C139 444.8 139.3 445.5 139 446.1C138.7 446.4 138.3 446.7 137.7 446.8Z" fill="#C64234"/>
<path d="M174.1 145.4C174.1 145.4 184.2 145.8 193.3 154.9L230.9 193.6L287.7 225.2C287.7 225.2 288.9 260.1 264.5 265C242.2 269.5 211.7 245.6 211.7 245.6L165.2 215.7L174.1 145.4Z" fill="#FFC2A7"/>
<path d="M104.8 139.8L34.0002 189.8C13.7002 198.3 -12.4998 253.4 44.4002 265.9L72.5002 268.2L83.0002 219.5L114.3 201.3L104.8 139.8Z" fill="#FFC2A7"/>
<path d="M128.801 136.3L163.601 140.4C167.101 140.7 170.401 141.7 173.501 143.5C181.701 148 185.901 158.2 183.901 168.2C180.901 183.6 178.001 197.3 174.601 211.7C173.101 217.9 167.701 222.1 161.901 221.4L141.201 219C123.901 217 110.201 202.4 107.901 183.5L103.401 142.4C103.301 142.4 103.601 132.8 128.801 136.3Z" fill="url(#paint2_linear_2087_408)"/>
<path d="M118 76C125.6 66.6 137.2 63.3 144 68.7C150.8 74.1 150.1 86.2 142.6 95.6C135 105 123.4 108.3 116.6 102.9C109.7 97.5 110.4 85.4 118 76Z" fill="url(#paint3_linear_2087_408)"/>
<path d="M98.3001 61.6999C103.8 50.8999 113.6 44.8999 120.2 48.2999C126.8 51.6999 127.6 63.0999 122.1 73.8999C116.6 84.6999 106.8 90.6999 100.2 87.2999C93.6001 83.8999 92.8001 72.4999 98.3001 61.6999Z" fill="url(#paint4_linear_2087_408)"/>
<path d="M77.9998 54.5999C81.1998 45.8999 88.6998 40.6999 94.6998 42.8999C100.7 45.0999 103 53.8999 99.7998 62.5999C96.5998 71.2999 89.0998 76.4999 83.0998 74.2999C77.0998 71.9999 74.7998 63.1999 77.9998 54.5999Z" fill="url(#paint5_linear_2087_408)"/>
<path d="M130 110.1C128.8 115.8 130 121.8 133.4 126.6C140.1 136.2 153.3 138.5 162.9 131.8C172.5 125.1 174.8 111.9 168.1 102.3C161.4 92.6998 148.2 90.3998 138.6 97.0998C134.2 100.2 131.1 104.8 130 110.1Z" fill="#FFC2A7"/>
<path d="M172.7 128.5C172.6 128.5 172.5 128.5 172.4 128.5C171.1 128.3 170.2 127 169.9 124.6C169.6 122.3 169.7 120 170 117.8C170.6 114 172.3 107.8 175.4 108.2C178.5 108.6 178.3 115.2 177.8 118.9C177.5 121.2 176.9 123.4 176 125.5C174.9 127.5 173.9 128.5 172.7 128.5ZM175 110.6C174.4 111.1 173 113.6 172.4 118.1C171.7 122.6 172.3 125.4 172.8 126.1C173.4 125.6 174.8 123.1 175.4 118.6C176 114.1 175.4 111.3 175 110.6Z" fill="#4F3429"/>
<path d="M176.89 127.654C177.619 126.228 175.579 123.727 172.333 122.068C169.088 120.409 165.866 120.22 165.136 121.646C164.407 123.072 166.447 125.573 169.693 127.232C172.939 128.891 176.161 129.08 176.89 127.654Z" fill="#FFC2A7"/>
<path d="M130 110.1C128.8 115.8 130 121.8 133.4 126.6C138.1 125.4 136.1 116.9 136.1 116.9C130.8 115.3 133 104.1 138.9 104.8C144.8 105.5 143.8 112.3 143.8 112.3C160 121.3 170.9 108.8 171.1 108.7C167.9 97.4999 156.2 90.8999 145 94.0999C137.4 96.1999 131.6 102.4 130 110.1Z" fill="url(#paint6_linear_2087_408)"/>
<path d="M138.9 113.5H138.7C138.8 113.6 138.4 113.4 138.7 113.5C138.6 113.4 138.5 113.4 138.4 113.3C138.5 113.4 138.3 113.2 138.4 113.3L138.3 113.2C138.2 113.1 138.2 113.1 138.3 113.2L138.2 113L138.1 112.8C138 112.7 138.2 113 138.1 112.7C138.1 112.6 138.1 112.6 138.1 112.5C138.1 112.4 138.1 112.4 138.1 112.5C138.1 112.4 138.1 112.4 138.1 112.3C138.1 112.2 138.1 112 138.1 112.1C138.1 112.2 138.1 112 138.1 112C138.1 112 138.1 111.8 138.2 111.8C138.3 111.8 138.2 111.7 138.2 111.8L138.3 111.6L138.4 111.4C138.5 111.3 138.3 111.5 138.4 111.4L138.5 111.2C138.6 111.1 138.7 111 138.9 111C138.7 111.1 138.9 111 139 111C139.1 111 139.1 111 139.2 110.9C139.3 110.9 139 110.9 139.2 110.9H139.7C139.6 110.9 139.6 110.9 139.7 110.9C139.8 110.9 139.9 111 139.9 111C140.1 111 139.7 110.9 140 111C140.6 111.3 141.3 111.1 141.6 110.5C141.6 110.4 141.7 110.3 141.7 110.2C142.1 108.5 141 106.7 139.3 106.3C138.1 106 136.9 106.4 136.1 107.4C135.7 107.9 135.7 108.6 136.1 109.1C136.6 109.6 137.3 109.6 137.8 109.1L138 108.9C138.2 108.7 137.9 109 138.1 108.8L138.3 108.7C138.1 108.8 138.3 108.7 138.4 108.7C138.5 108.7 138.7 108.7 138.5 108.7H138.8C139.1 108.7 138.6 108.6 138.9 108.7C139 108.7 139.2 108.8 139 108.7L139.3 108.8C139.1 108.7 139.3 108.8 139.4 108.9C139.5 109 139.6 109.2 139.5 109L139.6 109.2C139.7 109.4 139.6 109 139.6 109.3L139.7 109.5C139.7 109.6 139.7 109.6 139.7 109.4C139.7 109.4 139.7 109.5 139.7 109.6C139.7 109.9 139.7 109.5 139.7 109.7L141.4 109C140.5 108.5 139.4 108.5 138.4 108.8C136.5 109.5 135.6 111.7 136.3 113.6C136.7 114.7 137.7 115.5 138.8 115.8C139.4 116 140.1 115.6 140.3 115C140.5 114.4 140.1 113.7 139.5 113.5H138.9Z" fill="#D88260"/>
<path d="M164.033 121.004C165.469 120.992 166.621 119.594 166.606 117.882C166.592 116.17 165.416 114.792 163.98 114.804C162.544 114.816 161.392 116.214 161.406 117.926C161.421 119.638 162.597 121.016 164.033 121.004Z" fill="white"/>
<path d="M163.924 120.805C164.863 120.797 165.616 119.895 165.607 118.79C165.597 117.685 164.828 116.797 163.889 116.805C162.951 116.813 162.197 117.715 162.207 118.819C162.216 119.924 162.985 120.813 163.924 120.805Z" fill="#005045"/>
<path d="M152.6 131.4C152.4 131.4 152.1 131.3 151.9 131.2C150.4 130.3 149.4 128.8 149.2 127C148.9 123.8 151.5 120.9 151.6 120.8C152 120.3 152.8 120.3 153.3 120.7C153.8 121.1 153.8 121.9 153.4 122.3C153.4 122.3 151.4 124.5 151.6 126.7C151.8 127.7 152.4 128.7 153.3 129.2C153.8 129.6 154 130.3 153.6 130.8C153.3 131.2 153 131.4 152.6 131.4Z" fill="#D88260"/>
<path d="M153.9 122.9C153.2 122.9 152.4 122.7 151.8 122.4C150.8 121.8 150.1 120.7 149.9 119.6C149.8 119 150.2 118.3 150.8 118.2C151.4 118.1 152 118.5 152.2 119.1C152.3 119.6 152.5 120.1 153 120.4C153.6 120.6 154.2 120.7 154.8 120.5C155.4 120.3 156.1 120.6 156.3 121.3C156.5 121.9 156.2 122.6 155.5 122.8C154.9 122.9 154.4 122.9 153.9 122.9Z" fill="#D88260"/>
<path d="M162.4 128.8C162.2 128.8 162 128.8 161.8 128.7C160 128.4 158.5 127 157.7 124.7C156.9 122.3 156.7 119.7 157.1 117.2C157.4 114.7 158.3 112.3 159.8 110.2C161.3 108.2 163.1 107.2 164.9 107.5C168.4 108 170.5 113.1 169.6 119C169.3 121.5 168.4 123.9 166.9 126C165.9 127.6 164.2 128.6 162.4 128.8ZM164.3 109.9C163.2 110.1 162.2 110.7 161.6 111.7C160.4 113.5 159.6 115.5 159.4 117.6C159 119.7 159.2 121.9 159.9 123.9C160.4 125.4 161.3 126.3 162.2 126.4C163.1 126.5 164.2 125.9 165.1 124.6C166.3 122.8 167.1 120.8 167.3 118.7C168 113.8 166.4 110.1 164.6 109.9H164.3Z" fill="#4F3429"/>
<path d="M132.9 104.6C132.7 104.6 132.6 104.6 132.5 104.5C131.9 104.3 131.6 103.6 131.8 103C135.7 93.3 143.2 93.2 143.7 93.2C144.4 93.3 144.8 93.8 144.8 94.5C144.7 95.1 144.3 95.5 143.7 95.6C143.4 95.6 137.3 95.7 134 103.9C133.8 104.3 133.4 104.6 132.9 104.6Z" fill="#4F3429"/>
<path d="M113.9 83.6998C113.7 83.6998 113.6 83.6998 113.5 83.5998C112.9 83.3998 112.6 82.6998 112.8 82.0998C116.7 72.2998 124.4 72.2998 124.7 72.2998C125.4 72.2998 125.9 72.7998 125.9 73.4998C125.9 74.1998 125.4 74.6998 124.7 74.6998C124.4 74.6998 118.3 74.7998 115 82.9998C114.8 83.3998 114.3 83.6998 113.9 83.6998Z" fill="#4F3429"/>
<path d="M94.2 71.6C93.6 71.6 93 71.1 93 70.4C93.1 64 99.3 56.8 99.6 56.5C100 56 100.8 55.9 101.3 56.4C101.8 56.8 101.8 57.6 101.4 58.1C101.3 58.2 95.5 65 95.4 70.5C95.4 71.1 94.8 71.6 94.2 71.6Z" fill="#4F3429"/>
<path d="M71.0003 55.4C70.8003 55.4 70.6003 55.3 70.4003 55.2C69.9003 54.8 69.7003 54.1 70.0003 53.6C71.0003 52 74.2003 51.6 76.5003 51.6C74.8003 48.7 73.5003 45.7 74.5003 44.3C75.0003 43.6 75.8003 43.3 76.6003 43.5C80.9003 44.3 81.5003 51 81.5003 51.2C81.6003 51.9 81.1003 52.4 80.4003 52.5C80.2003 52.5 79.9003 52.5 79.7003 52.3C79.9003 52.7 79.9003 53.1 79.7003 53.4C79.5003 53.8 79.0003 54 78.6003 54C75.6003 53.7 72.4003 54.1 72.0003 54.8C71.9003 55.2 71.4003 55.5 71.0003 55.4ZM76.6003 46C77.2003 47.9 78.1003 49.8 79.2003 51.5C79.1003 50.2 78.4003 46.7 76.6003 46Z" fill="#4F3429"/>
<path d="M174.4 208.2C174.2 208.2 173.9 208.1 173.7 208C167.1 203.5 156.4 194.5 158.6 185.1C158.9 183.9 159.4 182.7 160 181.7C152.7 178.5 145.6 173.1 143.6 166.7C138.9 151.6 154.2 139.3 154.9 138.7C155.4 138.3 156.1 138.3 156.6 138.8C157 139.3 157 140 156.5 140.5L156.4 140.6C156.3 140.7 141.7 152.4 145.9 166C147.7 171.9 154.7 176.9 161.6 179.8C163.7 177.8 166.3 176.4 169.2 176C173 175.5 176.2 176.7 177.7 179.4C178.8 181.4 178.5 182.7 177.9 183.5C176.8 185.1 174.3 185.5 170.3 184.9C167.5 184.4 164.8 183.7 162.2 182.7C161.6 183.6 161.1 184.6 160.8 185.7C160 189.2 160.7 196.4 174.9 206.1C175.4 206.5 175.6 207.2 175.2 207.8C175.2 208 174.8 208.2 174.4 208.2ZM164.1 180.8C166.3 181.6 168.5 182.2 170.8 182.6C174.4 183.2 175.8 182.6 176.1 182.2C176.4 181.8 176.1 181.4 175.7 180.6C174.7 178.8 172.4 178 169.6 178.4C167.6 178.6 165.7 179.5 164.1 180.8Z" fill="#FED490"/>
<path d="M143.1 165.3C146.579 165.3 149.4 162.479 149.4 159C149.4 155.521 146.579 152.7 143.1 152.7C139.62 152.7 136.8 155.521 136.8 159C136.8 162.479 139.62 165.3 143.1 165.3Z" fill="#FED490"/>
<path d="M246.2 246.6L211.7 245.5C207 245.4 203.3 241.4 203.4 236.7C203.4 235.9 203.6 235.1 203.8 234.4L224.9 168.2C226.1 164.6 229.5 162.1 233.3 162.3L267.8 163.4C272.5 163.5 276.2 167.5 276.1 172.2C276.1 173 275.9 173.8 275.7 174.5L254.6 240.7C253.5 244.3 250 246.8 246.2 246.6Z" fill="#4F3429"/>
<path d="M246.5 247.8H246.2L211.7 246.7C206.3 246.6 202.1 242.1 202.2 236.7C202.2 235.8 202.4 234.9 202.7 234L223.8 167.8C225.1 163.7 229 160.9 233.4 161L267.9 162.1C273.3 162.3 277.5 166.8 277.3 172.1C277.3 173 277.1 173.9 276.8 174.7L255.7 240.9C254.4 245.1 250.7 247.8 246.5 247.8ZM246.3 245.5C249.6 245.6 252.5 243.5 253.5 240.4L274.6 174.2C275.8 170.3 273.7 166.2 269.8 165C269.2 164.8 268.5 164.7 267.8 164.7L233.3 163.6C230 163.5 227.1 165.6 226.1 168.7L205 234.8C203.8 238.7 205.9 242.8 209.8 244C210.5 244.2 211.1 244.3 211.8 244.3L246.3 245.5Z" fill="#4F3429"/>
<path d="M251.9 246.8L217.4 245.7C212.7 245.6 209 241.6 209.1 236.9C209.1 236.1 209.3 235.3 209.5 234.6L230.6 168.4C231.8 164.8 235.2 162.3 239 162.5L273.5 163.6C278.2 163.7 281.9 167.7 281.8 172.4C281.8 173.2 281.6 174 281.4 174.7L260.3 240.9C259.1 244.5 255.7 246.9 251.9 246.8Z" fill="white"/>
<path d="M252.1 248H251.8L217.3 246.9C211.9 246.8 207.7 242.3 207.8 236.9C207.8 236 208 235.1 208.3 234.2L229.4 168C230.7 163.9 234.6 161.1 239 161.2L273.5 162.3C278.9 162.4 283.1 166.9 283 172.3C283 173.2 282.8 174.1 282.5 175L261.4 241.2C260.1 245.3 256.4 248 252.1 248ZM251.9 245.6H252.1C255.3 245.6 258.1 243.5 259.1 240.5L280.2 174.3C281.4 170.4 279.3 166.3 275.4 165.1C274.8 164.9 274.1 164.8 273.4 164.8L238.9 163.7C235.6 163.6 232.7 165.7 231.7 168.8L210.6 235C209.4 238.9 211.5 243 215.4 244.2C216 244.4 216.7 244.5 217.4 244.5L251.9 245.6Z" fill="#4F3429"/>
<path d="M253.6 176.7L242 176.3C239.8 176.2 238.1 174.4 238.1 172.2C238.1 171.8 238.2 171.3 238.3 170.9C238.9 169.3 240.5 168.2 242.2 168.3L253.7 168.7C255.9 168.8 257.6 170.6 257.6 172.8C257.6 173.2 257.5 173.7 257.4 174.1C256.8 175.6 255.3 176.7 253.6 176.7Z" fill="#4F3429"/>
<path d="M242.7 176.3H242C239.8 176.2 238.1 174.4 238.1 172.2C238.1 171.8 238.2 171.3 238.3 170.9C238.9 169.3 240.5 168.2 242.2 168.3H242.9C245.1 168.4 246.8 170.2 246.8 172.4C246.8 172.8 246.7 173.3 246.6 173.7C246 175.3 244.5 176.4 242.7 176.3Z" fill="white"/>
<path d="M242.9 177.5H242.7H242C239.1 177.5 236.8 175.2 236.8 172.3C236.8 169.4 239.1 167.1 242 167.1C242.1 167.1 242.2 167.1 242.3 167.1H243C245.9 167.2 248.1 169.6 248 172.4C248 173 247.9 173.5 247.7 174.1C247 176.2 245 177.5 242.9 177.5ZM242.2 169.5C240.6 169.6 239.4 170.9 239.5 172.5C239.6 173.9 240.7 175.1 242.1 175.2H242.8C244.4 175.2 245.6 173.9 245.6 172.3C245.6 170.8 244.5 169.7 243 169.5H242.2Z" fill="#4F3429"/>
<path d="M297.5 199C297.5 199 296.5 189.5 290.6 184.8C286.2 181.3 277.9 179.3 267.2 181.7C259 183.5 244.2 187.9 239.6 192.4C235 196.9 235.6 203.4 241.2 204.5C241.2 204.5 231.3 214.4 238.9 222.4C238.9 222.4 234.2 229.2 239.7 234.8C245.2 240.4 251 239.3 258.9 246.3C263.2 249.7 273 249.9 283.7 238.1C294.4 226.3 297.5 199 297.5 199Z" fill="#FFC2A7"/>
<path d="M297.1 197C297.1 197 300.7 175.2 292 168.9C283.3 162.6 278.3 170.9 277.1 174.3C275.9 177.7 275.1 182.3 280 185.6C284.9 188.9 297.1 197 297.1 197Z" fill="#FFC2A7"/>
<path d="M297.5 200.2C297 200.2 296.5 199.9 296.4 199.3C296.4 199.2 294 191.2 288.7 186.3C283.4 181.4 278.7 181.7 278.7 181.7C278.1 181.7 277.5 181.3 277.5 180.6C277.5 180.6 277.5 180.6 277.5 180.5C277.5 179.8 278 179.3 278.6 179.3C278.8 179.3 284.4 179.1 290.3 184.5C296.2 189.9 298.5 198.2 298.7 198.5C298.9 199.1 298.5 199.8 297.9 200C297.7 200.1 297.6 200.1 297.5 200.2Z" fill="#D88260"/>
<path d="M241.2 205.7C240.5 205.7 240 205.2 240 204.5C240 204.1 240.2 203.7 240.6 203.5C241 203.2 250.6 197.3 256.5 194.4C260.4 192.5 264.7 191.9 269 192.6C269.6 192.7 270.1 193.4 269.9 194C269.8 194.6 269.1 195.1 268.5 194.9C264.8 194.3 260.9 194.9 257.5 196.5C251.8 199.4 241.9 205.4 241.8 205.5C241.7 205.6 241.5 205.7 241.2 205.7Z" fill="#D88260"/>
<path d="M239 223.5C238.3 223.5 237.8 223 237.8 222.3C237.8 221.9 238 221.5 238.4 221.3C238.8 221.1 248.3 215.4 256.5 214.4C264.7 213.4 269.2 215.1 269.3 215.2C269.9 215.4 270.3 216.1 270 216.7C269.7 217.3 269.1 217.7 268.5 217.4H268.4C268.4 217.4 264.3 215.9 256.7 216.8C249.1 217.7 239.7 223.3 239.6 223.4C239.4 223.5 239.2 223.5 239 223.5Z" fill="#D88260"/>
<path d="M263.7 240.3C263.5 240.3 263.2 240.2 263 240.1C259.6 237.8 252.7 238.1 252.7 238.1C252.1 238.1 251.5 237.6 251.5 237C251.5 236.4 252 235.8 252.6 235.8C252.9 235.8 260.3 235.4 264.4 238.2C264.9 238.6 265.1 239.3 264.7 239.8C264.5 240.1 264.1 240.3 263.7 240.3Z" fill="#D88260"/>
<path d="M266.3 249C263.6 249 260.9 248.4 258.4 247.3C257.8 247 257.6 246.3 257.9 245.7C258.2 245.1 258.9 244.9 259.5 245.2C259.9 245.4 268.2 249.5 277.5 242.8C287 235.9 290 223.8 290 223.7C290.1 223.1 290.8 222.7 291.4 222.8C292 222.9 292.4 223.6 292.3 224.2C292.2 224.7 289.1 237.2 278.9 244.7C275.3 247.5 270.9 249 266.3 249Z" fill="#D88260"/>
<path d="M77.6 218.7L101.9 223C101.9 223 115.2 220.7 121.5 221.7C127.8 222.7 129.5 233.6 129.5 233.6L145 252C145 252 149.1 259.4 146.6 266.4L137.3 292.9C137.3 292.9 129.2 298.2 124.2 289.6C124.2 289.6 116.1 294.7 110.6 285.3C110.6 285.3 101.1 276.2 99.2 271L72.5 268.3L77.6 218.7Z" fill="#FFC2A7"/>
<path d="M129.5 234.9C129.2 234.9 128.9 234.8 128.6 234.5C128.5 234.4 120.8 226.1 111.9 224.3C111.3 224.2 110.8 223.5 111 222.9C111.2 222.3 111.8 221.8 112.4 222C122.1 223.9 130 232.5 130.4 232.9C130.8 233.4 130.8 234.1 130.3 234.6C130.1 234.8 129.8 234.9 129.5 234.9Z" fill="#D88260"/>
<path d="M124.2 290.7C124.1 290.7 123.9 290.7 123.8 290.6C123.2 290.4 122.9 289.7 123.1 289.1C124.9 284.2 129.6 271 129.9 267.8C130.2 265.1 130.2 262.3 129.8 259.6C129.5 259 129.8 258.3 130.4 258.1C131 257.8 131.7 258.1 131.9 258.7C132.5 260 132.5 264.5 132.2 268.1C131.8 272.2 125.5 289.2 125.3 290C125.2 290.4 124.7 290.7 124.2 290.7Z" fill="#D88260"/>
<path d="M110.7 286.4C110.5 286.4 110.4 286.4 110.2 286.3C109.6 286 109.3 285.4 109.6 284.8C109.6 284.7 113.5 275.3 111.8 265.7C111.7 265.1 112.1 264.4 112.8 264.3C113.5 264.2 114.1 264.6 114.2 265.3C116.1 275.6 112.1 285.3 111.9 285.7C111.6 286.1 111.2 286.4 110.7 286.4Z" fill="#D88260"/>
<path d="M99.3005 272.1C98.9005 272.1 98.6005 271.9 98.4005 271.6C98.2005 271.3 92.5005 264.1 91.2005 259.6C91.0005 259 91.4005 258.3 92.0005 258.1C92.6005 257.9 93.3005 258.3 93.5005 258.9C94.7005 263 100.2 270.1 100.3 270.1C100.7 270.6 100.6 271.4 100.1 271.8C99.8005 272 99.5005 272.1 99.3005 272.1Z" fill="#D88260"/>
<path d="M83.1005 220.7C82.8005 220.7 82.6005 220.6 82.4005 220.4C74.7005 214.9 65.2005 212.2 55.7005 212.9C55.1005 213 54.5005 212.5 54.4005 211.9C54.3005 211.3 54.8005 210.7 55.4005 210.6H55.5005C64.4005 209.9 73.2005 212 80.8005 216.6L77.6005 207.2C77.4005 206.6 77.7005 205.9 78.3005 205.7C78.9005 205.5 79.6005 205.8 79.8005 206.4L84.2005 219.1C84.4005 219.6 84.2005 220.1 83.8005 220.5C83.6005 220.6 83.3005 220.7 83.1005 220.7Z" fill="#D88260"/>
<path d="M364.1 377.5L366.7 398H344.5L340.2 420H447.3C447.3 420 453.7 417.5 453.2 402.1L451.1 378.2L364.1 377.5Z" fill="url(#paint7_linear_2087_408)"/>
<path d="M285.2 290.8C284.7 290.8 284.3 290.5 284.1 290C277.4 272.1 269.6 254.5 262.1 237.4C254.3 219.9 246.3 201.7 239.5 183.3C239.3 182.7 239.6 182 240.2 181.8C240.8 181.6 241.5 181.9 241.7 182.5C248.5 200.8 256.5 218.9 264.2 236.4C271.8 253.5 279.6 271.3 286.3 289.2C286.5 289.8 286.2 290.5 285.6 290.7C285.6 290.8 285.4 290.8 285.2 290.8Z" fill="#4F3429"/>
<path d="M482.6 379.3C480.6 379.3 479.2 379.3 478.4 379.3C477.9 379.3 477.4 379.3 476.9 379.2C440.6 378.1 403.1 378.3 366.8 378.5C352.2 378.6 337.2 378.7 322.5 378.7C322 378.7 321.6 378.4 321.4 378C309.8 352.4 297.8 326 287.7 298.8C287.5 298.2 287.8 297.5 288.4 297.3C289 297.1 289.7 297.4 289.9 298C299.8 324.9 311.7 351 323.2 376.3C337.7 376.3 352.4 376.2 366.7 376.1C403.3 375.9 441.2 375.6 477.8 376.8C478.2 376.8 478.8 376.8 479.4 376.8C480 376.8 480.7 376.8 481.3 376.8C481.8 312 481.8 249 481.8 182.5C454.2 181 426.8 179.9 400.3 178.8C368.7 177.5 336.1 176.2 303.5 174.3C302.9 174.3 302.4 173.7 302.4 173.1C302.4 172.5 302.9 172 303.6 172C303.6 172 303.6 172 303.7 172C336.3 173.9 368.9 175.2 400.5 176.5C427.4 177.6 455.1 178.7 483.1 180.2C483.7 180.2 484.2 180.8 484.2 181.4C484.2 248.8 484.2 312.5 483.7 378.2C483.7 378.5 483.6 378.8 483.3 379H483.2H483C482.9 379 482.8 379.1 482.7 379.1H482.5L482.6 379.3Z" fill="#4F3429"/>
<path d="M364 377.8C363.4 377.8 362.9 377.3 362.8 376.7C361.9 365.6 362.1 354.5 363.2 343.4C365.8 319.9 373 304.9 384.7 298.8C411.3 285 455.4 290.9 464 305.3C472.8 319.8 460.9 354.5 458 362.5H464.7C465.4 362.5 465.9 363 465.9 363.7V371.4C465.9 372.1 465.4 372.6 464.7 372.6H399C398.3 372.6 397.8 372.1 397.8 371.4V363.7C397.8 363 398.3 362.5 399 362.5H450C450.7 362.5 451.2 363 451.2 363.7C451.2 364.4 450.7 364.9 450 364.9H400.2V370.3H463.6V364.9H456.3C455.6 364.9 455.1 364.4 455.1 363.7C455.1 363.6 455.1 363.4 455.2 363.3C455.4 362.9 471.2 321.7 462 306.6C454.7 294.6 412.7 287 385.8 301C359.5 314.7 365.1 375.9 365.1 376.6C365.2 377.2 364.7 377.8 364 377.9V377.8Z" fill="#4F3429"/>
<path d="M442.7 364.3C442.1 364.3 441.5 363.8 441.5 363.2C441.5 362.9 441.6 362.7 441.7 362.5C455.9 342.6 462.3 313.8 455.5 300.8C455.2 300.2 455.4 299.5 456 299.2C456.6 298.9 457.3 299.1 457.6 299.7C464.8 313.3 458.3 343.3 443.6 363.8C443.4 364.1 443.1 364.2 442.7 364.3Z" fill="#4F3429"/>
<path d="M351.4 377.6H341.7C341.3 377.6 341 377.4 340.8 377.2C340.6 376.9 340.5 376.6 340.6 376.2L341.4 372.2H321.6C321 372.2 320.4 371.7 320.4 371V363.2C320.4 362.5 320.9 362 321.6 362H358.7C359.4 362 359.9 362.5 359.9 363.2C359.9 363.8 359.4 364.4 358.7 364.4H322.7V369.9H342.7C343.1 369.9 343.4 370.1 343.6 370.3C343.8 370.6 343.9 370.9 343.8 371.3L343 375.2H350.5L352.3 370.8C352.5 370.4 352.9 370.1 353.4 370.1H363.5C364.2 370.1 364.7 370.6 364.7 371.3C364.7 371.9 364.2 372.5 363.5 372.5H354.2L352.4 376.9C352.3 377.3 351.9 377.6 351.4 377.6Z" fill="#4F3429"/>
<path d="M341 377.7L324.9 456.4H334L352.2 377.5L341 377.7Z" fill="#4F3429"/>
<path d="M411.5 377.7L395.5 456.4H404.6L422.8 377.5L411.5 377.7Z" fill="#4F3429"/>
<path d="M458.5 377.7L474.5 456.4H465.4L447.2 377.5L458.5 377.7Z" fill="#4F3429"/>
<path d="M460 415.8H339.3V423.4H460V415.8Z" fill="#4F3429"/>
<path d="M436.6 253.1C436.4 253.1 436.3 253.1 436.1 253L279.4 186.7C278.8 186.5 278.5 185.8 278.8 185.2C279.1 184.6 279.7 184.3 280.3 184.6L437 250.9C437.6 251.1 437.9 251.8 437.6 252.4C437.5 252.8 437.1 253.1 436.6 253.1Z" fill="#4F3429"/>
<path d="M454.2 399.1H366.7C366 399.1 365.5 398.6 365.5 397.9C365.5 397.3 366 396.7 366.7 396.7H454.2C454.9 396.7 455.4 397.2 455.4 397.9C455.4 398.6 454.9 399.1 454.2 399.1Z" fill="#4F3429"/>
<path d="M405.8 346.3C405.4 346.3 405.1 346.3 404.7 346.2C399.1 345.4 395.3 338.5 396.4 330.9C397.5 323.3 403 317.7 408.6 318.5C414.2 319.3 418 326.2 416.9 333.8C415.9 341 411 346.3 405.8 346.3ZM407.5 320.8C403.4 320.8 399.6 325.3 398.7 331.2C397.8 337.5 400.6 343.2 405 343.8C409.4 344.4 413.6 339.8 414.5 333.4C415.4 327 412.6 321.4 408.2 320.8C408 320.9 407.8 320.8 407.5 320.8Z" fill="#4F3429"/>
<path d="M408.4 320.9C408.2 320.9 408.1 320.9 408 320.8C407.4 320.6 407.1 319.9 407.3 319.3L411.3 309.2C411.5 308.6 412.2 308.2 412.8 308.5C413.4 308.8 413.8 309.4 413.5 310V310.1L409.5 320.2C409.4 320.6 408.9 320.9 408.4 320.9Z" fill="#4F3429"/>
<path d="M402.5 354.4H402.3C401.7 354.3 401.3 353.6 401.4 353C401.7 351.3 402.9 345.7 403.9 344.4C404.3 343.9 405 343.8 405.5 344.2C406 344.6 406.1 345.3 405.7 345.9C405.2 346.5 404.3 350.4 403.6 353.5C403.5 354 403.1 354.4 402.5 354.4Z" fill="#4F3429"/>
<path d="M423.6 335.1L415.7 334.9C415 334.9 414.5 334.4 414.5 333.7C414.5 333.1 415 332.5 415.7 332.5L423.6 332.7C424.3 332.7 424.8 333.2 424.8 333.9C424.7 334.6 424.2 335.1 423.6 335.1Z" fill="#4F3429"/>
<path d="M397.6 332.3L389.5 331.9C388.9 331.9 388.4 331.3 388.4 330.7C388.4 330.1 388.9 329.6 389.6 329.6H389.7L397.7 330C398.4 330 398.9 330.6 398.8 331.2C398.7 331.8 398.2 332.3 397.6 332.3Z" fill="#4F3429"/>
<path d="M488.8 457.6H23.6004C22.9004 457.6 22.4004 457.1 22.4004 456.4C22.4004 455.7 22.9004 455.2 23.6004 455.2H488.8C489.5 455.2 490 455.7 490 456.4C490 457.1 489.5 457.6 488.8 457.6Z" fill="#4F3429"/>
<defs>
<linearGradient id="paint0_linear_2087_408" x1="184.704" y1="153.839" x2="156.364" y2="302.229" gradientUnits="userSpaceOnUse">
<stop stop-color="#F38374"/>
<stop offset="1" stop-color="#C64234"/>
</linearGradient>
<linearGradient id="paint1_linear_2087_408" x1="165.225" y1="150.119" x2="136.885" y2="298.509" gradientUnits="userSpaceOnUse">
<stop stop-color="#F38374"/>
<stop offset="1" stop-color="#C64234"/>
</linearGradient>
<linearGradient id="paint2_linear_2087_408" x1="145.106" y1="178.806" x2="62.8568" y2="168.836" gradientUnits="userSpaceOnUse">
<stop stop-color="#0A6B5B"/>
<stop offset="0.78" stop-color="#005146"/>
<stop offset="0.91" stop-color="#005045"/>
</linearGradient>
<linearGradient id="paint3_linear_2087_408" x1="93.4076" y1="-1.612" x2="123.917" y2="71.7619" gradientUnits="userSpaceOnUse">
<stop stop-color="#F38374"/>
<stop offset="1" stop-color="#C64234"/>
</linearGradient>
<linearGradient id="paint4_linear_2087_408" x1="59.6343" y1="-51.3277" x2="90.7253" y2="22.0337" gradientUnits="userSpaceOnUse">
<stop stop-color="#F38374"/>
<stop offset="1" stop-color="#C64234"/>
</linearGradient>
<linearGradient id="paint5_linear_2087_408" x1="47.1085" y1="-39.7237" x2="78.129" y2="33.6317" gradientUnits="userSpaceOnUse">
<stop stop-color="#F38374"/>
<stop offset="1" stop-color="#C64234"/>
</linearGradient>
<linearGradient id="paint6_linear_2087_408" x1="112.908" y1="23.451" x2="143.568" y2="97.2019" gradientUnits="userSpaceOnUse">
<stop stop-color="#F38374"/>
<stop offset="1" stop-color="#C64234"/>
</linearGradient>
<linearGradient id="paint7_linear_2087_408" x1="375.42" y1="345.704" x2="401.96" y2="415.994" gradientUnits="userSpaceOnUse">
<stop stop-color="#F38374"/>
<stop offset="1" stop-color="#C64234"/>
</linearGradient>
</defs>
</svg>
