<svg width="500" height="500" viewBox="0 0 500 500" fill="none" xmlns="http://www.w3.org/2000/svg">
<path d="M378.4 408.9H291C290.4 408.9 289.9 408.4 289.9 407.8V395.7C289.9 395.1 290.4 394.6 291 394.6H378.4C379 394.6 379.5 395.1 379.5 395.7V407.8C379.5 408.4 379 408.9 378.4 408.9ZM292.1 406.7H377.3V396.8H292.1V406.7Z" fill="#4F3429"/>
<path d="M288.2 443.4H273.9L293.7 359.4H308.1L288.2 443.4Z" fill="#4F3429"/>
<path d="M381.101 443.4H395.501L375.601 359.4H361.301L381.101 443.4Z" fill="#4F3429"/>
<path d="M384 360.4H281.5C280.9 360.4 280.4 359.9 280.4 359.3V347.2C280.4 346.6 280.9 346.1 281.5 346.1H384C384.6 346.1 385.1 346.6 385.1 347.2V359.3C385.1 359.9 384.6 360.4 384 360.4ZM282.5 358.2H383V348.3H282.5V358.2Z" fill="#4F3429"/>
<path d="M453.199 444.5H111.399C110.799 444.4 110.399 443.9 110.399 443.3C110.399 442.8 110.899 442.4 111.399 442.3H453.199C453.799 442.2 454.299 442.7 454.399 443.3C454.499 443.9 453.999 444.4 453.399 444.5C453.399 444.5 453.299 444.5 453.199 444.5Z" fill="#4F3429"/>
<path d="M93.5995 444.7H69.5995C68.9995 444.8 68.4995 444.3 68.3995 443.7C68.2995 443.1 68.7995 442.6 69.3995 442.5C69.4995 442.5 69.4995 442.5 69.5995 442.5H93.5995C94.1995 442.4 94.6995 442.9 94.7995 443.5C94.8995 444.1 94.3995 444.6 93.7995 444.7C93.6995 444.7 93.6995 444.7 93.5995 444.7Z" fill="#4F3429"/>
<path d="M111.2 351.9C107.8 356.2 103.4 359.7 98.5001 362.2C98.5001 362.2 16.3001 310.6 46.2001 307.6C53.5001 307.7 57.9001 303.7 66.9001 291.2C81.2001 310.9 100.6 337.3 111.2 351.9Z" fill="#FFC2A7"/>
<path d="M98.5 362.2L65.5 380.8L56.5 368.6C58.1 365.8 57.2 362.2 54.4 360.6C53.7 360.2 52.9 359.9 52 359.8L49.8 359.6L10 304.9L46.2 307.6C46.2 307.6 36.1 312.6 57.4 327.9C84.3 347.3 104.8 356.1 98.5 362.2Z" fill="#4F3429"/>
<path d="M191.6 256.3C195.5 251.1 205.3 262.1 209.4 257.1C215.8 249.4 222.4 241.8 228.8 234L231 231.3C216.1 224.9 204.5 218.4 199.8 211.4C171.6 169.6 135.9 205.8 135.9 205.8L62.9004 285.7L111.2 351.8L162.2 284.4L191.6 256.3Z" fill="url(#paint0_linear_2088_686)"/>
<path d="M270.1 389.5C271.5 394.8 271.8 400.4 270.9 405.8C270.9 405.8 180.8 441.8 196 415.8C200.4 410 199.8 404.1 195 389.4C219.3 389.5 252.1 389.4 270.1 389.5Z" fill="#FFC2A7"/>
<path d="M270.9 405.8L266.5 443.4H251.3C250 440.4 246.5 439.1 243.6 440.4C242.8 440.7 242.1 441.2 241.6 441.9L240.1 443.6H172.5L196 416C196 416 194.1 427.1 219 418.9C250.5 408.4 269.7 397.1 270.9 405.8Z" fill="#4F3429"/>
<path d="M436.8 250C436.8 250 387 250.2 365.8 231.5C344.6 212.8 379.4 174.1 379.4 174.1L424 183.1L436.8 250Z" fill="#FFC2A7"/>
<path d="M378.7 160.6L364.5 234.5C364.8 239.7 363 244.7 359.5 248.6C356.2 252.3 349.3 254.8 343.9 255L309.1 254.9C290 255.9 284.5 245.7 278.1 227.7C272.1 210.8 266 191.1 265.4 180.2C264.8 170.2 272.5 161.7 282.5 161.1H282.8C298.3 160.5 308.1 161.3 319.8 160.9C356.8 159.7 378.7 160.6 378.7 160.6Z" fill="#FED490"/>
<path d="M458.4 78.2004C471.9 68.6004 482.7 79.2004 484.5 81.3004C486.3 83.4004 496.001 96.1004 484.601 108.2C468.801 125 375.201 193.9 375.201 193.9L364.4 181.8C364.3 181.8 439.5 91.6004 458.4 78.2004Z" fill="#4F3429"/>
<path d="M412.384 209.402C420.036 180.521 404.904 151.456 378.586 144.483C352.268 137.51 324.73 155.27 317.078 184.15C309.426 213.031 324.558 242.096 350.876 249.069C377.194 256.042 404.733 238.282 412.384 209.402Z" fill="#FEF1E0"/>
<path d="M306.7 184.1C314.4 155.2 341.9 137.4 368.2 144.4C394.5 151.4 409.7 180.5 402 209.3C394.3 238.1 366.8 256 340.5 249C314.2 242.1 299 213 306.7 184.1Z" fill="url(#paint1_linear_2088_686)"/>
<path d="M352 246.2C346 246.2 340.1 244.9 334.7 242.4C314.6 233 304.5 209 310.8 185.2C317.8 158.6 343.1 142.2 367.1 148.6C369.4 149.2 371.7 150.1 373.9 151.1C394 160.5 404.1 184.5 397.8 208.3C391.8 230.9 372.5 246.2 352 246.2ZM356.6 149.4C337.1 149.4 318.7 164.1 312.9 185.8C306.9 208.5 316.4 231.6 335.6 240.5C337.7 241.5 339.9 242.3 342.1 242.8C364.9 248.9 389 233.1 395.7 207.7C401.7 185 392.2 162 373 153C367.9 150.6 362.3 149.3 356.6 149.4Z" fill="white"/>
<path d="M347.4 219.2C345.1 219.2 342.8 218.9 340.6 218.3C334.5 216.8 329.4 212.7 326.6 207.1C323.9 201.2 324 194.5 326.8 188.7C332.5 176.1 347.8 168.7 360.9 172.2C367 173.7 372.1 177.8 374.9 183.4C377.6 189.3 377.5 196 374.7 201.8C370 212.3 358.6 219.2 347.4 219.2ZM354 173.5C343.6 173.5 333 179.9 328.6 189.6C326.1 194.8 326 200.9 328.4 206.2C330.9 211.3 335.5 215 341 216.3C353.2 219.6 367.4 212.7 372.6 201C375.1 195.8 375.2 189.7 372.8 184.4C370.3 179.3 365.7 175.6 360.2 174.3C358.2 173.7 356.1 173.5 354 173.5Z" fill="white"/>
<path d="M341.4 208.1C341.3 208.1 341.2 208 341.1 208C340.1 207.6 339.3 206.8 339.1 205.7L334.4 187.8C333.9 186 334.9 184.2 336.6 183.6C338.3 183 340.2 184.1 340.8 185.8C340.8 185.9 340.9 186 340.9 186.1L344.4 199.5L382.3 174.1C383.9 173.1 385.9 173.6 386.9 175.2C387.8 176.7 387.4 178.6 386 179.7L344.1 207.7C343.3 208.2 342.3 208.4 341.4 208.1Z" fill="#FEF1E0"/>
<path d="M429.5 143.7C424.5 140.3 421 121.8 416 121.5C408.2 111.7 413.7 103.7 417.3 106.1C417.3 106.1 415.8 103.1 419.1 100.6C422.7 97.9004 425 100.1 425 100.1C425 100.1 425 94.6004 430.4 95.6004L431.6 95.9004C429.6 92.6004 439 89.5004 443.1 96.4004C443.1 96.4004 453.7 110.1 456.2 125.9C457.6 134.7 435.7 147.6 429.5 143.7Z" fill="#FFC2A7"/>
<path d="M456.1 125.8C456.1 125.8 478.9 222.7 457.9 242C436.9 261.3 417.3 243.9 412.9 228.4C408.5 212.9 429.5 143.7 429.5 143.7C429.5 143.7 454 129.8 456.1 125.8Z" fill="#FFC2A7"/>
<path d="M453.4 118C453.4 118 460.4 117.1 462.5 115.6C467.1 112.4 469.1 113.7 470.9 117C472.7 120.3 460.8 135.9 456.6 133.4C452.4 130.9 453.4 118 453.4 118Z" fill="#FFC2A7"/>
<path d="M419.9 227C419.5 227 419.2 226.8 419 226.5C415 220.1 413.6 210.7 415 198.6C415.6 193.1 416.7 187.7 418.3 182.4C418.5 181.8 419.1 181.5 419.7 181.7C420.3 181.9 420.6 182.5 420.4 183.1C420.3 183.4 411.8 211 420.8 225.4C421.1 225.9 421 226.6 420.5 226.9C420.3 226.9 420.1 227 419.9 227Z" fill="#D88260"/>
<path d="M437.6 151.6C437.5 151.6 437.4 151.6 437.3 151.6C430.4 149.6 428.6 144.3 428.5 144.1C428.3 143.5 428.6 142.9 429.2 142.7C429.8 142.5 430.4 142.8 430.5 143.4C430.6 143.6 432.1 147.8 437.9 149.5C438.5 149.7 438.8 150.3 438.6 150.8C438.5 151.3 438.1 151.6 437.6 151.6Z" fill="#D88260"/>
<path d="M426.1 118.2C425.6 118.2 425.2 117.9 425.1 117.5C422.2 109 417.1 107.2 416.9 107.2C416.3 107 416 106.4 416.2 105.8C416.4 105.2 417 104.9 417.6 105.1C417.8 105.2 423.9 107.3 427.1 116.8C427.3 117.4 427 118 426.4 118.2C426.4 118.2 426.2 118.2 426.1 118.2Z" fill="#D88260"/>
<path d="M433.5 111.1C433 111.1 432.6 110.8 432.5 110.3C430.1 102.3 424.9 101.1 424.8 101.1C424.2 101 423.8 100.5 423.9 99.9002C424 99.3002 424.5 98.9002 425.1 99.0002H425.2C425.5 99.1002 431.8 100.5 434.5 109.7C434.7 110.3 434.4 110.9 433.8 111C433.7 111.1 433.6 111.1 433.5 111.1Z" fill="#D88260"/>
<path d="M442.2 107.1C441.8 107.1 441.4 106.8 441.2 106.4C439.3 102 435.7 98.5001 431.2 96.9001C430.6 96.7001 430.3 96.1001 430.5 95.6001C430.7 95.0001 431.2 94.7001 431.8 94.9001C436.9 96.7001 441.1 100.6 443.2 105.6C443.4 106.1 443.2 106.8 442.6 107C442.5 107 442.4 107.1 442.2 107.1Z" fill="#D88260"/>
<path d="M371.7 295.5C372.4 309 367.7 322.3 358.6 332.4C336.4 356.4 298.5 350.6 260.5 319.4L245.9 308.6L270.2 389.5H188.3L166.8 283.4C166.8 283.4 154.4 214.5 204.9 216.3C237.5 217.5 315.6 257.9 351.1 268.8C362.9 272.4 371.2 283.1 371.7 295.5Z" fill="#4F3429"/>
<path d="M172.6 231C172.6 231 182.4 236.5 189.9 234.5L186.5 226.2L172.6 231Z" fill="#FFC2A7"/>
<path d="M301.5 273.6C298.5 278.3 293.8 281.7 288.4 283.2L209.9 304C206 304.7 201.9 303.9 198.6 301.7C200.5 297.9 201.3 292.4 198.8 284.5L191 255.2L190.9 254.7L161 142.2L266.7 114.1L304.3 255.6C305.9 261.7 304.9 268.3 301.5 273.6Z" fill="#FEF1E0"/>
<path d="M172.6 231C178.7 231.4 194.6 222.6 199.9 220.8C210 217.9 209.8 209.4 205.5 209.1C205.5 209.1 208.6 207.7 207.5 203.7C206.3 199.3 203.2 199.7 203.2 199.7C203.2 199.7 206.6 195.4 201.8 192.8L200.7 192.3C204.3 190.9 198.9 182.6 191.4 185.5C191.4 185.5 174.6 189.7 162.9 200.5C156.2 206.5 165.4 230.2 172.6 231Z" fill="#FFC2A7"/>
<path d="M161.7 202.1C164.1 193.6 169.2 186.1 176 180.6C183.7 174.5 187 181.1 187.1 183.8C187.2 186.5 182.5 190.1 183.7 191.8C184.9 193.5 161.2 205.3 161.7 202.1Z" fill="#FFC2A7"/>
<path d="M301.5 273.6C298.5 278.3 293.8 281.7 288.4 283.2L233.5 297.8L229.4 298.9L214.3 302.9H214.2H214C212.7 303.4 211.4 303.7 210 303.9C206.1 304.6 202 303.8 198.7 301.6C196.5 300 194.7 297.8 193.5 295.3L179.4 258.3L190.9 255.1L215.7 248L265.9 234C265.9 234 275.1 268.8 285.4 276.6C287.5 278.1 293.5 280.9 301.5 273.6Z" fill="#FED490"/>
<path d="M168.1 194.2C167.5 194.2 167 193.8 166.9 193.2C166.9 192.8 167.1 192.4 167.4 192.2C172.8 188.6 179 186.3 185.5 185.6C186.1 185.6 186.6 186.1 186.6 186.7C186.6 187.3 186.1 187.8 185.5 187.8C179.5 188.6 173.7 190.7 168.6 194.1C168.5 194.2 168.3 194.2 168.1 194.2Z" fill="#D88260"/>
<path d="M183 197.7C182.6 197.7 182.3 197.5 182.1 197.2C181.8 196.7 182 196 182.5 195.7C190.1 191.3 200.3 191.1 200.7 191.1C201.2 191 201.7 191.5 201.8 192C201.8 192.1 201.8 192.1 201.8 192.2C201.8 192.8 201.3 193.3 200.7 193.3C200.6 193.3 190.6 193.5 183.5 197.6C183.4 197.7 183.2 197.7 183 197.7Z" fill="#D88260"/>
<path d="M189.8 205.3C189.2 205.3 188.7 204.8 188.8 204.2C188.8 203.8 189 203.5 189.3 203.3C193.7 201.2 198.3 199.6 203 198.5C203.6 198.4 204.1 198.8 204.2 199.4C204.3 199.9 204 200.4 203.4 200.6C198.8 201.7 194.4 203.2 190.2 205.2C190.1 205.3 189.9 205.3 189.8 205.3Z" fill="#D88260"/>
<path d="M190.8 215.6C190.2 215.6 189.7 215.1 189.8 214.5C189.8 214 190.2 213.5 190.7 213.5C195.8 212.8 200.7 211 205 208.2C205.5 207.9 206.2 208 206.5 208.5C206.8 209 206.7 209.7 206.2 210C201.6 213 196.4 215 190.9 215.7L190.8 215.6Z" fill="#D88260"/>
<path d="M177.8 229.3C176.4 229.3 175 229.2 173.6 228.9C173 228.7 172.7 228.2 172.8 227.6C172.9 227.1 173.4 226.8 173.9 226.8C176.5 227.3 179.3 227.3 181.9 226.7C182.5 226.5 183.1 226.9 183.2 227.5C183.3 228.1 183 228.7 182.4 228.8C181 229.2 179.4 229.4 177.8 229.3Z" fill="#D88260"/>
<path d="M309.2 256C308.7 256 308.3 255.6 308.2 255.2L272.2 108L169.6 131.8L170.3 140C170.3 140.6 169.9 141.1 169.3 141.1C168.7 141.2 168.2 140.7 168.1 140.1L167.4 130.9C167.4 130.4 167.7 129.9 168.2 129.8L272.8 105.6C273.4 105.5 273.9 105.8 274.1 106.4L310.2 254.6C310.3 255.2 310 255.8 309.4 255.9C309.3 256 309.3 256 309.2 256Z" fill="#4F3429"/>
<path d="M196.8 426.7C196.6 426.7 196.3 426.6 196.1 426.5L195.1 425.7C192.1 423.5 181.9 417.6 169.2 426.1C168.7 426.4 168 426.2 167.7 425.7C167.4 425.2 167.5 424.6 168 424.3C176.3 418.7 183.7 418.9 189 420.4C184 415.8 178.5 409.7 179.4 406.2C179.7 405.2 180.5 403.9 183.2 403.6C195.2 401.9 203.9 423 204.3 423.9C204.6 424.4 204.3 425.1 203.8 425.3C203.3 425.6 202.6 425.3 202.4 424.8C202.4 424.8 202.4 424.7 202.3 424.7C202.2 424.5 193.9 404.2 183.5 405.7C182.3 405.9 181.6 406.2 181.5 406.8C180.7 409.8 189.7 418.7 196.7 424.3C197.1 424.6 197.4 424.9 197.4 424.9C197.8 425.3 197.9 425.9 197.5 426.4C197.4 426.6 197.1 426.7 196.8 426.7Z" fill="#C64234"/>
<path d="M40.9002 315.3C40.6002 315.3 40.2002 315.1 40.0002 314.8C39.7002 314.3 39.8002 313.7 40.2002 313.3C40.4002 313.2 61.3002 298.1 56.5002 284.1C55.9002 282.2 54.8002 280.1 53.3002 280.2C48.8002 280.6 41.3002 296.7 39.4002 309.8C39.3002 310.3 38.9002 310.7 38.3002 310.7C37.8002 310.7 37.3002 310.2 37.3002 309.7C37.3002 309.5 35.1002 288.3 21.7002 285.9C21.1002 285.8 20.7002 285.3 20.7002 284.7C20.8002 284.1 21.3002 283.7 21.9002 283.7C22.0002 283.7 22.0002 283.7 22.1002 283.7C28.3002 284.8 33.3002 289.7 36.5002 297.7C37.3002 299.7 37.9002 301.7 38.4002 303.7C41.2002 292.1 47.4002 278.4 53.1002 277.9C55.5002 277.7 57.3002 279.5 58.6002 283.2C60.8002 289.7 58.5002 297.2 52.0002 305.1C48.9002 308.8 45.4002 312 41.5002 314.9C41.4002 315.2 41.1002 315.3 40.9002 315.3Z" fill="#C64234"/>
<path d="M456.1 126.8C455.6 126.8 455.1 126.4 455 125.9C454.3 123.3 453.4 120.8 452.3 118.3C452 117.8 452.2 117.1 452.7 116.8C453.2 116.5 453.9 116.7 454.2 117.2C454.2 117.3 454.3 117.3 454.3 117.4C455.5 120 456.5 122.7 457.2 125.5C457.3 126.1 456.9 126.6 456.3 126.7L456.1 126.8Z" fill="#D88260"/>
<path d="M338.1 116.8C340.2 123.5 339.5 130.8 336.1 136.9C329.3 149.2 313.8 153.6 301.5 146.7C289.2 139.9 284.8 124.4 291.7 112.1C298.5 99.8002 314 95.4002 326.3 102.3C331.9 105.5 336.2 110.6 338.1 116.8Z" fill="#FFC2A7"/>
<path d="M292.876 142.227C296.534 139.848 298.645 136.606 297.591 134.985C296.537 133.365 292.718 133.98 289.06 136.358C285.403 138.737 283.292 141.979 284.346 143.6C285.4 145.22 289.219 144.605 292.876 142.227Z" fill="#FFC2A7"/>
<path d="M338.1 116.8C340.2 123.5 339.5 130.8 336.1 136.9C330.3 136.1 331.7 125.7 331.7 125.7C337.9 123.1 333.8 110 326.9 111.6C320 113.2 321.9 121.2 321.9 121.2C303.6 133.9 289.1 120.3 288.9 120.2C291.3 106.4 304.4 97.1 318.3 99.5C327.6 101 335.3 107.7 338.1 116.8Z" fill="url(#paint2_linear_2088_686)"/>
<path d="M328.7 124.3C330.8 123.6 332 121.3 331.3 119.1C330.6 116.9 328.3 115.8 326.1 116.5C325.8 116.6 325.5 116.8 325.2 116.9L326.8 117.5C326.6 116.9 326.8 116.2 327.3 115.8C327.9 115.4 328.7 115.5 329.1 116C330.1 117 331.6 115.5 330.6 114.5C329.3 113 327.1 112.9 325.6 114.2C324.5 115.2 324.1 116.7 324.6 118C324.8 118.6 325.4 118.9 325.9 118.7C326 118.7 326.1 118.6 326.1 118.6C327 118 328.2 118.2 328.8 119.1C329 119.4 329.1 119.8 329.1 120.2C329.1 120.3 329.1 120.4 329.1 120.5C329.1 120.6 329.1 120.4 329.1 120.6C329.1 120.7 329.1 120.8 329 120.8C329 120.8 328.9 121 329 120.9C328.9 121.1 328.8 121.2 328.7 121.4C328.6 121.6 328.8 121.3 328.7 121.5L328.5 121.7C328.4 121.8 328.3 121.9 328.2 121.9C328.1 122 328 122 328 122C327.8 122.1 328.2 121.9 327.9 122.1C327.3 122.3 327 122.9 327.1 123.4C327.6 124.2 328.2 124.5 328.7 124.3Z" fill="#D88260"/>
<path d="M298.834 134.073C300.593 133.905 301.861 132.119 301.667 130.085C301.472 128.051 299.888 126.539 298.129 126.707C296.369 126.876 295.101 128.661 295.296 130.695C295.491 132.729 297.075 134.242 298.834 134.073Z" fill="white"/>
<path d="M298.014 133.088C299.168 132.977 300.002 131.818 299.875 130.498C299.749 129.179 298.711 128.199 297.556 128.31C296.402 128.42 295.568 129.579 295.695 130.899C295.821 132.218 296.859 133.198 298.014 133.088Z" fill="#005045"/>
<path d="M296.4 141.8C297.6 140.8 298.4 139.4 298.6 137.9C298.7 137.6 298.6 137.3 298.5 137.1C298.4 136.9 298.1 136.7 297.9 136.6C297.6 136.5 297.3 136.6 297.1 136.7C296.9 136.8 296.7 137.1 296.6 137.3C296.5 137.7 296.4 138.2 296.2 138.6L296.3 138.3C296.1 138.8 295.8 139.2 295.5 139.6L295.7 139.4C295.4 139.7 295.2 140 294.9 140.3C294.7 140.5 294.6 140.8 294.6 141.1C294.6 141.7 295.1 142.2 295.6 142.2C295.9 142.1 296.2 141.9 296.4 141.8Z" fill="#D88260"/>
<path d="M302.6 148C302 148 301.5 147.6 301.5 147C301.5 146.4 301.9 145.9 302.5 145.9C306.7 145.5 306.9 142.4 306.9 142C306.9 141.4 307.3 141 307.9 141H308C308.6 141 309 141.5 309 142.1C309 143.9 307.6 147.5 302.6 148Z" fill="#D88260"/>
<path d="M330.1 102.4C346.448 102.4 359.7 91.8341 359.7 78.8002C359.7 65.7663 346.448 55.2002 330.1 55.2002C313.752 55.2002 300.5 65.7663 300.5 78.8002C300.5 91.8341 313.752 102.4 330.1 102.4Z" fill="url(#paint3_linear_2088_686)"/>
<path d="M334.6 103.7C331.9 103.7 329.3 103.5 326.7 103.2C326.4 103.2 326.1 103 325.9 102.7C325.8 102.6 319.8 93.7001 313 95.4001C312.7 95.5001 312.4 95.6001 312.1 95.7001C312.7 96.3001 313.4 96.8001 314.1 97.2001C317.9 98.0001 321.6 99.6001 324.9 101.7C325.4 102 325.6 102.7 325.3 103.2C325 103.7 324.4 103.9 323.9 103.6C320.3 102.5 316.8 101.1 313.4 99.3001C308.3 98.1001 302.9 98.6001 298 100.6C297.4 100.8 296.8 100.6 296.6 100C296.4 99.4001 296.6 98.8001 297.2 98.6001C301.3 96.9001 305.7 96.2001 310.1 96.6001C309.9 96.3001 309.8 96.0001 309.8 95.6001C309.8 94.5001 310.7 93.8001 312.4 93.4001C319.8 91.6001 325.9 99.3001 327.3 101.2C339.5 102.6 349.3 100.6 356.3 95.1001C361.6 90.8001 365.1 84.8001 366.3 78.1001C366.3 77.5001 366.8 77.1001 367.4 77.1001C367.4 77.1001 367.4 77.1001 367.5 77.1001C368.1 77.2001 368.5 77.7001 368.4 78.3001C367.2 85.6001 363.3 92.2001 357.6 96.8001C351.8 101.3 344 103.7 334.6 103.7Z" fill="#4F3429"/>
<path d="M166.5 280.7C166 280.7 165.5 280.3 165.4 279.8C165.2 278.4 160.4 245.3 171.7 230.3C172 229.8 172.7 229.7 173.2 230C173.7 230.3 173.8 231 173.5 231.5L173.4 231.6C162.6 245.8 167.4 279.2 167.5 279.5C167.6 280.1 167.2 280.6 166.6 280.7H166.5Z" fill="white"/>
<path d="M245.8 309.6C245.3 309.6 244.9 309.3 244.8 308.8L241.3 297.7C241 297.2 241.2 296.5 241.7 296.2C242.2 295.9 242.9 296.1 243.2 296.6C243.3 296.7 243.3 296.9 243.3 297L246.8 308.1C247 308.7 246.7 309.3 246.1 309.5C246 309.6 245.9 309.6 245.8 309.6Z" fill="white"/>
<path d="M365.1 316.9C365 316.9 364.8 316.9 364.7 316.8L287.9 284.2C287.3 284 287.1 283.3 287.3 282.8C287.5 282.2 288.2 282 288.7 282.2L365.5 314.8C366 315 366.3 315.7 366.1 316.2C365.9 316.6 365.5 316.9 365.1 316.9Z" fill="white"/>
<path d="M120.1 339.9C119.7 339.9 119.4 339.7 119.2 339.4L75.7 275.6C75.4 275.1 75.5 274.5 76 274.1C76.5 273.8 77.2 273.9 77.5 274.4L121.1 338.2C121.4 338.7 121.3 339.4 120.8 339.7C120.5 339.9 120.3 339.9 120.1 339.9Z" fill="white"/>
<path d="M266.9 378.1L186.6 375.4C186 375.3 185.6 374.8 185.6 374.2C185.6 373.7 186.1 373.3 186.6 373.2L266.9 375.9C267.5 376 267.9 376.5 267.9 377.1C267.8 377.6 267.4 378 266.9 378.1Z" fill="white"/>
<path d="M245.2 376.3C244.7 376.3 244.3 376 244.2 375.5L222.7 302.2C222.5 301.6 222.9 301 223.4 300.9C224 300.7 224.6 301.1 224.7 301.6L246.2 374.9C246.4 375.5 246 376.1 245.5 376.2C245.4 376.2 245.3 376.3 245.2 376.3Z" fill="white"/>
<path d="M105 317.9C104.7 317.9 104.5 317.8 104.3 317.6C103.9 317.2 103.8 316.5 104.2 316.1L166.6 242.7C167 242.3 167.7 242.3 168.1 242.7C168.5 243.1 168.5 243.7 168.2 244.1L105.8 317.5C105.6 317.8 105.3 317.9 105 317.9Z" fill="white"/>
<path d="M155.3 143.2C144.9 144 136.5 152.1 135.4 162.5C134.4 152.1 126 143.9 115.6 143.2C126 142.4 134.4 134.3 135.4 123.9C136.5 134.2 144.8 142.4 155.3 143.2Z" fill="#FED490"/>
<path d="M161.2 118.4C156.4 118.8 152.6 122.5 152.1 127.2C151.6 122.4 147.8 118.7 143 118.4C147.8 118 151.6 114.3 152.1 109.6C152.6 114.4 156.4 118.1 161.2 118.4Z" fill="#FED490"/>
<defs>
<linearGradient id="paint0_linear_2088_686" x1="62.9104" y1="271.638" x2="231.01" y2="271.638" gradientUnits="userSpaceOnUse">
<stop stop-color="#0A6B5B"/>
<stop offset="0.78" stop-color="#005146"/>
<stop offset="0.91" stop-color="#005045"/>
</linearGradient>
<linearGradient id="paint1_linear_2088_686" x1="376.521" y1="174.732" x2="309.416" y2="241.26" gradientUnits="userSpaceOnUse">
<stop stop-color="#F38374"/>
<stop offset="1" stop-color="#C64234"/>
</linearGradient>
<linearGradient id="paint2_linear_2088_686" x1="270.178" y1="73.1223" x2="300.368" y2="103.312" gradientUnits="userSpaceOnUse">
<stop stop-color="#F38374"/>
<stop offset="1" stop-color="#C64234"/>
</linearGradient>
<linearGradient id="paint3_linear_2088_686" x1="297.275" y1="46.0252" x2="327.465" y2="76.2152" gradientUnits="userSpaceOnUse">
<stop stop-color="#F38374"/>
<stop offset="1" stop-color="#C64234"/>
</linearGradient>
</defs>
</svg>
