<svg width="500" height="500" viewBox="0 0 500 500" fill="none" xmlns="http://www.w3.org/2000/svg">
<path d="M93.6997 142.3C92.0997 142 91.0997 140.6 91.3997 139L93.9997 123C94.2997 121.5 95.6997 120.4 97.2997 120.6C98.7997 120.9 99.8997 122.3 99.6997 123.9L97.0997 139.9C96.7997 141.5 95.2997 142.5 93.6997 142.3Z" fill="#4F3429"/>
<path d="M89.9997 166.1C88.4997 165.8 87.3997 164.4 87.5997 162.8L90.1997 146.8C90.4997 145.3 91.8997 144.2 93.4997 144.4C94.9997 144.7 96.0997 146.1 95.8997 147.7L93.2997 163.7C92.9997 165.3 91.4997 166.4 89.9997 166.1Z" fill="#4F3429"/>
<path d="M234.5 119.6C231.7 112.7 224 109.3 216.9 111.7L216.1 112C216 114.6 215.4 117.3 214.5 119.7C213.6 123.1 212.8 126.5 212.3 130C211.7 133.2 210.7 136.6 210.7 139.9C210.7 141.8 210.8 144.5 209.5 146.1C209.4 146.6 209.2 147.1 209.1 147.5C209.4 147.4 209.8 147.2 210.1 147C216 143.9 222.8 140.3 228.3 137.3C234.5 134 237.3 126.3 234.5 119.6Z" fill="#FFC2A7"/>
<path d="M91.6 171.4L106 78.9C107.5 69.6 116.2 63.2 125.5 64.7H125.6L206.6 78.1C215.9 79.6 222.2 88.4 220.7 97.7C220.7 97.9 220.6 98.1 220.6 98.2L192 242.9C190.3 251.6 182.1 257.6 173.3 256.5L113 249.5L75 238.6L91.6 171.4Z" fill="url(#paint0_linear_2089_752)"/>
<path d="M100.6 171.6L113.8 86.9998C115 80.6998 121.1 76.4998 127.4 77.5998H127.5L146.4 81.2998C148.6 81.6998 150.1 83.7998 149.8 86.0998C149.5 88.3998 151 90.4998 153.3 90.8998L178.9 95.2998C181.2 95.6998 183.4 94.1998 183.9 91.8998C183.9 91.7998 183.9 91.6998 183.9 91.5998V91.4998C184.2 89.1998 186.3 87.4998 188.7 87.7998C188.8 87.7998 188.8 87.7998 188.9 87.7998L200.6 89.9998C206.9 91.1998 211.1 97.2998 209.9 103.6V103.7L200.7 150.6L188.5 229.5C186.9 240 177.1 247.2 166.6 245.6L88.2002 234L100.6 171.6Z" fill="white"/>
<path d="M62.9998 276.6L67.6998 261.9L54.4998 221.2C51.9998 214.2 54.1998 206.4 59.7998 201.6L91.4998 171.3C91.4998 171.3 105.3 163.6 106 190.9C108.7 206.2 91.2998 219.6 91.2998 219.6L111.8 246.6L177.7 255.7L191.7 246.5C191.7 246.5 192.5 274.7 171.3 297.4C164.2 305 154.8 318.6 154.8 318.6L62.9998 276.6Z" fill="#FFC2A7"/>
<path d="M159.5 84.5999C161.212 84.5999 162.6 83.212 162.6 81.4999C162.6 79.7878 161.212 78.3999 159.5 78.3999C157.788 78.3999 156.4 79.7878 156.4 81.4999C156.4 83.212 157.788 84.5999 159.5 84.5999Z" fill="#4F3429"/>
<path d="M167.7 85.2C168.583 85.2 169.3 84.4837 169.3 83.6C169.3 82.7163 168.583 82 167.7 82C166.816 82 166.1 82.7163 166.1 83.6C166.1 84.4837 166.816 85.2 167.7 85.2Z" fill="#4F3429"/>
<path d="M146.8 130.5L170.2 134.5C174.7 135.3 177.9 139.4 177.6 143.9L176.2 162.6C175.8 167.5 171.6 171.1 166.7 170.8C166.4 170.8 166.1 170.7 165.8 170.7L137.7 165.6C132.9 164.7 129.7 160.1 130.6 155.3C130.7 154.8 130.8 154.4 131 153.9L137.2 136.3C138.4 132.2 142.6 129.8 146.8 130.5Z" fill="#4F3429"/>
<path d="M140.3 129.2L163.7 133.2C168.2 134 171.4 138 171.1 142.6L169.7 161.3C169.3 166.2 165.1 169.9 160.2 169.5C159.9 169.5 159.6 169.4 159.3 169.4L131.1 164.3C126.3 163.4 123.1 158.8 123.9 154C124 153.5 124.1 153.1 124.3 152.6L130.5 134.9C131.9 130.9 136 128.5 140.3 129.2Z" fill="white"/>
<path d="M160.8 171.1C160.2 171.1 159.6 171 158.9 170.9L130.8 165.8C125.1 164.8 121.4 159.4 122.4 153.8C122.5 153.2 122.6 152.7 122.8 152.2L129 134.6C130.7 129.8 135.6 126.9 140.6 127.8L164 131.8C169.3 132.7 173 137.5 172.6 142.8L171.2 161.5C170.7 166.9 166.2 171.1 160.8 171.1ZM138.8 130.6C135.7 130.6 132.9 132.6 131.9 135.5L125.7 153.1C124.4 156.9 126.4 161.1 130.2 162.5C130.6 162.6 130.9 162.7 131.3 162.8L159.4 167.9C163.4 168.6 167.2 166 167.9 162C167.9 161.7 168 161.5 168 161.2L169.4 142.5C169.7 138.7 167.1 135.3 163.3 134.7L139.9 130.7C139.6 130.7 139.2 130.6 138.8 130.6Z" fill="#4F3429"/>
<path d="M165.6 135H165.4C164.6 134.9 164 134.1 164.1 133.3L165.7 121.2C166.7 115.6 162.9 110.3 157.3 109.4C152.1 108.5 147 111.7 145.7 116.8L141.7 129.7C141.5 130.5 140.6 131 139.8 130.7C139 130.4 138.5 129.6 138.8 128.8L142.8 115.9C145 108.9 152.4 105 159.4 107.1C165.6 109 169.5 115.1 168.7 121.6L167.1 133.7C167 134.4 166.3 135 165.6 135Z" fill="#4F3429"/>
<path d="M148.1 150.1C150.198 150.1 151.9 148.399 151.9 146.3C151.9 144.201 150.198 142.5 148.1 142.5C146.001 142.5 144.3 144.201 144.3 146.3C144.3 148.399 146.001 150.1 148.1 150.1Z" fill="#4F3429"/>
<path d="M146 147.4L140.5 156.4L150.2 158.2L149.5 148.4L146 147.4Z" fill="#4F3429"/>
<path d="M198.5 215.5C191.9 216.7 184.4 218.1 178.2 219.3C171.1 220.6 166.2 227.1 166.8 234.4C167.4 241.8 173.8 247.4 181.2 247.2L201.7 246.6C209.4 246.4 215.5 240 215.3 232.2C215.3 231.9 215.3 231.6 215.2 231.2L214.9 228C214.2 220.3 207.4 214.6 199.7 215.3C199.4 215.3 199 215.4 198.5 215.5Z" fill="#FFC2A7"/>
<path d="M200.5 184C194 185.8 186.7 187.8 180.6 189.4C173.6 191.3 169.2 198.2 170.5 205.3C171.7 212.6 178.5 217.7 185.9 216.9L206.3 214.6C214 213.8 219.5 206.9 218.7 199.2C218.7 198.9 218.6 198.6 218.6 198.2L218 195.1C216.7 187.5 209.4 182.4 201.8 183.7C201.4 183.8 201 183.9 200.5 184Z" fill="#FFC2A7"/>
<path d="M207.8 154.3C201.1 154.6 193.5 155 187.2 155.3C180 155.7 174.2 161.4 173.9 168.7C173.5 176.1 179 182.5 186.4 183.3L206.8 185.5C214.5 186.3 221.4 180.8 222.2 173.1C222.2 172.8 222.3 172.5 222.3 172.1L222.4 168.9C222.7 161.2 216.8 154.6 209 154.3C208.7 154.3 208.2 154.3 207.8 154.3Z" fill="#FFC2A7"/>
<path d="M127 264C126.4 264 125.9 263.7 125.6 263.1C120.7 253.1 111.2 248 111.1 247.9C110.4 247.5 110.1 246.5 110.5 245.8C110.9 245.1 111.7 244.9 112.5 245.2C119.3 249 124.8 254.8 128.3 261.7C128.6 262.4 128.3 263.3 127.6 263.7C127.5 263.9 127.2 264 127 264Z" fill="#D88260"/>
<path d="M189.2 218.2C188.4 218.1 187.8 217.3 187.9 216.5C188 215.9 188.5 215.4 189.2 215.2L201.2 214.9C202 215 202.6 215.8 202.5 216.6C202.4 217.2 201.9 217.7 201.2 217.9L189.2 218.2Z" fill="#D88260"/>
<path d="M206.8 187L194.6 186.4C193.8 186.5 193 185.9 192.9 185C192.8 184.2 193.4 183.4 194.3 183.3C194.5 183.3 194.6 183.3 194.8 183.3L207 183.9C207.8 184.1 208.4 184.9 208.2 185.7C208 186.4 207.5 186.9 206.8 187Z" fill="#D88260"/>
<path d="M78.5004 228.6C77.7004 228.5 77.1004 227.8 77.2004 226.9C77.3004 226.2 77.8004 225.7 78.4004 225.6C82.3004 225.2 88.4004 220.4 90.4004 218.6C91.1004 218.1 92.0004 218.3 92.5004 219C92.9004 219.6 92.8004 220.3 92.4004 220.9C92.1004 221.2 84.3004 228.1 78.6004 228.7L78.5004 228.6Z" fill="#D88260"/>
<path d="M167.3 202.2H167.1L118 195.7C111.7 194.9 107.3 189.1 108.1 182.9C108.1 182.9 108.1 182.9 108.1 182.8C109 176.6 114.6 172.3 120.8 173L171.2 179.2C172 179.2 172.7 179.9 172.7 180.7C172.7 181.5 172 182.2 171.2 182.2C171.1 182.2 171 182.2 170.9 182.2L120.5 176C115.9 175.4 111.7 178.7 111.1 183.3C110.8 185.5 111.4 187.7 112.8 189.4C114.2 191.2 116.2 192.3 118.4 192.6L167.5 199.1C168.3 199.3 168.8 200.1 168.7 200.9C168.5 201.6 168 202.1 167.3 202.2Z" fill="#4F3429"/>
<path d="M124.4 187.4C126.222 187.4 127.7 185.922 127.7 184.1C127.7 182.277 126.222 180.8 124.4 180.8C122.577 180.8 121.1 182.277 121.1 184.1C121.1 185.922 122.577 187.4 124.4 187.4Z" fill="#4F3429"/>
<path d="M136 188.9C137.823 188.9 139.3 187.422 139.3 185.6C139.3 183.777 137.823 182.3 136 182.3C134.178 182.3 132.7 183.777 132.7 185.6C132.7 187.422 134.178 188.9 136 188.9Z" fill="#4F3429"/>
<path d="M147.7 190.5C149.523 190.5 151 189.022 151 187.2C151 185.377 149.523 183.9 147.7 183.9C145.878 183.9 144.4 185.377 144.4 187.2C144.4 189.022 145.878 190.5 147.7 190.5Z" fill="#4F3429"/>
<path d="M159.4 192C161.222 192 162.7 190.522 162.7 188.7C162.7 186.877 161.222 185.4 159.4 185.4C157.577 185.4 156.1 186.877 156.1 188.7C156.1 190.522 157.577 192 159.4 192Z" fill="#4F3429"/>
<path d="M63 276.6L159.3 316.3L126.2 437.1L10 410.5L63 276.6Z" fill="url(#paint1_linear_2089_752)"/>
<path d="M126.2 438.6C126.1 438.6 126 438.6 125.9 438.6C106.5 434 74.0004 422.8 74.9004 400C75.2004 392.1 79.5004 384.6 86.0004 378.2C79.3004 377 73.1004 374.1 67.9004 369.7C62.9004 365.4 60.8004 360.6 61.8004 355.3C66.1004 331.7 132.3 307.7 135.1 306.7C135.9 306.4 136.8 306.9 137 307.7C137.2 308.5 136.8 309.3 136.1 309.6C124.4 313.9 112.9 319 101.7 324.6C79.2004 336.1 66.4004 346.9 64.8004 355.8C64.0004 360 65.7004 363.8 69.9004 367.3C75.3004 371.8 81.9004 374.6 88.9004 375.5C98.1004 367.8 109.1 362.7 120.9 360.6C129.2 359.3 133.5 359.9 134.6 362.5C135.4 364.4 134.1 366.6 130.8 369C123.9 374 106.7 380.5 89.9004 378.6C83.0004 384.8 78.2004 392.3 77.9004 399.9C77.3004 415.2 94.6004 427.8 126.5 435.4C127.3 435.6 127.8 436.4 127.6 437.2C127.4 437.9 126.8 438.4 126.1 438.4L126.2 438.6ZM93.3004 376C103.8 376.3 114.1 374.2 123.6 369.8C129.7 366.9 131.7 364.4 131.7 363.8C131.7 363.8 131.2 363.2 127.9 363.2C125.7 363.2 123.5 363.4 121.3 363.8C111.1 365.5 101.5 369.7 93.3004 376Z" fill="#FED490"/>
<path d="M95.8002 334.3C100.55 334.3 104.4 330.45 104.4 325.7C104.4 320.95 100.55 317.1 95.8002 317.1C91.0506 317.1 87.2002 320.95 87.2002 325.7C87.2002 330.45 91.0506 334.3 95.8002 334.3Z" fill="#FED490"/>
<path d="M152.8 335C152.6 335 152.4 335 152.2 334.9L54.8004 296.4C54.0004 296.1 53.6004 295.2 53.9004 294.4C54.2004 293.6 55.1004 293.2 55.9004 293.5L153.3 332C154.1 332.3 154.5 333.2 154.1 334C153.9 334.7 153.4 335 152.8 335Z" fill="#4F3429"/>
<path d="M381.8 252.3C381.8 252.3 358.5 219.3 344.7 207C330.9 194.7 275.3 165.3 269.4 162.3C263.5 159.3 238.3 147.4 237 146.8C228.4 143.1 213.5 153.4 226.2 162.3L277.5 199.5C277.5 199.5 261.3 217.2 255.4 223.8C249.5 230.4 252.3 242.4 252.3 242.4C252.3 242.4 241.9 252.4 244 261.9C246.1 271.4 253.9 279.3 253.9 279.3C253.9 279.3 250 293.7 266.3 306.4C282.6 319.1 308.5 322.9 314.8 322.3C321.1 321.7 330.1 331.1 339.2 340.3C348.3 349.5 364.7 365 364.7 365L420 298.1C420 298.1 381.9 254.9 381.8 252.3Z" fill="#FFC2A7"/>
<path d="M321.9 313.8C321.6 313.8 321.4 313.7 321.2 313.6C303.7 304.1 306.4 274.8 307 270C304.3 266.3 287 243.1 275.6 232.3C267.1 224.2 268.2 217.8 269.6 214.8C271.9 209.9 277.9 206.8 283.8 207.4C283.9 207.4 284.1 207.5 284.2 207.5L342.9 231.3C343.7 231.6 344.1 232.5 343.7 233.3C343.3 234.1 342.5 234.5 341.7 234.1L283.2 210.4C278.6 210 274 212.4 272.3 216C270.4 220 272.3 225 277.6 230.1C290.2 241.9 309 267.6 309.8 268.7C310 269 310.1 269.4 310.1 269.8C310.1 270.1 305.9 301.8 322.7 310.9C323.4 311.3 323.7 312.2 323.3 313C323 313.5 322.5 313.8 321.9 313.8Z" fill="#D88260"/>
<path d="M287.001 287.2C285.701 287.2 284.401 286.9 283.201 286.4C275.101 283 253.401 247.3 251.001 243.3C250.601 242.6 250.801 241.6 251.501 241.2C252.201 240.8 253.201 241 253.601 241.7C263.001 257.3 278.901 281.3 284.401 283.6C286.501 284.5 288.201 284.4 289.601 283.3C292.301 281.3 293.701 276.2 293.101 270.4C292.201 261.2 288.801 249.1 287.701 245.6C287.501 244.8 287.901 244 288.701 243.7C289.501 243.5 290.301 243.9 290.601 244.7C291.701 248.3 295.201 260.6 296.101 270.1C296.801 277 294.901 283.1 291.401 285.7C290.101 286.7 288.601 287.2 287.001 287.2Z" fill="#D88260"/>
<path d="M283.601 308.6C272.601 308.6 254.601 285.7 252.501 283C252.001 282.4 252.001 281.4 252.701 280.9C253.301 280.4 254.301 280.4 254.801 281.1L254.901 281.2C262.901 291.5 278.001 307.2 284.601 305.5C286.001 305.2 287.201 304.2 287.801 302.9C290.101 298.4 287.401 289.3 286.201 286.2C285.901 285.4 286.301 284.5 287.101 284.2C287.901 283.9 288.801 284.3 289.101 285C289.301 285.5 294.001 297.5 290.601 304.2C289.601 306.3 287.701 307.8 285.401 308.3C284.801 308.5 284.201 308.6 283.601 308.6Z" fill="#D88260"/>
<path d="M291.101 213.4C290.701 213.4 290.401 213.3 290.101 213L276.501 200.7C275.901 200.1 276.001 199.1 276.601 198.6C277.101 198.1 277.901 198.1 278.501 198.5L292.101 210.8C292.701 211.4 292.801 212.3 292.201 212.9C291.901 213.2 291.501 213.4 291.101 213.4Z" fill="#D88260"/>
<path d="M420 298.1L361.4 368.6L409.5 433.9L490 357.2L420 298.1Z" fill="url(#paint2_linear_2089_752)"/>
<path d="M456.8 389C456.7 389 456.5 389 456.4 389C455.6 388.8 455.1 387.9 455.4 387.1C455.6 386.3 460.2 368.3 430.3 359C399.6 349.5 362.6 369.8 362.2 370C361.5 370.4 360.5 370.2 360.1 369.4C359.7 368.7 359.9 367.7 360.7 367.3C368.1 363.4 375.8 360.3 383.7 357.9C396.1 354.2 414.4 350.8 431.1 356C448.1 361.3 454.5 369.5 457 375.5C458.7 379.4 459.1 383.6 458.2 387.8C458.1 388.6 457.5 389 456.8 389Z" fill="#FED490"/>
<path d="M418.501 365.7C423.306 365.7 427.201 361.805 427.201 357C427.201 352.195 423.306 348.3 418.501 348.3C413.696 348.3 409.801 352.195 409.801 357C409.801 361.805 413.696 365.7 418.501 365.7Z" fill="#FED490"/>
<path d="M339.101 331.4C335.401 331.5 331.701 331 328.101 330C327.301 329.7 326.901 328.9 327.101 328.1C327.301 327.3 328.201 326.9 329.001 327.1C337.601 329.2 346.701 328.6 355.001 325.5C355.801 325.3 356.701 325.7 356.901 326.6C357.101 327.3 356.801 328.1 356.101 328.4C350.601 330.3 344.901 331.4 339.101 331.4Z" fill="#D88260"/>
<path d="M389.201 275.5C388.401 275.5 387.701 274.9 387.701 274.1C387.201 268.8 386.001 263.6 384.001 258.6C383.701 257.8 384.001 256.9 384.801 256.6C385.601 256.3 386.501 256.6 386.801 257.4C389.001 262.7 390.301 268.2 390.801 273.9C390.901 274.7 390.201 275.5 389.401 275.5H389.201Z" fill="#D88260"/>
<path d="M284.9 131.6C284.8 131.6 284.6 131.6 284.5 131.5C266.6 126.7 263.3 119.6 263.7 114.5C263.9 112.6 264.5 110.7 265.6 109C262.8 108.7 260 107.7 257.6 106.3C254.5 104.4 252.9 101.7 252.9 98.5C252.6 84.3 284.3 62.6 285.6 61.7C286.3 61.2 287.2 61.3 287.8 61.9C288.4 62.5 288.2 63.5 287.6 64.1C287.5 64.1 287.5 64.2 287.4 64.2C278.6 70.2 255.8 88 256 98.5C256.1 100.7 257.3 102.7 259.3 103.8C261.9 105.3 264.8 106.1 267.8 106.2C274.5 98.5 288.4 92.3 300.4 91C305.4 90.5 307.9 91 308.6 92.8C309.2 94.2 308.5 95.7 306.6 97.3C301.3 101.8 283.3 109.6 269.2 109.2C267.9 110.8 267.1 112.7 266.8 114.7C266.3 120.4 272.8 125.2 285.4 128.5C286.2 128.7 286.7 129.5 286.5 130.3C286.4 131.2 285.7 131.6 284.9 131.6ZM303.4 93.8C302.5 93.8 301.5 93.9 300.6 94C289.7 95.1 278.4 100.3 272 106.2C279.1 105.6 286.1 104 292.8 101.3C300.6 98.2 304.6 95.3 305.5 94.1C304.8 93.9 304.1 93.8 303.4 93.8Z" fill="#4F3429"/>
<path d="M296.899 130.6C308.899 131.5 318.599 140.9 319.799 152.9C320.999 140.9 330.699 131.5 342.699 130.6C330.699 129.7 320.999 120.3 319.799 108.3C318.599 120.3 308.999 129.7 296.899 130.6Z" fill="#FED490"/>
<path d="M276.3 150.9C282.7 151.4 287.9 156.4 288.6 162.8C289.3 156.4 294.4 151.4 300.9 150.9C294.5 150.4 289.3 145.4 288.6 139C287.9 145.3 282.8 150.4 276.3 150.9Z" fill="#FED490"/>
<defs>
<linearGradient id="paint0_linear_2089_752" x1="147.066" y1="30.9699" x2="148.126" y2="189.84" gradientUnits="userSpaceOnUse">
<stop stop-color="#F38374"/>
<stop offset="1" stop-color="#C64234"/>
</linearGradient>
<linearGradient id="paint1_linear_2089_752" x1="7.77031" y1="203.65" x2="189.18" y2="580.51" gradientUnits="userSpaceOnUse">
<stop stop-color="#0A6B5B"/>
<stop offset="0.78" stop-color="#005146"/>
<stop offset="0.91" stop-color="#005045"/>
</linearGradient>
<linearGradient id="paint2_linear_2089_752" x1="361.44" y1="366.025" x2="490" y2="366.025" gradientUnits="userSpaceOnUse">
<stop stop-color="#0A6B5B"/>
<stop offset="0.78" stop-color="#005146"/>
<stop offset="0.91" stop-color="#005045"/>
</linearGradient>
</defs>
</svg>
