<svg width="500" height="500" viewBox="0 0 500 500" fill="none" xmlns="http://www.w3.org/2000/svg">
<path d="M153.6 162C155.3 167.1 159.1 171.3 164.1 173.5C174 177.9 185.5 173.5 189.9 163.6C194.3 153.7 189.9 142.2 180 137.8C170.1 133.4 158.6 137.8 154.2 147.7C152.2 152.2 152 157.3 153.6 162Z" fill="#FFC2A7"/>
<path d="M193.275 156.997C196.638 156.784 199.287 155.405 199.192 153.916C199.098 152.428 196.296 151.395 192.934 151.608C189.571 151.821 186.922 153.201 187.017 154.689C187.111 156.177 189.913 157.21 193.275 156.997Z" fill="#FFC2A7"/>
<path d="M153.6 162C155.3 167.1 159.1 171.3 164.1 173.5C167.3 170.3 161.6 164.5 161.6 164.5C156.6 165.8 153 155.8 158.1 153.6C163.2 151.4 165.6 157.2 165.6 157.2C182.8 156.7 185.5 141.5 185.6 141.4C177.8 133.9 165.4 134.2 158 142C158 142 158 142 157.9 142.1C152.9 147.4 151.3 155.1 153.6 162Z" fill="#4F3429"/>
<path d="M162.3 160.5C162.2 160.5 162.2 160.5 162.1 160.6H161.7C161.6 160.6 161.6 160.6 161.5 160.5C161.4 160.4 161.3 160.4 161.5 160.5C161.4 160.5 161.4 160.4 161.3 160.4C161.2 160.4 161.2 160.3 161.1 160.3C161.2 160.4 161.2 160.3 161.1 160.3L160.9 160.1C160.9 160 160.8 160 160.8 159.9C160.8 159.8 160.7 159.8 160.8 159.9C160.8 159.8 160.7 159.6 160.7 159.5V159C160.7 158.9 160.7 158.9 160.8 158.8C160.8 158.7 160.9 158.7 160.9 158.6C160.9 158.5 160.9 158.5 160.9 158.6L161.2 158.3C161.3 158.2 161.1 158.3 161.2 158.3C161.3 158.3 161.3 158.2 161.4 158.2C161.5 158.2 161.5 158.2 161.5 158.1C161.6 158.1 161.7 158.1 161.7 158C161.9 157.9 161.5 158 161.7 158C162.3 158 162.8 157.5 162.8 156.9V156.7C162.3 155.1 160.6 154.2 159.1 154.7C158.6 154.9 158.2 155.1 157.8 155.5C157.3 156 157 156.7 156.9 157.4C156.9 158 157.3 158.4 157.8 158.5H157.9C158.5 158.5 158.9 158 159 157.4C159 157.4 159 157.3 159.1 157.3C159.2 157.3 159.2 157.2 159.2 157.1L159.3 157C159.4 157 159.4 156.9 159.5 156.9H159.8C159.9 156.9 160 156.9 160 157C160.2 157.1 159.9 156.9 160.1 157L160.3 157.2C160.3 157.3 160.3 157.3 160.4 157.3C160.4 157.2 160.3 157.2 160.4 157.3L161.5 155.9C160.5 155.9 159.6 156.3 159 157.1C157.8 158.6 158 160.7 159.4 161.9C160.3 162.6 161.5 162.9 162.6 162.5C163.1 162.3 163.5 161.8 163.4 161.2C163.4 160.7 162.9 160.4 162.3 160.5Z" fill="#D88260"/>
<path d="M185.909 154.582C187.09 153.867 187.375 152.177 186.546 150.806C185.717 149.436 184.087 148.905 182.905 149.62C181.724 150.335 181.439 152.026 182.269 153.396C183.098 154.766 184.728 155.297 185.909 154.582Z" fill="white"/>
<path d="M185.939 153.525C186.695 153.067 186.891 152.007 186.376 151.156C185.861 150.306 184.831 149.987 184.075 150.445C183.319 150.902 183.123 151.963 183.638 152.813C184.153 153.664 185.183 153.982 185.939 153.525Z" fill="#005045"/>
<path d="M119.3 223.7C142.109 223.7 160.6 205.209 160.6 182.4C160.6 159.591 142.109 141.1 119.3 141.1C96.4906 141.1 78 159.591 78 182.4C78 205.209 96.4906 223.7 119.3 223.7Z" fill="#4F3429"/>
<path d="M176.5 168C174.5 167.9 172.5 167.3 170.8 166.1C170.3 165.7 170.2 165.1 170.6 164.6C171 164.1 171.6 164 172.1 164.4C172.1 164.4 175 166.5 177.9 165.7C179.7 165.2 181.2 163.7 182.3 161.1C182.5 160.6 183.2 160.3 183.7 160.5C184.2 160.7 184.5 161.3 184.3 161.9C182.9 165.1 180.9 167.1 178.5 167.8C177.8 167.9 177.2 168 176.5 168Z" fill="#D88260"/>
<path d="M168.9 167.7C168.5 167.7 168.1 167.5 167.9 167.1C167.6 166.6 167.9 165.9 168.4 165.7C171 164.5 170.8 162.7 170.8 162.5C170.7 161.9 171.1 161.4 171.7 161.3C172.3 161.2 172.8 161.6 172.9 162.2C172.9 162.3 173.4 165.7 169.3 167.6C169.2 167.6 169 167.7 168.9 167.7Z" fill="#D88260"/>
<path d="M154.3 161C153.9 161 153.5 160.8 153.3 160.4C152.7 159.1 137.4 128.1 103.6 143.1C103.1 143.3 102.4 143.1 102.2 142.6C102 142.1 102.2 141.4 102.7 141.2C138.4 125.3 155 159.2 155.2 159.5C155.5 160 155.2 160.7 154.7 160.9C154.6 161 154.4 161 154.3 161Z" fill="#4F3429"/>
<path d="M158.4 170.7C158 170.7 157.7 170.5 157.5 170.2C149.6 158.5 151.3 152.2 151.9 150.6C150.9 142.1 148.8 135.7 147.7 135.6C147.4 135.8 147.1 136.1 147 136.5C146.4 138.7 148.4 143.7 149.9 146.3C150.1 146.8 149.9 147.5 149.3 147.7C148.8 147.9 148.3 147.7 148 147.3C147.6 146.5 143.9 139.6 145 135.8C145.2 134.9 145.8 134.1 146.6 133.7C147.3 133.3 148.1 133.3 148.7 133.7C152 135.4 153.6 147.1 154 150.6C154 150.8 154 151.1 153.9 151.2C153.9 151.2 151.1 156.9 159.2 168.9C159.5 169.4 159.4 170.1 158.9 170.4C158.8 170.6 158.6 170.7 158.4 170.7Z" fill="#C64234"/>
<path d="M197.7 197.3C197.7 197.3 214.9 197 223 211.6L254.1 259.3L293.5 243.3L322.9 277.8L273.4 323C273.4 323 237.1 347.6 207.4 316.9L170.2 253.6L197.7 197.3Z" fill="#FED490"/>
<path d="M82.9997 455.9C82.9997 455.9 81.6997 445.8 88.1997 438.5H160.7C160.7 438.5 143.2 446.5 144 453C144.6 457.2 146.3 461.2 148.7 464.7C148.7 464.7 155.6 472.8 141 476C126.4 479.2 82.9997 455.9 82.9997 455.9Z" fill="#FFC2A7"/>
<path d="M173.1 269.3C191.2 267.2 208 277.7 211.4 305.1L235.8 438.4H180.5L133.7 315C127 285.7 151.8 269.3 173.1 269.3Z" fill="url(#paint0_linear_2089_800)"/>
<path d="M235.7 438.4C237.1 447.9 244.5 457.3 251.4 464.4C253.8 483.9 185.1 455.6 185.1 455.6L180.4 438.4H235.7Z" fill="#FFC2A7"/>
<path d="M185.6 455.6L191.2 488.6L267.1 488.7L251.4 464.5C251.4 464.5 253.1 474.3 231.2 467.1C203.5 457.9 186.7 447.9 185.6 455.6Z" fill="#4F3429"/>
<path d="M83 455.9L88.6 488.9L164.5 489L148.8 464.8C148.8 464.8 150.5 474.6 128.6 467.4C101 458.2 84.1 448.3 83 455.9Z" fill="#4F3429"/>
<path d="M233.1 431.3H179C178.4 431.3 177.9 430.8 177.9 430.2C177.9 429.6 178.4 429.1 179 429.1H233.1C233.7 429.1 234.2 429.6 234.2 430.2C234.2 430.8 233.7 431.3 233.1 431.3Z" fill="white"/>
<path d="M237.7 448.1C237.5 448.1 237.4 448.1 237.2 448L228.2 443.3C227.7 443 227.5 442.4 227.7 441.9C228 441.4 228.6 441.2 229.1 441.4L238.1 446.1C238.6 446.4 238.8 447 238.5 447.6C238.4 447.9 238 448.1 237.7 448.1Z" fill="#D88260"/>
<path d="M209.9 297.2C209.9 297.2 214.3 307.8 226 341.6C236.3 371.4 219.9 387.6 205.1 401.8C191.2 415 176.4 427.2 160.9 438.5H88.2998L153 358.6L209.9 297.2Z" fill="url(#paint1_linear_2089_800)"/>
<path d="M169 431.3H96.1996C95.5996 431.3 95.0996 430.8 95.0996 430.2C95.0996 429.6 95.5996 429.1 96.1996 429.1H169C169.6 429.1 170.1 429.6 170.1 430.2C170.1 430.8 169.6 431.3 169 431.3Z" fill="white"/>
<path d="M150.6 362.4C150.5 362.4 150.4 362.4 150.4 362.4C149.8 362.3 149.5 361.7 149.6 361.1C149.7 360.5 152.8 346.6 161 341.4C161.5 341.1 162.2 341.2 162.5 341.7C162.8 342.2 162.7 342.9 162.2 343.2C154.7 348 151.8 361.4 151.7 361.5C151.6 362.1 151.1 362.4 150.6 362.4Z" fill="#4F3429"/>
<path d="M135.5 431.3C135.2 431.3 135 431.2 134.8 431C134.4 430.6 134.3 429.9 134.7 429.5L175.8 383.5L176 383.4C176.2 383.3 194.5 369 189.3 349.9L154.6 274.8C154.4 274.3 154.6 273.6 155.1 273.4C155.6 273.2 156.3 273.4 156.5 273.9L191.3 349.1L191.4 349.3C193.8 357.8 192.1 366.8 186.5 375.1C184 378.9 180.9 382.2 177.4 385.1L136.4 431.1C136.1 431.2 135.8 431.3 135.5 431.3Z" fill="white"/>
<path d="M211.3 431.2C210.9 431.2 210.5 430.9 210.3 430.5C210.2 430.3 210.2 430.1 210.2 429.9C209.9 428 205.1 413.3 202.1 404.3C201.8 403.8 202 403.1 202.5 402.8C203 402.5 203.7 402.7 204 403.2C204.1 403.3 204.1 403.5 204.1 403.6C213.1 430.4 212.9 430.5 211.6 431C211.5 431.2 211.4 431.2 211.3 431.2Z" fill="white"/>
<path d="M175.4 427.4C175.1 427.4 174.7 427.2 174.5 427C174.2 426.5 174.3 425.8 174.7 425.5C175.1 425.2 219 393.3 223.7 377.8C223.9 377.2 224.5 376.9 225 377.1C225.6 377.3 225.9 377.9 225.7 378.4C220.8 394.7 177.8 425.9 175.9 427.3C175.9 427.4 175.7 427.5 175.4 427.4Z" fill="#4F3429"/>
<path d="M144.1 454C143.8 454 143.5 453.9 143.3 453.7L134.5 444.8C134.1 444.4 134.1 443.7 134.5 443.3C134.9 442.9 135.6 442.9 136 443.3L144.8 452.2C145.2 452.6 145.2 453.3 144.8 453.7C144.6 453.9 144.4 454.1 144.1 454Z" fill="#D88260"/>
<path d="M298.5 228.3C298.5 228.3 307.7 201.2 318.1 202.3C325.6 203.2 321.9 218.5 321.9 218.5C321.9 218.5 352.3 202.6 356.4 201.1C360.5 199.6 366.8 208.2 360.9 212.9C355 217.6 348.2 222.6 348.2 222.6C348.2 222.6 356.4 229 351.8 237.5C351.8 237.5 358.9 244.2 354.5 251.5C354.5 251.5 351.8 267.6 345.8 273.8C339.8 280 332.8 274.1 332.8 274.1C332.8 274.1 324.4 280.4 319.3 282.9C312.2 286.1 293.1 277.4 288.8 270.7C286.5 267.2 286 254.8 298.5 228.3Z" fill="#FFC2A7"/>
<path d="M325.8 254.6C325.4 254.6 325 254.6 324.7 254.5C322.6 254 320.8 252.6 319.7 250.8C317 246.8 316.5 240.1 329.5 231.2C335.3 227.2 347.3 221.9 347.8 221.7C348.3 221.5 349 221.7 349.2 222.2C349.4 222.7 349.2 223.4 348.7 223.6C348.6 223.6 336.4 229.1 330.7 233C324.3 237.4 317.5 243.8 321.4 249.6C322.2 251 323.5 252 325 252.4C327.3 252.8 329.8 251.1 332 249.6C332.5 249.2 333 248.9 333.4 248.6C336.9 246.4 348.8 238.5 348.9 238.4C349.4 238.1 350.1 238.2 350.4 238.7C350.7 239.2 350.6 239.9 350.1 240.2C350 240.3 338 248.2 334.5 250.4C334.1 250.7 333.6 251 333.1 251.3C331.1 252.8 328.5 254.6 325.8 254.6Z" fill="#D88260"/>
<path d="M331.2 270.3C330.9 270.3 330.7 270.3 330.4 270.2C327.6 269.8 324.9 266.9 323.7 263.1C322.6 259.7 323.1 256 325.1 253.1C325.5 252.6 326.2 252.6 326.6 252.9C327 253.2 327.1 253.8 326.9 254.3C325.2 256.7 324.8 259.7 325.7 262.5C326.6 265.5 328.7 267.8 330.7 268.1C331.9 268.3 333.1 267.7 334 266.3C337.4 261.3 350.1 253.7 350.6 253.3C351.1 253 351.8 253.2 352.1 253.7C352.4 254.2 352.3 254.9 351.8 255.2C351.7 255.3 339 263 335.8 267.6C334.9 269.2 333.1 270.2 331.2 270.3Z" fill="#D88260"/>
<path d="M333.7 275.8C333.5 275.8 333.4 275.8 333.2 275.7C331.3 274.7 330.9 271 330.8 269.9C330.8 269.3 331.2 268.8 331.8 268.7C332.4 268.7 332.9 269.1 333 269.7C333.1 271.5 333.8 273.5 334.2 273.8C334.7 274.1 334.9 274.7 334.6 275.3C334.4 275.6 334.1 275.8 333.7 275.8Z" fill="#D88260"/>
<path d="M322.5 239.3C322.4 239.3 322.2 239.3 322.1 239.2C321.6 239 321.3 238.4 321.5 237.8C323.7 232.2 319.7 226.7 319.7 226.6C319.5 226.4 319.5 226.1 319.5 225.8L320.8 218.3C320.9 217.7 321.5 217.3 322 217.4C322.6 217.5 323 218.1 322.9 218.6L321.7 225.7C322.7 227.2 325.8 232.7 323.5 238.6C323.4 239.1 323 239.3 322.5 239.3Z" fill="#D88260"/>
<path d="M157.2 255H189C198.8 255 206.9 247.5 207.7 237.7L209.7 211.7C210.3 204.3 204.8 197.7 197.4 197.1H197.3H143.7C136.2 197.1 130.1 203.2 130 210.7C130 212.1 130.2 213.5 130.6 214.8L139.2 241.8C141.7 249.7 149 255 157.2 255Z" fill="#FED490"/>
<path d="M142.7 197.2C142.7 197.2 103.7 201.8 98.4002 227.6L94.7002 247.8L180.2 241.1L142.7 197.2Z" fill="#FED490"/>
<path d="M130.7 232.9C127.6 232.9 124.5 232.7 121.5 232.3C114 231.3 110.1 229.1 109.6 225.7C108.1 216.5 134.8 203.1 137.8 201.6C138.3 201.3 139 201.5 139.3 202.1C139.6 202.6 139.4 203.3 138.8 203.6C127.8 209 110.8 219.7 111.7 225.4C112.1 227.7 115.6 229.4 121.8 230.2C124.7 230.6 127.6 230.8 130.6 230.7C164.7 230.7 222 210.6 222.6 210.4C223.2 210.3 223.8 210.6 223.9 211.2C224 211.7 223.8 212.2 223.3 212.4C223.1 212.5 205.8 218.6 184.7 224C162.1 230 144 232.9 130.7 232.9Z" fill="white"/>
<path d="M237.6 273.4C237 273.4 236.5 272.9 236.5 272.3C236.5 272.1 236.5 271.9 236.6 271.8C240.3 265 247.3 261.1 251.2 259.4C246 257.5 240.8 255.8 239.8 255.8H239.7C239.1 255.8 238.6 255.4 238.6 254.8C238.5 254.3 238.9 253.7 239.4 253.7C239.4 253.7 239.4 253.7 239.5 253.7C241.3 253.5 250.7 256.9 254.6 258.4C255 258.6 255.3 259 255.3 259.4C255.3 259.9 255 260.3 254.6 260.4C254.5 260.4 243.2 264.2 238.6 272.9C238.3 273.1 238 273.3 237.6 273.4Z" fill="#4F3429"/>
<path d="M254.1 331.2C253.8 331.2 253.5 331.1 253.3 330.8C252.8 330.2 241 315.2 243.5 302.5C244.5 297.5 247.4 293.6 252.4 290.8C260.9 286 272.3 285.2 285.4 288.6C291.4 290.2 297.2 292.4 302.7 295.3C303.2 295.6 303.3 296.3 303 296.8C302.7 297.2 302.2 297.4 301.7 297.2C301.4 297 272.9 281.6 253.5 292.7C249.1 295.2 246.5 298.6 245.7 302.9C243.4 314.7 255 329.4 255.1 329.5C255.5 330 255.4 330.6 254.9 331C254.6 331.1 254.3 331.2 254.1 331.2Z" fill="#FED490"/>
<path d="M276.5 296.6C280.422 296.6 283.6 293.421 283.6 289.5C283.6 285.579 280.422 282.4 276.5 282.4C272.579 282.4 269.4 285.579 269.4 289.5C269.4 293.421 272.579 296.6 276.5 296.6Z" fill="#FED490"/>
<path d="M94.7996 247.8L89.0996 320.9C87.3996 342.9 103.8 362.1 125.8 363.8C126.7 363.9 127.6 363.9 128.5 363.9C150.5 364.1 168.6 346.5 168.8 324.4C168.8 322.8 168.7 321.2 168.6 319.6L159.9 241.6L94.7996 247.8Z" fill="#FED490"/>
<path d="M110.1 304.3C110 304.3 109.9 304.3 109.8 304.3C109.2 304.1 108.9 303.6 109 303L122.8 250.6C123 250 123.6 249.7 124.2 250C124.7 250.2 125 250.7 124.9 251.2L111.1 303.6C111 304 110.6 304.3 110.1 304.3Z" fill="#4F3429"/>
<path d="M106.4 290.2C105.8 290.2 105.3 289.7 105.3 289.1C105.3 288.7 105.5 288.3 105.9 288.1L114.2 284.5C114.8 284.3 115.4 284.5 115.6 285.1C115.8 285.7 115.6 286.3 115 286.5L106.7 290.1C106.7 290.2 106.6 290.2 106.4 290.2Z" fill="#4F3429"/>
<path d="M129.9 206.4C129.9 206.4 138.5 181.3 148 182.5C155 183.4 151.4 197.4 151.4 197.4C151.4 197.4 179.5 182.7 183.3 181.3C187.1 179.9 193 187.8 187.4 192.2C181.8 196.6 175.7 201.2 175.7 201.2C175.7 201.2 183.2 207.1 179 214.9C179 214.9 185.6 221 181.5 227.9C181.5 227.9 179 242.8 173.5 248.6C168 254.4 161.5 248.9 161.5 248.9C161.5 248.9 153.8 254.8 148.9 257.1C142.3 260.1 124.7 252.1 120.7 245.7C118.7 242.4 118.2 231 129.9 206.4Z" fill="#FFC2A7"/>
<path d="M145 203.7C144.7 203.7 144.4 203.6 144.2 203.3C143.8 202.9 143.9 202.2 144.3 201.8L152.4 194.7C152.8 194.3 153.5 194.3 153.9 194.8C154.3 195.2 154.2 195.9 153.8 196.3L145.6 203.4C145.5 203.6 145.3 203.7 145 203.7Z" fill="#D88260"/>
<path d="M166.8 206.4C166.2 206.4 165.7 205.9 165.7 205.3C165.7 204.9 165.9 204.5 166.3 204.3L175.2 200.1C175.7 199.8 176.4 200.1 176.6 200.6C176.8 201.1 176.6 201.8 176.1 202L167.2 206.2C167.2 206.4 167 206.4 166.8 206.4Z" fill="#D88260"/>
<path d="M169.3 221.4C168.7 221.4 168.2 220.9 168.3 220.3C168.3 219.9 168.5 219.6 168.8 219.4L178.7 214C179.2 213.8 179.9 214 180.1 214.6C180.3 215.1 180.1 215.6 179.7 215.9L169.8 221.3C169.6 221.4 169.5 221.4 169.3 221.4Z" fill="#D88260"/>
<path d="M161.6 250C161.2 250 160.8 249.8 160.6 249.4C160.3 248.9 160.5 248.2 161 248C161.1 247.9 170.6 242.9 172.5 238.4C172.7 237.9 173.4 237.6 173.9 237.9C174.4 238.1 174.7 238.8 174.4 239.3C172.1 244.4 162.3 249.7 161.9 249.9C161.9 250 161.7 250 161.6 250Z" fill="#D88260"/>
<path d="M194.4 255.5H161.4C160.8 255.6 160.3 255.1 160.2 254.5C160.1 253.9 160.6 253.4 161.2 253.3C161.3 253.3 161.3 253.3 161.4 253.3H194C195.4 251.9 201.7 244.6 197.1 231.1C197.1 231 197.1 231 197 230.9C196.7 227.5 195.4 210.5 201.3 208.3C201.9 208.2 202.5 208.5 202.6 209.1C202.7 209.6 202.5 210 202.1 210.3C198.9 211.5 198.4 222.8 199.1 230.5C204.7 246.7 195.5 254.8 195.1 255.1C194.9 255.5 194.7 255.5 194.4 255.5Z" fill="#4F3429"/>
<path d="M198.1 231.8C197.8 231.8 197.5 231.7 197.3 231.4C196.1 229.9 192.4 226.1 189.9 225.8C189.3 225.7 188.9 225.2 189 224.6C189.1 224 189.6 223.6 190.2 223.7C194 224.2 198.4 229.5 198.9 230.1C199.3 230.6 199.2 231.2 198.8 231.6C198.6 231.7 198.3 231.8 198.1 231.8Z" fill="#4F3429"/>
<path d="M270.2 240C269.6 240 269.1 239.5 269.1 238.9V59.8999C269.1 57.4999 267.1 55.4999 264.7 55.4999H136.6C134.2 55.4999 132.2 57.4999 132.2 59.8999V123.5C132.1 124.1 131.6 124.5 131 124.5C130.5 124.5 130.1 124 130 123.5V59.8999C130 56.2999 132.9 53.3999 136.6 53.3999H264.7C268.3 53.3999 271.2 56.2999 271.2 59.8999V238.9C271.3 239.5 270.8 240 270.2 240Z" fill="white"/>
<path d="M269.9 74.3997H131.1C130.5 74.3997 130 73.8997 130 73.2997C130 72.6997 130.5 72.1997 131.1 72.1997H269.8C270.4 72.1997 270.9 72.6997 270.9 73.2997C270.9 73.8997 270.4 74.3997 269.9 74.3997Z" fill="white"/>
<path d="M141.4 68.1998C139.1 68.1998 137.2 66.2998 137.2 63.9998C137.2 61.6998 139.1 59.7998 141.4 59.7998C143.7 59.7998 145.6 61.6998 145.6 63.9998C145.6 66.2998 143.7 68.1998 141.4 68.1998ZM141.4 61.9998C140.3 61.9998 139.4 62.8998 139.4 63.9998C139.4 65.0998 140.3 65.9998 141.4 65.9998C142.5 65.9998 143.4 65.0998 143.4 63.9998C143.4 62.8998 142.5 61.9998 141.4 61.9998Z" fill="white"/>
<path d="M154 68.1999C151.7 68.1999 149.8 66.3999 149.8 64.0999C149.8 61.7999 151.6 59.8999 153.9 59.8999C156.2 59.8999 158.1 61.6999 158.1 63.9999C158.2 66.2999 156.3 68.1999 154 68.1999ZM154 61.9999C152.9 61.9999 152 62.8999 152 63.9999C152 65.0999 152.9 65.9999 154 65.9999C155.1 65.9999 156 65.0999 156 63.9999C156 62.8999 155.1 61.9999 154 61.9999Z" fill="white"/>
<path d="M166.4 68.1998C164.1 68.1998 162.2 66.2998 162.2 63.9998C162.2 61.6998 164.1 59.7998 166.4 59.7998C168.7 59.7998 170.6 61.6998 170.6 63.9998C170.6 66.2998 168.7 68.1998 166.4 68.1998ZM166.4 61.9998C165.3 61.9998 164.4 62.8998 164.4 63.9998C164.4 65.0998 165.3 65.9998 166.4 65.9998C167.5 65.9998 168.4 65.0998 168.4 63.9998C168.4 62.8998 167.5 61.9998 166.4 61.9998Z" fill="white"/>
<path d="M260.8 127.3H140.3C139.7 127.3 139.2 126.8 139.2 126.2V84.9997C139.2 84.3997 139.7 83.9997 140.3 83.9997L260.8 83.1997C261.1 83.1997 261.4 83.2997 261.6 83.4997C261.8 83.6997 261.9 83.9997 261.9 84.2997V126.3C261.9 126.9 261.4 127.3 260.8 127.3ZM141.4 125.2H259.8V85.3997L141.4 86.0997V125.2Z" fill="white"/>
<path d="M140.3 127.3C139.8 127.3 139.5 127 139.3 126.6C139.1 126 139.4 125.4 140 125.2L260.5 83.1999C261.1 82.9999 261.7 83.2999 261.9 83.7999C262.1 84.3999 261.8 84.9999 261.3 85.1999L140.8 127.2C140.6 127.3 140.5 127.3 140.3 127.3Z" fill="white"/>
<path d="M260.8 127.3C260.7 127.3 260.6 127.3 260.4 127.2L140 86.1001C139.5 85.8001 139.3 85.2001 139.5 84.7001C139.7 84.3001 140.2 84.1001 140.6 84.1001L261.1 125.3C261.7 125.5 261.9 126.1 261.7 126.7C261.7 127.1 261.3 127.3 260.8 127.3Z" fill="white"/>
<path d="M259 236H241.6C241 236 240.5 235.5 240.5 234.9C240.5 234.3 241 233.8 241.6 233.8H257.9V143H193.5C192.9 142.9 192.5 142.4 192.5 141.8C192.5 141.3 193 140.9 193.5 140.8H259C259.6 140.8 260.1 141.3 260.1 141.9V234.8C260.1 235.5 259.6 236 259 236Z" fill="white"/>
<path d="M408 265.4H356.1C355.5 265.4 355 264.9 355 264.3C355 263.7 355.5 263.2 356.1 263.2H408C414.6 263.2 419.9 257.9 419.9 251.3V59.8999C419.9 57.4999 417.9 55.4999 415.5 55.4999H287.5C285.1 55.4999 283.1 57.4999 283.1 59.8999V237.7C283 238.3 282.5 238.7 281.9 238.7C281.4 238.7 281 238.2 280.9 237.7V59.8999C280.9 56.2999 283.8 53.3999 287.4 53.3999H415.4C419 53.3999 421.9 56.3999 421.9 59.8999V251.3C422 259.1 415.7 265.4 408 265.4Z" fill="white"/>
<path d="M420.7 74.3997H282C281.4 74.3997 280.9 73.8997 280.9 73.2997C280.9 72.6997 281.4 72.1997 282 72.1997H420.7C421.3 72.1997 421.8 72.6997 421.8 73.2997C421.8 73.8997 421.3 74.3997 420.7 74.3997Z" fill="white"/>
<path d="M292.301 68.1998C290.001 68.1998 288.101 66.2998 288.101 63.9998C288.101 61.6998 290.001 59.7998 292.301 59.7998C294.601 59.7998 296.501 61.6998 296.501 63.9998C296.501 66.2998 294.601 68.1998 292.301 68.1998ZM292.301 61.9998C291.201 61.9998 290.301 62.8998 290.301 63.9998C290.301 65.0998 291.201 65.9998 292.301 65.9998C293.401 65.9998 294.301 65.0998 294.301 63.9998C294.301 62.8998 293.401 61.9998 292.301 61.9998Z" fill="white"/>
<path d="M304.801 68.1998C302.501 68.1998 300.601 66.2998 300.601 63.9998C300.601 61.6998 302.501 59.7998 304.801 59.7998C307.101 59.7998 309.001 61.6998 309.001 63.9998C309.001 66.2998 307.101 68.1998 304.801 68.1998ZM304.801 61.9998C303.701 61.9998 302.801 62.8998 302.801 63.9998C302.801 65.0998 303.701 65.9998 304.801 65.9998C305.901 65.9998 306.801 65.0998 306.801 63.9998C306.801 62.8998 305.901 61.9998 304.801 61.9998Z" fill="white"/>
<path d="M317.301 68.1998C315.001 68.1998 313.101 66.2998 313.101 63.9998C313.101 61.6998 315.001 59.7998 317.301 59.7998C319.601 59.7998 321.501 61.6998 321.501 63.9998C321.501 66.2998 319.601 68.1998 317.301 68.1998ZM317.301 61.9998C316.201 61.9998 315.301 62.8998 315.301 63.9998C315.301 65.0998 316.201 65.9998 317.301 65.9998C318.401 65.9998 319.301 65.0998 319.301 63.9998C319.301 62.8998 318.401 61.9998 317.301 61.9998Z" fill="white"/>
<path d="M408.9 85.5H295.4V165.4H408.9V85.5Z" fill="url(#paint2_linear_2089_800)"/>
<path d="M330.701 154.8H330.201C327.701 154.7 324.401 153.5 323.101 148.4C321.901 143.8 323.801 139.1 328.601 134.7C337.001 127.1 353.101 121.3 370.601 119.6C374.001 115 376.701 110 378.801 104.7C380.201 100.7 381.201 95.5001 378.001 93.1001C371.701 88.4001 355.801 92.2001 331.801 104C313.501 113.1 296.901 123.7 296.801 123.8C296.301 124.1 295.601 124 295.301 123.5C295.001 123 295.101 122.3 295.601 122C298.301 120.2 362.601 78.9001 379.201 91.3001C381.601 93.1001 383.801 97.0001 380.801 105.4C378.901 110.3 376.301 115 373.301 119.3C385.701 118.4 398.501 119.6 409.701 123.6C410.301 123.8 410.501 124.4 410.401 125C410.201 125.6 409.601 125.9 409.001 125.7C399.001 122.1 385.301 120.8 371.601 121.9C359.801 138.1 341.101 154.8 330.701 154.8ZM368.801 122.1C353.601 123.7 338.801 128.3 330.101 136.2C327.201 138.8 324.001 143 325.201 147.8C326.001 150.9 327.701 152.4 330.301 152.6C339.101 153.1 357.001 137.9 368.801 122.1Z" fill="white"/>
<path d="M313.2 118C316.514 118 319.2 115.314 319.2 112C319.2 108.686 316.514 106 313.2 106C309.886 106 307.2 108.686 307.2 112C307.2 115.314 309.886 118 313.2 118Z" fill="white"/>
<path d="M408.301 237.9H359.601C359.001 237.9 358.501 237.4 358.501 236.8C358.501 236.2 359.001 235.7 359.601 235.7H407.201V175.4H297.001V199.5C297.101 200.1 296.601 200.6 296.001 200.7C295.401 200.8 294.901 200.3 294.801 199.7C294.801 199.6 294.801 199.6 294.801 199.5V174.3C294.801 173.7 295.301 173.2 295.901 173.2H408.201C408.801 173.2 409.301 173.7 409.301 174.3V236.7C409.401 237.5 408.901 237.9 408.301 237.9Z" fill="white"/>
<path d="M395.6 186.8H309.2C308.6 186.7 308.2 186.2 308.2 185.6C308.2 185.1 308.7 184.7 309.2 184.6H395.6C396.2 184.7 396.6 185.2 396.6 185.8C396.5 186.3 396.1 186.7 395.6 186.8Z" fill="white"/>
<path d="M395.6 196.4H309.2C308.6 196.3 308.2 195.8 308.2 195.2C308.2 194.7 308.7 194.3 309.2 194.2H395.6C396.2 194.3 396.6 194.8 396.6 195.4C396.5 196 396.1 196.4 395.6 196.4Z" fill="white"/>
<path d="M397.6 33.2C389.1 33.8 382.3 40.5 381.5 49C380.7 40.5 373.8 33.9 365.3 33.3C373.8 32.7 380.6 26 381.4 17.5C382.4 26 389.2 32.6 397.6 33.2Z" fill="#FED490"/>
<path d="M369.6 19.4C365.1 19.8 361.5 23.3 361 27.8C360.5 23.3 356.9 19.7 352.3 19.4C356.8 19.1 360.5 15.5 361 11C361.5 15.5 365.1 19 369.6 19.4Z" fill="#FED490"/>
<path d="M203.9 46.6C203.5 46.6 203.2 46.4 203 46.1C202 44.7 200.9 43.4 199.7 42.2C199.5 42 199.4 41.7 199.4 41.4C199.4 41.1 199.5 40.8 199.7 40.6C200.1 40.2 200.8 40.2 201.2 40.6C202.5 41.9 203.7 43.3 204.8 44.8C205.1 45.3 205 46 204.5 46.3C204.3 46.5 204.1 46.6 203.9 46.6ZM209 45.6C208.6 45.6 208.2 45.4 208 45C207.9 44.8 207.9 44.7 207.9 44.5C207.9 44.1 208.1 43.7 208.5 43.5C210 42.7 211.6 41.8 213.3 41C213.8 40.7 214.5 40.9 214.7 41.5C214.8 41.7 214.9 42 214.8 42.3C214.7 42.6 214.5 42.8 214.3 42.9C212.7 43.7 211.2 44.6 209.6 45.4C209.3 45.5 209.2 45.5 209 45.6ZM219.5 40.1C219.1 40.1 218.7 39.9 218.5 39.5C218.4 39.3 218.4 39.2 218.4 39C218.4 38.6 218.6 38.2 219.1 38C220.8 37.1 222.4 36.3 223.9 35.6C224.4 35.3 225.1 35.6 225.3 36.1C225.4 36.4 225.5 36.6 225.4 36.9C225.3 37.2 225.1 37.4 224.9 37.5C223.3 38.3 221.8 39 220.1 39.9C219.8 40 219.6 40 219.5 40.1ZM195.3 38.6C195.1 38.6 194.9 38.5 194.7 38.4C193.2 37.5 191.7 36.7 190.1 36C189.7 35.8 189.4 35.4 189.4 35C189.4 34.9 189.4 34.7 189.5 34.6C189.7 34.1 190.4 33.8 190.9 34C192.6 34.7 194.2 35.6 195.8 36.5C196 36.7 196.2 36.9 196.3 37.2C196.4 37.8 196.1 38.3 195.5 38.5C195.5 38.5 195.4 38.5 195.3 38.6ZM352.1 36.8C351.6 36.8 351.2 36.5 351.1 36.1C350.5 34.5 349.8 32.9 349 31.4C348.9 31.2 348.9 31.1 348.9 30.9C348.9 30.3 349.3 29.8 349.9 29.8C350.3 29.8 350.7 30 350.9 30.3C351.8 31.9 352.6 33.6 353.2 35.3C353.4 35.9 353.1 36.5 352.5 36.7C352.3 36.7 352.2 36.8 352.1 36.8ZM230.1 34.9C229.7 34.9 229.3 34.7 229.1 34.3C229 34.2 229 34 229 33.8C229 33.4 229.2 33 229.6 32.8C231.3 32 232.9 31.3 234.5 30.5C235 30.3 235.7 30.5 235.9 31C236 31.3 236 31.6 235.9 31.8C235.8 32.1 235.6 32.3 235.3 32.4C233.7 33.2 232 33.9 230.4 34.6C230.4 34.8 230.2 34.8 230.1 34.9ZM184.5 34C184.4 34 184.3 34 184.2 34C182.6 33.6 180.8 33.2 179.1 32.9C178.6 32.8 178.2 32.4 178.2 31.9C178.2 31.8 178.2 31.8 178.2 31.7C178.3 31.1 178.8 30.7 179.4 30.8C181.3 31.1 183.1 31.5 184.8 31.9C185.1 32 185.3 32.2 185.4 32.4C185.5 32.6 185.6 32.9 185.5 33.2C185.3 33.7 184.9 34 184.5 34ZM155.7 32.7C155.1 32.7 154.6 32.2 154.6 31.6C154.6 31.4 154.7 31.2 154.8 31C155 30.8 155.2 30.6 155.5 30.6C155.5 30.6 157.6 30.3 160.9 30C161.5 30 162 30.5 162 31.1C162 31.6 161.6 32.1 161.1 32.2C158.2 32.4 156.2 32.7 155.9 32.8L155.7 32.7ZM172.8 32.1C171 32 169.2 31.9 167.4 31.9C166.8 31.8 166.4 31.3 166.4 30.7C166.4 30.2 166.9 29.8 167.4 29.7C169.2 29.7 171 29.8 172.8 29.9C173.4 30 173.8 30.5 173.7 31.1C173.8 31.7 173.3 32.1 172.8 32.1ZM240.8 29.9C240.4 29.9 240 29.6 239.8 29.3C239.7 29.2 239.7 29 239.7 28.9C239.7 28.5 239.9 28.1 240.3 27.9C242 27.2 243.6 26.4 245.3 25.8C245.9 25.6 246.5 25.8 246.7 26.4C246.9 27 246.7 27.6 246.1 27.8C244.5 28.4 242.9 29.1 241.2 29.9C241.2 29.9 241 30 240.8 29.9ZM346 26.7C345.7 26.7 345.4 26.6 345.2 26.4C344 25.1 342.7 24 341.4 22.9C340.9 22.5 340.9 21.9 341.2 21.4C341.6 21 342.2 20.9 342.7 21.2C344.2 22.3 345.5 23.6 346.8 24.9C347.2 25.3 347.2 26 346.7 26.4C346.5 26.6 346.3 26.7 346 26.7ZM251.8 25.4C251.4 25.4 251 25.1 250.8 24.7C250.8 24.6 250.7 24.5 250.7 24.3C250.7 23.9 251 23.5 251.4 23.3H251.5C253.3 22.6 254.9 22 256.5 21.4C257.1 21.2 257.7 21.5 257.8 22.1C258 22.6 257.7 23.2 257.2 23.4C255.6 24 253.9 24.7 252.2 25.3C252 25.4 251.9 25.4 251.8 25.4ZM262.8 21.3C262.3 21.3 262 21 261.8 20.6C261.8 20.5 261.7 20.4 261.7 20.3C261.7 19.8 262 19.4 262.4 19.3C264.1 18.7 265.8 18.1 267.5 17.6C268 17.3 268.7 17.5 269 18C269.3 18.5 269.1 19.2 268.6 19.5C268.5 19.6 268.4 19.6 268.2 19.6C266.5 20.1 264.8 20.7 263.1 21.3C263.1 21.2 263 21.3 262.8 21.3ZM336.7 19.6C336.5 19.6 336.3 19.6 336.2 19.5C334.7 18.7 333.1 17.9 331.5 17.2C331 17 330.7 16.4 330.9 15.8C331.1 15.3 331.8 15 332.3 15.2C334 15.9 335.6 16.7 337.2 17.6C337.7 17.9 337.9 18.5 337.6 19.1C337.4 19.4 337.1 19.6 336.7 19.6ZM274.1 17.7C273.5 17.7 273 17.3 273 16.7C273 16.2 273.3 15.8 273.8 15.7C275.6 15.2 277.3 14.7 279 14.3C279.6 14.2 280.2 14.5 280.3 15.1C280.5 15.7 280.1 16.3 279.5 16.4C277.9 16.8 276.1 17.3 274.4 17.8C274.3 17.7 274.2 17.7 274.1 17.7ZM325.8 15.1C325.7 15.1 325.6 15.1 325.5 15.1C323.9 14.6 322.2 14.2 320.4 13.8C319.9 13.7 319.6 13.3 319.6 12.8C319.6 12.7 319.6 12.6 319.6 12.6C319.7 12 320.3 11.7 320.9 11.8C322.7 12.2 324.5 12.7 326.2 13.2C326.8 13.4 327.1 14 326.9 14.6C326.7 14.9 326.2 15.2 325.8 15.1ZM285.5 14.7C285 14.7 284.6 14.3 284.5 13.8C284.5 13.7 284.5 13.6 284.5 13.6C284.5 13.1 284.9 12.7 285.3 12.6C287.1 12.2 288.9 11.8 290.6 11.5C291.2 11.4 291.7 11.8 291.8 12.4C291.9 12.7 291.8 13 291.6 13.2C291.4 13.4 291.2 13.6 290.9 13.6C289.2 13.9 287.5 14.2 285.7 14.6C285.7 14.7 285.6 14.7 285.5 14.7ZM297.2 12.7C296.6 12.7 296.2 12.3 296.1 11.8V11.7C296.1 11.2 296.5 10.7 297 10.6C298.9 10.4 300.7 10.2 302.4 10.1C303 10.1 303.5 10.5 303.5 11.1C303.5 11.7 303.1 12.2 302.5 12.2C300.8 12.3 299 12.5 297.2 12.7ZM314.3 12.6H314.2C312.5 12.4 310.7 12.2 309 12.2C308.4 12.2 308 11.7 308 11.1C308 10.5 308.5 10 309.1 10C311 10.1 312.8 10.2 314.5 10.5C315.1 10.6 315.5 11.1 315.4 11.7C315.3 12.2 314.8 12.6 314.3 12.6Z" fill="#4F3429"/>
<path d="M333 489.9H314.8C314.6 489.8 314.4 489.8 314.2 489.9H296C295.5 489.9 295.1 489.6 295 489.1C294.3 486.2 277.1 418.1 279.2 399.3C280.9 384.4 293.6 381.2 301.2 379.4C303.1 379.1 304.9 378.5 306.7 377.6C308.4 376.6 309.1 374.5 308.5 372.7C307.9 370.5 305.4 368.1 300.3 368.1H289.4C288.8 368.1 288.3 367.6 288.3 367V353.7C288.3 353.1 288.8 352.6 289.4 352.6H339.7C340.3 352.6 340.8 353.1 340.8 353.7V367C340.8 367.6 340.3 368.1 339.7 368.1H328.7C323.6 368.1 321.2 370.5 320.5 372.7C319.9 374.6 320.7 376.6 322.3 377.6C324 378.4 325.9 379 327.8 379.4C335.4 381.3 348.1 384.4 349.8 399.4C351.8 418.2 334.7 486.3 334 489.2C333.9 489.5 333.5 489.9 333 489.9ZM296.9 487.8H314.2C314.4 487.9 314.6 487.9 314.8 487.8H332.1C334.1 479.9 349.5 416.9 347.6 399.6C346.1 386.2 334.8 383.4 327.3 381.5C324.6 380.8 322.5 380.3 321.2 379.5C318.8 377.9 317.7 375 318.5 372.2C319.4 369.2 322.5 366.1 328.8 366.1H338.7V354.9H290.5V366H300.3C306.5 366 309.7 369.2 310.6 372.1C311.4 374.9 310.3 377.9 307.9 379.4C306.6 380.3 304.5 380.8 301.8 381.4C294.3 383.3 283 386.1 281.5 399.5C279.4 416.9 294.9 479.9 296.9 487.8Z" fill="#4F3429"/>
<path d="M311.2 353.7C311.2 353.7 280.5 315.7 289.7 296.3C298.9 276.9 318 348.4 318 348.4C318 348.4 319.6 299.9 343.9 288.6C368.2 277.3 326.9 343.1 326.9 343.1C326.9 343.1 354.4 316.1 362.8 318.4C371.2 320.7 331 353.4 331 353.4L311.2 353.7Z" fill="url(#paint3_linear_2089_800)"/>
<path d="M288.1 452.1C287.8 452.1 287.5 452 287.3 451.7C286.9 451.2 287 450.6 287.5 450.2C287.6 450.1 298.8 441.1 309.5 430.8C327.9 413.2 329.5 406.9 328.8 404.7C328.4 403.6 327.2 402.9 324.9 402.8C303.1 401.2 280.6 407.1 280.4 407.2C279.8 407.4 279.2 407 279.1 406.4C279 405.8 279.3 405.2 279.9 405.1C280.1 405 303 399.1 325.1 400.7C328.3 400.9 330.2 402.1 330.9 404.1C334.3 414.8 293.6 448.1 288.9 451.8C288.6 452 288.3 452.1 288.1 452.1Z" fill="#4F3429"/>
<path d="M328.1 465.2C321.8 465.2 314.9 464.5 313.4 461.7C312.8 460.5 311.5 458.1 328.6 444.3C336.7 437.8 345.2 431.7 345.3 431.6C351.3 426.9 360.3 417.9 358.8 414.1C358.1 412.3 354.6 411.6 348.8 412C348.2 412 347.7 411.6 347.6 411C347.6 410.4 348 409.9 348.6 409.8C355.6 409.2 359.6 410.4 360.7 413.2C363.2 419.6 348.2 431.8 346.5 433.2C324.4 448.9 314.8 458.8 315.2 460.5C316 462.1 323.7 463.7 338 462.4C338.6 462.4 339.1 462.9 339.1 463.5C339.1 464 338.7 464.5 338.2 464.6C336.8 464.8 332.6 465.2 328.1 465.2Z" fill="#4F3429"/>
<path d="M328.8 368.1H300.3C299.7 368.1 299.2 367.6 299.2 367C299.2 366.4 299.7 365.9 300.3 365.9H328.8C329.4 365.9 329.9 366.4 329.9 367C329.9 367.6 329.4 368.1 328.8 368.1Z" fill="#4F3429"/>
<path d="M286.5 490H88.5995C87.9995 490.1 87.4995 489.6 87.3995 489C87.2995 488.4 87.7995 487.9 88.3995 487.8C88.4995 487.8 88.4995 487.8 88.5995 487.8H286.5C287.1 487.7 287.6 488.2 287.7 488.8C287.8 489.4 287.3 489.9 286.7 490C286.6 490 286.5 490 286.5 490Z" fill="#4F3429"/>
<path d="M347.999 489.9H295.999C295.399 489.9 294.899 489.4 294.899 488.8C294.899 488.2 295.399 487.7 295.999 487.7H347.999C348.599 487.7 349.099 488.2 349.099 488.8C349.099 489.4 348.599 489.9 347.999 489.9Z" fill="#4F3429"/>
<defs>
<linearGradient id="paint0_linear_2089_800" x1="236.078" y1="240.809" x2="190.648" y2="352.569" gradientUnits="userSpaceOnUse">
<stop stop-color="#F38374"/>
<stop offset="1" stop-color="#C64234"/>
</linearGradient>
<linearGradient id="paint1_linear_2089_800" x1="226.257" y1="236.819" x2="180.827" y2="348.579" gradientUnits="userSpaceOnUse">
<stop stop-color="#F38374"/>
<stop offset="1" stop-color="#C64234"/>
</linearGradient>
<linearGradient id="paint2_linear_2089_800" x1="380.291" y1="64.6903" x2="326.961" y2="179.82" gradientUnits="userSpaceOnUse">
<stop stop-color="#F38374"/>
<stop offset="1" stop-color="#C64234"/>
</linearGradient>
<linearGradient id="paint3_linear_2089_800" x1="331.729" y1="261.778" x2="320.829" y2="356.718" gradientUnits="userSpaceOnUse">
<stop stop-color="#0A6B5B"/>
<stop offset="0.78" stop-color="#005146"/>
<stop offset="0.91" stop-color="#005045"/>
</linearGradient>
</defs>
</svg>
