<svg width="500" height="500" viewBox="0 0 500 500" fill="none" xmlns="http://www.w3.org/2000/svg">
<path d="M460.7 295.3L452.6 356.2C450.3 374.3 430.4 381.4 423.5 381.4H372.5L368.3 277.2H412.9L414.9 289.8L424.3 268.9L460.7 295.3Z" fill="#FFC2A7"/>
<path d="M301.2 381.4H420.9C420.9 381.4 412.9 321.5 381.4 310.4C349.9 299.3 307.2 312.3 301.2 381.4Z" fill="url(#paint0_linear_2087_577)"/>
<path d="M377.101 298.5L333.9 289C327 287.5 322.1 281.6 321.8 274.5L319.8 229.8C319.8 229.8 318.8 210.5 338.5 213.8L390.601 223.2C390.601 223.2 407.501 227.8 404.201 248.1C402.501 258.9 402.001 267.4 398.701 288.4C397.401 296.8 385.301 300.3 377.101 298.5Z" fill="#4F3429"/>
<path d="M399.9 143.5C409.8 140.7 421 149.6 425 163.4C429 177.2 424.2 190.7 414.2 193.6C404.2 196.5 393.1 187.5 389.1 173.7C385.1 159.9 390 146.3 399.9 143.5Z" fill="url(#paint1_linear_2087_577)"/>
<path d="M435.3 132C444 131.3 452 142.4 453.1 156.7C454.2 171 448 183.2 439.3 183.9C430.6 184.6 422.6 173.5 421.5 159.2C420.4 144.8 426.5 132.7 435.3 132Z" fill="url(#paint2_linear_2087_577)"/>
<path d="M451 157C451.5 146 458 137.4 465.6 137.8C473.2 138.1 479 147.3 478.5 158.2C478 169.1 471.5 177.8 463.9 177.4C456.3 177.1 450.5 168 451 157Z" fill="url(#paint3_linear_2087_577)"/>
<path d="M396.2 195.2C394.9 202 390.8 208 385 211.7C373.3 219.1 357.8 215.5 350.4 203.8C343 192.1 346.6 176.6 358.3 169.2C370 161.8 385.5 165.4 392.9 177.1C396.3 182.4 397.5 188.9 396.2 195.2Z" fill="#FFC2A7"/>
<path d="M342 195.9C341.8 195.9 341.6 195.9 341.4 195.8C339.9 195.4 339.2 193.8 339 191C339 188.3 339.3 185.6 340 183C341.1 178.7 343.9 171.6 347.3 172.5C348.8 172.9 349.5 174.5 349.7 177.3C349.7 180 349.4 182.7 348.7 185.3C347.7 189.4 345.1 195.9 342 195.9ZM346.8 175C346 175.3 343.9 178.4 342.5 183.7C341.1 189 341.5 192.7 342.1 193.4C342.9 193.1 345 190 346.4 184.7C347.8 179.4 347.3 175.6 346.8 175Z" fill="#4F3429"/>
<path d="M344.868 195.895C349.164 195.567 352.526 193.738 352.379 191.811C352.232 189.884 348.63 188.587 344.335 188.915C340.04 189.244 336.677 191.072 336.824 193C336.972 194.927 340.573 196.223 344.868 195.895Z" fill="#FFC2A7"/>
<path d="M396.2 195.2C394.9 202 390.8 208 385 211.7C380.4 208.3 386.5 199.9 386.5 199.9C393.1 200.6 395.8 187.3 389 185.4C382.2 183.5 380.2 191.4 380.2 191.4C358.3 193.8 352.2 175.1 352 174.9C360.6 164 376.4 162.2 387.3 170.8C394.6 176.6 398.1 186 396.2 195.2Z" fill="url(#paint4_linear_2087_577)"/>
<path d="M384.4 197.4C385.6 197.6 386.8 197.3 387.8 196.6C389.7 195.2 390.1 192.6 388.8 190.7C388 189.5 386.6 188.9 385.1 189L386.3 190.6C386.3 190.5 386.3 190.4 386.4 190.3C386.5 190.2 386.4 190.2 386.4 190.3L386.5 190.2L386.6 190.1C386.5 190.2 386.5 190.2 386.6 190.1L386.8 189.9C386.9 189.8 386.8 189.8 386.8 189.9L387 189.8C387 189.8 387.3 189.6 387.1 189.7L387.4 189.6C387.6 189.5 387.2 189.6 387.5 189.6H387.8C387.5 189.6 387.9 189.6 387.9 189.6C388.2 189.7 387.7 189.5 388 189.6L388.3 189.8C388.1 189.7 388.3 189.8 388.4 189.9C388.5 190 388.6 190.1 388.5 190C388.6 190.1 388.6 190.2 388.7 190.3C388.7 190.4 388.7 190.4 388.7 190.3L388.8 190.5C389 191.2 389.7 191.5 390.3 191.3C390.9 191.1 391.3 190.5 391.1 189.8C390.6 187.8 388.6 186.7 386.6 187.2C385.2 187.6 384.2 188.6 383.9 190C383.7 190.7 384.1 191.4 384.8 191.5C384.9 191.5 385 191.5 385.1 191.5H385.4C385.4 191.5 385.7 191.5 385.5 191.5C385.3 191.5 385.6 191.5 385.7 191.5L385.9 191.6C386.1 191.6 385.9 191.6 386 191.6L386.2 191.7C386.3 191.7 386.4 191.8 386.4 191.9C386.4 191.9 386.5 192 386.6 192.1C386.7 192.2 386.8 192.3 386.7 192.2C386.6 192.1 386.8 192.3 386.8 192.4L386.9 192.6C386.8 192.4 386.9 192.7 386.9 192.7C386.9 192.8 387 192.9 387 193C387 192.9 387 192.9 387 193C387 193.1 387 193.2 387 193.3C387 193.4 387 193.6 387 193.4C387 193.2 387 193.6 387 193.6C387 193.6 387 193.7 386.9 193.8C386.8 193.9 386.9 193.8 386.9 193.9L386.8 194.1C386.8 194.2 386.6 194.3 386.8 194.2C386.8 194.3 386.7 194.3 386.7 194.4C386.7 194.4 386.5 194.6 386.6 194.5C386.7 194.4 386.5 194.6 386.5 194.6L386.3 194.7C386.2 194.8 386.2 194.7 386.3 194.7C386.2 194.7 386.1 194.8 386 194.8L385.8 194.9C385.7 194.9 386 194.9 385.7 194.9H385.5C385.5 194.9 385.1 194.9 385.4 194.9C384.7 194.7 384.1 195.1 383.9 195.8C383.7 196.5 384.1 197.1 384.8 197.3L384.4 197.4Z" fill="#D88260"/>
<path d="M358.255 189.413C359.038 187.586 358.397 185.558 356.824 184.883C355.25 184.209 353.339 185.144 352.556 186.972C351.773 188.799 352.414 190.827 353.988 191.502C355.562 192.176 357.472 191.241 358.255 189.413Z" fill="white"/>
<path d="M356.568 189.115C357.09 187.897 356.649 186.539 355.583 186.082C354.517 185.626 353.23 186.243 352.708 187.461C352.186 188.68 352.627 190.038 353.693 190.494C354.759 190.951 356.046 190.334 356.568 189.115Z" fill="#005045"/>
<path d="M362.301 208.1C361.601 208.1 361.101 207.5 361.101 206.8C361.101 206.2 361.501 205.7 362.101 205.6C363.401 205.4 364.501 204.7 365.201 203.6C366.501 201.3 365.301 197.9 365.201 197.9C365.001 197.3 365.301 196.5 365.901 196.3C366.501 196.1 367.301 196.4 367.501 197C367.601 197.2 369.101 201.5 367.301 204.8C366.301 206.5 364.501 207.7 362.501 208C362.401 208.1 362.401 208.1 362.301 208.1Z" fill="#D88260"/>
<path d="M366.2 198.6C364.9 198.5 363.7 198.1 362.7 197.2C362.2 196.7 362.2 195.9 362.7 195.4C363.1 195 363.8 194.9 364.3 195.3C364.9 195.8 365.7 196.1 366.4 196C367.1 195.9 367.6 195.5 368 194.9C368.3 194.3 369 194 369.6 194.3C370.2 194.6 370.5 195.3 370.2 195.9C370.1 196 370.1 196.2 369.9 196.3C369.2 197.5 368 198.3 366.7 198.5C366.6 198.6 366.4 198.6 366.2 198.6Z" fill="#D88260"/>
<path d="M354.1 201C353.7 201 353.3 200.9 352.9 200.9C348.9 199.9 347.1 193.7 348.9 186.9C349.6 184 351 181.3 352.9 179.1C354.9 177 357.1 176.1 359.1 176.6C363.1 177.6 364.9 183.8 363.1 190.6C362.4 193.5 361 196.2 359.1 198.4C357.9 199.9 356 200.9 354.1 201ZM358 178.9C356.7 179.1 355.5 179.7 354.7 180.8C353 182.7 351.8 185.1 351.3 187.6C349.8 193.4 351.3 198 353.5 198.6C354.6 198.9 356 198.2 357.3 196.8C359 194.9 360.2 192.5 360.7 190C362.2 184.2 360.7 179.6 358.5 179C358.4 178.9 358.2 178.9 358 178.9Z" fill="#4F3429"/>
<path d="M396.1 187.8C395.4 187.8 394.9 187.2 394.9 186.6C395.1 175.9 388.1 172.9 388 172.9C387.4 172.6 387.1 171.9 387.4 171.2C387.7 170.6 388.3 170.4 388.9 170.6C389.3 170.7 397.5 174.3 397.3 186.6C397.3 187.3 396.8 187.8 396.1 187.8Z" fill="#4F3429"/>
<path d="M426.5 173.6C425.8 173.6 425.3 173 425.3 172.4C425.5 161.8 418.7 158.8 418.4 158.7C417.8 158.4 417.5 157.7 417.8 157C418.1 156.4 418.7 156.2 419.3 156.4C419.7 156.5 427.9 160.1 427.7 172.4C427.8 173.1 427.2 173.6 426.5 173.6C426.5 173.7 426.5 173.7 426.5 173.6Z" fill="#4F3429"/>
<path d="M453.6 169.4C452.9 169.4 452.4 168.8 452.4 168.2C452.4 168 452.4 167.9 452.5 167.7C454.9 161.5 451.6 151.3 451.6 151.2C451.3 150.6 451.6 149.8 452.3 149.6C452.9 149.3 453.7 149.6 453.9 150.3C453.9 150.4 453.9 150.4 454 150.5C454.1 150.9 457.6 161.6 454.9 168.7C454.6 169 454.2 169.4 453.6 169.4Z" fill="#4F3429"/>
<path d="M486.3 162.3C485.7 162.3 485.2 161.9 485.1 161.3C484.9 160.2 481.3 158.3 478.1 157.3C477.5 157.1 477.1 156.4 477.3 155.8C477.4 155.5 477.6 155.3 477.8 155.2C480.9 153.1 483.7 150.6 484.3 149.4C481.8 149 479.2 152.9 478.5 154.3C478.2 154.9 477.4 155.1 476.8 154.8C476.2 154.5 476 153.7 476.3 153.1C476.4 152.8 480.1 145.9 485 147C485.9 147.1 486.7 147.8 486.9 148.7C487.3 150.6 484.3 153.5 481.1 155.8C483.7 156.8 487.1 158.6 487.5 160.9C487.6 161.6 487.2 162.2 486.5 162.3C486.5 162.3 486.4 162.3 486.3 162.3Z" fill="#4F3429"/>
<path d="M426.7 243.8C429 238.8 433.5 235.1 438.8 233.9L447.8 197.8C449.8 187.7 461.4 189.4 460.2 199.9L457.1 226.4L470.3 205.2C473.9 198.4 484 201.1 480.4 211.6L472.3 233.6C472.3 233.6 480.9 234 480.4 243.1C484.7 243.8 487.9 247.3 488.5 251.6C489.6 259.1 489.8 273.8 489.8 273.8C490.2 276.9 481.2 281.7 475.9 276.3C475.9 276.3 470.5 298.8 457 296.9L423 284.1C423.2 284.1 423 252.2 426.7 243.8Z" fill="#FFC2A7"/>
<path d="M476.1 277.5C475.9 277.5 475.6 277.4 475.4 277.3C475 277.1 471.9 274.7 473.5 265.1C474.6 258.9 476.1 252.7 478 246.6C478.3 246 479 245.7 479.6 245.9C480.2 246.1 480.5 246.7 480.4 247.3C478.6 253.3 477.1 259.3 476 265.4C474.7 273.3 476.9 275.1 476.9 275.2C477.5 275.6 477.6 276.3 477.2 276.9C477 277.3 476.6 277.5 476.1 277.5Z" fill="#D88260"/>
<path d="M465 272.8C463.2 272.8 461.5 272.3 459.9 271.5C456.2 269.4 453.8 264.9 456.2 260.3L471.3 233C471.6 232.4 472.3 232.1 472.9 232.4C473.5 232.7 473.8 233.4 473.5 234C473.5 234 473.5 234.1 473.4 234.1L458.3 261.4C456.5 264.8 458.5 267.9 461 269.3C464.5 271.2 469.4 270.7 472.7 265.2C473.1 264.6 473.9 264.5 474.4 264.9C474.9 265.3 475.1 265.9 474.8 266.5C472.3 271 468.5 272.8 465 272.8Z" fill="#D88260"/>
<path d="M458.8 259.5C458.2 259.5 457.7 259.1 457.6 258.5C456.6 252.6 448.8 250.5 448.7 250.5C448 250.3 447.6 249.7 447.8 249C447.9 248.8 448 248.6 448.2 248.4L454.5 242.6C456.4 239.5 457.1 236.9 456.5 234.9C456.1 233.8 455.4 232.9 454.4 232.3L439.2 235C438.5 235.1 437.9 234.7 437.8 234C437.7 233.3 438.1 232.7 438.8 232.6L454.4 229.7C454.6 229.7 454.9 229.7 455.1 229.8C456.9 230.6 458.3 232.2 458.9 234.1C459.8 236.9 459 240.2 456.6 244C456.5 244.1 456.5 244.2 456.4 244.2L451.5 248.7C454.3 249.9 459.2 252.6 460.2 258C460.3 258.7 459.9 259.3 459.2 259.4L458.8 259.5Z" fill="#D88260"/>
<path d="M454.4 232.2C453.7 232.2 453.2 231.6 453.2 231C453.2 230.8 453.3 230.6 453.4 230.4L456.2 225.8C456.5 225.2 457.3 225 457.9 225.3C458.5 225.6 458.7 226.4 458.4 227C458.4 227 458.4 227.1 458.3 227.1L455.6 231.7C455.3 231.9 454.9 232.2 454.4 232.2Z" fill="#D88260"/>
<path d="M399.401 277.1H412.901L409.401 240.7C409.401 240.7 404.701 226.3 390.601 223.2L399.401 277.1Z" fill="#4F3429"/>
<path d="M372.5 382.6C371.9 382.6 371.4 382.2 371.3 381.7L361.7 341.9C361.5 341.2 362 340.6 362.6 340.4H362.7L373.3 339.3C374 339.3 374.6 339.8 374.6 340.5C374.6 341.1 374.2 341.7 373.6 341.8L364.4 342.8L373.6 381.2C373.8 381.9 373.4 382.5 372.7 382.7C372.7 382.6 372.6 382.6 372.5 382.6Z" fill="#4F3429"/>
<path d="M351.1 263.5C341.2 263.5 333.5 262 331.2 257.7C330.1 255.5 330.3 253 331.9 250.4C339.9 237.2 382.6 220.8 384.3 220.8C385 220.8 385.5 221.4 385.5 222.1C385.5 222.7 385.1 223.2 384.5 223.3C382.1 223.9 339.2 240.3 333.5 252.7C332.8 253.9 332.8 255.4 333.4 256.7C334.9 259.5 342 263.6 373.2 259.4C391.3 257 408.7 252.8 408.9 252.8C409.6 252.7 410.2 253.1 410.3 253.8C410.4 254.4 410 255 409.4 255.2C404.5 256.2 372.8 263.5 351.1 263.5Z" fill="#FED490"/>
<path d="M399.4 278.4H399.2C398.5 278.3 398.1 277.7 398.2 277L403.3 244.1C403.4 243.4 404 243 404.7 243.1C405.4 243.2 405.8 243.8 405.7 244.5L400.6 277.4C400.6 277.9 400 278.4 399.4 278.4Z" fill="white"/>
<path d="M457.501 298.8C453.001 298.8 444.601 297.3 437.401 287.2C437.101 286.6 437.301 285.8 437.901 285.5C438.401 285.2 439.001 285.3 439.401 285.7C448.501 298.5 459.701 296.1 460.101 296C460.801 295.8 461.401 296.2 461.601 296.8C461.801 297.5 461.401 298.1 460.801 298.3C460.701 298.3 460.701 298.3 460.601 298.3C459.601 298.7 458.601 298.8 457.501 298.8Z" fill="#D88260"/>
<path d="M404.1 318.5C403.9 318.5 403.8 318.5 403.6 318.4C403 318.1 402.6 317.4 402.9 316.8L413.7 289.2C414 288.6 414.7 288.3 415.3 288.5C415.9 288.8 416.2 289.4 416 290.1L405.2 317.7C405.1 318.2 404.6 318.5 404.1 318.5Z" fill="#D88260"/>
<path d="M423.7 278.9C423.1 278.9 422.5 278.4 422.5 277.8L422 272C421.9 271.3 422.4 270.7 423.1 270.7C423.8 270.6 424.4 271.1 424.5 271.8L425 277.5C425.1 278.2 424.6 278.8 423.9 278.8L423.7 278.9Z" fill="#D88260"/>
<path d="M114.099 200C114.099 200 86.5994 198.4 81.3994 221.2L72.8994 270L65.3994 247.2L14.3994 260.4L29.1994 339.2C33.6994 363.1 54.5994 380.5 78.8994 380.5C102.099 380.5 122.299 364.8 127.999 342.3L148.899 259.6L114.099 200Z" fill="url(#paint5_linear_2087_577)"/>
<path d="M217.1 381.8H82.7002C82.7002 381.8 94.0002 295.4 129.4 275.3C184.3 244.1 217.1 381.8 217.1 381.8Z" fill="#4F3429"/>
<path d="M167.199 198.5L290.699 189.8C297.899 188.2 357.699 199.3 338.199 250L315.599 291.5H170.799L167.199 198.5Z" fill="url(#paint6_linear_2087_577)"/>
<path d="M159.1 273.1L114.9 274.5C107.9 274.7 101.6 270.2 99.5996 263.5L99.8996 220.2C99.8996 220.2 100.6 199.7 114.1 200.1L167.3 198.6C167.3 198.6 186.7 200.1 186.6 219.4C186.5 230.4 179.1 244 174.1 257.7C171.2 265.5 167.4 272.9 159.1 273.1Z" fill="url(#paint7_linear_2087_577)"/>
<path d="M21.7997 205.3C21.7997 205.3 43.1997 193.3 50.9997 191.7C58.7997 190.1 68.8997 200.7 71.5997 206.7C74.2997 212.7 67.5997 216.1 67.5997 216.1C67.5997 216.1 72.7997 218.1 71.9997 226.1C71.1997 234.1 66.8997 236.1 66.8997 236.1C66.8997 236.1 69.3997 246.4 64.0997 251.6C64.5997 251.8 62.8997 261.7 48.0997 262.8C32.5997 263.9 19.5997 264.6 14.3997 260.5C9.19972 256.4 5.59971 219.3 21.7997 205.3Z" fill="#FFC2A7"/>
<path d="M22.2997 214.8C21.0997 207.5 20.2997 200.2 19.7997 192.8C19.0997 180.7 25.3997 177.7 30.2997 178.1C35.1997 178.5 42.5997 190.1 43.6997 198.1C44.7997 206.1 27.3997 215.7 22.2997 214.8Z" fill="#FFC2A7"/>
<path d="M138.399 144.3C151.799 143.3 163.499 153.3 164.599 166.7C165.599 180.1 155.599 191.8 142.199 192.9C135.999 193.4 129.899 191.5 125.099 187.6C119.899 183.4 116.599 177.2 116.099 170.5C114.999 157 124.999 145.3 138.399 144.3Z" fill="#FFC2A7"/>
<path d="M167.899 174.7C164.499 174.7 160.899 170.2 159.199 163.7C157.299 156.5 158.699 150.4 162.299 149.5C165.899 148.6 170.099 153.2 171.999 160.4C173.899 167.6 172.499 173.7 168.899 174.6C168.599 174.7 168.199 174.7 167.899 174.7ZM161.599 163.1C163.099 168.9 166.399 172.7 168.299 172.2C170.199 171.7 171.199 166.8 169.699 161C168.199 155.2 164.899 151.4 162.999 151.9C161.099 152.4 160.099 157.3 161.599 163.1Z" fill="#4F3429"/>
<path d="M173.425 174.907C173.783 173.063 170.733 170.92 166.612 170.12C162.492 169.32 158.861 170.166 158.504 172.009C158.146 173.853 161.196 175.996 165.316 176.796C169.437 177.596 173.067 176.75 173.425 174.907Z" fill="#FFC2A7"/>
<path d="M145.299 139C145.299 139 124.799 139.9 116.399 149.6C109.399 157.7 105.199 174.4 124.999 187.5C129.899 184.7 124.899 175.9 124.899 175.9C124.099 175.9 123.299 175.7 122.599 175.3C118.299 172.6 118.199 162.6 124.099 161.7C130.999 160.6 131.899 168.4 131.899 168.4C145.099 172.8 147.299 148 153.099 154.1C164.499 161.8 173.699 138.7 145.299 139Z" fill="url(#paint8_linear_2087_577)"/>
<path d="M126.9 171.4H126.7C126.4 171.4 126.8 171.4 126.6 171.4L126.2 171.3C126.1 171.3 126.3 171.4 126.1 171.3L125.9 171.2L125.7 171.1C125.9 171.2 125.7 171.1 125.6 171L125.4 170.8C125.3 170.7 125.5 171 125.4 170.7C125.4 170.6 125.3 170.6 125.3 170.5C125.3 170.4 125.2 170.3 125.3 170.5C125.3 170.4 125.3 170.3 125.2 170.3C125.1 170.3 125.1 170 125.2 170.1C125.3 170.2 125.2 170 125.2 170V169.7C125.2 169.6 125.2 169.5 125.2 169.7C125.2 169.6 125.2 169.5 125.2 169.5C125.2 169.4 125.3 169.3 125.3 169.2C125.4 169 125.2 169.3 125.3 169.2L125.4 169C125.5 168.8 125.2 169.2 125.5 168.9C125.6 168.8 125.7 168.7 125.8 168.6C125.7 168.7 125.8 168.6 125.9 168.6L126.1 168.5C126.3 168.4 125.9 168.5 126.1 168.5L126.4 168.4H126.6C126.5 168.4 126.5 168.4 126.6 168.4H126.9C126.9 168.4 127.2 168.4 127 168.4C127.7 168.6 128.4 168.2 128.5 167.5C128.5 167.4 128.5 167.3 128.5 167.2C128.4 165.2 126.7 163.7 124.7 163.8C123.3 163.9 122 164.8 121.5 166.1C121.3 166.8 121.7 167.4 122.4 167.6C123.1 167.8 123.7 167.4 123.9 166.7C123.8 166.9 123.9 166.7 124 166.6C124.1 166.4 123.9 166.7 124.1 166.5C124.1 166.5 124.4 166.3 124.2 166.4C124.3 166.3 124.4 166.3 124.5 166.2C124.6 166.1 124.4 166.2 124.6 166.1C124.7 166.1 124.8 166.1 124.9 166C125 166 125 166 124.8 166H125C125 166 125.4 166 125.2 166H125.4C125.6 166.1 125.3 165.9 125.5 166.1C125.5 166.1 125.8 166.3 125.6 166.2C125.7 166.3 125.8 166.3 125.8 166.4C126 166.6 125.7 166.3 125.9 166.5L126.1 166.8C126 166.6 126.1 166.8 126.1 166.9C126.1 167 126.1 167 126.1 167.1C126.1 167 126.1 167 126.1 167.1L127.7 165.9C125.5 165.4 123.3 166.9 122.8 169.1C122.3 171.3 123.8 173.5 126 174C126.3 174.1 126.6 174.1 127 174.1C127.7 174.2 128.3 173.7 128.3 173C128.4 172.3 127.9 171.7 127.2 171.7C127.1 171.7 127.1 171.7 127 171.7L126.9 171.4Z" fill="#D88260"/>
<path d="M157.115 171.637C158.703 171.164 159.543 169.279 158.991 167.427C158.44 165.574 156.705 164.456 155.117 164.928C153.529 165.401 152.689 167.286 153.241 169.139C153.793 170.992 155.527 172.11 157.115 171.637Z" fill="white"/>
<path d="M157.369 170.499C158.428 170.184 158.992 168.941 158.63 167.724C158.267 166.506 157.115 165.775 156.056 166.09C154.998 166.406 154.434 167.648 154.796 168.865C155.159 170.083 156.311 170.814 157.369 170.499Z" fill="#005045"/>
<path d="M162.7 175.4C162.6 175.4 162.4 175.3 162.3 175.2L162.6 175.3C162.2 175.1 161.7 174.9 161.4 174.6L161.6 174.8C161.2 174.5 160.9 174.2 160.6 173.8L160.8 174C160.7 173.8 160.6 173.7 160.5 173.5C160.3 173.2 160.1 173 159.8 172.9C159.5 172.8 159.1 172.8 158.8 173C158.2 173.3 158 174.1 158.4 174.7C159.3 176.1 160.6 177.1 162.1 177.6C162.8 177.8 163.4 177.4 163.6 176.7C163.7 176.3 163.3 175.6 162.7 175.4Z" fill="#D88260"/>
<path d="M157 177C153.6 177 150 172.5 148.3 166C146.4 158.9 147.8 152.7 151.4 151.8C155 150.9 159.2 155.5 161.1 162.7C163 169.9 161.6 176 158 176.9C157.6 177 157.3 177 157 177ZM150.7 165.4C152.2 171.2 155.5 175 157.4 174.5C159.3 174 160.3 169.1 158.8 163.3C157.3 157.5 154 153.7 152.1 154.2C150.2 154.7 149.2 159.5 150.7 165.4Z" fill="#4F3429"/>
<path d="M149.399 182.8C148.199 182.8 147.099 182.5 145.999 182C143.599 180.8 141.999 178.2 141.199 174.4C141.099 173.7 141.599 173.1 142.299 173C142.899 172.9 143.499 173.3 143.699 173.9C144.299 176.9 145.499 178.9 147.199 179.8C148.499 180.4 150.099 180.5 151.399 180C151.999 179.7 152.799 180 152.999 180.6C153.199 181.2 152.999 182 152.399 182.2C151.399 182.6 150.399 182.8 149.399 182.8Z" fill="#D88260"/>
<path d="M86.2999 297.5C85.7999 297.5 85.3999 297.2 85.1999 296.8L71.7999 270.5C71.4999 269.9 71.6999 269.1 72.2999 268.8C72.8999 268.5 73.6999 268.7 73.9999 269.3L87.3999 295.6C87.6999 296.2 87.4999 296.9 86.8999 297.3C86.6999 297.5 86.4999 297.5 86.2999 297.5Z" fill="#4F3429"/>
<path d="M21.7996 206.5C21.3996 206.5 20.9996 206.3 20.7996 206C20.3996 205.5 20.4996 204.7 20.9996 204.3C22.4996 203.2 36.0996 193.3 41.6996 193.3C42.3996 193.3 42.8996 193.9 42.8996 194.5C42.8996 195.2 42.2996 195.7 41.6996 195.7C37.6996 195.7 26.3996 203.3 22.4996 206.3C22.2996 206.5 22.0996 206.5 21.7996 206.5Z" fill="#D88260"/>
<path d="M150.3 380.6C150.2 380.6 150.1 380.6 150.1 380.6C149.4 380.5 149 379.9 149.1 379.2L158.2 333.3C158.4 332.6 159 332.2 159.7 332.4C160.3 332.6 160.7 333.2 160.6 333.8L151.5 379.7C151.4 380.2 150.9 380.6 150.3 380.6Z" fill="white"/>
<path d="M66.4994 217C66.0994 217 65.6994 216.8 65.4994 216.5C65.4994 216.4 59.9994 209.5 54.4994 208.5C48.9994 207.5 41.4994 211.3 41.3994 211.4C40.7994 211.7 39.9994 211.4 39.6994 210.8C39.3994 210.2 39.5994 209.5 40.1994 209.2C40.4994 209 48.3994 204.9 54.8994 206.1C61.3994 207.3 67.1994 214.7 67.3994 215.1C67.7994 215.6 67.6993 216.4 67.1993 216.8C66.9993 217 66.7994 217 66.4994 217Z" fill="#D88260"/>
<path d="M66.8993 237.2C66.6993 237.2 66.4993 237.1 66.2993 237C66.2993 237 60.6993 233.6 55.4993 233.1C50.2993 232.6 42.9993 234 42.9993 234C42.2993 234.1 41.6993 233.6 41.5993 232.9C41.4993 232.3 41.8993 231.7 42.4993 231.5C42.7993 231.4 50.0993 230.1 55.6993 230.6C61.2993 231.1 67.2993 234.7 67.4993 234.8C68.0993 235.2 68.2993 235.9 67.8993 236.5C67.6993 237 67.3993 237.2 66.8993 237.2Z" fill="#D88260"/>
<path d="M50.2 257.4C49.5 257.4 49 256.8 49 256.2C49 255.5 49.6 255 50.2 255C58.4 254.9 61.4 252.4 61.4 252.3C61.9 251.9 62.7 251.9 63.1 252.4C63.6 252.9 63.5 253.7 63 254.1C63 254.2 59.5 257.2 50.2 257.4Z" fill="#D88260"/>
<path d="M111.2 258.6C92.3996 258.6 76.4996 257.5 76.2996 257.5C75.5996 257.5 75.0996 256.9 75.0996 256.2C75.0996 255.5 75.6996 255 76.3996 255H76.4996C102.8 256.9 171.6 258.4 173.4 242.8C174.3 235.1 164.9 225.8 146.2 215.8C136.7 210.8 126.9 206.5 116.8 202.8C116.2 202.5 115.9 201.8 116.2 201.2C116.4 200.6 117.1 200.3 117.7 200.5C120.2 201.4 178.3 222.2 175.9 243.1C174.9 252.2 157.7 257.3 124.7 258.4C120.2 258.5 115.6 258.6 111.2 258.6Z" fill="#FED490"/>
<path d="M41.0996 364.7C40.3996 364.7 39.8996 364.1 39.8996 363.4C39.8996 362.9 40.1996 362.5 40.5996 362.3C48.8996 358.6 70.7996 347.2 72.9996 338.4C73.3996 336.9 72.9996 335.3 71.9996 334.1C63.0996 323 25.6996 324.3 25.3996 324.4C24.6996 324.4 24.1996 323.9 24.0996 323.3C24.0996 323.3 24.0996 323.3 24.0996 323.2C24.0996 322.5 24.5996 322 25.2996 321.9C26.8996 321.8 64.2996 320.5 73.9996 332.5C75.4996 334.3 75.9996 336.7 75.3996 338.9C72.5996 350.6 42.8996 363.9 41.5996 364.5C41.3996 364.7 41.2996 364.7 41.0996 364.7Z" fill="#FED490"/>
<path d="M54.6 333.1C58.2451 333.1 61.2 330.145 61.2 326.5C61.2 322.855 58.2451 319.9 54.6 319.9C50.9549 319.9 48 322.855 48 326.5C48 330.145 50.9549 333.1 54.6 333.1Z" fill="#FED490"/>
<path d="M141.099 274.9H134.699C120.399 274.8 108.199 264.9 105.199 251L98.6995 220.4C98.4995 219.7 98.8995 219.1 99.4995 218.9C100.199 218.7 100.799 219.1 100.999 219.7C100.999 219.8 100.999 219.8 100.999 219.9L107.499 250.5C110.299 263.3 121.499 272.4 134.599 272.5H140.999C141.699 272.6 142.199 273.2 142.099 273.8C142.199 274.4 141.699 274.8 141.099 274.9Z" fill="#4F3429"/>
<path d="M271.5 157.6C269 160 265.8 161.6 262.4 162.2C258.3 163 254.1 162.1 250.7 159.8C250.8 165.6 244.8 171.9 242.4 170.3C242.4 170.3 241.5 162.5 234.6 163.5C228.7 164.4 228.8 174.4 233.1 177.1C233.8 177.5 234.6 177.7 235.4 177.7C235.4 177.7 240.3 186.5 235.5 189.3C246 197.7 261.3 196 269.8 185.5C276.2 177.7 276.9 166.4 271.5 157.6Z" fill="#FFC2A7"/>
<path d="M271.5 157.6C269 160 265.8 161.6 262.4 162.2C258.3 163 254.1 162.1 250.7 159.8C250.8 165.6 244.8 171.9 242.4 170.3C242.4 170.3 241.5 162.5 234.6 163.5C228.7 164.4 228.8 174.4 233.1 177.1C233.8 177.5 234.6 177.7 235.4 177.7C235.4 177.7 240.3 186.5 235.5 189.3C225 180.9 223.3 165.5 231.7 155C240.1 144.5 255.5 142.8 266 151.2C268.1 153.2 270 155.3 271.5 157.6Z" fill="#FFC2A7"/>
<path d="M283.909 176.87C284.269 175.027 281.222 172.88 277.102 172.076C272.982 171.271 269.351 172.113 268.991 173.956C268.631 175.799 271.679 177.945 275.798 178.75C279.918 179.555 283.549 178.713 283.909 176.87Z" fill="#FFC2A7"/>
<path d="M276.2 142.4C274.8 127.6 251.5 130.9 251 140.5C251 140.5 230 137.1 225.8 152C217.9 152.4 214.3 164.1 218.7 169.3C217 180.7 224.9 190.4 235.5 189.5C240.4 186.7 235.4 177.9 235.4 177.9C234.6 177.9 233.8 177.7 233.1 177.3C228.8 174.6 228.7 164.6 234.6 163.7C241.5 162.6 242.4 170.5 242.4 170.5C244.8 172.1 250.8 165.8 250.7 160C258.6 164.6 271.7 166 274.6 159.8C293.7 163.5 288.3 134.8 276.2 142.4Z" fill="#4F3429"/>
<path d="M237.4 173.4H237.201C236.801 173.4 237.301 173.4 237.101 173.4C236.901 173.4 236.801 173.3 236.701 173.3C236.601 173.3 236.801 173.4 236.601 173.3C236.501 173.3 236.5 173.2 236.4 173.2L236.201 173.1C236.401 173.2 236.201 173.1 236.101 173L235.9 172.8C235.8 172.7 236.001 173 235.801 172.7C235.801 172.6 235.701 172.6 235.701 172.5C235.701 172.4 235.601 172.3 235.701 172.5C235.701 172.4 235.701 172.4 235.601 172.3C235.501 172.2 235.501 172 235.501 172.1C235.501 172.2 235.501 172 235.501 172V171.7C235.501 171.6 235.501 171.5 235.501 171.7C235.501 171.6 235.501 171.5 235.501 171.5L235.601 171.2C235.701 171 235.501 171.3 235.601 171.2L235.701 171C235.801 170.8 235.501 171.2 235.801 170.9C235.901 170.8 236.001 170.7 236.101 170.6C236.001 170.7 236.101 170.6 236.201 170.6L236.4 170.5C236.6 170.4 236.3 170.6 236.4 170.5C236.5 170.5 236.601 170.4 236.701 170.4H236.9C236.8 170.4 236.8 170.4 236.9 170.4H237.201C237.301 170.4 237.501 170.4 237.301 170.4C238.001 170.6 238.701 170.2 238.801 169.5C238.801 169.4 238.801 169.3 238.801 169.2C238.701 167.2 237.001 165.7 235.001 165.8C233.601 165.9 232.301 166.8 231.801 168.1C231.601 168.8 232.001 169.4 232.701 169.6C233.401 169.8 234.001 169.4 234.201 168.7C234.101 168.9 234.301 168.6 234.301 168.6C234.401 168.4 234.2 168.7 234.4 168.5C234.4 168.5 234.701 168.2 234.501 168.4C234.601 168.3 234.701 168.3 234.801 168.2C234.901 168.1 234.7 168.2 234.9 168.1L235.201 168C235.301 168 235.301 168 235.201 168H235.4C235.4 168 235.801 168 235.601 168C235.401 168 235.701 168.1 235.801 168.1C236.001 168.2 235.7 168 235.9 168.2C235.9 168.2 236.201 168.4 236.001 168.2C236.101 168.3 236.201 168.4 236.201 168.4C236.201 168.4 236.101 168.3 236.301 168.5C236.401 168.6 236.401 168.7 236.501 168.8C236.401 168.6 236.501 168.8 236.501 168.9C236.501 169 236.501 169 236.501 169.1L238.101 167.9C235.901 167.4 233.701 168.9 233.201 171.1C232.701 173.3 234.2 175.5 236.4 176C236.7 176.1 237 176.1 237.4 176.1C238.1 176.1 238.601 175.5 238.601 174.9C238.601 174.2 238 173.7 237.4 173.7V173.4Z" fill="#D88260"/>
<path d="M261.301 184.9C261.001 184.9 260.701 184.9 260.401 184.9C260.301 184.9 260.301 184.9 260.201 184.9L259.801 184.8L259.401 184.7C259.601 184.8 259.301 184.6 259.401 184.7L259.201 184.6L258.801 184.4L258.701 184.3C258.901 184.5 258.501 184.1 258.701 184.3C258.501 184.1 258.301 183.9 258.101 183.7C258.101 183.7 257.901 183.5 258.001 183.6V183.5C257.901 183.4 257.801 183.3 257.801 183.1C257.801 182.9 257.701 182.9 257.601 182.7C257.701 183 257.501 182.5 257.601 182.7C257.601 182.6 257.601 182.6 257.501 182.5C257.401 182.4 257.401 182.2 257.401 182.1C257.401 182 257.301 181.5 257.301 181.9C257.301 181.6 257.201 181.3 256.901 181C256.701 180.8 256.401 180.6 256.001 180.6C255.401 180.6 254.701 181.2 254.801 181.8C255.101 185.1 258.101 187.6 261.401 187.3C262.101 187.4 262.701 186.9 262.701 186.2C262.801 185.5 262.301 184.9 261.601 184.9C261.601 184.9 261.501 184.9 261.301 184.9Z" fill="#D88260"/>
<path d="M252.1 182.7C254.5 183.3 257.1 182.7 259 181C259.5 180.5 259.5 179.7 259 179.3C258.5 178.8 257.7 178.8 257.2 179.3L256.9 179.5L256.8 179.6C256.6 179.7 256.4 179.8 256.2 180L255.9 180.1C255.7 180.2 255.9 180.1 256 180.1C256.1 180.1 255.9 180.2 255.8 180.2C255.6 180.3 255.3 180.4 255.1 180.4L254.7 180.5H254.5H254.6C254.4 180.5 254.1 180.5 253.9 180.5H253.5H253.3H253.2H253L252.6 180.4C251.9 180.2 251.3 180.6 251.1 181.3C251 182 251.4 182.6 252.1 182.7Z" fill="#D88260"/>
<path d="M267.601 173.535C269.19 173.064 270.032 171.179 269.482 169.326C268.932 167.473 267.199 166.353 265.61 166.824C264.022 167.295 263.18 169.18 263.73 171.033C264.28 172.886 266.013 174.006 267.601 173.535Z" fill="white"/>
<path d="M267.857 172.396C268.915 172.082 269.481 170.84 269.12 169.623C268.759 168.405 267.607 167.672 266.548 167.986C265.489 168.301 264.924 169.542 265.285 170.76C265.646 171.978 266.798 172.711 267.857 172.396Z" fill="#005045"/>
<path d="M273.2 177.4L272.8 177.2L273.1 177.3C272.7 177.1 272.2 176.9 271.9 176.6L272.1 176.8C271.7 176.5 271.4 176.2 271.1 175.8L271.3 176C271.2 175.8 271.1 175.7 271 175.5C270.8 175.2 270.6 175 270.3 174.9C269.6 174.7 269 175.1 268.8 175.8C268.7 176.1 268.8 176.5 268.9 176.8C269.8 178.2 271.1 179.2 272.6 179.7C273.3 179.9 273.9 179.5 274.1 178.8C274.3 178.2 273.9 177.5 273.2 177.4Z" fill="#D88260"/>
<path d="M177.5 381.8H317.1C317.1 381.8 292.7 280.6 266.7 276.4C240.7 272.2 188.8 335.3 177.5 381.8Z" fill="#4F3429"/>
<path d="M266.7 276.4H222.5C215.5 276.4 209.3 271.7 207.5 264.9L196 221.7C196 221.7 190.8 203.1 210.8 202H277.1C277.1 202 296.4 204.1 295.7 223.4C295.3 234.3 287.5 247.8 282.1 261.3C279.1 269.1 275.1 276.4 266.7 276.4Z" fill="url(#paint9_linear_2087_577)"/>
<path d="M210.8 202C210.8 202 193.1 199.5 174.3 218.1L104.4 287.1C80.8004 311.3 105.1 383.6 176 365.2L246.7 324.6V211.9L210.8 202Z" fill="url(#paint10_linear_2087_577)"/>
<path d="M272.8 202C272.8 202 290.5 199.5 309.3 218.1L379.2 287.1C402.8 311.3 378.5 383.6 307.6 365.2L231 329.8L236.8 211.9L272.8 202Z" fill="url(#paint11_linear_2087_577)"/>
<path d="M197.101 243.3C174.501 243.3 154.601 242 152.801 241.9C152.101 241.9 151.601 241.3 151.601 240.6C151.601 239.9 152.201 239.4 152.901 239.4C153.101 239.4 177.801 241 203.401 240.8C245.901 240.4 258.501 235.4 261.601 231.3C262.501 230.2 262.701 228.8 262.201 227.5C255.101 207.1 211.101 203.3 210.601 203.3C209.901 203.2 209.401 202.6 209.501 201.9C209.601 201.3 210.101 200.8 210.801 200.8C212.701 201 256.801 204.8 264.501 226.7C265.301 228.8 264.901 231.1 263.601 232.8C257.201 241.4 225.101 243.3 197.101 243.3Z" fill="#FED490"/>
<path d="M328.601 369.7C328.301 369.7 327.901 369.6 327.701 369.3C312.701 353.4 315.401 337.4 323.401 327C307.201 322.3 292.801 312.7 288.401 297.9C285.801 289.1 286.801 281.3 291.501 274.8C297.201 266.8 308.001 260.8 323.601 257C330.701 255.3 338.001 254.2 345.301 253.7C346.001 253.7 346.501 254.3 346.501 255C346.501 255.6 346.001 256.1 345.401 256.2C345.001 256.2 306.201 258.3 293.501 276.3C289.301 282.2 288.401 289.3 290.801 297.3C295.001 311.5 309.301 320.6 325.201 325C334.601 314.6 351.201 309.2 363.101 318C366.201 320.3 367.501 322.6 366.701 324.8C365.101 329.4 355.201 330.8 346.401 330.6C339.501 330.4 332.701 329.5 326.101 327.8C318.301 337.3 315.301 352.5 329.601 367.7C330.101 368.2 330.101 369 329.601 369.4C329.301 369.6 329.001 369.7 328.601 369.7ZM327.901 325.7C334.001 327.2 340.201 328 346.401 328.1C357.201 328.3 363.601 326.2 364.301 324C364.801 322.6 362.801 320.9 361.601 320C351.201 312.2 336.701 316.7 327.901 325.7Z" fill="#FED490"/>
<path d="M237.9 247.2C241.158 247.2 243.8 244.558 243.8 241.3C243.8 238.041 241.158 235.4 237.9 235.4C234.642 235.4 232 238.041 232 241.3C232 244.558 234.642 247.2 237.9 247.2Z" fill="#FED490"/>
<path d="M230.1 334.3C229.9 334.3 229.8 334.3 229.7 334.2L188 318C187.4 317.8 187 317.1 187.3 316.4C187.5 315.8 188.2 315.4 188.9 315.7C188.9 315.7 188.9 315.7 189 315.7L230.7 331.9C231.3 332.2 231.6 332.9 231.4 333.5C231.1 334 230.6 334.3 230.1 334.3Z" fill="#4F3429"/>
<path d="M285.6 286.9C285.5 286.9 285.4 286.9 285.3 286.9L192.3 264.7C191.6 264.5 191.2 263.9 191.4 263.2C191.6 262.5 192.2 262.1 192.9 262.3L285.9 284.4C286.6 284.6 287 285.2 286.8 285.9C286.6 286.6 286.1 286.9 285.6 286.9Z" fill="#4F3429"/>
<path d="M284.201 281.6C284.101 281.6 284.001 281.6 284.001 281.6C283.301 281.5 282.901 280.8 283.001 280.2L291.001 240.9C291.101 240.2 291.801 239.8 292.501 239.9C293.201 240 293.601 240.7 293.501 241.4L285.601 280.7C285.201 281.2 284.701 281.6 284.201 281.6Z" fill="#4F3429"/>
<path d="M199.601 271.1C199.001 271.1 198.501 270.7 198.401 270.1L191.501 236.4C191.401 235.7 191.801 235.1 192.501 234.9C193.201 234.7 193.801 235.2 194.001 235.9L200.901 269.6C201.001 270.3 200.601 270.9 199.901 271.1H199.601Z" fill="#4F3429"/>
<path d="M335.7 269.7C335.7 269.7 345.8 273.7 349.1 281.6C351.6 287.5 351.2 297.2 345.3 308.1C340.8 316.5 331.4 331.4 325.1 335C318.8 338.6 311.9 335.9 312.4 329.5C312.4 329.5 298.6 337.3 292.2 326.5C292.2 326.5 283.4 329.6 278.9 321.8C274.4 314 280.8 305.8 266.9 295.3C261.8 291.4 272.5 280.8 288.8 272.8C305.1 264.8 335.7 269.7 335.7 269.7Z" fill="#FFC2A7"/>
<path d="M337.801 270.8C337.801 270.8 362.701 273.6 367.001 285.1C371.301 296.6 360.501 299.5 356.501 299.7C352.501 299.9 347.101 299.4 345.001 293.1C342.901 286.8 337.801 270.8 337.801 270.8Z" fill="#FFC2A7"/>
<path d="M350 297.3C349.9 297.3 349.7 297.3 349.6 297.2C349 297 348.6 296.3 348.8 295.6C348.8 295.6 350.5 290.3 346.9 283.2C344.3 278.5 340.6 274.4 336.1 271.4C335.5 271 335.3 270.3 335.7 269.7C336.1 269.1 336.8 268.9 337.4 269.3C342.3 272.6 346.3 277 349.1 282.1C353.2 290.2 351.2 296.2 351.2 296.5C351 296.9 350.5 297.3 350 297.3Z" fill="#D88260"/>
<path d="M312.4 330.8C311.7 330.8 311.2 330.2 311.2 329.5C311.2 329.2 311.3 328.8 311.6 328.6C311.7 328.5 321.4 319.6 326.3 314.2C329.1 310.9 330.9 306.9 331.5 302.6C331.6 301.9 332.2 301.4 332.9 301.5C333.5 301.6 334 302.1 334 302.8C333.4 307.6 331.4 312.2 328.2 315.9C323.2 321.4 313.5 330.4 313.4 330.4C313 330.7 312.7 330.8 312.4 330.8Z" fill="#D88260"/>
<path d="M292.2 327.8C291.9 327.8 291.5 327.7 291.3 327.4C290.8 326.9 290.9 326.1 291.4 325.6C291.5 325.5 300.5 317 303.9 308.9C307.3 300.8 306.8 295.9 306.8 295.9C306.8 295.2 307.3 294.6 308 294.6C308.6 294.6 309.1 295 309.3 295.6C309.3 295.8 309.8 301.1 306.2 309.8C302.6 318.5 293.5 327 293.1 327.4C292.8 327.7 292.5 327.8 292.2 327.8Z" fill="#D88260"/>
<path d="M280.5 308.3C280.4 308.3 280.2 308.3 280.1 308.2C279.5 308 279.1 307.3 279.3 306.6C279.3 306.5 281.8 299.1 280.3 294.6C280.1 294 280.4 293.3 281.1 293C281.8 292.7 282.4 293.1 282.7 293.8C284.5 299 281.8 307 281.7 307.3C281.5 307.9 281 308.3 280.5 308.3Z" fill="#D88260"/>
<path d="M157.8 259.5C157.8 259.5 147.4 262.6 143.4 270.1C140.4 275.7 139.9 285.5 144.8 296.9C148.5 305.7 156.5 321.3 162.5 325.6C168.5 329.9 175.6 327.7 175.6 321.2C175.6 321.2 188.7 330.3 196 320C196 320 204.5 323.9 209.7 316.5C214.9 309.1 209.3 300.4 224 291.1C229.4 287.7 219.7 276.1 204.2 266.7C188.7 257.3 157.8 259.5 157.8 259.5Z" fill="#FFC2A7"/>
<path d="M155.6 260.4C155.6 260.4 130.5 260.9 125.2 272C119.9 283.1 130.3 286.9 134.4 287.5C138.5 288.1 143.8 288.1 146.5 281.9C149.2 275.7 155.6 260.4 155.6 260.4Z" fill="#FFC2A7"/>
<path d="M141.1 285.7C140.5 285.7 140 285.3 139.9 284.7C139.8 284.4 138.5 278.3 143.3 270.6C146.5 265.7 150.9 261.7 156.1 258.9C156.7 258.6 157.5 258.9 157.7 259.5C158 260.1 157.7 260.8 157.2 261.1C157.1 261.1 149.7 265 145.4 271.9C141.2 278.6 142.3 284.1 142.4 284.1C142.6 284.8 142.1 285.4 141.5 285.6C141.4 285.7 141.2 285.7 141.1 285.7Z" fill="#D88260"/>
<path d="M175.6 322.5C175.3 322.5 174.9 322.3 174.7 322.1C174.6 322 165.7 312.2 161.3 306.3C158.4 302.4 156.8 297.6 156.7 292.8C156.7 292.1 157.3 291.6 157.9 291.6C158.6 291.6 159.1 292.2 159.1 292.8C159.2 297.1 160.7 301.3 163.2 304.8C167.6 310.6 176.4 320.4 176.5 320.5C177 321 176.9 321.8 176.4 322.3C176.1 322.4 175.8 322.5 175.6 322.5Z" fill="#D88260"/>
<path d="M196 321.3C195.6 321.3 195.3 321.1 195.1 320.9C194.7 320.5 186.4 311.1 183.7 302.2C181 293.3 181.9 288 181.9 287.7C182 287 182.7 286.6 183.4 286.7C184.1 286.8 184.5 287.5 184.4 288.2C184.4 288.2 183.5 293.1 186.1 301.5C188.7 309.9 196.9 319.2 197 319.3C197.5 319.8 197.4 320.6 196.9 321.1C196.6 321.2 196.3 321.3 196 321.3Z" fill="#D88260"/>
<path d="M209.4 303C208.8 303 208.3 302.6 208.2 302C208.1 301.6 206.2 293.5 208.4 288.4C208.7 287.8 209.4 287.5 210 287.8C210.6 288.1 210.9 288.8 210.6 289.4C208.7 293.7 210.5 301.3 210.5 301.4C210.7 302.1 210.2 302.7 209.6 302.9C209.6 302.9 209.5 303 209.4 303Z" fill="#D88260"/>
<path d="M254.5 383.8C253.9 383.8 253.4 383.4 253.3 382.8L248.2 356.2C248 355.5 248.4 354.9 249.1 354.7C249.8 354.5 250.4 354.9 250.6 355.6C250.6 355.7 250.6 355.7 250.6 355.8L255.7 382.4C255.8 383.1 255.4 383.7 254.7 383.8H254.5Z" fill="white"/>
<path d="M239.3 358.3C238.7 358.3 238.2 357.9 238.1 357.3C238 356.6 238.4 356 239 355.8L256.2 352.1C256.9 351.9 257.5 352.3 257.7 353C257.9 353.7 257.5 354.3 256.8 354.5C256.8 354.5 256.7 354.5 256.6 354.5L239.4 358.2L239.3 358.3Z" fill="white"/>
<path d="M177.5 383C177.4 383 177.2 383 177.1 382.9C176.5 382.7 176.1 382 176.4 381.3L184.6 358.9C184.8 358.2 185.5 357.8 186.1 358C186.8 358.2 187.2 358.9 187 359.5C187 359.6 187 359.6 186.9 359.7L178.7 382.1C178.5 382.8 178 383.1 177.5 383Z" fill="white"/>
<path d="M290.8 194.6C290.8 194.6 278.7 193.9 272.5 198C267.8 201.1 264 205.9 263 216.9C262.3 225.3 262 240.8 264.9 246.6C267.8 252.4 274.2 253.7 277 248.7C277 248.7 283.4 261.2 293.4 256.3C293.4 256.3 298.4 262.9 305.5 259.3C312.6 255.7 312.6 245.1 328 244C333.6 243.6 337.4 230.9 322.2 213.6C313.8 204.3 302.9 197.7 290.8 194.6Z" fill="#FFC2A7"/>
<path d="M277 249.9C276.4 249.9 275.9 249.5 275.8 249C275.7 248.5 272.9 237.5 271.9 231.1C271.3 226.8 272 222.4 274 218.5C274.3 217.9 275.1 217.7 275.7 218C276.3 218.3 276.5 219.1 276.2 219.7C274.5 223.1 273.9 226.9 274.4 230.7C275.4 237 278.2 248.3 278.3 248.4C278.5 249.1 278.1 249.7 277.4 249.9C277.2 249.9 277.1 249.9 277 249.9Z" fill="#D88260"/>
<path d="M293.4 257.5C292.8 257.5 292.3 257.1 292.2 256.6C292.1 256.1 289.5 245.4 291 237.2C292.5 229 295.5 225.3 295.7 225.1C296.1 224.6 296.9 224.5 297.5 224.9C298 225.3 298.1 226.1 297.7 226.6C297.7 226.6 295 230 293.6 237.6C292.2 245.2 294.7 255.9 294.7 256C294.9 256.7 294.5 257.3 293.8 257.5H293.4Z" fill="#D88260"/>
<path d="M311.501 248.7C311.401 248.7 311.301 248.7 311.201 248.7C310.501 248.5 310.101 247.8 310.301 247.2C310.401 246.9 312.301 239.7 316.201 236.6C316.801 236.2 317.501 236.3 317.901 236.9C318.301 237.4 318.201 238.2 317.701 238.6C314.501 241.1 312.701 247.8 312.701 247.8C312.601 248.4 312.101 248.8 311.501 248.7Z" fill="#D88260"/>
<path d="M456.6 382.6H25.0999C24.3999 382.7 23.7999 382.2 23.7999 381.5C23.6999 380.8 24.1999 380.2 24.8999 380.2C24.9999 380.2 24.9999 380.2 25.0999 380.2H456.6C457.3 380.1 457.9 380.6 457.9 381.3C458 382 457.5 382.6 456.8 382.6C456.7 382.6 456.6 382.6 456.6 382.6Z" fill="#4F3429"/>
<path d="M340.7 149.1C330.9 149.8 323 157.5 322 167.2C321 157.4 313.2 149.8 303.4 149.1C313.2 148.4 321 140.8 322 131C323 140.8 330.8 148.4 340.7 149.1Z" fill="#FED490"/>
<path d="M310.7 126C305.5 126.4 301.2 130.5 300.7 135.7C300.2 130.5 296 126.4 290.7 126C296 125.6 300.2 121.5 300.7 116.3C301.2 121.5 305.4 125.6 310.7 126Z" fill="#FED490"/>
<defs>
<linearGradient id="paint0_linear_2087_577" x1="301.2" y1="344.116" x2="420.93" y2="344.116" gradientUnits="userSpaceOnUse">
<stop stop-color="#0A6B5B"/>
<stop offset="0.78" stop-color="#005146"/>
<stop offset="0.91" stop-color="#005045"/>
</linearGradient>
<linearGradient id="paint1_linear_2087_577" x1="474.697" y1="101.617" x2="407.682" y2="167.986" gradientUnits="userSpaceOnUse">
<stop stop-color="#F38374"/>
<stop offset="1" stop-color="#C64234"/>
</linearGradient>
<linearGradient id="paint2_linear_2087_577" x1="483.718" y1="111.805" x2="416.269" y2="178.439" gradientUnits="userSpaceOnUse">
<stop stop-color="#F38374"/>
<stop offset="1" stop-color="#C64234"/>
</linearGradient>
<linearGradient id="paint3_linear_2087_577" x1="474.026" y1="148.701" x2="406.443" y2="214.831" gradientUnits="userSpaceOnUse">
<stop stop-color="#F38374"/>
<stop offset="1" stop-color="#C64234"/>
</linearGradient>
<linearGradient id="paint4_linear_2087_577" x1="459.247" y1="104.293" x2="391.405" y2="170.962" gradientUnits="userSpaceOnUse">
<stop stop-color="#F38374"/>
<stop offset="1" stop-color="#C64234"/>
</linearGradient>
<linearGradient id="paint5_linear_2087_577" x1="203.6" y1="-28.692" x2="98.6298" y2="233.398" gradientUnits="userSpaceOnUse">
<stop stop-color="#0A6B5B"/>
<stop offset="0.78" stop-color="#005146"/>
<stop offset="0.91" stop-color="#005045"/>
</linearGradient>
<linearGradient id="paint6_linear_2087_577" x1="295.718" y1="116.96" x2="243.268" y2="247.92" gradientUnits="userSpaceOnUse">
<stop stop-color="#0A6B5B"/>
<stop offset="0.78" stop-color="#005146"/>
<stop offset="0.91" stop-color="#005045"/>
</linearGradient>
<linearGradient id="paint7_linear_2087_577" x1="200.305" y1="78.2462" x2="147.735" y2="209.496" gradientUnits="userSpaceOnUse">
<stop stop-color="#0A6B5B"/>
<stop offset="0.78" stop-color="#005146"/>
<stop offset="0.91" stop-color="#005045"/>
</linearGradient>
<linearGradient id="paint8_linear_2087_577" x1="148.737" y1="123.936" x2="134.887" y2="162.511" gradientUnits="userSpaceOnUse">
<stop stop-color="#F38374"/>
<stop offset="1" stop-color="#C64234"/>
</linearGradient>
<linearGradient id="paint9_linear_2087_577" x1="207.512" y1="162.935" x2="253.802" y2="245.055" gradientUnits="userSpaceOnUse">
<stop stop-color="#F38374"/>
<stop offset="1" stop-color="#C64234"/>
</linearGradient>
<linearGradient id="paint10_linear_2087_577" x1="134.579" y1="204.045" x2="180.879" y2="286.165" gradientUnits="userSpaceOnUse">
<stop stop-color="#F38374"/>
<stop offset="1" stop-color="#C64234"/>
</linearGradient>
<linearGradient id="paint11_linear_2087_577" x1="219.684" y1="156.073" x2="265.984" y2="238.193" gradientUnits="userSpaceOnUse">
<stop stop-color="#F38374"/>
<stop offset="1" stop-color="#C64234"/>
</linearGradient>
</defs>
</svg>
