<svg transform="scale(1)" version="1.1" id="yXhJJY1C6A" xmlns="http://www.w3.org/2000/svg" xmlns:xlink="http://www.w3.org/1999/xlink" x="0px" y="0px" viewBox="0 0 500 500" xml:space="preserve" class="pbimage_pbimage__wrapper__image__0LEis false"><title>Artificial Intelligence 6</title><style type="text/css"> .st0{fill:#000111;} .st1{fill:#FFFFFF;} .st2{fill:url(#SVGID_1_-yXhJJY1C6A);} .st3{fill:url(#SVGID_00000119093298359489621410000003606996096261419691_-yXhJJY1C6A);} .st4{fill:url(#SVGID_00000005228618075534899810000016081520961318522246_-yXhJJY1C6A);} .st5{fill:#FFC2A7;} .st6{fill:#D88260;} .st7{fill:url(#SVGID_00000010310740338600956610000004134864407846997154_-yXhJJY1C6A);} .st8{fill:url(#SVGID_00000062898034964358382530000009600395107266176917_-yXhJJY1C6A);} .st9{fill:#005045;} .st10{fill:url(#SVGID_00000024000471980499247840000013310265199387185586_-yXhJJY1C6A);} .st11{fill:#FED490;}
 .st11{fill:#FED490;}
 .st9{fill:#005045;}
 .st6{fill:#D88260;}
 .st5{fill:#FFC2A7;}
 .st1{fill:#FFFFFF;}
 .st0{fill:#000111;}</style><g id="robot"><rect class="st0" x="102.9" y="294.2" width="11.2" height="73.5" fill="#000111"></rect><path class="st0" d="M114.1,369h-11.2c-0.7,0-1.2-0.6-1.2-1.2v-73.6c0-0.7,0.5-1.2,1.2-1.2h11.2c0.7,0,1.2,0.6,1.2,1.2v73.5
		C115.3,368.4,114.8,369,114.1,369C114.1,369,114.1,369,114.1,369z M104.1,366.5h8.7v-71.1h-8.7V366.5z" fill="#000111"></path><rect class="st0" x="165" y="294.2" width="11.2" height="73.5" fill="#000111"></rect><path class="st0" d="M176.2,369H165c-0.7,0-1.2-0.6-1.2-1.2v-73.6c0-0.7,0.6-1.2,1.2-1.2h11.2c0.7,0,1.2,0.6,1.2,1.2v73.5
		C177.4,368.5,176.9,369,176.2,369z M166.2,366.5h8.8v-71.1h-8.7L166.2,366.5z" fill="#000111"></path><polygon class="st0" points="45.6,246.7 92.5,199.5 104.5,228.2 74.3,256.5 	" fill="#000111"></polygon><path class="st0" d="M74.3,257.7c-0.1,0-0.3,0-0.4-0.1l-28.6-9.8c-0.6-0.2-1-1-0.7-1.6c0.1-0.1,0.1-0.3,0.2-0.4l46.8-47.2
		c0.5-0.5,1.3-0.5,1.7,0c0.1,0.1,0.2,0.2,0.3,0.4l12,28.8c0.2,0.5,0.1,1-0.3,1.4l-30.2,28.2C74.9,257.6,74.6,257.7,74.3,257.7z
		 M47.9,246.1l26.1,8.9l29-27.2l-11-26.2L47.9,246.1z" fill="#000111"></path><path class="st1" d="M17,345.4c-1.5,6.6,2.6,13.2,9.2,14.7c0.6,0.1,1.2,0.2,1.8,0.3l13.4,1l13.9,1l13.4,1
		c6.8,0.5,12.6-4.6,13.1-11.4c0-0.6,0-1.2,0-1.9l-7.7-93.6c-0.5-6-5.3-10.8-11.4-11.2l0,0L51,244.4l0,0c-6-0.4-11.5,3.6-12.9,9.5
		L17,345.4z" fill="#FFFFFF"></path><path class="st0" d="M69.7,364.7h-1l-40.8-3c-7.5-0.5-13.1-7-12.5-14.5c0.1-0.7,0.2-1.4,0.3-2.1l0,0L37,253.6
		c1.5-6.5,7.5-11,14.2-10.4L63,244c6.7,0.5,12,5.7,12.5,12.4l7.7,93.6c0.6,7.4-4.9,14-12.4,14.6C70.5,364.6,70.1,364.6,69.7,364.7
		L69.7,364.7z M18.2,345.7L18.2,345.7c-1.4,6,2.3,11.9,8.3,13.3c0.6,0.1,1.1,0.2,1.7,0.3l40.8,3c6.1,0.4,11.4-4.1,11.8-10.2
		c0-0.6,0-1.1,0-1.7L73,256.6c-0.4-5.4-4.8-9.7-10.2-10.1L51,245.6c-5.4-0.4-10.4,3.2-11.6,8.5L18.2,345.7z" fill="#000111"></path><path class="st0" d="M81.8,354.1c-0.5,0-1-0.3-1.2-0.8c-0.1-0.1-5.7-13.8-28.3-17.2c-17.7-2.7-30.8,4.2-34.3,10
		c-0.4,0.6-1.1,0.8-1.7,0.4c-0.6-0.4-0.8-1.1-0.4-1.7c3.7-5.9,16.9-14.2,36.8-11.1c24.1,3.7,30,18.2,30.2,18.8
		c0.2,0.6-0.1,1.3-0.7,1.6c0,0,0,0,0,0C82.1,354.1,82,354.1,81.8,354.1z" fill="#000111"></path><path class="st0" d="M23.9,321.3c-0.7,0-1.3-0.5-1.3-1.2c0-0.7,0.5-1.3,1.2-1.3l27.2-0.9l1-55.5l-14.7-2.8
		c-0.7-0.1-1.2-0.7-1.1-1.4c0.1-0.7,0.7-1.2,1.4-1.1c0.1,0,0.1,0,0.2,0l15.7,3c0.6,0.1,1,0.6,1,1.2l-1,57.8c0,0.7-0.5,1.2-1.2,1.2
		L23.9,321.3L23.9,321.3z" fill="#000111"></path><circle class="st1" cx="52.9" cy="283.9" r="4.6" fill="#FFFFFF"></circle><path class="st0" d="M52.9,289.7c-1.2,0-2.3-0.3-3.3-1c-2.7-1.8-3.4-5.4-1.6-8.1s5.4-3.4,8.1-1.6s3.4,5.4,1.6,8.1
		C56.6,288.7,54.8,289.7,52.9,289.7z M52.9,280.6c-0.2,0-0.4,0-0.6,0c-0.9,0.2-1.6,0.7-2.1,1.4l0,0c-0.5,0.7-0.7,1.6-0.5,2.5
		c0.2,0.9,0.6,1.6,1.4,2.1c0.7,0.5,1.6,0.7,2.5,0.5c1.8-0.3,3-2.1,2.7-3.9c-0.2-0.9-0.6-1.6-1.4-2.1
		C54.2,280.8,53.6,280.6,52.9,280.6L52.9,280.6z M49.1,281.3L49.1,281.3z" fill="#000111"></path><linearGradient id="SVGID_1_-yXhJJY1C6A" gradientUnits="userSpaceOnUse" x1="712.0277" y1="-883.3289" x2="786.4606" y2="-883.3289" gradientTransform="matrix(0.2 -0.98 0.98 0.2 765.79 1293.9501)"><stop offset="0" style="stop-color: rgb(243, 131, 116);"></stop><stop offset="1" style="stop-color: rgb(198, 66, 52);"></stop></linearGradient><path class="st2" d="M30.9,346.4c12.8-11.2,29.2-1.1,35.6,6.4c5.2,6.1,11.8,28.3,14.4,41s0.1,25.4-6.1,27.7s-10.1-0.5-13.1-8.3
		L59,402.1c0,0-5.9,9-14.7,7.3c0,0-6,7.3-13.9,2.5S9.2,402.7,10,397.3c1.7-11.7,14.6-10.4,14.6-10.4S11.3,363.6,30.9,346.4z"></path><path class="st0" d="M59,403.4L59,403.4c-0.7,0-1.2-0.6-1.2-1.2c0,0,0,0,0,0c0-0.1,0.1-11.9-3.2-17.3c-0.4-0.6-0.2-1.3,0.4-1.7
		c0.6-0.4,1.3-0.2,1.7,0.4c3.7,6,3.6,18.1,3.6,18.6C60.2,402.8,59.7,403.4,59,403.4C59,403.4,59,403.4,59,403.4z" fill="#000111"></path><path class="st0" d="M42.2,410.1c-0.6,0-1.1-0.4-1.2-1c0-0.1-1.6-9.3-6.1-13.2c-0.5-0.5-0.5-1.2-0.1-1.8c0.5-0.5,1.2-0.5,1.7-0.1
		c5.2,4.6,6.8,14.3,6.9,14.7c0.1,0.7-0.3,1.3-1,1.4c0,0,0,0,0,0C42.3,410.1,42.2,410.1,42.2,410.1z" fill="#000111"></path><path class="st0" d="M32.1,390c-0.2,0-0.5-0.1-0.7-0.2c-2.3-0.8-4.6-1.4-6.9-1.8c-0.7-0.1-1.1-0.8-1-1.4c0.1-0.7,0.8-1.1,1.4-1
		c1.5,0.3,6.4,1.2,7.8,2.1c0.6,0.4,0.8,1.1,0.4,1.7C32.9,389.8,32.5,390,32.1,390z" fill="#000111"></path><polygon class="st0" points="215.1,275.6 161.6,222.9 186.8,204.5 218.5,247.7 	" fill="#000111"></polygon><path class="st0" d="M215.1,276.8c-0.3,0-0.6-0.1-0.9-0.4l-53.5-52.7c-0.3-0.3-0.4-0.6-0.4-1c0-0.4,0.2-0.7,0.5-0.9l25.2-18.3
		c0.5-0.4,1.3-0.3,1.7,0.3c0,0,0,0,0,0l31.7,43.1c0.2,0.3,0.3,0.6,0.2,0.9l-3.4,27.9c-0.1,0.5-0.4,0.8-0.8,1
		C215.4,276.8,215.2,276.8,215.1,276.8z M163.5,223l50.6,49.9l3.1-24.9l-30.7-41.7L163.5,223z" fill="#000111"></path><path class="st1" d="M318.3,282.9c6.8,0,12.3-5.6,12.2-12.4c0-0.6-0.1-1.3-0.2-1.9l-2.1-13.3l-2.2-13.8l-2.1-13.3
		c-1.1-6.7-7.4-11.3-14.1-10.2c-0.7,0.1-1.3,0.3-1.9,0.5l-89.3,29.2c-5.8,1.9-9.3,7.7-8.3,13.7l0,0l1.9,11.7l0,0
		c1,6,6.1,10.4,12.2,10.3L318.3,282.9z" fill="#FFFFFF"></path><path class="st0" d="M224.3,284.6c-6.6,0-12.3-4.8-13.4-11.4l-1.9-11.7c-1.1-6.6,2.8-13,9.2-15l89.3-29.2
		c7.1-2.3,14.7,1.6,17.1,8.7c0.2,0.7,0.4,1.3,0.5,2l6.5,40.4c1.2,7.4-3.8,14.3-11.2,15.5c-0.7,0.1-1.4,0.2-2.1,0.2l0,0L224.3,284.6
		L224.3,284.6z M318.3,282.8L318.3,282.8z M311.7,219.1c-1.2,0-2.3,0.2-3.4,0.6l-89.3,29.2c-5.2,1.7-8.4,6.9-7.5,12.3l1.9,11.7
		c0.8,5.4,5.5,9.3,10.9,9.3h0.1l93.9-0.5c6.1,0,11-4.9,11-11c0-0.6-0.1-1.2-0.2-1.8l-6.5-40.4C321.7,223,317.1,219.1,311.7,219.1
		L311.7,219.1z" fill="#000111"></path><path class="st0" d="M318.3,284.1c-0.1,0-0.3,0-0.4-0.1c-6.6-2.2-17.7-13.2-19.4-33.2c-2-24.3,10.8-33.4,11.3-33.8
		c0.5-0.5,1.3-0.5,1.8,0c0.5,0.5,0.5,1.3,0,1.8c-0.1,0.1-0.2,0.2-0.3,0.2c-0.1,0.1-12.1,8.7-10.2,31.5c1.4,17.9,11.2,29,17.7,31.1
		c0.7,0.2,1,0.9,0.8,1.6C319.3,283.7,318.8,284.1,318.3,284.1L318.3,284.1z" fill="#000111"></path><path class="st0" d="M228.8,284.2c-0.7,0-1.2-0.5-1.2-1.2l-0.7-16c0-0.6,0.4-1.1,1-1.3l56.4-12.4c0.6-0.1,1.3,0.2,1.5,0.9l7.5,27.4
		c0.2,0.7-0.2,1.3-0.9,1.5c-0.6,0.2-1.3-0.2-1.5-0.8l-7.2-26.2L229.4,268l0.6,15C230,283.7,229.5,284.3,228.8,284.2L228.8,284.2z" fill="#000111"></path><circle class="st1" cx="250.1" cy="262.1" r="4.6" fill="#FFFFFF"></circle><path class="st0" d="M250.1,267.9c-0.7,0-1.4-0.1-2.1-0.4l0,0c-3-1.2-4.5-4.5-3.3-7.5c1.2-3,4.5-4.5,7.5-3.3c3,1.2,4.5,4.5,3.3,7.5
		C254.7,266.5,252.5,267.9,250.1,267.9z M248.9,265.2c1.7,0.7,3.6-0.1,4.3-1.8c0.7-1.7-0.1-3.6-1.8-4.3c0,0-0.1,0-0.1,0
		c-1.7-0.7-3.6,0.2-4.3,1.9c0,0,0,0,0,0C246.4,262.6,247.2,264.5,248.9,265.2L248.9,265.2z" fill="#000111"></path><path class="st0" d="M137.8,169.1L137.8,169.1c7.8,0,14.2,6.4,14.2,14.2v23.4l0,0h-28.4l0,0v-23.4
		C123.6,175.4,129.9,169.1,137.8,169.1z" fill="#000111"></path><path class="st0" d="M152,207.9h-28.4c-0.7,0-1.2-0.6-1.2-1.2l0,0v-23.4c0-8.5,6.9-15.4,15.4-15.4s15.4,6.9,15.4,15.4v23.4
		C153.2,207.3,152.7,207.9,152,207.9z M124.8,205.4h25.9v-22.1c-0.5-7.2-6.7-12.6-13.9-12.1c-6.5,0.4-11.6,5.6-12.1,12.1V205.4z" fill="#000111"></path><path class="st1" d="M190.7,216.3l-1.1,45.3c-0.1,3.5-1,7-2.6,10.1l-24.2,47.9l-1,2c-4,8-12.2,13-21.1,13h-6.5
		c-8.9,0-17.1-5-21.1-13l-1-2l-24.2-47.9c-1.6-3.1-2.5-6.6-2.5-10.1l-1.1-45.3c-0.3-13,9.9-23.9,23-24.3c0.2,0,0.4,0,0.6,0H167
		c13,0,23.6,10.5,23.7,23.6C190.7,215.8,190.7,216,190.7,216.3z" fill="#FFFFFF"></path><path class="st0" d="M140.7,335.8h-6.5c-9.4,0-18-5.3-22.2-13.7l-25.3-49.9c-1.7-3.3-2.6-6.9-2.7-10.6l-1.1-45.3
		c-0.3-13.7,10.5-25.1,24.3-25.5c0.2,0,0.4,0,0.6,0H167c13.7,0,24.9,11.1,24.9,24.9c0,0.2,0,0.4,0,0.6l-1.1,45.3
		c-0.1,3.7-1,7.3-2.7,10.6l-25.3,49.9C158.6,330.5,150,335.8,140.7,335.8L140.7,335.8z M107.8,193.3c-12.4,0-22.4,10-22.4,22.4
		c0,0.2,0,0.4,0,0.5l1.1,45.3c0.1,3.3,0.9,6.6,2.4,9.6l25.3,49.9c3.8,7.6,11.5,12.3,20,12.3h6.5c8.5,0,16.2-4.7,20-12.3l25.2-49.9
		c1.5-3,2.3-6.2,2.4-9.6l1.1-45.3l0,0c0.3-12.4-9.5-22.6-21.8-22.9c-0.2,0-0.4,0-0.6,0L107.8,193.3z" fill="#000111"></path><path class="st1" d="M162.8,277v42.7l-1,2c-4,8-12.2,13-21.1,13h-6.5c-8.9,0-17.1-5-21.1-13l-1-2V277c0.3-14,11.9-25.1,25.8-24.8
		C151.5,252.4,162.5,263.4,162.8,277z" fill="#FFFFFF"></path><path class="st0" d="M140.7,335.8h-6.5c-9.4,0-18-5.3-22.2-13.7l-1-2c-0.1-0.2-0.1-0.4-0.1-0.6V277c0.6-14.7,13-26,27.7-25.4
		c13.8,0.6,24.8,11.6,25.4,25.4v42.7c0,0.2,0,0.4-0.1,0.6l-1,2C158.7,330.6,150.1,335.9,140.7,335.8L140.7,335.8z M113.3,319.3
		l0.9,1.7c3.8,7.6,11.5,12.3,20,12.3h6.5c8.5,0,16.2-4.7,20-12.3l0.9-1.7V277c-0.3-13.3-11.3-23.9-24.6-23.6
		c-12.9,0.3-23.4,10.7-23.6,23.6L113.3,319.3z M162.8,319.6L162.8,319.6z" fill="#000111"></path><path class="st0" d="M118.1,233.9H84.9c-0.7,0-1.2-0.6-1.2-1.2c0-0.7,0.6-1.2,1.2-1.2h32v-39c-0.1-0.7,0.4-1.3,1.1-1.3
		s1.3,0.4,1.3,1.1c0,0.1,0,0.1,0,0.2v40.3C119.3,233.4,118.8,233.9,118.1,233.9z" fill="#000111"></path><path class="st0" d="M189.6,262.8h-18.1c-0.7,0-1.2-0.6-1.2-1.2v-68.3c0-0.7,0.6-1.2,1.2-1.2c0.7,0,1.2,0.6,1.2,1.2v67.1h16.9
		c0.7,0,1.2,0.6,1.2,1.2C190.8,262.3,190.2,262.8,189.6,262.8z" fill="#000111"></path><circle class="st1" cx="117.6" cy="216.9" r="5.2" fill="#FFFFFF"></circle><path class="st0" d="M117.6,223.3c-3.6,0-6.5-2.9-6.5-6.5c0-3.6,2.9-6.5,6.5-6.5c3.6,0,6.5,2.9,6.5,6.5c0,0,0,0,0,0
		C124.1,220.4,121.2,223.3,117.6,223.3z M117.6,212.8c-2.2,0-4,1.8-4,4s1.8,4,4,4s4-1.8,4-4S119.8,212.8,117.6,212.8z" fill="#000111"></path><circle class="st1" cx="172" cy="247.7" r="5.2" fill="#FFFFFF"></circle><path class="st0" d="M172,254.2c-3.6,0-6.5-2.9-6.5-6.5c0-3.6,2.9-6.5,6.5-6.5c3.6,0,6.5,2.9,6.5,6.5c0,0,0,0,0,0
		C178.5,251.3,175.6,254.2,172,254.2z M172,243.7c-2.2,0-4,1.8-4,4s1.8,4,4,4s4-1.8,4-4S174.2,243.7,172,243.7z" fill="#000111"></path><path class="st0" d="M162.2,312.4h-20.5c-0.7,0-1.2-0.6-1.2-1.2v-33h-28.4c-0.7,0-1.2-0.6-1.2-1.2c0-0.7,0.6-1.2,1.2-1.2h29.6
		c0.7,0,1.2,0.6,1.2,1.2v33h19.3c0.7,0,1.2,0.6,1.2,1.2C163.5,311.9,162.9,312.4,162.2,312.4z" fill="#000111"></path><circle class="st1" cx="127.2" cy="276.8" r="5.1" fill="#FFFFFF"></circle><path class="st0" d="M127.2,283.2c-3.5,0-6.4-2.9-6.4-6.4c0-3.5,2.9-6.4,6.4-6.4c3.5,0,6.4,2.9,6.4,6.4
		C133.5,280.4,130.7,283.2,127.2,283.2z M127.2,272.9c-2.2,0-3.9,1.7-3.9,3.9s1.7,3.9,3.9,3.9s3.9-1.7,3.9-3.9c0,0,0,0,0,0
		C131.1,274.7,129.3,272.9,127.2,272.9z" fill="#000111"></path><ellipse class="st1" cx="207.4" cy="134.7" rx="12.1" ry="15.4" fill="#FFFFFF"></ellipse><path class="st0" d="M207.4,151.4c-7.3,0-13.3-7.5-13.3-16.6s6-16.7,13.3-16.7s13.3,7.5,13.3,16.7S214.7,151.4,207.4,151.4z
		 M207.4,120.6c-6,0-10.8,6.4-10.8,14.2s4.9,14.2,10.8,14.2s10.8-6.4,10.8-14.2S213.4,120.6,207.4,120.6z" fill="#000111"></path><ellipse class="st0" cx="203" cy="134.7" rx="12.1" ry="15.4" fill="#000111"></ellipse><linearGradient id="SVGID_00000167382962011671826590000018259052877942846390_-yXhJJY1C6A" gradientUnits="userSpaceOnUse" x1="-11163.6201" y1="-7567.3599" x2="-11122.3203" y2="-7567.3599" gradientTransform="matrix(-1 0 0 1 -10951.8398 7702.0898)"><stop offset="0" style="stop-color: rgb(243, 131, 116);"></stop><stop offset="1" style="stop-color: rgb(198, 66, 52);"></stop></linearGradient><ellipse cx="191.1" cy="134.7" rx="20.6" ry="26.4" style="fill: url(&quot;#SVGID_00000167382962011671826590000018259052877942846390_-yXhJJY1C6A&quot;);"></ellipse><path class="st1" d="M108.5,91.8h46.4c24.2,0,43.8,19.6,43.8,43.8l0,0c0,24.2-19.6,43.8-43.8,43.8h-46.4
		c-24.2,0-43.8-19.6-43.8-43.8l0,0C64.7,111.4,84.3,91.8,108.5,91.8z" fill="#FFFFFF"></path><path class="st0" d="M154.9,180.6h-46.4c-24.9,0-45-20.2-45-45s20.2-45,45-45h46.4c24.9,0,45,20.2,45,45S179.8,180.6,154.9,180.6z
		 M108.5,93c-23.5,0-42.6,19.1-42.5,42.6c0,23.5,19.1,42.5,42.5,42.5h46.4c23.5,0,42.6-19.1,42.6-42.6c0-23.5-19.1-42.5-42.6-42.6
		L108.5,93z" fill="#000111"></path><linearGradient id="SVGID_00000036245590283976067720000005731870120941941907_-yXhJJY1C6A" gradientUnits="userSpaceOnUse" x1="57.05" y1="367.27" x2="98.35" y2="367.27" gradientTransform="matrix(1 0 0 -1 0 502)"><stop offset="0" style="stop-color: rgb(243, 131, 116);"></stop><stop offset="1" style="stop-color: rgb(198, 66, 52);"></stop></linearGradient><ellipse cx="77.7" cy="134.7" rx="20.7" ry="26.4" style="fill: url(&quot;#SVGID_00000036245590283976067720000005731870120941941907_-yXhJJY1C6A&quot;);"></ellipse><ellipse class="st0" cx="65.9" cy="134.7" rx="12.1" ry="15.4" fill="#000111"></ellipse><ellipse class="st1" cx="62.2" cy="134.7" rx="8.4" ry="15.4" fill="#FFFFFF"></ellipse><path class="st0" d="M62.2,151.4c-5.4,0-9.7-7.3-9.7-16.6s4.2-16.7,9.7-16.7s9.7,7.3,9.7,16.7S67.7,151.4,62.2,151.4z M62.2,120.6
		c-3.9,0-7.2,6.5-7.2,14.2s3.3,14.2,7.2,14.2s7.2-6.5,7.2-14.2S66.1,120.6,62.2,120.6z" fill="#000111"></path><path class="st1" d="M74.7,161.3c-0.3,0-0.6-0.3-0.6-0.6c0-0.3,0.2-0.5,0.4-0.6c13.8-4.9,17.3-18.1,16.1-28.9
		c-1.3-11.5-8-20.6-16-21.5c-0.3,0-0.6-0.4-0.5-0.7c0-0.3,0.3-0.6,0.7-0.5c0,0,0,0,0,0c8.7,1,15.7,10.3,17.1,22.6
		c2,17.1-7.5,26.8-17,30.2C74.8,161.3,74.8,161.3,74.7,161.3z" fill="#FFFFFF"></path><path class="st0" d="M123.1,113.5h49.4c9.7,0,17.5,7.8,17.5,17.5v7.7c0,9.7-7.8,17.5-17.5,17.5h-49.4c-9.7,0-17.5-7.8-17.5-17.5
		V131C105.6,121.3,113.5,113.5,123.1,113.5z" fill="#000111"></path><path class="st1" d="M172.5,153.1h-49.4c-7.9,0-14.4-6.4-14.4-14.4V131c0-7.9,6.4-14.4,14.4-14.4h49.4c7.9,0,14.4,6.4,14.4,14.4
		v7.7C186.9,146.6,180.4,153.1,172.5,153.1z M123.1,117.9c-7.2,0-13.1,5.9-13.1,13.1v7.7c0,7.3,5.9,13.1,13.2,13.2h49.3
		c7.3,0,13.1-5.9,13.1-13.2V131c0-7.3-5.9-13.1-13.1-13.2L123.1,117.9z" fill="#FFFFFF"></path><path class="st1" d="M140.6,130.1h-4.7v-4.7h-7.9v4.7h-4.7v7.9h4.7v4.7h7.9v-4.7h4.7V130.1z" fill="#FFFFFF"></path><path class="st1" d="M179.1,130.1h-4.7v-4.7h-7.9v4.7h-4.7v7.9h4.7v4.7h7.9v-4.7h4.7L179.1,130.1z" fill="#FFFFFF"></path><path class="st1" d="M140.7,335.9L140.7,335.9c25.8,0,46.7,20.9,46.7,46.7c0,0,0,0,0,0v9.7l0,0H94l0,0v-9.7
		C94,356.7,114.9,335.9,140.7,335.9C140.7,335.9,140.7,335.9,140.7,335.9z" fill="#FFFFFF"></path><path class="st0" d="M187.4,393.5H94c-0.7,0-1.2-0.6-1.2-1.2v-9.7c0-26.5,21.5-47.9,47.9-47.9c26.5,0,47.9,21.4,47.9,47.9v9.7
		C188.6,392.9,188,393.5,187.4,393.5C187.4,393.5,187.4,393.5,187.4,393.5z M95.2,391h90.9v-8.5c-0.4-25.1-21-45.1-46.1-44.8
		c-24.6,0.4-44.4,20.2-44.8,44.8L95.2,391z" fill="#000111"></path><path class="st0" d="M142.3,392.7c-0.7,0-1.2-0.6-1.2-1.2V369h-25.6c-0.7,0-1.2-0.6-1.2-1.2v-25c0.1-0.7,0.7-1.2,1.3-1.1
		c0.6,0.1,1.1,0.5,1.1,1.1v23.8h25.6c0.7,0,1.2,0.5,1.2,1.2c0,0,0,0,0,0v23.7C143.5,392.2,143,392.7,142.3,392.7z" fill="#000111"></path><circle class="st1" cx="128.4" cy="367.6" r="4.6" fill="#FFFFFF"></circle><path class="st0" d="M128.4,373.4c-3.2,0-5.8-2.6-5.8-5.8c0-3.2,2.6-5.8,5.8-5.8c3.2,0,5.8,2.6,5.8,5.8l0,0
		C134.2,370.8,131.6,373.4,128.4,373.4z M128.4,364.3c-1.8,0-3.3,1.5-3.3,3.3s1.5,3.3,3.3,3.3c1.8,0,3.3-1.5,3.3-3.3
		C131.7,365.8,130.2,364.3,128.4,364.3C128.4,364.3,128.4,364.3,128.4,364.3L128.4,364.3z" fill="#000111"></path><path class="st0" d="M177.4,356.1h-24.9c-0.7,0-1.2-0.6-1.2-1.2v-16.5c0-0.7,0.6-1.2,1.2-1.2c0.7,0,1.2,0.6,1.2,1.2v15.2h23.7
		c0.7,0,1.2,0.6,1.2,1.2C178.6,355.6,178.1,356.1,177.4,356.1L177.4,356.1z" fill="#000111"></path></g><g id="character"><path class="st0" d="M331.4,390.9h102c0,0-14.7-59.8-32.6-68.9s-40.5,0.5-51,13.3S331.4,390.9,331.4,390.9z"></path><path class="st0" d="M433.4,392.2h-102c-0.4,0-0.8-0.2-1-0.5c-0.2-0.3-0.3-0.6-0.3-1c0.3-1.8,8-43.2,18.6-56.2
		c11.3-13.7,34.6-22.9,52.5-13.6c18.2,9.4,32.7,67.3,33.3,69.8c0.1,0.4,0,0.8-0.2,1.1C434.1,392,433.8,392.2,433.4,392.2z
		 M332.8,389.7h99c-2.5-9.4-16-58.6-31.6-66.6c-16.9-8.6-38.8,0-49.5,13C341.5,347.2,334.3,382.1,332.8,389.7z"></path><path class="st1" d="M396.6,217.7h-27.4c-7.6-0.7-15,2.8-19.3,9.1l-19,40.1L294,236.4l-34.8,35.2l41.5,49.5
		c0,0,21.1,20.9,35.4,17.7l-18.6,44.6h35.6l11.8-18.6l8.3,19H451l-16.8-67.2c14.4,25.7,80.2-9.6,43.7-51.2l-43.4-39.7
		c-5-4.5-11.4-7.1-18.1-7.4L396.6,217.7z"></path><path class="st0" d="M451,385.1h-77.7c-0.5,0-0.9-0.3-1.1-0.7l-7.4-16.8l-10.5,16.6c-0.2,0.4-0.6,0.6-1,0.6h-35.6
		c-0.7,0-1.2-0.6-1.2-1.3c0-0.2,0-0.3,0.1-0.5l17.8-42.6c-14.6,1-33.5-17.5-34.3-18.4l-41.6-49.6c-0.4-0.5-0.4-1.2,0.1-1.7
		l34.8-35.2c0.4-0.5,1.2-0.5,1.7-0.1l35.6,29.6l18.3-38.6c0-0.1,0.1-0.1,0.1-0.2c4.5-6.7,12.3-10.4,20.4-9.7h27.4l19.8,0.7
		c7,0.2,13.7,3,18.9,7.7l43.4,39.7l0.1,0.1c13.8,15.7,12.4,29.1,8.9,37.6c-6.2,14.9-22.7,23.6-35,24.3c-6.5,0.4-12-1.3-15.9-4.7
		l15.4,61.7c0.2,0.7-0.2,1.3-0.9,1.5C451.2,385.1,451.1,385.1,451,385.1L451,385.1z M374.1,382.6h75.3L433,317
		c-0.2-0.7,0.2-1.3,0.9-1.5c0.6-0.2,1.1,0.1,1.4,0.6c3.1,5.6,9.2,8.5,17.2,8c11.6-0.6,27-8.9,32.9-22.8c3.3-7.9,4.5-20.3-8.4-35
		l-43.4-39.6c-4.8-4.3-10.9-6.8-17.3-7.1l-19.8-0.6H369c-7.1-0.6-14,2.6-18,8.5l-19,40c-0.3,0.6-1,0.9-1.6,0.6
		c-0.1,0-0.2-0.1-0.3-0.2l-36-29.8l-33.2,33.6l40.8,48.7c0.1,0.1,20.7,20.3,34.2,17.3c0.5-0.1,0.9,0.1,1.2,0.4
		c0.3,0.4,0.4,0.8,0.2,1.3l-17.9,42.9h33l11.4-18c0.4-0.6,1.1-0.8,1.7-0.4c0.2,0.1,0.4,0.3,0.5,0.6L374.1,382.6z"></path><path class="st5" d="M283.2,222.6c0,0-1.8-24.4-12.6-23.6c-5.9,0.4-6.3,17.4-6.3,17.4c-3.9-1.5-8-2.7-12.2-3.4
		c-7.6-1.3-8.1,8.3-8.1,8.3s-6,5.5-1.9,11.9c0,0-5.1,5.6-1.3,11.1c0,0,3.1,12.4,8.2,16.9s10.2-0.5,10.2-0.5s6.9,4.5,11.1,6
		c5.7,2.1,14.1,0.8,17.1-4.8C289.1,259,294.7,242.6,283.2,222.6z"></path><path class="st6" d="M260.6,250.1c-4,0-9.3-3.1-10.9-4.8s-7.2-9.6-7.8-10.5c-0.3-0.6,0-1.4,0.6-1.6c0.5-0.2,1-0.1,1.4,0.2
		c1.6,2.4,6.2,8.9,7.5,10.2c1.5,1.5,6.3,4.2,9.3,4.1c1.1,0,2.2-0.5,2.8-1.4c0.7-1.3,0.8-2.9,0.2-4.3c-1-3.1-6.3-5.4-8.3-6
		c-0.3-0.1-0.6-0.3-0.7-0.6l-4.3-8.1c-0.3-0.6-0.1-1.4,0.5-1.7c0.3-0.1,0.6-0.2,0.9-0.1l5.8,1.5c0.7,0.2,1.1,0.8,0.9,1.5
		c0,0,0,0,0,0c-0.2,0.7-0.8,1.1-1.5,0.9l-3.1-0.8l2.8,5.2c1.8,0.6,8,3.1,9.4,7.4c0.9,2.1,0.7,4.5-0.5,6.5c-1.1,1.5-2.9,2.4-4.8,2.4
		L260.6,250.1z"></path><path class="st6" d="M257.8,259.1c-1.8,0-3.6-0.6-5-1.9l-9.8-8.5c-0.5-0.5-0.5-1.3,0-1.8c0.4-0.4,1.1-0.5,1.6-0.1l9.9,8.5
		c1.8,1.6,4.4,1.7,6.3,0.3c1.6-1.3,1.7-3.6,0.2-6.2c-0.3-0.6-0.1-1.3,0.5-1.7c0.6-0.3,1.3-0.2,1.7,0.4c0,0,0,0,0,0
		c2.2,3.7,1.9,7.2-0.8,9.3C261.1,258.6,259.5,259.1,257.8,259.1z"></path><path class="st6" d="M259.3,261.9c-0.3,0-0.5-0.1-0.7-0.2c-0.6-0.4-0.7-1.2-0.3-1.7c0.3-0.5,0.4-1.2,0.2-1.8
		c-0.3-0.6-0.1-1.4,0.5-1.7c0.6-0.3,1.4-0.1,1.7,0.5l0,0c0.7,1.4,0.5,3.1-0.4,4.3C260.1,261.7,259.7,261.9,259.3,261.9z"></path><linearGradient id="SVGID_00000144338826346085323130000011171107281429341314_-yXhJJY1C6A" gradientUnits="userSpaceOnUse" x1="-1544.9569" y1="1544.855" x2="-1486.887" y2="1490.285" gradientTransform="matrix(0.9169 0.3992 0.3992 -0.9169 1152.6449 2130.8733)"><stop offset="0" style="stop-color: rgb(10, 107, 91);"></stop><stop offset="0.78" style="stop-color: rgb(0, 81, 70);"></stop><stop offset="0.91" style="stop-color: rgb(0, 80, 69);"></stop></linearGradient><path d="M365.6,170.5c0,0-19.9-7.8-5.3-17.2
		c20.9-13.6,18.8,0.6,18.8,0.6s4.8,0.9,12.5,2.6c15,3.3,22.7,15.8,17.7,27.7L365.6,170.5z" style="fill: url(&quot;#SVGID_00000144338826346085323130000011171107281429341314_-yXhJJY1C6A&quot;);"></path><path class="st5" d="M409.4,187.4c-0.8,6.6-4.4,12.6-9.8,16.5l0,0c-10.8,7.8-25.9,5.3-33.7-5.5c-7.8-10.8-5.3-25.9,5.5-33.7
		c10.8-7.8,25.9-5.3,33.7,5.5C408.6,175.1,410.2,181.3,409.4,187.4L409.4,187.4z"></path><path class="st0" d="M357.2,191.4c-0.1,0-0.3,0-0.4,0c-1.4-0.3-2.3-1.8-2.6-4.5c-0.2-2.6,0-5.2,0.5-7.7c0.8-4.2,3-11.2,6.4-10.6
		s2.9,8,2.1,12.2c-0.4,2.6-1.2,5-2.4,7.4C359.7,190.3,358.5,191.4,357.2,191.4z M360.6,171c-0.7,0.4-2.5,3.1-3.5,8.6
		s-0.4,8.6,0.1,9.3c0.7-0.4,2.5-3.1,3.5-8.6l0,0C361.8,174.9,361.1,171.7,360.6,171z"></path><ellipse class="st5" transform="matrix(0.9902 -0.1397 0.1397 0.9902 -22.7169 52.0897)" cx="359.7" cy="187.9" rx="7.5" ry="3.4"></ellipse><linearGradient id="SVGID_00000029728796963613210260000005763038377987343258_-yXhJJY1C6A" gradientUnits="userSpaceOnUse" x1="-1543.9946" y1="1545.8688" x2="-1485.9246" y2="1491.3087" gradientTransform="matrix(0.9169 0.3992 0.3992 -0.9169 1152.6449 2130.8733)"><stop offset="0" style="stop-color: rgb(10, 107, 91);"></stop><stop offset="0.78" style="stop-color: rgb(0, 81, 70);"></stop><stop offset="0.91" style="stop-color: rgb(0, 80, 69);"></stop></linearGradient><path d="M409.4,187.4c-0.8,6.6-4.4,12.6-9.8,16.5
		l0,0c-4.6-3,0.7-11.4,0.7-11.4c6.3,0.3,8.1-12.7,1.5-14.1s-8.1,6.3-8.1,6.3c-1.4-4.9-1.9-8.6-5.9-10.8c-9.7,1.2-22-3.2-22.1-3.3
		c7.6-11,22.7-13.7,33.6-6.1C406.6,169.6,410.6,178.4,409.4,187.4L409.4,187.4z" style="fill: url(&quot;#SVGID_00000029728796963613210260000005763038377987343258_-yXhJJY1C6A&quot;);"></path><path class="st6" d="M398.4,190.3c2.3,0.2,4.2-1.5,4.4-3.7s-1.5-4.2-3.7-4.4c-0.3,0-0.5,0-0.8,0l1.2,1.2c0,0.3,0,0,0-0.1
		c0-0.3-0.1,0.1,0-0.1s0.1-0.2,0.2-0.3c-0.1,0.2,0,0,0.1-0.1s0.3-0.2,0.1-0.1l0.3-0.2c0.3-0.1-0.2,0,0.1,0c0,0,0.4-0.1,0.1,0
		c0.1,0,0.2,0,0.3,0s-0.1-0.1,0.1,0c0,0,0.4,0.1,0.1,0c0.1,0,0.2,0.1,0.3,0.1s-0.1-0.1,0.1,0.1l0.2,0.2c0,0.1,0,0.1,0,0l0.1,0.1
		c0,0.1,0,0.1,0.1,0.1c0-0.1,0-0.1,0,0c0.2,0.7,0.9,1,1.5,0.9c0.7-0.2,1-0.9,0.9-1.5c-0.5-1.6-2.1-2.7-3.8-2.5
		c-1.7,0.2-3.1,1.6-3.2,3.3c0,0.7,0.6,1.2,1.2,1.2c0,0,0,0,0,0c0.2,0,0.3,0,0.5,0h0.1c-0.2,0,0.1,0,0.2,0l0.2,0.1c-0.1,0-0.1,0,0,0
		l0.2,0.1c0,0,0.2,0.1,0.1,0.1l0.1,0.1l0.2,0.2c-0.1-0.1,0-0.1,0,0c0.1,0.1,0.1,0.2,0.1,0.3c0.1,0.2,0-0.2,0,0l0.1,0.3
		c0,0.1,0,0.1,0,0.2c0-0.2,0,0,0,0.1s0,0.2,0,0.2s0-0.2,0,0c0,0.2-0.1,0.3-0.1,0.5c0.1-0.2,0,0-0.1,0.1c0,0.1-0.1,0.1-0.1,0.2
		c-0.1,0.2,0.1-0.1,0,0l-0.2,0.2c-0.1,0.1-0.1,0.1,0,0l-0.2,0.1l-0.2,0.1c-0.2,0.1,0.1-0.1,0,0l-0.3,0.1c-0.1,0-0.1,0,0,0
		c-0.2,0-0.4,0-0.6,0c-0.7,0-1.2,0.6-1.2,1.2c0,0.7,0.6,1.2,1.2,1.2L398.4,190.3z"></path><ellipse class="st1" transform="matrix(0.3343 -0.9425 0.9425 0.3343 73.5067 470.4009)" cx="369.7" cy="183.2" rx="3.5" ry="3"></ellipse><ellipse class="st9" transform="matrix(0.3312 -0.9435 0.9435 0.3312 72.3899 468.5253)" cx="366.7" cy="183.2" rx="2.3" ry="2"></ellipse><path class="st6" d="M377.5,201.9c-0.7,0-1.2-0.6-1.2-1.3c0-0.5,0.4-1,0.9-1.2c1.2-0.2,2.2-1,2.8-2.1c1.1-2.3-0.3-5.4-0.3-5.5
		c-0.2-0.6,0.1-1.4,0.8-1.6c0.6-0.2,1.2,0,1.5,0.6c0.1,0.2,1.8,4.2,0.3,7.5c-0.9,1.8-2.5,3-4.4,3.4
		C377.7,201.9,377.6,201.9,377.5,201.9z"></path><path class="st6" d="M380.5,192.5c-1.2,0-2.3-0.4-3.2-1.1c-0.6-0.4-0.7-1.2-0.3-1.7s1.2-0.7,1.7-0.3c0.6,0.4,1.3,0.6,2,0.6
		c0.6-0.2,1.1-0.6,1.4-1.1c0.4-0.6,1.2-0.7,1.7-0.3c0.5,0.4,0.7,1,0.4,1.6c-0.6,1.2-1.7,2-3,2.3C381,192.5,380.8,192.5,380.5,192.5z
		"></path><path class="st0" d="M369,195.6c-0.3,0-0.6,0-0.8-0.1c-3.9-0.7-6-6.6-4.8-13.2c0.5-2.8,1.6-5.5,3.4-7.8c1.8-2.2,3.9-3.2,5.9-2.8
		s3.6,2.1,4.5,4.8c0.8,2.8,0.9,5.7,0.3,8.5C376.2,191.2,372.6,195.6,369,195.6z M371.8,174.1c-1.3,0.2-2.4,0.9-3.1,2
		c-1.5,2-2.5,4.3-2.9,6.7c-1.1,5.6,0.6,9.9,2.8,10.3s5.3-3,6.4-8.6c0.5-2.4,0.4-4.9-0.2-7.3c-0.6-1.8-1.5-2.9-2.6-3.1
		C372.1,174.2,371.9,174.1,371.8,174.1L371.8,174.1z"></path><path class="st0" d="M336.2,340.1c-0.1,0-0.3,0-0.4-0.1c-0.6-0.2-1-0.9-0.8-1.6l12.8-36.6l9.3-63.9c0.1-0.7,0.8-1.1,1.5-1
		c0.6,0.1,1,0.7,1,1.3l-9.4,63.9c0,0.1,0,0.2-0.1,0.2l-12.9,36.7C337.2,339.7,336.7,340.1,336.2,340.1z"></path><path class="st0" d="M342.8,281.1c-0.3,0-0.7-0.1-0.9-0.4L330,267.8c-0.4-0.5-0.4-1.3,0.2-1.7c0.5-0.4,1.2-0.4,1.7,0.1l11.9,12.9
		c0.5,0.5,0.4,1.3-0.1,1.8C343.4,281,343.1,281.1,342.8,281.1z"></path><path class="st0" d="M271.3,286.2c-0.7,0-1.2-0.6-1.2-1.2c0-0.3,0.1-0.7,0.4-0.9c24.3-23.5,37.1-35.6,38.1-35.9
		c0.6-0.2,1.3,0.1,1.6,0.8c0,0,0,0,0,0c0.2,0.6-0.1,1.2-0.6,1.5c-1.8,1.3-23.2,21.8-37.3,35.4C272,286.1,271.7,286.2,271.3,286.2z"></path><path class="st0" d="M434.2,319c-0.6,0-1.1-0.4-1.2-1l-11.7-51.7c0-0.1,0-0.2,0-0.3l1.1-34c0-0.7,0.6-1.2,1.3-1.2
		c0.7,0,1.2,0.6,1.2,1.3l-1.1,33.8l11.6,51.6c0.1,0.7-0.3,1.3-0.9,1.5L434.2,319z"></path><path class="st0" d="M467.7,274.1c-0.2,0-0.3,0-0.5-0.1l-24.1-10.6c-0.6-0.2-1-0.9-0.8-1.6s0.9-1,1.6-0.8c0.1,0,0.1,0.1,0.2,0.1
		l24.1,10.6c0.6,0.3,0.9,1,0.6,1.6C468.6,273.8,468.2,274.1,467.7,274.1L467.7,274.1z"></path><path class="st0" d="M452.3,267.2H452c-0.7-0.1-1.1-0.8-0.9-1.5c0,0,0,0,0,0l1.9-8.7c0.2-0.7,0.8-1.1,1.5-0.9
		c0.7,0.1,1.1,0.8,0.9,1.5c0,0,0,0,0,0l-1.9,8.7C453.4,266.8,452.8,267.2,452.3,267.2z"></path><path class="st5" d="M439.8,256.8c0,0-12-19-19.7-16.2c-5.6,2,0.1,13,0.1,13s-26-6.6-29.4-7s-6.7,7.3-1.3,9.8
		c5.4,2.6,11.4,5.1,11.4,5.1s-5,6.4-0.1,12c0,0-4.2,6.3,0.5,11.1c0,0,5,11.8,10.7,15.5s10-2.1,10-2.1s7.5,3.4,11.9,4.2
		c6,1.2,14.1-1.4,16.2-7.4C451.2,291.8,454.2,274.8,439.8,256.8z"></path><path class="st6" d="M430.8,259c-0.2,0-0.5-0.1-0.7-0.2c-3.7-2.4-10.1-4-10.1-4c-0.7-0.2-1-0.9-0.9-1.5c0.2-0.6,0.8-1,1.4-0.9
		c0.3,0.1,6.9,1.7,10.9,4.3c0.6,0.4,0.7,1.2,0.3,1.7C431.6,258.8,431.2,259,430.8,259L430.8,259z"></path><path class="st6" d="M412.1,267.7c-0.2,0-0.4-0.1-0.6-0.2c-3.6-1.8-7.2-3.5-11-4.9c-0.6-0.2-1-1-0.7-1.6s1-1,1.6-0.7
		c3.9,1.5,7.7,3.2,11.3,5c0.6,0.3,0.8,1.1,0.5,1.7C413,267.5,412.6,267.7,412.1,267.7L412.1,267.7z"></path><path class="st6" d="M411.2,278c-0.2,0-0.4-0.1-0.6-0.2c-3.9-2.2-9.9-3.2-9.9-3.2c-0.7-0.1-1.2-0.7-1.1-1.3
		c0.1-0.7,0.7-1.2,1.3-1.1c0.1,0,0.1,0,0.2,0c3.7,0.6,7.3,1.8,10.7,3.5c0.6,0.3,0.8,1.1,0.5,1.7C412.1,277.8,411.7,278,411.2,278
		L411.2,278z"></path><path class="st6" d="M422,299.3c-0.3,0-0.7-0.1-0.9-0.4c-0.3-0.3-6.5-6.8-8.4-9.1c-0.4-0.5-0.3-1.3,0.2-1.7s1.3-0.3,1.7,0.2
		c1.8,2.2,8.2,8.9,8.2,8.9c0.5,0.5,0.5,1.3,0,1.8C422.6,299.1,422.3,299.3,422,299.3L422,299.3z"></path><path class="st0" d="M364.9,366.1h-0.2c-0.7-0.1-1.1-0.7-1-1.4l10.3-66.8l-5.1-67.7c-0.1-0.7,0.5-1.3,1.1-1.3
		c0.7,0,1.3,0.5,1.3,1.1l5.1,67.9c0,0.1,0,0.2,0,0.3l-10.3,67C366.1,365.7,365.5,366.1,364.9,366.1z"></path><path class="st0" d="M361.1,302.1c-0.7,0-1.2-0.6-1.2-1.3c0-0.6,0.4-1.1,1-1.2l32.5-7c0.7-0.1,1.3,0.3,1.4,1
		c0.1,0.6-0.3,1.2-0.9,1.4l-32.5,7C361.3,302.1,361.2,302.1,361.1,302.1z"></path><path class="st6" d="M261.5,239.2c-0.5,0-0.9-0.3-1.1-0.7c-2.8-5.7,0.4-10.8,2.8-13v-9c0-0.7,0.6-1.2,1.2-1.2l0,0
		c0.7,0,1.2,0.6,1.2,1.2v9.6c0,0.4-0.1,0.8-0.5,1c-0.2,0.2-5.5,4.6-2.6,10.4c0.3,0.6,0,1.4-0.6,1.6
		C261.9,239.3,261.7,239.3,261.5,239.2z"></path><path class="st0" d="M433,360h-34c-0.6,0-1.2-0.5-1.2-1.1l-3.1-24.4c-0.1-0.7,0.4-1.3,1.1-1.4c0.1,0,0.1,0,0.2,0h33.2
		c0.6,0,1.1,0.4,1.2,1l3.8,24.4c0.1,0.4-0.1,0.7-0.3,1C433.7,359.8,433.3,360,433,360z M400.1,357.5h31.5l-3.4-21.9h-30.8
		L400.1,357.5z"></path><path class="st0" d="M414.8,346.4c-10.3,0-19.4-10.7-19.8-11.2c-0.4-0.5-0.3-1.3,0.2-1.7c0.5-0.4,1.3-0.3,1.7,0.2
		c0.1,0.1,9.5,11.2,19,10.3c4.7-0.5,8.8-3.9,12.2-10.1c0.3-0.6,1.1-0.8,1.7-0.5c0,0,0,0,0,0c0.6,0.3,0.8,1.1,0.5,1.7
		c-3.8,7-8.5,10.8-14.1,11.4C415.7,346.3,415.2,346.4,414.8,346.4z"></path><path class="st0" d="M360.4,360h-25.2c-0.4,0-0.7-0.1-0.9-0.4c-0.2-0.3-0.3-0.6-0.3-1l2.8-24.4c0.1-0.6,0.6-1.1,1.2-1.1h24.7
		c0.7,0,1.2,0.6,1.2,1.3c0,0,0,0.1,0,0.1l-2.3,24.4C361.6,359.5,361.1,360,360.4,360z M336.6,357.5h22.7l2.1-21.9h-22.2L336.6,357.5
		z"></path><path class="st0" d="M348.8,346.4c-0.2,0-0.5,0-0.7,0c-4.5-0.4-8.2-4.3-11.1-11.5c-0.2-0.6,0.1-1.4,0.8-1.6
		c0.6-0.2,1.3,0.1,1.5,0.7c2.5,6.3,5.6,9.7,9,10c6.7,0.6,13.4-10.1,13.4-10.2c0.4-0.6,1.2-0.7,1.7-0.3c0.5,0.4,0.7,1.1,0.4,1.6
		C363.5,335.5,356.7,346.4,348.8,346.4z"></path></g><g id="hand"><linearGradient id="SVGID_00000131341169608282701480000008434237006074739363_-yXhJJY1C6A" gradientUnits="userSpaceOnUse" x1="314" y1="270.4847" x2="371.1772" y2="270.4847" gradientTransform="matrix(1 0 0 -1 0 502)"><stop offset="0" style="stop-color: rgb(243, 131, 116);"></stop><stop offset="1" style="stop-color: rgb(198, 66, 52);"></stop></linearGradient><path d="M319.2,218.6l15.1-7.1
		c0,0,9.3-3.1,16.6,0.9s18.9,11.2,18.9,11.2c3.2,2.2,1.2,11.8-8.9,10.7l-9.1-1.7l3,6.1c4.6,8.9-3.4,15-12,5.8c0,0-8,0-9.6,1.5
		c-1.8,1.8-3.5,3.4-5.2,4.8c-3.5,2.9-8.6,2.5-11.5-1c-1.2-1.4-1.9-3.2-1.9-5l-0.6-18.6C314.2,222.9,316.2,220,319.2,218.6z" style="fill: url(&quot;#SVGID_00000131341169608282701480000008434237006074739363_-yXhJJY1C6A&quot;);"></path><path class="st0" d="M351.8,233.8c-0.4,0-0.7-0.2-0.9-0.4c-1.7-2-6.8-7.3-9.6-8.4c-3.4-1.3-8.8-0.9-8.9-0.9c-0.7,0-1.3-0.5-1.3-1.2
		c0-0.6,0.5-1.2,1.1-1.3c0.2,0,6.1-0.4,10,1.1s9.9,8.3,10.6,9c0.5,0.5,0.4,1.3-0.1,1.7c0,0,0,0,0,0
		C352.4,233.6,352.1,233.8,351.8,233.8z"></path><path class="st0" d="M332.5,247.2c-3.1,0-6.3-0.3-9.4-0.9c-0.7-0.2-1-0.9-0.9-1.5c0.2-0.6,0.8-1,1.4-0.9c3.1,0.6,6.2,0.9,9.4,0.9
		l0,0c0.7,0.1,1.2,0.7,1.1,1.3c-0.1,0.6-0.5,1.1-1.1,1.1L332.5,247.2z"></path></g><g id="light"><path class="st0" d="M279.7,180.8c-10.9,0-17.6-3.2-19.9-9.6c-0.7-2.2-1-4.6-0.7-6.9c-8.1,6.6-17.1,11.2-25.2,9.9
		c-3.6-0.6-6.1-2.4-7.2-5.3c-6.2-15.9,30.4-62.8,31.9-64.8c0.4-0.6,1.1-0.7,1.7-0.4s0.7,1.1,0.4,1.7c0,0.1-0.1,0.1-0.1,0.2
		c-0.1,0.1-9.5,12.2-18.1,25.9c-11.2,17.9-15.8,30.5-13.5,36.4c0.8,2.1,2.6,3.3,5.3,3.7c8.7,1.4,18.2-4.8,25.4-11.2
		c2.8-11.3,12.6-24.2,19.5-29.2c0.8-0.6,2.7-2,4-0.9s0.6,3-0.2,4.8c-2.7,6-10.9,17.6-21,26.6c-0.7,2.8-0.7,5.8,0.2,8.5
		c2,5.8,8.9,8.4,20.4,7.9c0.7,0,1.3,0.5,1.3,1.2c0,0.7-0.5,1.3-1.2,1.3c0,0,0,0,0,0C281.6,180.7,280.7,180.8,279.7,180.8z
		 M281.2,132.9c-0.1,0.1-0.3,0.2-0.5,0.4c-3.7,2.7-9.4,8.9-13.9,16.7c-1.3,2.3-2.5,4.6-3.4,7.1C273.2,147.5,280.1,136.6,281.2,132.9
		z"></path><g id="light-2"><path class="st11" d="M256.5,95.8c9.8,0.7,17.7,8.4,18.6,18.2c1-9.8,8.8-17.4,18.6-18.2c-9.8-0.7-17.6-8.4-18.6-18.1
			C274.1,87.5,266.3,95.1,256.5,95.8L256.5,95.8z"></path><path class="st11" d="M298.2,107.7c5.3,0.4,9.5,4.5,10,9.7c0.5-5.2,4.7-9.3,10-9.7c-5.2-0.4-9.5-4.5-10-9.7
			C307.6,103.2,303.4,107.3,298.2,107.7z"></path></g></g><g id="line"><path class="st0" d="M472.6,393.5H83.4c-0.7,0.1-1.3-0.4-1.3-1.1c-0.1-0.7,0.4-1.3,1.1-1.3c0.1,0,0.1,0,0.2,0h389.2
		c0.7-0.1,1.3,0.4,1.3,1.1c0.1,0.7-0.4,1.3-1.1,1.3C472.7,393.5,472.6,393.5,472.6,393.5z"></path></g></svg>