<svg width="500" height="500" viewBox="0 0 500 500" fill="none" xmlns="http://www.w3.org/2000/svg">
<path d="M210.1 325.6H12.3998C11.7998 325.6 11.2998 325.1 11.2998 324.5C11.2998 323.9 11.7998 323.4 12.3998 323.4H210.1C210.7 323.4 211.2 323.9 211.2 324.5C211.1 325.1 210.7 325.6 210.1 325.6Z" fill="#4F3429"/>
<path d="M490 325.7H272.6C272 325.7 271.5 325.2 271.5 324.6C271.5 324 272 323.5 272.6 323.5H490C490.6 323.5 491.1 324 491.1 324.6C491.1 325.2 490.6 325.7 490 325.7Z" fill="#4F3429"/>
<path d="M400 184.5C400 184.5 418.4 187.2 422.5 209.1C426.6 231 389.5 282.4 389.5 282.4C389.5 282.4 372.7 311.9 340.8 315.4L272.7 324L265.5 279.6L330.7 262.9C330.6 262.8 361.4 184.2 400 184.5Z" fill="url(#paint0_linear_2095_210)"/>
<path d="M265.4 279.5C262.8 280.3 260 280.5 257.3 280C252.3 279.2 238.3 276.3 230.2 281.4C230.2 281.4 222.9 315.3 206.7 321.2L272.7 323.9L265.4 279.5Z" fill="#FFC2A7"/>
<path d="M336.3 324.6H443.1C443.1 324.6 442.1 284.5 413.1 275.1C384.1 265.7 348.2 279.2 336.3 324.6Z" fill="#4F3429"/>
<path d="M396.5 149.6C398.4 156.1 397.4 163 394 168.8C387.1 180.3 372.1 184.1 360.6 177.1C349.1 170.2 345.3 155.2 352.3 143.7C359.2 132.2 374.2 128.4 385.7 135.4C390.9 138.5 394.8 143.6 396.5 149.6Z" fill="#FFC2A7"/>
<path d="M352.363 172.6C355.953 170.425 358.074 167.359 357.101 165.753C356.128 164.147 352.429 164.609 348.839 166.784C345.249 168.959 343.128 172.024 344.101 173.63C345.074 175.236 348.773 174.775 352.363 172.6Z" fill="#FFC2A7"/>
<path d="M396.5 149.6C398.4 156.1 397.4 163 394 168.8C388.5 167.8 390.1 157.9 390.1 157.9C396.1 155.6 392.6 142.9 385.9 144.2C379.2 145.5 380.9 153.2 380.9 153.2C363 164.8 349.5 151.4 349.3 151.3C352 138.1 364.9 129.6 378.1 132.3C386.9 134.1 394 140.8 396.5 149.6Z" fill="#4F3429"/>
<path d="M387.2 156.5C389.3 155.9 390.6 153.7 390 151.6C389.4 149.5 387.2 148.2 385.1 148.8C384.7 148.9 384.3 149.1 384 149.3L385.6 149.9C385.6 149.9 385.5 149.6 385.6 149.8C385.6 149.7 385.6 149.6 385.6 149.5C385.6 149.4 385.6 149.6 385.6 149.4C385.6 149.3 385.6 149.2 385.7 149.1C385.6 149.3 385.8 149 385.8 149C385.8 149 386 148.7 385.9 148.9C386 148.8 386 148.7 386.1 148.7C386 148.8 386.2 148.6 386.2 148.6C386.4 148.5 386.1 148.6 386.3 148.5C386.4 148.5 386.5 148.4 386.6 148.4C386.4 148.4 386.7 148.4 386.7 148.4C386.7 148.4 387 148.4 386.8 148.4L387.1 148.5C387.3 148.5 387.1 148.5 387.2 148.5C387.4 148.6 387.5 148.7 387.6 148.8C388 149.2 388.7 149.2 389.1 148.8C389.5 148.4 389.5 147.7 389.1 147.3C387.8 145.9 385.6 145.8 384.2 147.1C383.2 148 382.8 149.4 383.2 150.7C383.4 151.3 384 151.6 384.6 151.5C384.7 151.5 384.8 151.4 384.8 151.4C385.7 150.9 386.8 151.2 387.3 152C387.4 152.1 387.4 152.2 387.4 152.3C387.4 152.2 387.4 152.4 387.4 152.4C387.4 152.5 387.4 152.5 387.5 152.6C387.5 152.7 387.5 152.5 387.5 152.7C387.5 152.9 387.5 152.8 387.5 152.9C387.5 153.1 387.4 153.3 387.4 153.5C387.3 153.7 387.1 154 386.9 154.1C386.8 154.2 386.7 154.3 386.6 154.3L386.4 154.4C386.2 154.5 386.6 154.3 386.3 154.4C385.7 154.6 385.4 155.2 385.5 155.7C385.7 156.3 386.3 156.6 386.8 156.5H387.2Z" fill="#D88260"/>
<path d="M358.335 164.895C359.989 164.79 361.229 163.14 361.106 161.211C360.983 159.282 359.543 157.804 357.89 157.909C356.236 158.015 354.995 159.664 355.118 161.593C355.241 163.522 356.682 165.001 358.335 164.895Z" fill="white"/>
<path d="M357.359 163.798C358.462 163.728 359.29 162.643 359.209 161.375C359.128 160.108 358.169 159.137 357.066 159.207C355.964 159.277 355.136 160.362 355.217 161.63C355.298 162.898 356.257 163.868 357.359 163.798Z" fill="#005045"/>
<path d="M372.2 175.6C371.6 175.6 371.1 175.1 371.1 174.5C371.1 174.2 371.3 173.9 371.5 173.7C372.6 173 373.2 171.8 373.3 170.5C373.4 167.9 370.8 165.5 370.8 165.4C370.4 165 370.3 164.3 370.7 163.9C371.1 163.5 371.8 163.4 372.2 163.8C372.3 163.9 375.5 166.9 375.4 170.5C375.3 172.4 374.3 174.2 372.7 175.3C372.7 175.6 372.4 175.6 372.2 175.6Z" fill="#D88260"/>
<path d="M369.7 166.1C369.3 166.1 368.8 166.1 368.4 166C367.8 165.9 367.5 165.3 367.6 164.7C367.7 164.1 368.3 163.8 368.9 163.9C369.7 164.1 370.5 164 371.1 163.6C371.6 163.2 372 162.6 372 161.9C372.1 161.3 372.6 160.9 373.2 160.9C373.8 161 374.2 161.5 374.2 162.1C374.2 162.1 374.2 162.1 374.2 162.2C374.1 163.5 373.4 164.7 372.4 165.4C371.6 165.8 370.6 166.1 369.7 166.1Z" fill="#D88260"/>
<path d="M355.8 153.7C355.8 153.7 354.6 158 344.5 158.2C332.7 158.5 329.3 144.2 343.6 140.8C343.6 140.8 338.5 134 347 131.4C355.5 128.8 364.7 136.6 364.7 136.6L355.8 153.7Z" fill="#4F3429"/>
<path d="M378.1 266.7L396.6 265.1C398.6 264.1 417.3 254.7 419.3 242.9C422.9 221.4 433.7 195.6 410.3 185.7C399.5 181.2 362.5 187.2 350.2 205.9C345 213.9 347 231.3 350 245.8C352.7 259 364.8 267.9 378.1 266.7Z" fill="url(#paint1_linear_2095_210)"/>
<path d="M286.5 322.7C286 322.7 285.5 322.3 285.4 321.8L277 276.7C276.9 276.1 277.3 275.5 277.9 275.4C278.5 275.3 279.1 275.7 279.2 276.3L287.6 321.4C287.7 322 287.3 322.5 286.8 322.7C286.6 322.7 286.5 322.7 286.5 322.7Z" fill="#4F3429"/>
<path d="M376 199.1C385.3 190 398.5 186.1 411.3 188.6C433.1 192.9 463.9 241.7 463.9 241.7C463.9 241.7 485.1 268.2 476.5 299.1L467.8 324.4L416.4 324.5L424.5 286.8C424.6 286.9 361.4 234.9 376 199.1Z" fill="url(#paint2_linear_2095_210)"/>
<path d="M424.6 288C424.4 288 424.2 288 424.1 287.9C423.7 287.7 423.4 287.2 423.6 286.7C424.8 281.7 426.4 276.8 428.3 272C432.4 261.9 436.8 257 441.3 257.4C442.6 257.4 443.7 258.1 444.2 259.3C444.9 261 444.7 264.6 435.5 276.1C430.6 282.2 425.4 287.7 425.4 287.7C425.2 287.9 424.9 288 424.6 288ZM440.8 259.5C437.5 259.5 433.8 264.2 430.3 272.8C429 276.1 427.8 279.5 426.8 282.9C434.6 274.2 443.3 263 442.1 260C442.1 259.9 441.9 259.5 441.1 259.5H440.8Z" fill="#4F3429"/>
<path d="M419.9 251.8C409.9 251.8 401 249.6 395.5 243.6C394.6 242.6 393.9 241.6 393.2 240.5C385.6 244.5 377.7 246.4 371.7 244.1C343.5 233.3 354.6 200 354.7 199.6C354.9 199 355.5 198.7 356.1 198.9C356.7 199.1 357 199.7 356.8 200.3C355.1 205.9 354.4 211.7 354.7 217.5C355.5 229.6 361.5 237.8 372.5 242C377 243.7 384.3 242.7 392.3 238.6C389.8 232.7 390.8 226.2 393 221.3C396.2 214.4 402 209.9 407.8 209.9H408.1C412.1 210 414.7 211.3 415.6 213.7C417.1 217.3 414.4 222.9 408.2 229.2C404.3 233.2 399.8 236.6 395 239.4C395.6 240.4 396.2 241.3 397 242.2C402.5 248.3 418.5 256.3 463.3 240.8C463.9 240.6 464.5 240.9 464.7 241.4C464.9 241.9 464.6 242.6 464.1 242.8C464.1 242.8 464.1 242.8 464 242.8C452.4 246.9 434.9 251.8 419.9 251.8ZM407.9 212.1C402.9 212.1 397.9 216 395.1 222.2C393.1 226.5 392.2 232.3 394.3 237.5C398.9 234.8 403.1 231.5 406.8 227.6C412 222.2 414.8 217.1 413.7 214.4C412.9 212.5 410.2 212.1 408.1 212L407.9 212.1Z" fill="#FED490"/>
<path d="M382.2 267.2C378.4 267.2 374.7 266 371.6 263.8C364.4 258.6 351.5 247.4 345.7 231.1C345.5 230.5 345.8 229.9 346.4 229.7C347 229.5 347.6 229.8 347.8 230.4C353.3 246.2 365.9 257 372.9 262.1C376.1 264.4 380 265.4 383.9 265L397.9 263.5L377.3 226.4C377.2 226.3 366.2 207.9 382.6 196.7C398.5 185.8 413.6 189.3 414.2 189.5C414.8 189.6 415.1 190.2 415 190.8C414.9 191.4 414.3 191.7 413.7 191.6C413.6 191.6 398.9 188.2 383.8 198.5C369.2 208.5 378.8 224.7 379.2 225.3L400.7 263.9C400.9 264.2 400.9 264.6 400.7 264.9C400.5 265.2 400.2 265.4 399.8 265.5L384.1 267.2C383.5 267.2 382.9 267.2 382.2 267.2Z" fill="#4F3429"/>
<path d="M448.8 253.2C452.003 253.2 454.6 250.603 454.6 247.4C454.6 244.197 452.003 241.6 448.8 241.6C445.597 241.6 443 244.197 443 247.4C443 250.603 445.597 253.2 448.8 253.2Z" fill="#FED490"/>
<path d="M346.3 269.4C346.1 269.4 345.8 269.3 345.6 269.2C337.8 262.9 330.8 263.9 330.8 263.9C330.2 264 329.6 263.6 329.5 263C329.4 262.4 329.8 261.8 330.4 261.7C330.7 261.6 338.4 260.4 347 267.4C347.5 267.8 347.5 268.5 347.2 268.9C346.9 269.2 346.6 269.4 346.3 269.4Z" fill="#4F3429"/>
<path d="M370.2 325C370.1 325 370 325 369.9 325C369.3 324.8 369 324.2 369.2 323.7L377.3 295.6L371 293.9C370.4 293.7 370.1 293.1 370.2 292.6C370.3 292.1 371 291.7 371.5 291.8L378.9 293.8C379.2 293.9 379.4 294.1 379.6 294.3C379.7 294.6 379.8 294.9 379.7 295.1L371.3 324.2C371.1 324.7 370.7 325 370.2 325Z" fill="white"/>
<path d="M170.6 184.2L205.4 200.4L184.1 290.4C181.7 296.4 155.7 301.7 139.5 289.8C123.6 278.1 88.4004 219.6 88.4004 219.6L119.8 194.5L151.1 214.1L170.6 184.2Z" fill="url(#paint3_linear_2095_210)"/>
<path d="M146.4 324.6H39.5996C39.5996 324.6 40.5996 284.5 69.5996 275.1C98.5996 265.7 134.5 279.2 146.4 324.6Z" fill="#4F3429"/>
<path d="M72.4849 193.214C85.2901 191.942 94.0208 174.294 91.9856 153.794C89.9503 133.295 77.9197 117.708 65.1145 118.979C52.3094 120.251 43.5786 137.899 45.6139 158.398C47.6492 178.898 59.6797 194.485 72.4849 193.214Z" fill="#005045"/>
<path d="M31.3915 187.754C41.4488 186.755 48.3058 172.892 46.7071 156.789C45.1083 140.687 35.6592 128.442 25.6019 129.441C15.5446 130.44 8.68765 144.303 10.2864 160.405C11.8852 176.508 21.3342 188.752 31.3915 187.754Z" fill="#005045"/>
<path d="M86.2 149.6C84.3 156.1 85.3 163 88.7 168.8C95.6 180.3 110.6 184.1 122.1 177.1C133.6 170.2 137.4 155.2 130.4 143.7C123.5 132.2 108.5 128.4 97 135.4C91.8 138.5 87.9 143.6 86.2 149.6Z" fill="#FFC2A7"/>
<path d="M133.9 174.1C133.7 174.1 133.6 174.1 133.4 174C130.2 173.3 130.9 166 131.8 161.8C132.7 157.6 135.2 150.7 138.4 151.4C141.6 152.1 141 159.4 140 163.6C139.5 166.1 138.6 168.6 137.4 170.9C136.3 173 135.1 174.1 133.9 174.1ZM137.9 153.6C137.3 153.7 135.2 156.4 133.9 162.3C132.6 168.2 133.4 171.6 133.9 171.9C134.5 171.8 136.6 169.1 137.9 163.2C139.2 157.3 138.4 153.9 137.9 153.6Z" fill="#4F3429"/>
<path d="M138.587 173.649C139.56 172.042 137.438 168.977 133.848 166.802C130.258 164.627 126.559 164.166 125.586 165.772C124.613 167.378 126.734 170.443 130.324 172.618C133.914 174.793 137.614 175.255 138.587 173.649Z" fill="#FFC2A7"/>
<path d="M86.2 149.6C84.3 156.1 85.3 163 88.7 168.8C94.2 167.8 92.6 157.9 92.6 157.9C86.6 155.6 90.1 142.9 96.8 144.2C103.5 145.5 101.8 153.2 101.8 153.2C119.7 164.8 133.2 151.4 133.4 151.3C130.7 138.1 117.8 129.6 104.6 132.3C95.8 134.1 88.7 140.8 86.2 149.6Z" fill="#005045"/>
<path d="M96.0003 154.4C95.9003 154.4 95.8003 154.4 96.0003 154.4C95.9003 154.4 95.8003 154.3 95.7003 154.3C95.6003 154.3 95.6003 154.2 95.5003 154.2C95.4003 154.2 95.4003 154.2 95.5003 154.2L95.4003 154.1C95.0003 153.8 94.8003 153.3 94.7003 152.8C94.7003 152.5 94.7003 152.3 94.8003 152C95.2003 151.1 96.2003 150.6 97.2003 151C97.3003 151 97.4003 151.1 97.5003 151.1C98.0003 151.4 98.7003 151.2 99.0003 150.7C99.0003 150.6 99.1003 150.5 99.1003 150.5C99.6003 148.7 98.6003 146.7 96.8003 146.2C95.5003 145.8 94.1003 146.2 93.2003 147.2C92.8003 147.6 92.8003 148.3 93.2003 148.7C93.6003 149.1 94.3003 149.1 94.7003 148.7C94.8003 148.6 94.9003 148.5 94.9003 148.5C94.8003 148.6 95.0003 148.4 95.1003 148.4C95.3003 148.3 95.0003 148.4 95.2003 148.3L95.5003 148.2C95.3003 148.2 95.6003 148.2 95.7003 148.2C95.8003 148.2 96.0003 148.2 95.9003 148.2C96.0003 148.2 96.1003 148.2 96.2003 148.3C96.4003 148.4 96.1003 148.2 96.3003 148.4C96.3003 148.4 96.6003 148.6 96.5003 148.5C96.6003 148.6 96.7003 148.6 96.7003 148.7C96.6003 148.6 96.8003 148.8 96.8003 148.8C96.8003 148.8 97.0003 149.1 96.9003 148.9C96.9003 149 97.0003 149.1 97.0003 149.2V149.3C97.0003 149.2 97.0003 149.2 97.0003 149.3C97.0003 149.4 97.0003 149.5 97.0003 149.6C97.0003 149.7 97.0003 149.7 97.0003 149.8L98.6003 149.2C96.8003 148 94.3003 148.5 93.1003 150.4C91.9003 152.2 92.4003 154.7 94.3003 155.9C94.7003 156.1 95.1003 156.3 95.5003 156.4C96.1003 156.6 96.7003 156.2 96.8003 155.6C96.9003 155.2 96.6003 154.6 96.0003 154.4Z" fill="#D88260"/>
<path d="M127.547 160.765C127.663 158.835 126.416 157.191 124.762 157.091C123.109 156.992 121.674 158.476 121.558 160.405C121.442 162.335 122.689 163.98 124.343 164.079C125.997 164.178 127.432 162.694 127.547 160.765Z" fill="white"/>
<path d="M127.526 161.683C127.607 160.415 126.779 159.33 125.677 159.26C124.574 159.19 123.615 160.16 123.534 161.428C123.453 162.696 124.281 163.78 125.384 163.851C126.486 163.921 127.445 162.95 127.526 161.683Z" fill="#005045"/>
<path d="M110.5 175.6C110.3 175.6 110 175.5 109.8 175.4C108.2 174.3 107.3 172.5 107.1 170.6C107 167 110.2 164 110.3 163.9C110.7 163.5 111.4 163.5 111.8 164C112.2 164.4 112.2 165.1 111.7 165.5C111.6 165.6 109.1 168 109.2 170.6C109.3 171.9 110 173.1 111 173.8C111.5 174.2 111.5 174.9 111.2 175.3C111.1 175.5 110.8 175.6 110.5 175.6Z" fill="#D88260"/>
<path d="M113 166.1C112.1 166.1 111.1 165.9 110.3 165.3C109.2 164.5 108.6 163.4 108.5 162.1C108.4 161.5 108.8 160.9 109.4 160.9C110 160.9 110.6 161.2 110.6 161.8C110.6 161.8 110.6 161.8 110.6 161.9C110.6 162.6 110.9 163.2 111.5 163.6C112.2 164 113 164.1 113.7 163.9C114.3 163.8 114.9 164.1 115 164.7C115.1 165.3 114.8 165.9 114.2 166C113.9 166 113.4 166.1 113 166.1Z" fill="#D88260"/>
<path d="M122.2 173.5C121.9 173.5 121.5 173.5 121.2 173.4C117.3 172.5 115.5 166.7 116.9 160.1C117.5 157.3 118.7 154.6 120.5 152.4C122.3 150.3 124.4 149.4 126.4 149.8C128.4 150.2 129.9 151.9 130.6 154.6C131.9 160.3 130.6 166.2 127 170.8C125.9 172.3 124.2 173.3 122.2 173.5ZM119.1 160.5C117.8 166.2 119.5 170.7 121.7 171.2C122.8 171.5 124.2 170.8 125.4 169.3C128.5 165.3 129.6 160.1 128.5 155.2C128 153.4 127 152.2 125.9 151.9C124.8 151.6 123.4 152.3 122.2 153.8C120.7 155.8 119.6 158.1 119.1 160.5Z" fill="#4F3429"/>
<path d="M104.6 266.7L86.1001 265.1C84.1001 264.1 65.4001 254.7 63.4001 242.9C59.8001 221.4 49.1002 195.6 72.4001 185.7C83.2001 181.2 120.2 187.2 132.5 205.9C137.7 213.9 135.7 231.3 132.7 245.8C130 259 117.9 267.9 104.6 266.7Z" fill="url(#paint4_linear_2095_210)"/>
<path d="M90.2004 172.3C89.9004 172.3 89.6004 172.2 89.4004 171.9C89.3004 171.8 77.5004 157.8 88.0004 141.7C86.8004 138.9 82.3004 128.4 84.8004 123.9C86.0004 121.9 88.6004 121.2 90.6004 122.4C90.9004 122.6 91.2004 122.8 91.5004 123.1C95.0004 127.1 91.9004 139.2 91.6004 140.6C91.4004 141.2 90.9004 141.5 90.3004 141.4C90.4004 141.7 90.4004 142.1 90.2004 142.4C80.1004 157.3 90.7004 169.9 91.1004 170.5C91.5004 170.9 91.4004 171.6 91.0004 172C90.8004 172.2 90.5004 172.3 90.2004 172.3ZM88.6004 124H88.2004C87.6004 124 87.0004 124.4 86.7004 125C85.2004 127.6 87.5004 134.9 89.6004 139.8C90.8004 135 91.9004 126.9 89.9004 124.6C89.5004 124.2 89.1004 124 88.6004 124Z" fill="#4F3429"/>
<path d="M47.5997 167.8C47.1997 167.8 46.7997 167.6 46.5997 167.2C46.3997 166.8 41.4997 156.4 44.3997 149C44.6997 148.5 45.3997 148.3 45.8997 148.6C46.2997 148.8 46.4997 149.3 46.3997 149.8C43.7997 156.3 48.3997 166.1 48.4997 166.2C48.7997 166.7 48.4997 167.4 47.9997 167.6C47.7997 167.7 47.6997 167.7 47.5997 167.8Z" fill="#4F3429"/>
<path d="M82.7002 184.5C82.7002 184.5 64.3002 187.2 60.2002 209.1C56.1002 231 93.2002 282.4 93.2002 282.4C93.2002 282.4 110 311.9 141.9 315.4L210 324L217.2 279.6L152 262.9C152.1 262.8 121.3 184.2 82.7002 184.5Z" fill="url(#paint5_linear_2095_210)"/>
<path d="M217.3 279.5C219.9 280.3 222.7 280.5 225.4 280C230.4 279.2 239.6 273.6 247.8 278.7C247.8 278.7 256.4 318.1 272.6 324C272.6 324 273.1 330.5 262.3 328.8C262.3 328.8 255.7 334.6 245.9 329.7C245.9 329.7 241.8 335 231.3 329.5C225.7 326.6 210.1 324 210.1 324L217.3 279.5Z" fill="#FFC2A7"/>
<path d="M196.2 322.7C196.1 322.7 196.1 322.7 196 322.7C195.4 322.6 195 322 195.1 321.5L203.5 276.4C203.6 275.8 204.2 275.4 204.8 275.5C205.4 275.6 205.8 276.2 205.7 276.8L197.3 321.9C197.2 322.4 196.8 322.7 196.2 322.7Z" fill="#4F3429"/>
<path d="M132.9 283.8C121.6 283.8 113.6 280.5 108.8 273.9C103.8 267 103.9 256.4 106.8 246.9C105.8 247.1 104.9 247.2 104 247.3C94.3003 248.3 87.7003 245.3 85.3003 239C83.9003 235.3 84.2002 231.1 86.2002 227.6C94.4002 212.3 128.9 203.9 130.3 203.6C130.9 203.5 131.5 203.8 131.6 204.4C131.7 205 131.4 205.6 130.8 205.7C130.4 205.8 95.8003 214.2 88.1003 228.6C86.4003 231.5 86.2003 235.1 87.4003 238.2C90.0003 245.3 98.8003 245.6 103.8 245.1C105.1 245 106.4 244.8 107.6 244.5C109.1 240.3 111.3 236.3 114.1 232.7C119 226.6 124.6 224.2 129.4 226.3C132.9 227.8 133.4 230 133.1 231.6C132.3 237.1 120.8 243.8 109.1 246.4C105.7 256.6 106.5 267 110.5 272.6C126.2 294.3 179.6 269.7 180.2 269.5C180.8 269.2 181.4 269.5 181.7 270C182 270.6 181.7 271.2 181.2 271.5C171.7 275.7 161.8 279.1 151.6 281.5C145.4 283 139.1 283.8 132.9 283.8ZM125.9 227.9C122.7 227.9 119.2 230.1 115.9 234.2C113.5 237.2 111.6 240.5 110.1 244C120.7 241.4 130.4 235.3 131 231.4C131.1 231 131.3 229.6 128.6 228.4C127.7 228 126.8 227.9 125.9 227.9Z" fill="#FED490"/>
<path d="M123.8 267.2C123.4 267.2 123 267 122.8 266.6C122.5 266.1 122.7 265.4 123.2 265.1C134.7 259 151.5 261.6 152.2 261.7C152.8 261.8 153.2 262.3 153.1 262.9C153 263.5 152.4 263.9 151.9 263.8C151.7 263.8 135.2 261.2 124.3 267C124.2 267.1 124 267.2 123.8 267.2Z" fill="#4F3429"/>
<path d="M64.0999 325.2C63.5999 325.2 63.0999 324.8 62.9999 324.3L59.1999 304.5L53.0999 303C52.4999 302.9 52.0999 302.4 52.1999 301.8C52.2999 301.2 52.7999 300.8 53.3999 300.9C53.4999 300.9 53.4999 300.9 53.5999 300.9L60.3999 302.5C60.7999 302.6 61.0999 302.9 61.1999 303.4L65.0999 323.9C65.1999 324.5 64.7999 325.1 64.1999 325.2H64.0999Z" fill="white"/>
<path d="M135.2 230.3C134.8 230.3 134.5 230.1 134.3 229.7C134.1 229.4 115.8 198.1 105.3 189.7C104.8 189.3 104.7 188.7 105.1 188.2C105.5 187.7 106.1 187.6 106.6 188C106.6 188 106.7 188 106.7 188.1C115.6 195.2 129.5 217.5 134.4 225.7C134.7 219.8 134.8 208.2 131.8 203.5C131.5 203 131.6 202.3 132.1 202C132.6 201.7 133.3 201.8 133.6 202.3C138 209.3 136.4 228.5 136.3 229.3C136.3 229.8 135.9 230.2 135.4 230.3C135.3 230.3 135.2 230.3 135.2 230.3Z" fill="#4F3429"/>
<path d="M86.5997 273.4C86.2997 273.4 85.9997 273.3 85.7997 273C71.9997 256.4 57.8997 213.8 57.2997 212C57.0997 211.4 57.4997 210.8 57.9997 210.6C58.5997 210.4 59.0997 210.7 59.2997 211.3C59.4997 211.7 73.8997 255.3 87.3997 271.6C87.7997 272.1 87.6997 272.7 87.2997 273.1C87.0997 273.3 86.7997 273.4 86.5997 273.4Z" fill="#4F3429"/>
<path d="M260.1 146.4C260.1 146.4 261.4 140.6 256.5 139C251.6 137.4 248.8 138.8 248.8 138.8C248.8 138.8 247.4 137.2 243.9 137.5C240.4 137.8 238.7 140 231.5 143.6C224.3 147.2 219.4 144.8 219.4 144.8C219.4 144.8 222.1 140.3 216.2 140.2C211.8 140.2 207.9 141.7 198 146.3C192.6 148.7 188.4 153.1 186.2 158.6L170.6 183.9C172.9 185 175.1 186.2 177.4 187.3C186.6 191.8 196 195.9 205.4 200.1C207 192.1 207.7 186.9 207.7 186.9C212.7 183.6 218 180.9 223.5 178.8C232.5 175.4 243.8 172 250.9 171.2C258 170.4 258.5 165.9 255.9 163.9C253.3 161.9 245 163.8 246.6 162.5C248.2 161.2 258.7 156.7 260.9 152.2C263.1 147.7 260.1 146.4 260.1 146.4Z" fill="#FFC2A7"/>
<path d="M219.1 167.6C219 167.6 218.9 167.6 218.8 167.6C218.2 167.5 217.9 166.9 218 166.3C220.7 155.5 212.2 151.4 211.8 151.3C211.3 151 211.1 150.4 211.3 149.8C211.4 149.5 211.7 149.4 211.9 149.3C212.6 149.1 215.9 146.6 218.6 144.4C219.1 144 219.7 144.1 220.1 144.5C220.5 145 220.4 145.6 220 146C218.7 147 216.2 149.1 214.3 150.4C217.1 152.4 222.4 157.5 220 166.9C220 167.3 219.6 167.6 219.1 167.6Z" fill="#D88260"/>
<path d="M232.9 167.3C232.3 167.3 231.8 166.8 231.8 166.2C231.8 165.7 232.2 165.2 232.7 165.1L246 162.5C246.6 162.4 247.2 162.8 247.3 163.4C247.4 164 247 164.6 246.4 164.7L233.1 167.3H232.9Z" fill="#D88260"/>
<path d="M234.4 157.8C233.8 157.8 233.3 157.3 233.3 156.7C233.3 156.2 233.7 155.8 234.2 155.7C244 154 259.5 145.6 259.6 145.5C260.1 145.2 260.8 145.4 261.1 145.9C261.4 146.4 261.2 147.1 260.7 147.4C260.1 147.8 244.8 156.1 234.6 157.8H234.4Z" fill="#D88260"/>
<path d="M231.5 149.9C230.9 149.9 230.4 149.4 230.4 148.8C230.4 148.3 230.7 147.9 231.2 147.7C239.1 145.8 247.9 138.1 248 138C248.5 137.6 249.1 137.6 249.5 138.1C249.9 138.6 249.9 139.2 249.4 139.6C249 139.9 240.1 147.8 231.6 149.8L231.5 149.9Z" fill="#D88260"/>
<path d="M232.3 169.1C232.2 169.1 232 169.1 231.9 169C231.3 168.8 231.1 168.2 231.3 167.6C236.1 155 228.1 147 228 147C227.6 146.6 227.5 145.9 228 145.5C228.5 145.1 229.1 145 229.5 145.5C229.6 145.6 238.7 154.5 233.3 168.5C233.1 168.8 232.8 169.1 232.3 169.1Z" fill="#D88260"/>
<path d="M202.2 189.5C201.7 189.5 201.2 189.5 200.6 189.4C200 189.4 199.5 188.9 199.6 188.3C199.7 187.7 200.1 187.2 200.7 187.3H200.8C203 187.6 205.1 187.3 207.1 186.4C207.6 186.1 208.3 186.3 208.6 186.8C208.9 187.3 208.7 188 208.2 188.3C206.3 189.1 204.3 189.6 202.2 189.5Z" fill="#D88260"/>
<path d="M142.2 231.4C142 231.4 141.8 231.4 141.7 231.3C141.2 231 141 230.3 141.3 229.8L150.2 213.6C150.6 213.1 151.2 213 151.7 213.4C152.1 213.7 152.2 214.2 152.1 214.6L143.2 230.8C143 231.1 142.7 231.3 142.2 231.4Z" fill="#4F3429"/>
<path d="M202.2 210.7C202 210.7 201.9 210.7 201.7 210.6L165.8 192.7C165.3 192.4 165 191.8 165.3 191.2C165.6 190.7 166.2 190.4 166.8 190.7L202.7 208.6C203.2 208.9 203.4 209.5 203.2 210.1C203 210.4 202.6 210.7 202.2 210.7Z" fill="#4F3429"/>
<path d="M182.8 254.1C181.8 254.1 180.7 254.1 179.6 254C169.7 253.4 163.1 249.7 160.5 243.4C159.6 241.2 159.7 238.7 160.8 236.5C166.7 224.8 199 216.6 200.4 216.2C201 216.1 201.6 216.4 201.7 217C201.8 217.6 201.5 218.2 200.9 218.3C200.6 218.4 168.2 226.6 162.7 237.4C161.8 239 161.7 240.8 162.4 242.5C167.9 255.9 192.7 250.9 193 250.9C193.6 250.8 194.2 251.2 194.3 251.7C194.4 252.3 194 252.9 193.4 253C190 253.8 186.4 254.1 182.8 254.1Z" fill="#FED490"/>
<path d="M177.4 230.2C179.886 230.2 181.9 228.185 181.9 225.7C181.9 223.215 179.886 221.2 177.4 221.2C174.915 221.2 172.9 223.215 172.9 225.7C172.9 228.185 174.915 230.2 177.4 230.2Z" fill="#FED490"/>
<path d="M255.7 279.6C255.7 279.6 248.2 274.8 243 274.7C237.8 274.6 224.4 283.8 221.4 284.5C218.4 285.2 219.8 292.2 226.8 293.8C231.4 294.8 236.2 294.8 240.8 294C240.8 294 245.6 309.6 260.5 305.9L255.7 279.6Z" fill="#FFC2A7"/>
<path d="M271 317.1C270.7 317.1 270.4 317 270.2 316.8L260.7 307.3C250.3 309.4 243.8 298.9 242.1 295.8C239.5 296.7 231.9 299 226.5 297.3C220.9 295.5 220 291.1 220.3 288.9C220.3 288.6 220.5 288.4 220.7 288.2L235.7 276.4C236.1 276 236.8 276 237.2 276.5C237.6 276.9 237.6 277.6 237.1 278L237 278.1L222.4 289.6C222.4 290.7 222.8 293.8 227.1 295.2C232.8 297 242.1 293.4 242.2 293.4C242.7 293.2 243.3 293.4 243.6 294C243.7 294.1 250 307.7 260.8 305.1C261.2 305 261.5 305.1 261.8 305.4L271.7 315.4C272.1 315.8 272.1 316.5 271.7 316.9C271.6 316.9 271.3 317.1 271 317.1Z" fill="#D88260"/>
<path d="M226.6 327.9C225.9 327.9 225.5 327.3 225.5 326.7C225.5 326.6 225.9 320 222.5 317.6C218.9 315.1 212.2 315.8 212.2 315.8C211.6 315.9 211 315.5 210.9 314.9C210.8 314.3 211.2 313.7 211.8 313.6C211.9 313.6 211.9 313.6 212 313.6C212.3 313.6 219.5 312.8 223.8 315.7C228.3 318.8 227.8 326.4 227.7 326.7C227.7 327.5 227.2 328 226.6 327.9Z" fill="#D88260"/>
<path d="M239.3 322.7C239 322.7 238.7 322.6 238.5 322.3C233.3 316.7 226 319.1 225.6 319.2C225 319.4 224.4 319.1 224.2 318.5C224 317.9 224.3 317.3 224.9 317.1C225.3 317 233.9 314.2 240 320.8C240.4 321.2 240.4 321.9 239.9 322.3C239.9 322.6 239.6 322.7 239.3 322.7Z" fill="#D88260"/>
<path d="M263 329.8C262.9 329.8 262.7 329.8 262.6 329.7C256.2 327.4 248.7 315.1 248.4 314.6C248.1 314.1 248.2 313.4 248.8 313.1C249.3 312.8 250 312.9 250.3 313.5C250.4 313.6 257.8 325.6 263.4 327.7C264 327.9 264.2 328.5 264 329.1C263.9 329.5 263.5 329.7 263 329.8Z" fill="#D88260"/>
<path d="M245.9 330.7C245.6 330.7 245.4 330.6 245.2 330.4C240.2 325.8 236.7 319.8 235.1 313.2C235 312.6 235.3 312 235.9 311.9C236.5 311.8 237.1 312.1 237.2 312.7C238.8 318.8 242.1 324.4 246.6 328.7C247.1 329.1 247.1 329.8 246.7 330.2C246.5 330.5 246.2 330.7 245.9 330.7Z" fill="#D88260"/>
<path d="M411.5 322C411.5 322 386.2 332.1 387.9 342C389.1 349.1 403.4 344.7 403.4 344.7C403.4 344.7 389.9 374.3 388.7 378.2C387.5 382.1 395.9 387.7 400.2 381.8C404.5 375.9 408.7 369.3 408.7 369.3C408.7 369.3 415.2 376.7 423 372C423 372 429.6 378.4 436.4 373.9C436.4 373.9 451.5 370.5 457.2 364.5C462.9 358.5 456.8 352.2 456.8 352.2C456.8 352.2 462.4 344 464.4 338.9C467.1 332 465.8 321.8 459.1 318C455.7 316 436 308.7 411.5 322Z" fill="#FFC2A7"/>
<path d="M408.7 370.4C408.5 370.4 408.4 370.4 408.2 370.3C407.7 370.1 407.4 369.4 407.7 368.9L413.8 355.2C414 354.6 414.7 354.4 415.2 354.6C415.7 354.8 416 355.5 415.8 356L409.7 369.7C409.5 370.2 409.1 370.4 408.7 370.4Z" fill="#D88260"/>
<path d="M423 373.1C422.9 373.1 422.7 373.1 422.6 373C422 372.8 421.8 372.1 422 371.6L429.1 354.5C429.4 354 430 353.8 430.6 354.1C431.1 354.3 431.3 354.9 431.1 355.4L424 372.5C423.8 372.8 423.4 373.1 423 373.1Z" fill="#D88260"/>
<path d="M440.7 368.6C440.1 368.6 439.6 368.1 439.6 367.5C439.6 367.2 439.8 366.9 440 366.7C445 362.7 448.9 353.3 448.9 353.2C449.2 352.7 449.9 352.5 450.4 352.8C450.8 353 451.1 353.6 450.9 354.1C450.7 354.5 446.8 364.1 441.3 368.5C441.2 368.5 441 368.6 440.7 368.6Z" fill="#D88260"/>
<path d="M447.6 359.4C447 359.4 446.5 358.9 446.5 358.3C446.5 357.9 446.8 357.5 447.2 357.3L453.9 354.9C454.5 354.7 455.1 355 455.3 355.6C455.5 356.2 455.2 356.8 454.7 357L448 359.4C447.9 359.4 447.7 359.4 447.6 359.4Z" fill="#D88260"/>
<path d="M403.4 345.7C403.3 345.7 403.2 345.7 403.1 345.7C402.5 345.5 402.2 344.9 402.4 344.3C402.5 343.9 405.9 333.6 410.4 327.3C410.8 326.8 411.4 326.7 411.9 327.1C412.4 327.5 412.5 328.1 412.1 328.6C407.8 334.6 404.5 344.8 404.4 345C404.3 345.4 403.9 345.7 403.4 345.7Z" fill="#D88260"/>
<path d="M345.6 183.3C337.6 183.9 331.3 190.1 330.5 198C329.7 190.1 323.3 183.9 315.4 183.3C323.4 182.7 329.7 176.5 330.5 168.6C331.3 176.5 337.7 182.8 345.6 183.3Z" fill="#FED490"/>
<path d="M315.1 170.7C310.8 171 307.4 174.3 307 178.6C306.8 176.6 305.9 174.7 304.5 173.3C303 171.8 301 170.9 298.9 170.7C303.2 170.4 306.6 167.1 307 162.8C307.4 167.1 310.8 170.4 315.1 170.7Z" fill="#FED490"/>
<path d="M141.2 123.5C136.9 123.8 133.5 127.1 133.1 131.4C132.7 127.2 129.3 123.8 125 123.5C129.3 123.2 132.7 119.9 133.1 115.6C133.5 119.9 136.9 123.2 141.2 123.5Z" fill="#FED490"/>
<defs>
<linearGradient id="paint0_linear_2095_210" x1="304.306" y1="206.596" x2="426.176" y2="366.626" gradientUnits="userSpaceOnUse">
<stop stop-color="#0A6B5B"/>
<stop offset="0.78" stop-color="#005146"/>
<stop offset="0.91" stop-color="#005045"/>
</linearGradient>
<linearGradient id="paint1_linear_2095_210" x1="348.191" y1="173.174" x2="470.061" y2="333.204" gradientUnits="userSpaceOnUse">
<stop stop-color="#0A6B5B"/>
<stop offset="0.78" stop-color="#005146"/>
<stop offset="0.91" stop-color="#005045"/>
</linearGradient>
<linearGradient id="paint2_linear_2095_210" x1="353.705" y1="168.984" x2="475.565" y2="329.004" gradientUnits="userSpaceOnUse">
<stop stop-color="#0A6B5B"/>
<stop offset="0.78" stop-color="#005146"/>
<stop offset="0.91" stop-color="#005045"/>
</linearGradient>
<linearGradient id="paint3_linear_2095_210" x1="152.692" y1="162.68" x2="140.132" y2="265.3" gradientUnits="userSpaceOnUse">
<stop stop-color="#F38374"/>
<stop offset="1" stop-color="#C64234"/>
</linearGradient>
<linearGradient id="paint4_linear_2095_210" x1="94.0988" y1="109.341" x2="99.5388" y2="320.771" gradientUnits="userSpaceOnUse">
<stop stop-color="#F38374"/>
<stop offset="1" stop-color="#C64234"/>
</linearGradient>
<linearGradient id="paint5_linear_2095_210" x1="158.684" y1="118.763" x2="124.938" y2="331.291" gradientUnits="userSpaceOnUse">
<stop stop-color="#F38374"/>
<stop offset="1" stop-color="#C64234"/>
</linearGradient>
</defs>
</svg>
