<svg width="500" height="500" viewBox="0 0 500 500" fill="none" xmlns="http://www.w3.org/2000/svg">
<path d="M384.8 346.2H277.3V361.6H384.8V346.2Z" fill="#4F3429"/>
<path d="M364.1 168.8C341 168.8 320.8 184.3 314.9 206.5L277.3 346.2H382.9L413.4 233C420.7 205.8 404.6 177.8 377.4 170.5C373.1 169.4 368.6 168.8 364.1 168.8Z" fill="white"/>
<path d="M382.9 347.5H277.3C276.9 347.5 276.5 347.3 276.3 347C276.1 346.7 276 346.3 276.1 345.9L313.7 206.3C321.4 178.5 350.1 162.1 378 169.7C405.6 177.3 422 205.7 414.7 233.5L384.2 346.6C384 347.1 383.5 347.5 382.9 347.5ZM279 344.9H382L412.2 232.7C419.3 206.2 403.6 178.9 377.1 171.8C350.6 164.7 323.3 180.4 316.2 206.9L279 344.9Z" fill="#4F3429"/>
<path d="M140.8 236.7H49.0002C48.3002 236.7 47.7002 236.1 47.7002 235.4C48.0002 182 48.3002 80.4999 47.8002 75.5999C47.8002 75.4999 47.7002 75.2999 47.7002 75.1999C47.7002 74.4999 48.3002 73.8999 49.0002 73.8999H261.8C262.5 73.8999 263.1 74.4999 263.1 75.1999C263.1 75.8999 262.5 76.4999 261.8 76.4999H50.4002C50.7002 81.3999 50.8002 97.7999 50.6002 155.6C50.5002 191.1 50.4002 226.9 50.3002 234.1H140.7C141.4 234.1 142 234.7 142 235.4C142 236.1 141.5 236.7 140.8 236.7Z" fill="#4F3429"/>
<path d="M167.5 221C166.8 221 166.2 220.4 166.2 219.7V87.8C166.2 87.1 166.8 86.5 167.5 86.5H240.3C241 86.5 241.6 87.1 241.6 87.8C241.6 88.5 241 89.1 240.3 89.1H168.8V219.6C168.8 220.4 168.2 221 167.5 221Z" fill="#4F3429"/>
<path d="M140.5 221H62.8C62.1 221 61.5 220.4 61.5 219.7V87.8C61.5 87.1 62.1 86.5 62.8 86.5H154.6C155.3 86.5 155.9 87.1 155.9 87.8V103.2C155.9 103.9 155.3 104.5 154.6 104.5C153.9 104.5 153.3 103.9 153.3 103.2V89.1H64.1V218.3H140.5C141.2 218.3 141.8 218.9 141.8 219.6C141.8 220.3 141.3 221 140.5 221Z" fill="#4F3429"/>
<path d="M72.2006 354.9H82.2006V338.3L59.8006 338.2H55.0006H50.2006L27.8006 338.3V354.9H37.8006C37.8006 354.9 24.1006 367 24.1006 381.1C24.1006 395.2 44.8006 488.9 44.8006 488.9H65.4006C65.4006 488.9 86.1006 395.1 86.1006 381.1C86.1006 367.1 72.2006 354.9 72.2006 354.9Z" fill="url(#paint0_linear_2095_352)"/>
<path d="M72.2008 356.1H37.5008C36.8008 356.2 36.2008 355.6 36.1008 354.9C36.0008 354.2 36.6008 353.6 37.3008 353.5C37.4008 353.5 37.5008 353.5 37.5008 353.5H72.1008C72.8008 353.4 73.4008 354 73.5008 354.7C73.6008 355.4 73.0008 356 72.3008 356.1C72.3008 356.2 72.2008 356.2 72.2008 356.1Z" fill="#4F3429"/>
<path d="M36.5007 446.6C35.8007 446.6 35.2007 446 35.2007 445.3C35.2007 445 35.3007 444.8 35.4007 444.6C48.9007 425.5 48.9007 417.2 46.5007 413.6C42.4007 407.5 28.9007 410.6 28.8007 410.6C28.1007 410.8 27.4007 410.3 27.2007 409.6C27.0007 408.9 27.5007 408.2 28.2007 408C28.8007 407.9 43.6007 404.4 48.7007 412C52.9007 418.2 49.2007 429.6 37.6007 445.9C37.3007 446.3 36.9007 446.6 36.5007 446.6Z" fill="#FED490"/>
<path d="M64.0001 405.5C61.5001 405.6 59.1001 405.1 56.8001 404C53.4001 402.3 51.0001 399.2 50.4001 395.5C48.7001 387.9 52.9001 379.6 62.5001 371.5C67.1001 367.7 72.1001 364.4 77.3001 361.6C77.9001 361.2 78.7001 361.4 79.1001 362.1C79.5001 362.8 79.3001 363.5 78.6001 363.9C78.5001 363.9 78.5001 364 78.4001 364C78.1001 364.1 49.2001 378.8 52.8001 395C53.5001 398.3 55.2001 400.5 57.8001 401.8C66.2001 405.8 81.5001 398.4 81.6001 398.3C82.2001 398 83.0001 398.2 83.3001 398.9C83.6001 399.5 83.4001 400.3 82.7001 400.6C82.4001 400.8 72.8001 405.5 64.0001 405.5Z" fill="#FED490"/>
<path d="M54.9005 338.1C54.9005 338.1 38.6005 254.8 15.5005 249C-7.59954 243.2 50.0005 338.2 50.0005 338.2L54.9005 338.1Z" fill="url(#paint1_linear_2095_352)"/>
<path d="M54.9 338.1C54.9 338.1 48.5 229.8 76.8 231.7C116.2 234.3 59.7 338.2 59.7 338.2L54.9 338.1Z" fill="#FED490"/>
<path d="M51.4005 339.2C50.8005 339.2 50.3005 338.8 50.1005 338.2C40.3005 300.5 11.7005 254 11.4005 253.5C11.0005 252.9 11.2005 252.1 11.8005 251.7C12.4005 251.3 13.2005 251.5 13.6005 252.1C13.9005 252.6 42.7005 299.4 52.6005 337.5C52.8005 338.2 52.4005 338.9 51.7005 339.1C51.6005 339.2 51.5005 339.2 51.4005 339.2Z" fill="#4F3429"/>
<path d="M57.5002 338.7C56.8002 338.7 56.2002 338.1 56.2002 337.4C57.8002 294.2 78.0002 235.5 78.2002 234.9C78.4002 234.2 79.1002 233.8 79.8002 234C80.5002 234.2 80.9002 234.9 80.7002 235.6C80.7002 235.7 80.7002 235.7 80.6002 235.8C80.4002 236.4 60.4002 294.7 58.7002 337.6C58.9002 338.1 58.3002 338.7 57.5002 338.7C57.6002 338.7 57.6002 338.7 57.5002 338.7Z" fill="#4F3429"/>
<path d="M283.501 66.6C282.501 66.6 281.501 66.3 280.701 65.8C278.901 64.7 278.001 62.5 278.401 60.4C278.701 59 277.801 57.6 276.301 57.3C276.101 57.3 276.001 57.2 275.801 57.2H266.301C263.401 57.2 261.101 54.9 261.101 52V20.3C261.101 17.4 263.401 15 266.301 15H336.301C339.201 15 341.501 17.3 341.501 20.2V52C341.501 54.9 339.201 57.2 336.301 57.2H299.201C298.701 57.2 298.101 57.4 297.701 57.7L286.601 65.6C285.601 66.3 284.601 66.6 283.501 66.6ZM266.301 17.6C264.801 17.6 263.701 18.8 263.701 20.2V52C263.701 53.5 264.901 54.6 266.301 54.6H275.801C278.701 54.6 281.001 56.9 281.001 59.8C281.001 60.1 281.001 60.5 280.901 60.8C280.601 62.2 281.601 63.6 283.001 63.9C283.701 64 284.401 63.9 285.001 63.5L296.101 55.6C297.001 55 298.001 54.6 299.101 54.6H336.301C337.801 54.6 339.001 53.5 339.001 52V20.3C339.001 18.8 337.801 17.7 336.401 17.7L266.301 17.6Z" fill="#4F3429"/>
<path d="M333.1 11.2H263.1C260.9 11.2 259.2 12.9 259.2 15.1V46.7999C259.2 48.9999 261 50.7 263.1 50.7H272.6C274.8 50.7 276.5 52.4999 276.5 54.5999C276.5 54.7999 276.5 55.0999 276.4 55.2999C276 57.3999 277.3 59.5 279.4 60C280.5 60.2 281.6 59.9999 282.5 59.2999L293.6 51.4C294.3 50.9 295.1 50.7 295.9 50.7H333.1C335.3 50.7 337 48.9999 337 46.7999V15.1C337.1 12.9 335.3 11.2 333.1 11.2C333.2 11.2 333.2 11.2 333.1 11.2Z" fill="url(#paint2_linear_2095_352)"/>
<path d="M273.601 36.3C276.638 36.3 279.101 33.8376 279.101 30.8C279.101 27.7625 276.638 25.3 273.601 25.3C270.563 25.3 268.101 27.7625 268.101 30.8C268.101 33.8376 270.563 36.3 273.601 36.3Z" fill="#FEF1E0"/>
<path d="M290.5 36.3C293.538 36.3 296 33.8376 296 30.8C296 27.7625 293.538 25.3 290.5 25.3C287.462 25.3 285 27.7625 285 30.8C285 33.8376 287.462 36.3 290.5 36.3Z" fill="#FEF1E0"/>
<path d="M307.5 36.3C310.538 36.3 313 33.8376 313 30.8C313 27.7625 310.538 25.3 307.5 25.3C304.462 25.3 302 27.7625 302 30.8C302 33.8376 304.462 36.3 307.5 36.3Z" fill="#FEF1E0"/>
<path d="M324.4 36.3C327.438 36.3 329.9 33.8376 329.9 30.8C329.9 27.7625 327.438 25.3 324.4 25.3C321.363 25.3 318.9 27.7625 318.9 30.8C318.9 33.8376 321.363 36.3 324.4 36.3Z" fill="#FEF1E0"/>
<path d="M306.199 422.2C307.999 428.8 308.299 435.6 307.199 442.3C307.199 442.3 195.999 486.7 214.699 454.7C220.199 447.5 230.199 439.4 233.299 422.2C263.299 422.2 283.999 422.1 306.199 422.2Z" fill="#D88260"/>
<path d="M307.2 442.3L301.7 488.7H283C281.4 485 277.1 483.4 273.4 485C272.5 485.4 271.6 486 271 486.8L269.1 488.9H185.7L214.7 454.8C214.7 454.8 212.3 468.5 243 458.4C282 445.6 305.7 431.7 307.2 442.3Z" fill="#4F3429"/>
<path d="M326 422.2C327.8 428.8 328.1 435.6 327 442.3C327 442.3 215.7 486.7 234.5 454.7C240 447.5 239.1 440.3 233.3 422.2C263.3 422.2 303.8 422.1 326 422.2Z" fill="#FFC2A7"/>
<path d="M327 442.3L321.5 488.7H302.8C301.2 485 296.9 483.3 293.3 484.9C292.3 485.3 291.5 485.9 290.8 486.7L288.9 488.8H205.5L234.5 454.7C234.5 454.7 232.1 468.4 262.8 458.3C301.8 445.6 325.5 431.7 327 442.3Z" fill="#4F3429"/>
<path d="M215.2 184.4L220.1 205.2L234.7 205L244.1 299C245.2 366.2 155.2 371.1 131.7 328.8C111.3 292.2 160.4 193.6 160.4 193.6L215.2 184.4Z" fill="#FFC2A7"/>
<path d="M349.7 271.3L316.1 267C324.5 288.4 314 312.6 292.6 321.1L247.9 338.8L307.3 404L234.9 422.5L160.7 389.9C147.6 384.3 137.5 375.8 132.3 362.5C121.2 334.6 135.3 306.3 163.2 292.3L258.7 244.8C280.6 234 335.8 231.4 349.7 271.3Z" fill="#4F3429"/>
<path d="M367.1 304.5C367.1 327.5 348.4 346.2 325.3 346.2H277.2L326 422.3H232.4L176.7 363.7C166.6 353.6 160.9 339.9 160.9 325.6C160.9 295.6 184.4 274.4 215.5 271.7L321.8 262.7C344.8 260.8 365 277.8 366.9 300.8C367.1 302.1 367.1 303.3 367.1 304.5Z" fill="url(#paint3_linear_2095_352)"/>
<path d="M262.4 232.2H311.3C324 232.2 334.3 221.6 334.6 208.3L335.4 168.3C335.4 168.3 332.9 153.9 314.7 152.8H229C223.8 152.3 212 159.6 220.1 175.5C223.9 182.9 234.6 204.7 241.7 219C245.5 227 253.5 232.1 262.4 232.2Z" fill="url(#paint4_linear_2095_352)"/>
<path d="M228 152.8C228 152.8 223.7 147.8 215.4 158.2C207.1 168.6 219 205.6 219 205.6L239.6 205.3L228 152.8Z" fill="url(#paint5_linear_2095_352)"/>
<path d="M314.6 152.8H333.9C333.9 152.8 350.1 149.6 359.9 172.3L374.8 207.4H325.5L314.6 152.8Z" fill="url(#paint6_linear_2095_352)"/>
<path d="M241.699 220.3C240.999 220.3 240.399 219.7 240.399 219C240.399 218.6 240.599 218.2 240.899 218C241.199 217.8 268.599 195.6 267.799 180.7C267.599 177.2 265.899 174.5 262.499 172.3C242.199 159.5 215.499 181.4 215.299 181.6C214.699 182 213.899 181.9 213.499 181.4C213.099 180.9 213.099 180.1 213.699 179.6C218.799 175.6 224.399 172.2 230.399 169.7C243.299 164.2 254.899 164.4 263.999 170.1C268.099 172.7 270.299 176.2 270.499 180.5C271.399 196.7 243.899 219 242.699 219.9C242.299 220.2 241.999 220.3 241.699 220.3Z" fill="#FED490"/>
<path d="M314.9 211.1C307.2 211.1 300.8 209.7 295.5 207C292.1 205.3 290.1 201.6 290.6 197.8C292 181.4 324.1 152.2 325.7 151.7C326.4 151.5 327.1 151.9 327.3 152.6C327.5 153.2 327.2 153.8 326.7 154.1C324.7 155.5 292.5 185.1 293.1 199.3C293.1 201.6 294.5 203.8 296.6 204.7C314.2 214 343.6 203.3 343.9 203.2C344.6 203 345.3 203.4 345.5 204.1C345.7 204.7 345.4 205.4 344.8 205.6C339.1 207.6 333.2 209.1 327.3 210C323.3 210.7 319.1 211 314.9 211.1Z" fill="#FED490"/>
<path d="M267.856 200.793C268.457 197.086 265.94 193.593 262.233 192.991C258.526 192.389 255.033 194.907 254.431 198.614C253.83 202.321 256.347 205.814 260.054 206.416C263.761 207.017 267.254 204.5 267.856 200.793Z" fill="#FED490"/>
<path d="M213 147.8C211.4 136.8 206 126.4 201.4 123.9C198.5 122.1 194.7 122.7 192.5 125.3C192.5 125.3 181.3 100.2 178.4 98.3C175.5 96.4 169.8 95.7 169.1 103.8C168.4 111.9 172.1 124.5 172.1 124.5C172.1 124.5 162.8 124 159.9 130C155.2 129.9 151.2 133.3 150.3 137.9C150.3 137.9 144.3 140.4 145.4 151.9C146.5 163.4 153.8 175 162.6 173.2L160.4 193.7L213.7 184.8C212.4 166.4 214.7 160 213 147.8Z" fill="#FFC2A7"/>
<path d="M180.4 163.7C179.7 163.7 179 163.6 178.3 163.4C171.3 161.6 163.4 150.9 159.6 138C159.4 137.3 159.8 136.6 160.5 136.4C161.2 136.2 161.9 136.6 162.1 137.3C166.1 150.8 173.8 159.5 179 160.9C180.5 161.4 182.2 161 183.3 159.9C187.9 155.4 184.7 151.3 179.2 145.4L178.6 144.8C173.7 139.5 170.9 125.4 170.8 124.8C170.7 124.1 171.1 123.4 171.8 123.3C172.5 123.2 173.2 123.6 173.3 124.3C173.3 124.4 176 138.3 180.4 143.1L181 143.7C185.6 148.6 191.8 155.2 185 161.8C183.8 163 182.2 163.7 180.4 163.7Z" fill="#D88260"/>
<path d="M168.899 166.6C167.499 166.6 166.099 166.4 164.699 165.9C155.699 162.7 151.499 150 150.699 147.5C150.499 146.8 150.799 146.1 151.499 145.8C152.199 145.6 152.899 145.9 153.199 146.6V146.7C155.099 153 159.5 161.2 165.6 163.4C169.1 164.6 172.999 163.8 177.199 161C177.799 160.5 178.6 160.6 179 161.2C179.5 161.8 179.4 162.6 178.8 163C178.7 163 178.7 163.1 178.6 163.1C175.8 165.2 172.399 166.4 168.899 166.6Z" fill="#D88260"/>
<path d="M181.9 147.4C181.8 147.4 181.7 147.4 181.6 147.4C180.9 147.2 180.5 146.5 180.7 145.8C181.5 142.2 183.9 139.2 187.3 137.7C186.4 128.6 191.5 124.5 191.7 124.3C192.3 123.9 193.1 124.2 193.5 124.8C193.8 125.3 193.7 125.9 193.3 126.3C193.1 126.5 188.8 130.1 189.9 138.4C190 139.1 189.6 139.7 188.9 139.8C188.7 139.8 184.5 140.9 183.1 146.4C183 147 182.5 147.4 181.9 147.4Z" fill="#D88260"/>
<path d="M144.9 101.7L224.5 150.9C228.7 153.5 230.1 159 227.5 163.3C227.4 163.4 227.4 163.5 227.3 163.6C224.6 167.7 219 168.9 214.9 166.2L136.8 115.3L127.5 99.3L144.9 101.7Z" fill="#4F3429"/>
<path d="M220.2 254.2C220.1 254.2 220 254.2 219.9 254.2C219.2 254.1 218.7 253.4 218.9 252.7C218.9 252.7 218.9 252.7 218.9 252.6C223.3 234.3 217.9 206 217.8 205.7C217.7 205 218.1 204.3 218.8 204.2C219.3 204.1 219.9 204.3 220.1 204.8L228.9 219.1C229.2 219.7 229 220.5 228.4 220.9C227.8 221.2 227.1 221 226.7 220.5L221.3 211.8C222.7 221.4 224.6 239.7 221.3 253.3C221.3 253.8 220.8 254.2 220.2 254.2Z" fill="#D88260"/>
<path d="M177.8 203.8H177.6C164.2 201.8 159.6 194.6 159.4 194.3C159 193.7 159.2 192.9 159.8 192.5C160.4 192.1 161.2 192.3 161.6 192.9C161.7 193 165.9 199.5 178 201.2C178.7 201.3 179.2 202 179.1 202.7C178.9 203.4 178.4 203.8 177.8 203.8Z" fill="#D88260"/>
<path d="M331.8 131.1C331.5 126.2 329.3 121.5 325.6 118.2C325.9 116.8 326 115.3 325.9 113.8C325.5 105 318.1 98.2 309.3 98.6C300.5 99 293.7 106.4 294.1 115.2C294.1 115.4 294.1 115.6 294.1 115.9C294.3 118.5 295 120.9 296.4 123.1C295.9 123.9 295.5 124.8 295.2 125.7C294.8 125.7 294.4 125.7 294 125.7C285.2 126.2 278.5 133.8 279.1 142.6C279.6 151.4 287.2 158.1 296 157.5C300.9 157.2 305.4 154.7 308.2 150.6C318.3 153.3 328.6 147.3 331.3 137.2C331.7 135.2 331.9 133.1 331.8 131.1Z" fill="url(#paint7_linear_2095_352)"/>
<path d="M301.8 113.1C301.2 121.6 297.2 129.4 290.6 134.7C277.5 145.4 258.1 143.4 247.5 130.2C236.8 117.1 238.8 97.6999 252 87.0999C265.2 76.4999 284.5 78.3999 295.1 91.5999C299.9 97.6999 302.4 105.4 301.8 113.1Z" fill="#FFC2A7"/>
<path d="M235.8 121.8H235.4C233.7 121.6 232.6 119.8 232 116.5C231.2 110 232.1 103.4 234.5 97.3001C235.9 94.3001 237.4 92.9 239.1 93.1C240.8 93.3 242 95.1001 242.5 98.4001C242.9 101.6 242.9 104.9 242.4 108.2C242 111.4 241.2 114.6 240 117.6C238.8 120.4 237.4 121.8 235.8 121.8ZM238.8 95.7C238.1 95.8 235.7 99.5 234.7 107.1C233.7 114.7 235.1 118.9 235.8 119.2C236.5 119.1 238.9 115.4 239.9 107.8C240.9 100.1 239.5 96 238.8 95.7Z" fill="#4F3429"/>
<path d="M239.646 121.636C244.791 120.605 248.582 117.881 248.116 115.552C247.649 113.224 243.1 112.172 237.955 113.204C232.811 114.235 229.019 116.959 229.486 119.288C229.953 121.616 234.502 122.668 239.646 121.636Z" fill="#FFC2A7"/>
<path d="M301.8 113.1C301.2 121.6 297.2 129.4 290.6 134.7C284.5 131.2 290.6 120.1 290.6 120.1C298.7 120 300 103.4 291.5 102.1C282.8 100.8 281.7 110.6 281.7 110.6C255.5 116.7 245.3 95.1 245 94.9C253.8 80.4 272.7 75.9 287.2 84.7C296.9 90.8 302.6 101.7 301.8 113.1Z" fill="url(#paint8_linear_2095_352)"/>
<path d="M288 117.4C290.7 117.5 293 115.3 293.1 112.6C293.2 109.9 291 107.6 288.3 107.5C287.9 107.5 287.5 107.5 287.1 107.6L288.7 108.9C288.7 108.6 288.7 108.9 288.7 108.7C288.7 108.7 288.8 108.3 288.8 108.5C288.9 108.3 289 108.1 289.2 108C289.4 107.7 289.8 107.5 290.2 107.4C290.3 107.4 290.3 107.4 290.2 107.4H290.3C290.3 107.4 290.7 107.4 290.5 107.4C290.7 107.4 290.9 107.5 291.1 107.6C291.3 107.7 291.5 107.8 291.6 108C291.7 108.1 291.6 108 291.7 108.1C291.8 108.2 291.9 108.5 291.9 108.3C292.1 109 292.8 109.4 293.5 109.2C294.2 109 294.6 108.3 294.4 107.6C293.6 105.4 291.2 104.2 288.9 105C287.2 105.6 286.1 107.1 286 108.9C286 109.6 286.6 110.2 287.3 110.2C287.4 110.2 287.5 110.2 287.6 110.2C288.3 110.1 288.9 110.3 289.5 110.7C289.7 110.9 289.9 111.1 290.1 111.4C290.3 111.7 290.3 112 290.4 112.3C290.5 113.6 289.5 114.7 288.2 114.8C288.1 114.8 288 114.8 287.9 114.8C287.2 114.8 286.6 115.4 286.6 116.1C286.6 116.8 287.2 117.4 288 117.4Z" fill="#D88260"/>
<path d="M254.83 111.827C255.524 109.441 254.453 107.031 252.438 106.445C250.423 105.859 248.226 107.318 247.532 109.704C246.838 112.091 247.909 114.5 249.924 115.086C251.939 115.673 254.136 114.213 254.83 111.827Z" fill="white"/>
<path d="M253.455 112.68C253.902 111.142 253.19 109.582 251.864 109.197C250.538 108.811 249.101 109.745 248.654 111.283C248.206 112.821 248.918 114.38 250.244 114.766C251.57 115.152 253.007 114.217 253.455 112.68Z" fill="#005045"/>
<path d="M262.4 133.6C261.7 133.6 261.1 133 261.1 132.3C261.1 131.7 261.5 131.3 262 131.1C263.6 130.7 264.9 129.6 265.6 128.1C266.8 125 264.8 121 264.8 121C264.5 120.4 264.8 119.6 265.4 119.3C266 119 266.8 119.2 267.1 119.8C267.2 120 269.7 124.9 268 129.1C267 131.3 265.2 133 262.8 133.6C262.6 133.6 262.5 133.6 262.4 133.6Z" fill="#D88260"/>
<path d="M265.2 121.5C263.9 121.5 262.6 121.1 261.6 120.4C261 120 260.8 119.2 261.1 118.6C261.5 118 262.3 117.8 262.9 118.1L263 118.2C263.8 118.7 264.9 119 265.9 118.8C266.7 118.5 267.4 117.9 267.7 117.1C268 116.4 268.8 116.1 269.4 116.4C270.1 116.7 270.4 117.5 270.1 118.1C270.1 118.2 270 118.2 270 118.3C269.3 119.8 268.1 120.9 266.5 121.3C266.1 121.5 265.6 121.5 265.2 121.5Z" fill="#D88260"/>
<path d="M250.8 126.3C250.6 126.3 250.3 126.3 250.1 126.3C245.2 125.7 242.2 118.6 243.3 110.2C244.4 101.8 249.1 95.7 253.9 96.3C258.7 96.9 261.8 104 260.7 112.4C259.7 120.4 255.4 126.3 250.8 126.3ZM253.3 98.8C250.4 98.8 246.8 103.3 245.9 110.4C244.9 117.8 247.5 123.2 250.4 123.6C253.3 124 257.2 119.4 258.2 112C259.2 104.6 256.6 99.2 253.7 98.8H253.3Z" fill="#4F3429"/>
<path d="M289.4 136.9C288.7 136.9 288.1 136.3 288.1 135.6C288.1 135.2 288.3 134.8 288.7 134.5C305.5 123.7 299.9 103.4 299.7 102.5C299.5 101.9 299.8 101.3 300.3 101C305 98.4 312.5 92.9 313 89.4C313.1 88.7 312.8 88.0999 312.4 87.5999C312 87.0999 311.3 86.8999 310.7 86.9999C307.3 87.5999 302.2 95.2999 299.8 100.1C299.5 100.8 298.7 101 298.1 100.7C297.5 100.4 297.2 99.5999 297.5 98.9999V98.9C298.2 97.5 304.4 85.3 310.3 84.4C311.8 84.1 313.3 84.5999 314.3 85.6999C315.4 86.6999 315.9 88.1999 315.7 89.6999C315 94.9999 305.6 100.9 302.6 102.7C303.6 107.2 306.5 126.1 290.3 136.6C289.9 136.8 289.6 136.9 289.4 136.9Z" fill="#4F3429"/>
<path d="M290.722 161.221C295.597 154.66 297.392 147.739 294.732 145.763C292.072 143.787 285.964 147.504 281.089 154.065C276.215 160.626 274.419 167.547 277.079 169.523C279.739 171.499 285.847 167.783 290.722 161.221Z" fill="#4F3429"/>
<path d="M296.631 165.577C299.793 161.321 300.2 156.269 297.541 154.293C294.881 152.317 290.161 154.164 286.999 158.42C283.837 162.676 283.43 167.728 286.09 169.705C288.75 171.681 293.469 169.833 296.631 165.577Z" fill="#4F3429"/>
<path d="M285.5 157.8C283.8 160.1 284.3 163.4 286.6 165.1L292.8 169.7C300.6 175.4 311.5 173.9 317.3 166.2C320.4 162.1 323.9 157.5 326.6 153.8C328 152 329.1 150.4 330 149.2C331.6 147 333.3 144.6 331.5 141.7C330 139.2 326.8 138.4 324.4 139.9C323.5 140.4 322.8 141.2 322.4 142.1C321.8 143 319.4 146.4 309.2 160C306.8 163.1 302.4 163.8 299.2 161.4L293 156.8C290.5 155 287.3 155.5 285.5 157.8Z" fill="#4F3429"/>
<path d="M320.993 120.469C325.868 113.908 327.664 106.987 325.004 105.01C322.344 103.034 316.236 106.751 311.361 113.312C306.486 119.873 304.69 126.794 307.35 128.77C310.01 130.747 316.118 127.03 320.993 120.469Z" fill="#4F3429"/>
<path d="M326.843 124.905C330.005 120.649 330.412 115.597 327.752 113.62C325.093 111.644 320.373 113.492 317.211 117.748C314.049 122.004 313.642 127.056 316.302 129.032C318.961 131.009 323.681 129.161 326.843 124.905Z" fill="#4F3429"/>
<path d="M316.2 116.5C317.9 114.2 321.1 113.7 323.4 115.4L329.6 120C337.3 125.8 339 136.7 333.3 144.5C330.3 148.6 326.8 153.3 324.1 156.9C322.7 158.7 321.5 160.3 320.7 161.4C319 163.6 317.3 165.8 313.9 165C311.1 164.3 309.4 161.5 310.1 158.7C310.3 157.7 310.9 156.8 311.6 156.1C312.3 155.3 314.9 151.9 324.9 138.3C327.2 135.1 326.5 130.7 323.4 128.3L317.2 123.7C315 122.1 314.5 118.8 316.2 116.5Z" fill="#4F3429"/>
<path d="M314.8 127.8C314.2 127.8 313.6 127.3 313.5 126.7C313.5 126.4 312.6 120.2 316.1 115.8C318.1 113.3 321 112 324.9 111.7C325.6 111.7 326.2 112.3 326.2 113C326.2 113.7 325.7 114.2 325.1 114.3C322 114.5 319.7 115.5 318.2 117.4C315.4 120.9 316.1 126.2 316.1 126.3C316.2 127 315.7 127.7 315 127.8H314.8Z" fill="white"/>
<path d="M283.8 167.9C283 167.9 282.5 167.3 282.5 166.5C283.1 154 292.9 152.7 293 152.7C293.7 152.6 294.3 153.2 294.4 153.9C294.5 154.6 294 155.2 293.3 155.3C293 155.3 285.6 156.4 285.1 166.7C285.1 167.3 284.5 167.9 283.8 167.9Z" fill="white"/>
<path d="M329.8 196.5L342.5 306.8C348.1 362.4 470.9 345.8 437.1 258.7L365 144.6L329.8 196.5Z" fill="#FFC2A7"/>
<path d="M365.4 146.7C365.4 146.7 364.3 136.8 358.2 131.9C353.6 128.3 344.9 126.2 333.8 128.7C325.3 130.6 309.9 135.2 305.1 139.9C300.3 144.6 301 151.3 306.8 152.5C306.8 152.5 296.5 162.8 304.5 171.1C304.5 171.1 299.6 178.1 305.4 184C311.2 189.9 317.2 188.7 325.4 196C329.9 199.5 340.1 199.8 351.2 187.4C362.3 175 365.4 146.7 365.4 146.7Z" fill="#FFC2A7"/>
<path d="M365 144.6C365 144.6 368.7 121.9 359.6 115.3C350.5 108.7 345.3 117.5 344.1 121C342.9 124.5 342 129.4 347.1 132.8C352.2 136.2 365 144.6 365 144.6Z" fill="#FFC2A7"/>
<path d="M365.4 148C364.8 148 364.3 147.6 364.2 147.1C364.2 147 361.7 138.7 356.2 133.7C350.9 128.8 345.9 129 345.8 129C345.1 129 344.5 128.4 344.5 127.7C344.5 127.1 345 126.5 345.6 126.4C345.8 126.4 351.7 126.2 357.9 131.8C364.1 137.4 366.5 146.1 366.6 146.4C366.8 147.1 366.4 147.8 365.7 148C365.6 148 365.5 148 365.4 148Z" fill="#D88260"/>
<path d="M306.9 153.8C306.2 153.8 305.6 153.2 305.6 152.5C305.6 152.1 305.8 151.6 306.2 151.4C306.6 151.1 316.6 144.9 322.7 141.9C326.8 140 331.3 139.3 335.8 140C336.5 140.2 336.9 140.8 336.8 141.5C336.7 142.2 336 142.6 335.3 142.5C331.4 141.9 327.5 142.5 323.9 144.2C318 147.2 307.7 153.5 307.6 153.6C307.3 153.7 307.1 153.8 306.9 153.8Z" fill="#D88260"/>
<path d="M304.5 172.4C303.8 172.4 303.2 171.8 303.2 171.1C303.2 170.6 303.4 170.2 303.8 170C304.2 169.7 314 163.8 322.6 162.8C331.2 161.8 335.8 163.5 336 163.6C336.7 163.9 337 164.6 336.7 165.3C336.4 166 335.7 166.3 335 166C335 166 330.7 164.4 322.9 165.4C315.1 166.4 305.2 172.2 305.1 172.3C305 172.3 304.8 172.4 304.5 172.4Z" fill="#D88260"/>
<path d="M330.3 189.8C330 189.8 329.8 189.7 329.6 189.6C326.1 187.2 319 187.5 318.9 187.5C318.2 187.5 317.6 187 317.5 186.3C317.5 185.6 318 185 318.7 184.9C319 184.9 326.8 184.5 331 187.4C331.6 187.8 331.7 188.6 331.3 189.2C331.2 189.6 330.8 189.8 330.3 189.8Z" fill="#D88260"/>
<path d="M336.5 198.4C335.8 198.4 335.2 197.8 335.2 197.1C335.2 196.4 335.8 195.8 336.5 195.8C339.3 195.7 342.1 195.2 344.7 194.2C350.2 192.2 353.5 188.6 354.5 183.6C354.7 182.9 355.4 182.5 356.1 182.7C356.7 182.9 357.2 183.5 357.1 184.2C354.2 198.2 336.7 198.4 336.5 198.4Z" fill="#D88260"/>
<path d="M344.3 265.9C343.6 265.9 343 265.4 343 264.7L338.7 196.4C338.7 195.7 339.2 195.1 339.9 195C340.6 195 341.2 195.5 341.3 196.2L345.6 264.5C345.6 265.3 345.1 265.9 344.3 265.9Z" fill="#D88260"/>
<path d="M251.7 405.9C251.3 405.9 250.9 405.7 250.7 405.4L205.5 343.2C205.4 343.1 205.4 343 205.3 342.9C201.1 330.3 201.4 319.8 206.4 311.6C213.6 299.7 227.9 297.4 228.5 297.3H228.7H344.9C345.6 297.3 346.2 297.9 346.2 298.6C346.2 299.3 345.6 299.9 344.9 299.9H228.8C227.6 300.1 214.9 302.6 208.6 313C204.1 320.4 203.8 330.1 207.7 341.9L252.8 403.9C253.2 404.5 253.1 405.3 252.5 405.7C252.2 405.8 252 405.9 251.7 405.9Z" fill="white"/>
<path d="M314.2 406.3H220.4C219.7 406.3 219.1 405.7 219.1 405C219.1 404.3 219.7 403.7 220.4 403.7H314.2C314.9 403.7 315.5 404.3 315.5 405C315.5 405.7 315 406.3 314.2 406.3Z" fill="#4F3429"/>
<path d="M212.5 484.8C212.2 484.8 211.9 484.7 211.7 484.5C211.1 484.1 211 483.3 211.5 482.7L233.5 454C233.9 453.4 234.7 453.3 235.3 453.7C235.9 454.1 236 454.9 235.6 455.5L235.5 455.6L213.5 484.3C213.3 484.6 212.9 484.7 212.5 484.8Z" fill="white"/>
<path d="M277.3 347.5C276.9 347.5 276.5 347.3 276.2 346.9L258.1 319.2C257.7 318.6 257.9 317.8 258.5 317.4C259.1 317 259.9 317.2 260.3 317.8L278.3 345.5C278.7 346.1 278.5 346.9 278 347.3C277.8 347.4 277.6 347.5 277.3 347.5Z" fill="#4F3429"/>
<path d="M363.7 490.1H24.5002C23.8002 490.1 23.2002 489.5 23.2002 488.8C23.2002 488.1 23.8002 487.5 24.5002 487.5H363.1C371.7 478.7 431.4 418.4 447.8 426.6C450.4 427.9 452.8 430.6 451.2 436.6C454.7 435.5 458.2 434.8 461.8 434.3C475.2 432.7 485.8 436.4 491 444.3C491.4 444.9 491.2 445.7 490.6 446.1C490 446.5 489.2 446.3 488.8 445.7C484.2 438.6 474.4 435.3 462.1 436.8C458 437.3 454 438.2 450.1 439.6L449.9 440.1C444 453.2 423.3 473.1 417.8 470.9C416 470.2 415.7 468.1 416.9 464.6C421.4 452 434.5 442.5 448.1 437.6C449.8 433.2 449.3 430.3 446.6 428.9C433.9 422.5 383 470.6 364.5 489.7C364.4 490 364 490.1 363.7 490.1ZM446.7 441C434.7 445.8 423.4 454.4 419.5 465.5C418.6 467.9 419 468.5 419 468.5C421.7 469.8 439.7 454.2 446.7 441Z" fill="#4F3429"/>
<path d="M123.8 207.1L76.1002 207.3L62.2002 193.5L62.5002 112.6L124.2 112.9L123.8 207.1Z" fill="url(#paint9_linear_2095_352)"/>
<path d="M62.2002 193.5L74.2002 193.3L76.1002 207.3L62.2002 193.5Z" fill="url(#paint10_linear_2095_352)"/>
<path d="M112.3 203.5L64.7004 199.9L51.9004 185L58.6004 104.5L120.2 109.7L112.3 203.5Z" fill="#FEF1E0"/>
<path d="M51.9004 185L63.9004 185.8L64.7004 199.9L51.9004 185Z" fill="#FED490"/>
<path d="M90.1002 112.6C92.5302 112.6 94.5002 110.63 94.5002 108.2C94.5002 105.77 92.5302 103.8 90.1002 103.8C87.6701 103.8 85.7002 105.77 85.7002 108.2C85.7002 110.63 87.6701 112.6 90.1002 112.6Z" fill="#4F3429"/>
<path d="M94.5004 274.2C85.8004 267 80.4004 256.7 79.4004 245.4C79.4004 245.4 133 260.9 185.1 256.2C185.1 256.2 206.3 275.6 226.8 275.6L94.5004 274.2Z" fill="#FEF1E0"/>
<path d="M416 291.7H50.0002C49.3002 291.7 48.7002 291.1 48.7002 290.4V275C48.7002 274.3 49.3002 273.7 50.0002 273.7H416C416.7 273.7 417.3 274.3 417.3 275V290.4C417.3 291.1 416.7 291.7 416 291.7ZM51.2002 289.1H414.7V276.3H51.3002L51.2002 289.1Z" fill="#4F3429"/>
<path d="M398.9 290.1H67.2002V300.6H398.9V290.1Z" fill="#4F3429"/>
<path d="M83.1002 490.1H75.5002C74.8002 490.1 74.2002 489.5 74.2002 488.8C74.2002 488.7 74.2002 488.7 74.2002 488.6L102.1 299.4C102.2 298.8 102.7 298.3 103.4 298.3H122.2C122.9 298.3 123.5 298.9 123.5 299.6C123.5 299.7 123.5 299.8 123.5 299.9L84.4002 489.1C84.3002 489.7 83.7002 490.1 83.1002 490.1ZM77.0002 487.5H82.1002L120.6 300.9H104.5L77.0002 487.5Z" fill="#4F3429"/>
<path d="M394.9 490.1H387.3C386.7 490.1 386.2 489.7 386 489.1L346.9 299.8C346.8 299.4 346.9 299 347.2 298.7C347.4 298.4 347.8 298.2 348.2 298.2H367C367.6 298.2 368.2 298.7 368.3 299.3L396.2 488.5C396.3 489.2 395.8 489.9 395.1 490C395 490.1 394.9 490.1 394.9 490.1ZM388.3 487.5H393.4L365.9 300.9H349.8L388.3 487.5Z" fill="#4F3429"/>
<path d="M361.5 87.2002C351.2 87.9002 343 96.0002 342 106.2C341 96.0002 332.7 88.0002 322.5 87.2002C332.8 86.4002 341 78.4002 342 68.2002C343 78.4002 351.3 86.4002 361.5 87.2002Z" fill="#FED490"/>
<path d="M375.699 61.3001C370.199 61.7001 365.799 66.0001 365.199 71.5001C364.699 66.0001 360.199 61.7001 354.699 61.3001C360.199 60.9001 364.599 56.6001 365.199 51.1001C365.799 56.6001 370.199 60.8001 375.699 61.3001Z" fill="#FED490"/>
<path d="M49.4996 250.4C46.7996 250.6 44.1996 251.8 42.2996 253.7C40.3996 255.5 39.2996 258 38.9996 260.6C38.3996 255.1 34.0996 250.8 28.5996 250.4C34.0996 250 38.4996 245.7 38.9996 240.2C39.4996 245.7 43.9996 250 49.4996 250.4Z" fill="#FED490"/>
<path d="M413.9 131.1C419.699 131.1 424.4 126.399 424.4 120.6C424.4 114.801 419.699 110.1 413.9 110.1C408.101 110.1 403.4 114.801 403.4 120.6C403.4 126.399 408.101 131.1 413.9 131.1Z" fill="#FED490"/>
<path d="M454.9 118.5H373.2V115.6C373.2 110.8 375.5 106.4 379.4 103.7L399.5 89.7C408.6 83.4 420.6 83.5 429.6 89.9L448.8 103.6C452.6 106.3 454.9 110.7 454.9 115.4V118.5Z" fill="url(#paint11_linear_2095_352)"/>
<path d="M413.1 86.9C412.4 86.9 411.8 86.2999 411.8 85.5999V41C411.8 40.3 412.4 39.7 413.1 39.7C413.8 39.7 414.4 40.3 414.4 41V85.5999C414.4 86.3999 413.8 86.9 413.1 86.9Z" fill="#4F3429"/>
<path d="M452.401 111.2H375.401C374.701 111.2 374.101 110.6 374.101 109.9C374.101 109.2 374.701 108.6 375.401 108.6H452.401C453.101 108.6 453.701 109.2 453.701 109.9C453.701 110.6 453.101 111.2 452.401 111.2Z" fill="#4F3429"/>
<defs>
<linearGradient id="paint0_linear_2095_352" x1="-4.07871" y1="282.024" x2="61.1913" y2="409.314" gradientUnits="userSpaceOnUse">
<stop stop-color="#F38374"/>
<stop offset="1" stop-color="#C64234"/>
</linearGradient>
<linearGradient id="paint1_linear_2095_352" x1="6.60446" y1="232.748" x2="44.1145" y2="313.668" gradientUnits="userSpaceOnUse">
<stop stop-color="#0A6B5B"/>
<stop offset="0.78" stop-color="#005146"/>
<stop offset="0.91" stop-color="#005045"/>
</linearGradient>
<linearGradient id="paint2_linear_2095_352" x1="277.763" y1="-5.29725" x2="312.573" y2="56.5928" gradientUnits="userSpaceOnUse">
<stop stop-color="#F38374"/>
<stop offset="1" stop-color="#C64234"/>
</linearGradient>
<linearGradient id="paint3_linear_2095_352" x1="251.645" y1="270.642" x2="271.955" y2="344.512" gradientUnits="userSpaceOnUse">
<stop stop-color="#F38374"/>
<stop offset="1" stop-color="#C64234"/>
</linearGradient>
<linearGradient id="paint4_linear_2095_352" x1="247.423" y1="108.728" x2="302.853" y2="223.338" gradientUnits="userSpaceOnUse">
<stop stop-color="#0A6B5B"/>
<stop offset="0.78" stop-color="#005146"/>
<stop offset="0.91" stop-color="#005045"/>
</linearGradient>
<linearGradient id="paint5_linear_2095_352" x1="200.75" y1="132.02" x2="255.75" y2="245.74" gradientUnits="userSpaceOnUse">
<stop stop-color="#0A6B5B"/>
<stop offset="0.78" stop-color="#005146"/>
<stop offset="0.91" stop-color="#005045"/>
</linearGradient>
<linearGradient id="paint6_linear_2095_352" x1="292.857" y1="86.7515" x2="348.287" y2="201.361" gradientUnits="userSpaceOnUse">
<stop stop-color="#0A6B5B"/>
<stop offset="0.78" stop-color="#005146"/>
<stop offset="0.91" stop-color="#005045"/>
</linearGradient>
<linearGradient id="paint7_linear_2095_352" x1="319.673" y1="60.5569" x2="308.633" y2="119.677" gradientUnits="userSpaceOnUse">
<stop stop-color="#F38374"/>
<stop offset="1" stop-color="#C64234"/>
</linearGradient>
<linearGradient id="paint8_linear_2095_352" x1="282.893" y1="53.7005" x2="271.863" y2="112.81" gradientUnits="userSpaceOnUse">
<stop stop-color="#F38374"/>
<stop offset="1" stop-color="#C64234"/>
</linearGradient>
<linearGradient id="paint9_linear_2095_352" x1="116.873" y1="99.051" x2="75.7318" y2="204.488" gradientUnits="userSpaceOnUse">
<stop stop-color="#F38374"/>
<stop offset="1" stop-color="#C64234"/>
</linearGradient>
<linearGradient id="paint10_linear_2095_352" x1="109.771" y1="96.2717" x2="68.6299" y2="201.709" gradientUnits="userSpaceOnUse">
<stop stop-color="#F38374"/>
<stop offset="1" stop-color="#C64234"/>
</linearGradient>
<linearGradient id="paint11_linear_2095_352" x1="404.067" y1="57.6389" x2="417.917" y2="138.739" gradientUnits="userSpaceOnUse">
<stop stop-color="#F38374"/>
<stop offset="1" stop-color="#C64234"/>
</linearGradient>
</defs>
</svg>
