<svg width="500" height="500" viewBox="0 0 500 500" fill="none" xmlns="http://www.w3.org/2000/svg">
<path d="M142.7 150C132.8 150.7 124.9 158.5 123.9 168.4C122.9 158.5 115 150.8 105.1 150.1C115 149.4 122.9 141.6 123.9 131.7C124.9 141.5 132.8 149.3 142.7 150Z" fill="#FED490"/>
<path d="M112.2 130.1C106.9 130.5 102.7 134.7 102.1 140C101.5 134.7 97.3 130.6 92 130.2C97.3 129.8 101.5 125.7 102.1 120.4C102.7 125.7 106.9 129.8 112.2 130.1Z" fill="#FED490"/>
<path d="M228.3 417.7H27.7996C27.0996 417.7 26.5996 417.1 26.5996 416.5C26.5996 415.9 27.1996 415.3 27.7996 415.3H228.3C229 415.3 229.5 415.9 229.5 416.5C229.5 417.1 229 417.7 228.3 417.7Z" fill="#4F3429"/>
<path d="M448.9 446.7C446.8 446.7 444.7 446.4 442.7 445.8L442.5 445.7L272.5 370.9C271.9 370.6 271.5 369.9 271.8 369.3C272.1 368.7 272.8 368.3 273.4 368.6C273.4 368.6 273.4 368.6 273.5 368.6L443.4 443.4C453.6 446.3 464.3 440.4 467.3 430.2C467.8 428.5 468 426.7 468 424.9V144C468 135.3 462.2 127.7 453.8 125.4L175.6 29.4999C165.3 26.7999 154.7 32.8999 152 43.1999C151.6 44.7999 151.4 46.4999 151.4 48.0999V160.7C151.4 161.4 150.8 161.9 150.2 161.9C149.6 161.9 149 161.3 149 160.7V48.1999C149 36.1999 158.8 26.3999 170.8 26.3999C172.7 26.3999 174.6 26.6999 176.5 27.1999L454.6 123C464 125.6 470.6 134.2 470.6 144V424.9C470.6 436.9 460.9 446.6 448.9 446.7Z" fill="#4F3429"/>
<path d="M243.5 151.9C242.8 151.9 242.3 151.3 242.3 150.7V88.5999C242.3 87.8999 242.9 87.3999 243.5 87.3999C244.1 87.3999 244.7 87.9999 244.7 88.5999V150.7C244.7 151.4 244.2 151.9 243.5 151.9Z" fill="#4F3429"/>
<path d="M384.9 204.7C384.2 204.7 383.6 204.2 383.6 203.5V134.9C383.7 134.2 384.3 133.7 385 133.8C385.6 133.9 386.1 134.3 386.1 134.9V203.5C386.2 204.2 385.6 204.7 384.9 204.7Z" fill="#4F3429"/>
<path d="M382.1 390.8C381.4 390.8 380.9 390.2 380.9 389.6V302.6L353.7 295C353 294.8 352.6 294.1 352.8 293.5C353 292.8 353.7 292.4 354.3 292.6L382.4 300.4C382.9 300.5 383.3 301 383.3 301.6V389.5C383.3 390.2 382.8 390.8 382.1 390.8Z" fill="#4F3429"/>
<path d="M435 223.1C434.9 223.1 434.7 223.1 434.6 223L173.1 126.7C172.5 126.5 172.1 125.7 172.4 125.1C172.6 124.5 173.4 124.1 174 124.4L435.4 220.7C436 220.9 436.4 221.7 436.1 222.3C435.9 222.8 435.5 223.1 435 223.1Z" fill="#4F3429"/>
<path d="M335 140.3C334.3 140.3 333.8 139.8 333.8 139.1L333.7 126.1C333.6 125 332.9 124 331.8 123.5L293.4 108.3C293.2 108.2 292.9 108.2 292.6 108.2C292.5 108.3 292.4 108.5 292.4 108.7V111.6C292.4 112.3 291.8 112.9 291.2 112.9C290.5 112.9 290 112.3 289.9 111.7V108.8C289.9 107.8 290.3 106.8 291.1 106.2C292 105.6 293.2 105.5 294.2 106L332.6 121.2C334.6 122 335.9 123.9 336.1 126.1L336.2 139.2C336.2 139.8 335.7 140.3 335 140.3Z" fill="#4F3429"/>
<path d="M335.9 164.4L288 145.4L287.9 113.6C287.9 111.7 289.4 110.8 291.3 111.5L308.1 118.2C309.2 118.7 310.2 119.5 310.8 120.6L313.8 125.7C314.5 126.8 315.5 127.7 316.7 128.2L332.2 134.3C334.3 135.2 335.7 137.1 335.8 139.4L335.9 164.4Z" fill="#FED490"/>
<path d="M337.1 166.2L286.7 146.2L286.6 113.6C286.6 112.4 287.1 111.3 288.1 110.6C289.2 109.9 290.6 109.8 291.8 110.4L308.6 117.1C310 117.7 311.2 118.7 311.9 120L314.9 125.1C315.4 126 316.2 126.7 317.1 127.1L332.6 133.2C335.1 134.3 336.9 136.7 337 139.4L337.1 166.2ZM289.2 144.5L334.6 162.5L334.5 139.3C334.3 137.6 333.2 136.1 331.6 135.4L316.1 129.3C314.7 128.7 313.4 127.6 312.6 126.3L309.6 121.2C309.1 120.4 308.4 119.7 307.5 119.3L290.7 112.6C290.3 112.4 289.8 112.4 289.4 112.6C289.1 112.9 289 113.2 289 113.6L289.2 144.5Z" fill="#4F3429"/>
<path d="M226.1 101.1C225.4 101.1 224.9 100.5 224.9 99.8999L224.8 86.7999C224.7 85.6999 223.9 84.6999 222.9 84.1999L184.5 68.9999C184.1 68.7999 183.8 68.8999 183.7 68.8999C183.6 68.8999 183.5 69.2999 183.5 69.3999V72.2999C183.5 72.9999 182.9 73.4999 182.3 73.4999C181.6 73.4999 181.1 72.9999 181.1 72.2999V69.3999C181.1 68.3999 181.5 67.3999 182.4 66.7999C183.3 66.1999 184.5 66.0999 185.5 66.5999L223.9 81.7999C225.9 82.5999 227.2 84.4999 227.4 86.6999L227.5 99.7999C227.4 100.5 226.8 101 226.1 101.1Z" fill="#4F3429"/>
<path d="M227 125.1L179.1 106.1L179 74.3C179 72.4 180.5 71.5 182.4 72.2L199.2 78.9C200.3 79.4 201.3 80.2 201.9 81.3L204.9 86.4C205.6 87.5 206.6 88.4 207.8 88.9L223.3 95C225.4 95.9 226.8 97.8 226.9 100.1L227 125.1Z" fill="#FED490"/>
<path d="M228.2 127L177.8 107L177.7 74.3999C177.7 73.1999 178.2 72.0999 179.2 71.3999C180.3 70.6999 181.7 70.5999 182.9 71.1999L199.7 77.7999C201.1 78.3999 202.3 79.3999 203 80.6999L206.1 85.7999C206.6 86.6999 207.4 87.3999 208.3 87.7999L223.8 93.8999C226.3 94.9999 228 97.3999 228.2 100.1V127ZM180.3 105.3L225.7 123.3L225.6 100.1C225.4 98.3999 224.3 96.8999 222.8 96.1999L207.3 90.0999C205.9 89.4999 204.6 88.3999 203.8 87.0999L200.8 81.9999C200.3 81.1999 199.6 80.4999 198.7 80.0999L181.9 73.4999C181.5 73.2999 181 73.2999 180.5 73.4999C180.2 73.6999 180.1 74.0999 180.1 74.3999L180.3 105.3Z" fill="#4F3429"/>
<path d="M451.1 184.8C450.4 184.8 449.9 184.3 449.9 183.6L449.8 170.5C449.7 169.4 449 168.4 447.9 167.9L409.5 152.7C409.2 152.6 409 152.6 408.7 152.7C408.6 152.8 408.5 153.1 408.5 153.2V156C408.5 156.7 407.9 157.2 407.3 157.3C406.6 157.3 406.1 156.7 406.1 156V153.1C406.1 152.1 406.5 151.1 407.4 150.5C408.3 149.9 409.5 149.8 410.5 150.3L448.9 165.5C450.9 166.3 452.2 168.2 452.4 170.4L452.5 183.5C452.4 184.2 451.9 184.8 451.1 184.8C451.2 184.8 451.2 184.8 451.1 184.8Z" fill="#4F3429"/>
<path d="M452 208.9L404.1 189.9L404 158.1C404 156.2 405.5 155.3 407.4 156L424.2 162.6C425.3 163.1 426.3 163.9 426.9 165L429.9 170.1C430.6 171.2 431.6 172.1 432.8 172.6L448.3 178.7C450.4 179.6 451.8 181.5 451.9 183.8L452 208.9Z" fill="#FED490"/>
<path d="M453.2 210.7L402.8 190.7L402.7 158.1C402.7 156.9 403.2 155.8 404.2 155.1C405.3 154.4 406.7 154.3 407.9 154.9L424.7 161.5C426.1 162.1 427.3 163.1 428 164.4L431 169.5C431.5 170.4 432.3 171.1 433.2 171.5L448.7 177.6C451.2 178.7 452.9 181.1 453.1 183.8L453.2 210.7ZM405.3 189L450.7 207L450.6 183.8C450.4 182.1 449.3 180.6 447.8 179.9L432.3 173.8C430.9 173.2 429.6 172.1 428.8 170.8L425.8 165.7C425.3 164.9 424.6 164.2 423.7 163.8L406.9 157.2C406.5 157 406 157 405.5 157.2C405.2 157.4 405.1 157.8 405.1 158.1L405.3 189Z" fill="#4F3429"/>
<path d="M440 277.6C439.3 277.6 438.8 277.1 438.8 276.4L438.7 263.3C438.6 262.2 437.8 261.2 436.8 260.7L398.4 245.5C398.2 245.4 397.9 245.3 397.6 245.4C397.5 245.5 397.4 245.8 397.4 245.9V248.8C397.4 249.5 396.8 250.1 396.2 250.1C395.5 250.1 395 249.5 395 248.9V246C395 245 395.4 244 396.3 243.4C397.2 242.8 398.4 242.7 399.4 243.2L437.8 258.4C439.8 259.2 441.1 261.1 441.3 263.3L441.4 276.4C441.3 277 440.7 277.6 440 277.6Z" fill="#4F3429"/>
<path d="M440.8 301.7L392.9 282.7L392.8 250.9C392.8 249 394.3 248.1 396.2 248.8L413 255.4C414.1 255.9 415.1 256.7 415.7 257.8L418.7 262.9C419.4 264 420.4 264.9 421.6 265.4L437.1 271.5C439.2 272.4 440.6 274.3 440.7 276.6L440.8 301.7Z" fill="#FED490"/>
<path d="M442.1 303.5L391.7 283.5L391.6 250.9C391.6 249.7 392.1 248.6 393.1 247.9C394.2 247.2 395.6 247.1 396.8 247.7L413.6 254.3C415 254.9 416.2 255.9 416.9 257.2L419.9 262.3C420.4 263.2 421.2 263.9 422.1 264.3L437.6 270.4C440.1 271.5 441.8 273.9 442 276.6L442.1 303.5ZM394.1 281.8L439.5 299.8L439.4 276.6C439.2 274.9 438.1 273.4 436.6 272.7L421.1 266.6C419.7 266 418.4 264.9 417.6 263.6L414.6 258.5C414.1 257.7 413.4 257 412.5 256.6L395.7 249.9C395.3 249.7 394.8 249.7 394.3 249.9C394 250.1 393.9 250.5 393.9 250.8L394.1 281.8Z" fill="#4F3429"/>
<path d="M443 380.9C442.3 380.9 441.8 380.3 441.8 379.7L441.7 366.6C441.6 365.5 440.9 364.5 439.8 364L401.4 348.8C401.2 348.7 400.9 348.6 400.6 348.8C400.5 348.9 400.4 349.2 400.4 349.3V352.2C400.4 352.9 399.9 353.4 399.2 353.4C398.5 353.4 398 352.9 397.9 352.2C397.9 352.2 397.9 352.2 397.9 352.1V349.2C397.9 348.2 398.3 347.2 399.2 346.6C400.1 346 401.3 345.9 402.3 346.4L440.7 361.6C442.7 362.4 444 364.3 444.2 366.5L444.3 379.6C444.3 380.3 443.8 380.8 443 380.9C443.1 380.9 443.1 380.9 443 380.9Z" fill="#4F3429"/>
<path d="M443.9 404.9L396 385.9L395.9 354.1C395.9 352.2 397.4 351.3 399.3 352L416 358.7C417.1 359.2 418.1 360 418.7 361.1L421.7 366.2C422.4 367.3 423.4 368.2 424.6 368.7L440.1 374.8C442.2 375.7 443.6 377.6 443.7 379.9L443.9 404.9Z" fill="#FED490"/>
<path d="M445.2 406.8L394.8 386.8L394.6 354.2C394.6 353 395.1 351.9 396.1 351.2C397.2 350.5 398.6 350.4 399.8 351L416.6 357.6C418 358.2 419.2 359.2 419.9 360.5L422.9 365.6C423.4 366.5 424.2 367.2 425.1 367.6L440.6 373.7C443.1 374.8 444.8 377.2 445 379.9L445.2 406.8ZM397.2 385.1L442.6 403.1L442.5 379.9C442.3 378.2 441.2 376.7 439.7 376L424.2 369.9C422.8 369.3 421.5 368.2 420.7 366.9L417.7 361.8C417.2 361 416.5 360.3 415.6 359.9L398.8 353.3C398.4 353.1 397.9 353.1 397.4 353.3C397.1 353.5 397 353.9 397 354.2L397.2 385.1Z" fill="#4F3429"/>
<path d="M353 352.2C352.3 352.2 351.8 351.7 351.8 351L351.7 337.9C351.6 336.8 350.9 335.8 349.8 335.3L311.4 320C311.1 319.9 310.9 319.9 310.6 320C310.5 320.1 310.4 320.4 310.4 320.5V323.4C310.4 324.1 309.8 324.6 309.2 324.7C308.5 324.7 308 324.1 308 323.5V320.6C308 319.6 308.4 318.6 309.3 318C310.2 317.4 311.4 317.3 312.4 317.8L350.8 333C352.8 333.8 354.1 335.7 354.3 337.9L354.4 351C354.3 351.6 353.7 352.2 353 352.2Z" fill="#4F3429"/>
<path d="M353.9 376.2L306 357.2L305.9 325.4C305.9 323.5 307.4 322.6 309.3 323.3L326 330C327.1 330.5 328.1 331.3 328.7 332.4L331.7 337.5C332.4 338.6 333.4 339.5 334.6 340L350.1 346.1C352.2 347 353.6 348.9 353.7 351.2L353.9 376.2Z" fill="#FED490"/>
<path d="M355.1 378.1L304.7 358.1L304.6 325.5C304.6 324.3 305.1 323.2 306.1 322.5C307.2 321.8 308.6 321.7 309.8 322.3L326.6 328.9C328 329.5 329.2 330.5 329.9 331.8L332.9 336.9C333.4 337.8 334.2 338.5 335.1 338.9L350.6 345C353.1 346.1 354.8 348.5 355 351.2L355.1 378.1ZM307.2 356.4L352.6 374.4L352.5 351.2C352.3 349.5 351.2 348 349.7 347.3L334.2 341.2C332.8 340.6 331.5 339.5 330.7 338.2L327.7 333.1C327.2 332.3 326.5 331.6 325.6 331.2L308.8 324.6C308.4 324.4 307.9 324.4 307.4 324.6C307.1 324.8 307 325.2 307 325.6L307.2 356.4Z" fill="#4F3429"/>
<path d="M325.8 317.5C325.6 317.5 325.4 317.5 325.3 317.4L188.9 251C188.5 250.8 188.2 250.3 188.2 249.9V194.7C188.2 194 188.8 193.5 189.4 193.5C190 193.5 190.6 194.1 190.6 194.7V249L324.4 314.2V249.9C324.4 249.2 325 248.7 325.6 248.7C326.2 248.7 326.8 249.3 326.8 249.9V316.3C326.8 316.7 326.6 317.1 326.2 317.4C326.3 317.4 326 317.5 325.8 317.5Z" fill="#4F3429"/>
<path d="M242.4 160.9L191 188.2L325.8 249.9L376.3 212.4L242.4 160.9Z" fill="#4F3429"/>
<path d="M325.8 251.1C325.6 251.1 325.4 251.1 325.3 251L190.5 189.4C190.1 189.2 189.8 188.8 189.8 188.3C189.8 187.8 190 187.4 190.5 187.2L241.8 159.8C242.1 159.6 242.5 159.6 242.8 159.7L376.8 211.3C377.4 211.5 377.8 212.3 377.5 212.9C377.4 213.1 377.3 213.3 377.1 213.5L326.6 250.9C326.3 251 326 251.1 325.8 251.1ZM193.9 188.1L325.7 248.4L373.8 212.8L242.5 162.3L193.9 188.1Z" fill="#4F3429"/>
<path d="M325.8 317.5C325.1 317.5 324.5 317 324.5 316.3C324.5 315.9 324.7 315.6 325 315.3L375.4 273.8V225.3C375.4 224.6 376 224.1 376.6 224.1C377.2 224.1 377.8 224.7 377.8 225.3V274.4C377.8 274.8 377.6 275.2 377.3 275.4L326.5 317.3C326.4 317.4 326.1 317.5 325.8 317.5Z" fill="#4F3429"/>
<path d="M225.3 177.4C215.3 162.6 222.2 138.5 222.2 138.5L361.9 187.7C361.9 187.7 349.1 214.4 349.1 233.4L329.5 245.3C329.5 245.3 242.6 203.2 225.3 177.4Z" fill="url(#paint0_linear_2095_288)"/>
<path d="M215.7 199.3C215.7 199.3 216.5 167.3 193.2 155.9L328 206.7C336.5 215.7 340.5 228.1 338.8 240.3L326 252.1L215.7 199.3Z" fill="white"/>
<path d="M326 253.4C325.8 253.4 325.6 253.4 325.5 253.3L215.2 200.4C214.8 200.2 214.5 199.7 214.5 199.2C214.5 193.4 213.6 187.7 212 182.1C208.5 170 202 161.5 192.7 157C192.1 156.7 191.9 155.9 192.2 155.3C192.5 154.8 193.1 154.5 193.7 154.7L328.5 205.6C328.7 205.7 328.8 205.7 328.9 205.8C337.7 215.1 341.8 227.8 340 240.5C340 240.8 339.8 241.1 339.6 241.3L326.9 253C326.6 253.2 326.3 253.4 326 253.4ZM217 198.5L325.8 250.6L337.6 239.7C339 228.1 335.3 216.4 327.3 207.8L202.3 160.6C215.8 173.3 216.9 194.1 217 198.5Z" fill="#4F3429"/>
<path d="M466.8 473.6C463.8 473.6 460.8 473 458 471.9L275.2 397.2C274.6 396.9 274.3 396.2 274.5 395.6C274.8 395 275.5 394.7 276.1 394.9L459 469.6C469.6 473.9 481.6 468.9 485.9 458.3C486.9 455.8 487.4 453.2 487.4 450.5V192.8C487.4 184.8 482.8 177.6 475.6 174.1L468.8 170.9C468.2 170.6 467.9 169.9 468.2 169.2C468.5 168.6 469.2 168.3 469.9 168.6L476.7 171.8C484.8 175.6 489.9 183.8 490 192.7V450.4C490 463.3 479.6 473.6 466.8 473.6Z" fill="#4F3429"/>
<path d="M46.7998 416.4H202.2L162.2 344C151.4 325.4 85.0998 299.8 64.0998 354.2L46.7998 416.4Z" fill="#4F3429"/>
<path d="M124.6 173.4C124.6 173.4 115.4 195.3 96.7998 193.4C72.2998 190.8 20.1998 194 11.2998 236.6C0.999809 286.5 51.9998 321.9 113.1 293.8C148.4 277.5 180.5 174.7 124.6 173.4Z" fill="url(#paint1_linear_2095_288)"/>
<path d="M120 186.4C119.4 194.1 122 201.7 127.2 207.4C137.6 218.8 155.3 219.6 166.8 209.2C178.2 198.8 179 181.1 168.6 169.6C158.2 158.1 140.5 157.4 129 167.8C123.8 172.7 120.5 179.3 120 186.4Z" fill="#FFC2A7"/>
<path d="M178.699 203.3C177.099 203.3 175.899 201.8 175.099 198.8C174.399 195.9 174.099 192.9 174.199 189.9C174.199 186.9 174.599 183.9 175.499 181.1C176.399 178.2 177.699 176.8 179.299 176.8H179.399C180.999 176.8 182.199 178.3 182.999 181.3C184.399 187.1 184.199 193.2 182.599 199C181.599 201.8 180.299 203.3 178.699 203.3ZM176.599 190C176.499 197 178.099 200.6 178.799 200.8C179.399 200.6 181.199 197.1 181.299 190.1C181.399 183.1 179.799 179.5 179.199 179.3C178.499 179.5 176.699 183 176.599 190Z" fill="#4F3429"/>
<path d="M184.384 201.751C185.116 199.726 182.047 196.759 177.529 195.125C173.01 193.491 168.753 193.808 168.021 195.834C167.288 197.859 170.357 200.826 174.876 202.46C179.394 204.094 183.651 203.777 184.384 201.751Z" fill="#FFC2A7"/>
<path d="M120 186.4C119.4 194.1 122 201.7 127.2 207.4C133.2 205.1 129.1 194.3 129.1 194.3C121.8 193.1 122.9 178 130.7 178C138.5 178 138.4 187 138.4 187C161.2 196.1 173.4 177.9 173.6 177.7C167.6 163.5 151.1 156.8 136.9 162.8C127.4 166.8 120.8 175.9 120 186.4Z" fill="url(#paint2_linear_2095_288)"/>
<path d="M132 189.7L131.6 189.6C131.4 189.5 131.7 189.7 131.5 189.6L131.3 189.5C131.2 189.4 131.1 189.4 131 189.3L130.8 189.1L130.7 189C130.5 188.8 130.3 188.5 130.3 188.1C130.2 187.8 130.2 187.5 130.3 187.2C130.4 186.6 130.8 186.1 131.3 185.8C131.4 185.7 131.5 185.7 131.6 185.7L131.9 185.6H132C132.2 185.6 132.4 185.6 132.6 185.6C132.4 185.6 132.7 185.6 132.7 185.6C132.8 185.6 132.9 185.7 133 185.7C133.7 185.9 134.4 185.5 134.5 184.8C134.5 184.7 134.5 184.6 134.5 184.5C134.6 182.6 133.4 180.9 131.6 180.4C129.8 179.9 128 180.7 127 182.2C126.7 182.8 127 183.6 127.6 183.9C128.2 184.2 128.8 184 129.2 183.5C129.3 183.3 129.4 183.2 129.6 183.1C129.5 183.2 129.8 183 129.8 183C129.8 183 130.2 182.8 130 182.9C130.1 182.8 130.2 182.8 130.4 182.8H130.5H130.9L131.1 182.9C131.3 182.9 131.4 183 131.6 183.1C131.5 183 131.7 183.2 131.7 183.2C131.9 183.4 131.7 183.1 131.8 183.4C131.9 183.5 131.9 183.6 132 183.8C131.9 183.6 132.1 184 132.1 184C132.1 184.1 132.1 184.2 132.1 184.2C132.1 184.1 132.1 184.5 132.1 184.6L133.7 183.4C131.3 182.6 128.7 183.8 127.9 186.2C127.1 188.6 128.3 191.2 130.7 192C131.1 192.1 131.5 192.2 131.9 192.2C132.6 192.2 133.1 191.6 133.1 191C133.2 190.3 132.7 189.7 132 189.7Z" fill="#D88260"/>
<path d="M166.446 195.165C168.361 194.907 169.668 192.878 169.365 190.634C169.062 188.39 167.264 186.78 165.348 187.039C163.433 187.298 162.125 189.326 162.428 191.57C162.731 193.814 164.53 195.424 166.446 195.165Z" fill="white"/>
<path d="M167.258 193.683C168.516 193.513 169.375 192.177 169.176 190.7C168.976 189.222 167.794 188.162 166.535 188.332C165.276 188.502 164.418 189.837 164.617 191.315C164.817 192.793 165.999 193.853 167.258 193.683Z" fill="#005045"/>
<path d="M152.999 210.3C152.799 210.3 152.599 210.2 152.399 210.2C150.399 209.3 148.899 207.5 148.299 205.4C147.299 201.4 150.299 197.3 150.399 197.1C150.899 196.6 151.699 196.6 152.199 197.1C152.599 197.5 152.699 198.1 152.399 198.6C152.399 198.6 149.999 202 150.699 204.9C151.099 206.3 152.099 207.5 153.499 208.1C154.099 208.4 154.399 209.2 153.999 209.8C153.899 210.1 153.499 210.3 152.999 210.3Z" fill="#D88260"/>
<path d="M152.6 199.1C151.9 199.1 151.3 199 150.7 198.7C149.3 198.1 148.3 196.9 147.9 195.5C147.7 194.8 148 194.1 148.7 193.9C149.4 193.7 150.1 194 150.3 194.7C150.5 195.5 151 196.1 151.7 196.4C152.6 196.7 153.5 196.6 154.3 196.2C154.9 195.9 155.7 196.2 156 196.8C156.3 197.4 156 198.2 155.4 198.5C154.5 198.9 153.6 199.1 152.6 199.1Z" fill="#D88260"/>
<path d="M164.899 205.3H164.799C160.299 205.2 156.799 199.1 156.999 191.3C156.999 188 157.799 184.8 159.399 181.8C160.999 179.1 162.999 177.6 165.299 177.6H165.399C167.699 177.6 169.799 179.2 171.199 182.1C172.599 185.1 173.299 188.4 173.199 191.7C172.999 199.3 169.399 205.3 164.899 205.3ZM158.199 191.3H159.499C159.399 198 162.199 202.7 164.899 202.8C167.499 202.8 170.499 198.2 170.699 191.6C170.799 188.7 170.299 185.8 168.999 183.2C167.999 181.3 166.699 180.1 165.299 180.1C163.899 180.1 162.599 181.1 161.499 183.1C160.199 185.7 159.499 188.5 159.499 191.4L158.199 191.3Z" fill="#4F3429"/>
<path d="M164.4 236.2H169.5C169.5 236.2 184.5 236.9 194.4 255.9L213.1 290.9L211.6 262.7L277.7 261.9L281.7 346C280.9 384.1 221.7 431.5 177 374.8L136.3 304.9L164.4 236.2Z" fill="url(#paint3_linear_2095_288)"/>
<path d="M140.799 318.7H112.999C100.999 318.7 90.9994 309.6 89.8994 297.7L96.9994 255.6C96.9994 255.6 98.0994 237.9 120.399 236.2H164.399C164.399 236.2 179.299 240.3 177.499 257.4L162.899 302.6C159.799 312.2 150.899 318.7 140.799 318.7Z" fill="url(#paint4_linear_2095_288)"/>
<path d="M119.7 275.8C114.4 275.8 109.8 275.3 106.5 274.1C102.6 272.7 100.4 270.4 99.9999 267.3C99.2999 262.4 103.2 255.8 111.5 247.6C115.4 243.8 119.6 240.2 123.9 236.9C124.4 236.4 125.2 236.5 125.7 237C126.2 237.5 126.1 238.3 125.6 238.8C125.5 238.9 125.5 238.9 125.4 238.9C118.6 243.9 101.3 258.7 102.5 266.9C102.8 269 104.4 270.6 107.4 271.7C126.6 278.8 193.7 260 194.4 259.8C195.1 259.6 195.8 260 195.9 260.7C196.1 261.4 195.7 262.1 195 262.2C192.7 262.9 146.6 275.8 119.7 275.8Z" fill="#FED490"/>
<path d="M210.8 392.6C208.8 392.6 206.8 391.7 205.4 390.2C203.1 388 202.4 384.6 203.6 381.7C206.1 374.2 217.5 366.2 230.4 362.3C231.3 358.5 231.5 354.6 231 350.8C229.8 344.2 225.6 340.5 218.7 339.7C190.9 336.6 170 361.6 169.8 361.8C169.4 362.3 168.6 362.4 168 362C167.5 361.6 167.4 360.8 167.8 360.2C168 359.9 189.8 333.9 218.9 337.2C226.9 338.1 231.9 342.6 233.3 350.3C233.9 354 233.8 357.8 233.1 361.5C234.8 361.1 236.6 360.7 238.3 360.4C253.5 358 265.9 362.3 273.3 372.4C273.8 372.9 273.7 373.7 273.2 374.2C272.7 374.7 271.9 374.6 271.4 374.1C271.3 374 271.3 374 271.3 373.9C262.1 361.3 246.9 361.6 238.7 362.9C236.6 363.2 234.5 363.7 232.5 364.2C231.7 367.6 230.5 371 229 374.2C225.2 382.4 220.1 388.8 215.2 391.4C213.9 392.1 212.4 392.5 210.8 392.6ZM229.7 365.1C217.5 369.1 207.9 376.6 206 382.5C205.1 384.6 205.6 387 207.3 388.5C209.2 390.4 211.4 390.6 214.2 389.2C221 385.6 226.9 375.1 229.7 365.1Z" fill="#FED490"/>
<path d="M209.9 346.1C214.263 346.1 217.8 342.563 217.8 338.2C217.8 333.837 214.263 330.3 209.9 330.3C205.537 330.3 202 333.837 202 338.2C202 342.563 205.537 346.1 209.9 346.1Z" fill="#FED490"/>
<path d="M145.1 319.6C144.6 319.6 144.2 319.3 144 318.9L130.1 291C130.1 290.9 130 290.9 130 290.8C129.9 290.5 121.4 261.4 143.3 252C143.9 251.7 144.7 252 144.9 252.7C145.2 253.3 144.9 254.1 144.2 254.3C124.9 262.6 131.8 288.3 132.3 290L146.1 317.8C146.4 318.4 146.1 319.2 145.5 319.5C145.4 319.5 145.3 319.6 145.1 319.6Z" fill="#4F3429"/>
<path d="M213.099 317.5C212.399 317.5 211.899 316.9 211.899 316.3V290.9C211.899 290.2 212.499 289.7 213.099 289.7C213.699 289.7 214.299 290.3 214.299 290.9V316.3C214.299 316.9 213.799 317.5 213.099 317.5Z" fill="#4F3429"/>
<path d="M276.4 282H213.8C213.1 282 212.6 281.4 212.6 280.8C212.6 280.2 213.2 279.6 213.8 279.6H276.4C277.1 279.6 277.6 280.2 277.6 280.8C277.6 281.4 277.1 282 276.4 282Z" fill="#4F3429"/>
<path d="M92.5999 416.4H92.3999C91.6999 416.3 91.2999 415.6 91.3999 415L99.2999 364.2L81.4999 355C80.8999 354.7 80.5999 353.9 80.8999 353.3C81.1999 352.7 81.9999 352.4 82.5999 352.8L101.3 362.3C101.8 362.5 102.1 363.1 102 363.6L93.8999 415.3C93.7999 415.9 93.2999 416.4 92.5999 416.4Z" fill="white"/>
<path d="M277.8 261.8C277.8 261.8 276.1 251.6 275 244.6C274 238.4 273.1 228.8 271.9 223.1C270.7 217.4 263 216.5 261 223.1C261 223.1 259.3 229.5 258.1 230.5C256.9 231.5 254.2 222.3 253.7 218.2C253.2 214.1 261.6 205.5 262.5 201.3C263.4 197.1 260.5 192.8 257.3 193.3C257.3 193.3 257.3 186.6 251.7 184.1C248.7 182.5 245 183.2 242.7 185.8L232.3 199.4L228.5 191.1C228.5 191.1 224.9 187.3 220.9 192.6C220.9 192.6 220.3 200.4 219.8 202.9C219.3 205.4 212.7 217.1 211.8 226.1C210.9 235.1 211.5 262.4 211.5 262.4L277.8 261.8Z" fill="#FFC2A7"/>
<path d="M217.1 218C216.9 218 216.7 217.9 216.5 217.8C215.9 217.4 215.7 216.7 216.1 216.1C221 207.7 230.1 199.5 230.5 199.2C231 198.7 231.8 198.8 232.3 199.3C232.8 199.8 232.7 200.6 232.2 201.1C232.1 201.2 223 209.4 218.3 217.4C218 217.8 217.5 218 217.1 218Z" fill="#D88260"/>
<path d="M235.5 224.9H235.3C234.6 224.8 234.1 224.2 234.2 223.5C234.3 223.1 235.6 213.9 238.9 208.6C242.2 203.3 255.9 193 256.5 192.6C257.1 192.2 257.8 192.3 258.3 192.8C258.8 193.3 258.6 194.1 258.1 194.6C258 194.7 244.2 205.1 241.1 209.9C238 214.7 236.8 223.7 236.7 223.8C236.7 224.4 236.1 224.9 235.5 224.9Z" fill="#D88260"/>
<path d="M254.9 242.6C254.2 242.6 253.7 242 253.7 241.3C253.7 240.9 253.9 240.6 254.1 240.4C257.5 237.3 256.9 230.8 256.9 230.7C256.8 230 257.3 229.4 258 229.3C258.7 229.2 259.3 229.7 259.4 230.4C259.4 230.7 260.2 238.2 255.8 242.2C255.5 242.5 255.2 242.6 254.9 242.6Z" fill="#D88260"/>
<defs>
<linearGradient id="paint0_linear_2095_288" x1="316.888" y1="123.809" x2="271.558" y2="213.839" gradientUnits="userSpaceOnUse">
<stop stop-color="#F38374"/>
<stop offset="1" stop-color="#C64234"/>
</linearGradient>
<linearGradient id="paint1_linear_2095_288" x1="109.226" y1="133.582" x2="87.3461" y2="213.802" gradientUnits="userSpaceOnUse">
<stop stop-color="#0A6B5B"/>
<stop offset="0.78" stop-color="#005146"/>
<stop offset="0.91" stop-color="#005045"/>
</linearGradient>
<linearGradient id="paint2_linear_2095_288" x1="156.272" y1="146.415" x2="134.392" y2="226.635" gradientUnits="userSpaceOnUse">
<stop stop-color="#0A6B5B"/>
<stop offset="0.78" stop-color="#005146"/>
<stop offset="0.91" stop-color="#005045"/>
</linearGradient>
<linearGradient id="paint3_linear_2095_288" x1="280.968" y1="225.826" x2="199.828" y2="328.137" gradientUnits="userSpaceOnUse">
<stop stop-color="#F38374"/>
<stop offset="1" stop-color="#C64234"/>
</linearGradient>
<linearGradient id="paint4_linear_2095_288" x1="213.555" y1="172.362" x2="132.415" y2="274.672" gradientUnits="userSpaceOnUse">
<stop stop-color="#F38374"/>
<stop offset="1" stop-color="#C64234"/>
</linearGradient>
</defs>
</svg>
