<svg width="500" height="500" viewBox="0 0 500 500" fill="none" xmlns="http://www.w3.org/2000/svg">
<path d="M298.7 177H293.4V191.7H298.7V177Z" fill="#4F3429"/>
<path d="M307.401 177H302.101V191.7H307.401V177Z" fill="#4F3429"/>
<path d="M316 177H310.7V191.7H316V177Z" fill="#4F3429"/>
<path d="M430.3 177H425V191.7H430.3V177Z" fill="#4F3429"/>
<path d="M438.901 177H433.601V191.7H438.901V177Z" fill="#4F3429"/>
<path d="M447.601 177H442.301V191.7H447.601V177Z" fill="#4F3429"/>
<path d="M298.7 177H293.4V182.6H298.7V177Z" fill="#FED490"/>
<path d="M307.401 177H302.101V182.6H307.401V177Z" fill="#FED490"/>
<path d="M316 177H310.7V182.6H316V177Z" fill="#FED490"/>
<path d="M430.3 177H425V182.6H430.3V177Z" fill="#FED490"/>
<path d="M438.901 177H433.601V182.6H438.901V177Z" fill="#FED490"/>
<path d="M447.601 177H442.301V182.6H447.601V177Z" fill="#FED490"/>
<path d="M456.9 187.9L423.6 197.1H293.3V233.1L284.9 235.4L293.3 244.5H465.2V197.1L456.9 187.9Z" fill="#4F3429"/>
<path d="M456.8 187.9H284.9V235.4H456.8V187.9Z" fill="url(#paint0_linear_2095_2)"/>
<path d="M296.9 203C299.33 203 301.3 201.03 301.3 198.6C301.3 196.17 299.33 194.2 296.9 194.2C294.47 194.2 292.5 196.17 292.5 198.6C292.5 201.03 294.47 203 296.9 203Z" fill="white"/>
<path d="M309.001 203C311.431 203 313.401 201.03 313.401 198.6C313.401 196.17 311.431 194.2 309.001 194.2C306.571 194.2 304.601 196.17 304.601 198.6C304.601 201.03 306.571 203 309.001 203Z" fill="#FED490"/>
<path d="M321.1 203C323.53 203 325.5 201.03 325.5 198.6C325.5 196.17 323.53 194.2 321.1 194.2C318.67 194.2 316.7 196.17 316.7 198.6C316.7 201.03 318.67 203 321.1 203Z" fill="white"/>
<path d="M448.2 201.6H335.7C335.1 201.5 334.7 201 334.7 200.4C334.7 199.9 335.2 199.5 335.7 199.4H448.2C448.8 199.3 449.3 199.8 449.4 200.4C449.5 201 449 201.5 448.4 201.6C448.4 201.7 448.3 201.7 448.2 201.6Z" fill="white"/>
<path d="M448.201 212.5H335.701C335.101 212.5 334.601 212 334.601 211.4C334.601 210.8 335.101 210.3 335.701 210.3H448.201C448.801 210.3 449.301 210.8 449.301 211.4C449.301 212 448.801 212.5 448.201 212.5C448.301 212.5 448.301 212.5 448.201 212.5Z" fill="white"/>
<path d="M448.2 223.4H335.7C335.1 223.3 334.7 222.8 334.7 222.2C334.7 221.7 335.2 221.3 335.7 221.2H448.2C448.8 221.1 449.3 221.6 449.4 222.2C449.5 222.8 449 223.3 448.4 223.4C448.4 223.4 448.3 223.4 448.2 223.4Z" fill="white"/>
<path d="M298.7 240H293.4V254.7H298.7V240Z" fill="#4F3429"/>
<path d="M307.401 240H302.101V254.7H307.401V240Z" fill="#4F3429"/>
<path d="M316 240H310.7V254.7H316V240Z" fill="#4F3429"/>
<path d="M430.3 240H425V254.7H430.3V240Z" fill="#4F3429"/>
<path d="M438.901 240H433.601V254.7H438.901V240Z" fill="#4F3429"/>
<path d="M447.601 240H442.301V254.7H447.601V240Z" fill="#4F3429"/>
<path d="M298.7 240H293.4V245.6H298.7V240Z" fill="#FED490"/>
<path d="M307.401 240H302.101V245.6H307.401V240Z" fill="#FED490"/>
<path d="M316 240H310.7V245.6H316V240Z" fill="#FED490"/>
<path d="M430.3 240H425V245.6H430.3V240Z" fill="#FED490"/>
<path d="M438.901 240H433.601V245.6H438.901V240Z" fill="#FED490"/>
<path d="M447.601 240H442.301V245.6H447.601V240Z" fill="#FED490"/>
<path d="M456.9 250.8L423.6 260H293.3V296L284.9 298.3L293.3 307.5H465.2V260L456.9 250.8Z" fill="#4F3429"/>
<path d="M456.8 250.8H284.9V298.3H456.8V250.8Z" fill="#FED490"/>
<path d="M296.9 266C299.33 266 301.3 264.03 301.3 261.6C301.3 259.17 299.33 257.2 296.9 257.2C294.47 257.2 292.5 259.17 292.5 261.6C292.5 264.03 294.47 266 296.9 266Z" fill="white"/>
<path d="M309.001 266C311.431 266 313.401 264.03 313.401 261.6C313.401 259.17 311.431 257.2 309.001 257.2C306.571 257.2 304.601 259.17 304.601 261.6C304.601 264.03 306.571 266 309.001 266Z" fill="url(#paint1_linear_2095_2)"/>
<path d="M321.1 266C323.53 266 325.5 264.03 325.5 261.6C325.5 259.17 323.53 257.2 321.1 257.2C318.67 257.2 316.7 259.17 316.7 261.6C316.7 264.03 318.67 266 321.1 266Z" fill="white"/>
<path d="M448.2 264.6H335.7C335.1 264.5 334.7 264 334.7 263.4C334.7 262.9 335.2 262.5 335.7 262.4H448.2C448.8 262.3 449.3 262.8 449.4 263.4C449.5 264 449 264.5 448.4 264.6C448.4 264.6 448.3 264.6 448.2 264.6Z" fill="white"/>
<path d="M448.2 275.5H335.7C335.1 275.4 334.7 274.9 334.7 274.3C334.7 273.8 335.2 273.4 335.7 273.3H448.2C448.8 273.2 449.3 273.7 449.4 274.3C449.5 274.9 449 275.4 448.4 275.5C448.4 275.5 448.3 275.5 448.2 275.5Z" fill="white"/>
<path d="M448.201 286.3H335.701C335.101 286.3 334.601 285.8 334.601 285.2C334.601 284.6 335.101 284.1 335.701 284.1H448.201C448.801 284.1 449.301 284.6 449.301 285.2C449.301 285.8 448.801 286.3 448.201 286.3Z" fill="white"/>
<path d="M298.7 302.9H293.4V317.6H298.7V302.9Z" fill="#4F3429"/>
<path d="M307.401 302.9H302.101V317.6H307.401V302.9Z" fill="#4F3429"/>
<path d="M316 302.9H310.7V317.6H316V302.9Z" fill="#4F3429"/>
<path d="M430.3 302.9H425V317.6H430.3V302.9Z" fill="#4F3429"/>
<path d="M438.901 302.9H433.601V317.6H438.901V302.9Z" fill="#4F3429"/>
<path d="M447.601 302.9H442.301V317.6H447.601V302.9Z" fill="#4F3429"/>
<path d="M298.7 302.9H293.4V308.5H298.7V302.9Z" fill="#FED490"/>
<path d="M307.401 302.9H302.101V308.5H307.401V302.9Z" fill="#FED490"/>
<path d="M316 302.9H310.7V308.5H316V302.9Z" fill="#FED490"/>
<path d="M430.3 302.9H425V308.5H430.3V302.9Z" fill="#FED490"/>
<path d="M438.901 302.9H433.601V308.5H438.901V302.9Z" fill="#FED490"/>
<path d="M447.601 302.9H442.301V308.5H447.601V302.9Z" fill="#FED490"/>
<path d="M456.9 313.8L423.6 323H293.3V359L284.9 361.3L293.3 370.5H465.2V323L456.9 313.8Z" fill="#4F3429"/>
<path d="M456.8 313.8H284.9V361.3H456.8V313.8Z" fill="url(#paint2_linear_2095_2)"/>
<path d="M296.9 329C299.33 329 301.3 327.03 301.3 324.6C301.3 322.17 299.33 320.2 296.9 320.2C294.47 320.2 292.5 322.17 292.5 324.6C292.5 327.03 294.47 329 296.9 329Z" fill="white"/>
<path d="M309.001 329C311.431 329 313.401 327.03 313.401 324.6C313.401 322.17 311.431 320.2 309.001 320.2C306.571 320.2 304.601 322.17 304.601 324.6C304.601 327.03 306.571 329 309.001 329Z" fill="#FED490"/>
<path d="M321.1 329C323.53 329 325.5 327.03 325.5 324.6C325.5 322.17 323.53 320.2 321.1 320.2C318.67 320.2 316.7 322.17 316.7 324.6C316.7 327.03 318.67 329 321.1 329Z" fill="white"/>
<path d="M448.2 327.6H335.7C335.1 327.5 334.7 327 334.7 326.4C334.7 325.9 335.2 325.5 335.7 325.4H448.2C448.8 325.3 449.3 325.8 449.4 326.4C449.5 327 449 327.5 448.4 327.6C448.4 327.6 448.3 327.6 448.2 327.6Z" fill="white"/>
<path d="M448.2 338.4H335.7C335.1 338.3 334.7 337.8 334.7 337.2C334.7 336.7 335.2 336.3 335.7 336.2H448.2C448.8 336.1 449.3 336.6 449.4 337.2C449.5 337.8 449 338.3 448.4 338.4C448.4 338.4 448.3 338.4 448.2 338.4Z" fill="white"/>
<path d="M448.2 349.3H335.7C335.1 349.2 334.7 348.7 334.7 348.1C334.7 347.6 335.2 347.2 335.7 347.1H448.2C448.8 347 449.3 347.5 449.4 348.1C449.5 348.7 449 349.2 448.4 349.3C448.4 349.3 448.3 349.3 448.2 349.3Z" fill="white"/>
<path d="M164.6 341.1L232.1 353.9V378.1L156.8 383.8L164.6 341.1Z" fill="url(#paint3_linear_2095_2)"/>
<path d="M228.499 316.7L262.099 318.7L250.799 281.8C248.599 274.6 242.199 269.5 234.599 269C230.999 268.8 227.299 269 223.699 269.5L228.499 316.7Z" fill="url(#paint4_linear_2095_2)"/>
<path d="M176.399 336.2L214.699 334.3C220.799 334 225.899 329.6 227.199 323.7L235.299 285.7C235.299 285.7 238.999 269.3 221.599 269.3L175.699 269.9C175.699 269.9 160.599 271.5 160.499 289.3C160.399 298.8 159.699 306.1 159.399 324.6C159.299 331.9 169.099 336.6 176.399 336.2Z" fill="url(#paint5_linear_2095_2)"/>
<path d="M160.4 314.8L148.8 312.9L156.9 282.3C156.9 282.3 163 270.7 175.5 270L160.4 314.8Z" fill="url(#paint6_linear_2095_2)"/>
<path d="M214.6 225.8C214.6 225.8 232 216.4 217.5 209.4C196.8 199.3 200.4 212.1 200.4 212.1C200.4 212.1 196.1 213.5 189.2 215.9C175.8 220.6 170.1 232.9 176 243.3L214.6 225.8Z" fill="#4F3429"/>
<path d="M176.2 246.2C177.7 252.2 181.6 257.3 187.1 260.3C197.9 266.3 211.5 262.3 217.5 251.5C223.5 240.7 219.5 227.1 208.7 221.1C197.9 215.1 184.3 219.1 178.3 229.9C175.6 234.9 174.8 240.7 176.2 246.2Z" fill="#FFC2A7"/>
<path d="M224.4 244C221.7 244 219.2 238.4 218 234.9C216.8 231.1 215.6 224.5 218.5 223.5C219.8 223.1 221.1 223.9 222.5 226C223.8 228 224.8 230.2 225.5 232.5C226.7 236.3 227.9 242.9 225 243.9C224.8 244 224.6 244 224.4 244ZM220 234.3C221.6 239.3 223.6 241.7 224.3 241.9C224.7 241.4 225 238.3 223.4 233.3C221.8 228.3 219.8 225.9 219.1 225.7C218.7 226.2 218.4 229.3 220 234.3Z" fill="#4F3429"/>
<path d="M228.844 241.26C228.877 239.548 225.815 238.102 222.005 238.029C218.195 237.957 215.08 239.286 215.047 240.998C215.015 242.709 218.077 244.156 221.887 244.228C225.697 244.301 228.812 242.972 228.844 241.26Z" fill="#FFC2A7"/>
<path d="M176.2 246.2C177.7 252.2 181.6 257.3 187.1 260.3C191 257 185.2 249.9 185.2 249.9C179.4 250.9 176.3 239.2 182.2 237.1C188.1 235 190.3 241.9 190.3 241.9C191 237.2 191.1 233.8 194.5 231.4C203.5 231.4 214.4 226 214.5 225.8C206.3 216.6 192.2 215.8 182.9 224C176.8 229.5 174.2 238.1 176.2 246.2Z" fill="#4F3429"/>
<path d="M186.199 245.5C186.299 245.5 185.999 245.5 186.199 245.5H185.699C185.899 245.5 185.699 245.5 185.599 245.5C185.499 245.5 185.299 245.4 185.199 245.4C185.399 245.5 185.199 245.4 185.099 245.4L184.899 245.3C184.699 245.2 184.899 245.3 184.799 245.3L184.699 245.2C184.599 245.1 184.599 245 184.599 245.1C184.499 245 184.499 245 184.499 244.9L184.399 244.7L184.299 244.5C184.299 244.5 184.299 244.2 184.299 244.4C184.299 244.2 184.299 244.1 184.299 243.9C184.299 243.7 184.199 244.1 184.299 243.8L184.399 243.6C184.499 243.3 184.299 243.7 184.399 243.5C184.399 243.4 184.499 243.3 184.499 243.3L184.599 243.1C184.499 243.2 184.599 243.1 184.699 243L184.899 242.8C184.999 242.7 184.899 242.8 184.999 242.8C185.099 242.8 185.199 242.6 185.399 242.6C185.299 242.7 185.399 242.6 185.499 242.6L185.699 242.5C185.799 242.5 185.799 242.5 185.699 242.5H185.999C186.599 242.5 187.099 242 186.999 241.4C186.999 241.3 186.999 241.2 186.999 241.2C186.599 239.5 184.799 238.4 183.099 238.8C181.899 239.1 180.899 240.1 180.699 241.3C180.499 241.9 180.899 242.5 181.499 242.6C182.099 242.7 182.699 242.4 182.799 241.8C182.799 241.8 182.899 241.4 182.899 241.6C182.899 241.8 182.999 241.5 182.999 241.4C182.999 241.4 182.999 241.3 183.099 241.3C182.999 241.4 182.999 241.4 183.099 241.3L183.299 241.1C183.199 241.2 183.399 241.1 183.399 241L183.599 240.9C183.399 241 183.699 240.9 183.699 240.9H183.899C183.799 240.9 183.799 240.9 183.899 240.9C183.999 240.9 184.199 240.9 184.099 240.9C183.999 240.9 184.299 241 184.299 241C184.499 241.1 184.199 240.9 184.399 241L184.599 241.2C184.399 241.1 184.699 241.3 184.699 241.3C184.699 241.3 184.899 241.5 184.799 241.4C184.899 241.5 184.899 241.6 184.899 241.6C184.999 241.7 184.999 241.7 184.899 241.6C184.899 241.7 184.899 241.7 184.899 241.8L185.899 240.4C183.799 240.4 182.099 242 182.099 244.1C182.099 246.2 183.699 247.9 185.799 247.9C186.099 247.9 186.499 247.9 186.799 247.8C187.399 247.6 187.699 247.1 187.599 246.5C187.399 245.9 186.799 245.6 186.299 245.7L186.199 245.5Z" fill="#D88260"/>
<path d="M213.629 240.755C215.013 240.066 215.496 238.224 214.708 236.642C213.92 235.061 212.159 234.337 210.775 235.027C209.391 235.716 208.907 237.558 209.695 239.139C210.483 240.721 212.244 241.445 213.629 240.755Z" fill="white"/>
<path d="M214.038 239.569C214.928 239.126 215.23 237.925 214.712 236.887C214.195 235.849 213.055 235.366 212.165 235.81C211.275 236.253 210.973 237.454 211.49 238.492C212.007 239.53 213.148 240.012 214.038 239.569Z" fill="#005045"/>
<path d="M213.8 249.2C212.1 249.1 210.6 248.4 209.4 247.1C207.5 245.2 206.2 242.9 205.4 240.3C203.5 234.3 204.8 228.8 208.3 227.7C210.1 227.1 212.1 227.8 213.9 229.6C217.6 233.5 219.3 238.8 218.5 244.1C218 246.6 216.8 248.3 215 248.9C214.6 249.1 214.2 249.2 213.8 249.2ZM209.5 229.7C209.3 229.7 209.1 229.7 208.9 229.8C206.9 230.4 205.8 234.6 207.5 239.7C208.1 241.9 209.3 243.9 210.9 245.6C212.1 246.8 213.4 247.3 214.4 247C215.4 246.7 216.1 245.5 216.5 243.8C217.1 239.2 215.6 234.6 212.5 231.2C211.7 230.4 210.6 229.9 209.5 229.7Z" fill="#4F3429"/>
<path d="M197.399 251.2C197.099 251.2 196.899 251.1 196.699 250.9C196.299 250.5 196.199 249.8 196.599 249.4C197.999 247.7 201.799 245.3 205.499 248.2C205.999 248.6 205.999 249.2 205.699 249.7C205.399 250.2 204.699 250.2 204.199 249.9C201.199 247.6 198.499 250.5 198.199 250.8C197.999 251.1 197.699 251.2 197.399 251.2Z" fill="#D88260"/>
<path d="M143.3 393.5C144.6 398.6 144.9 403.8 144.2 409C144.2 409 53.1001 441.2 67.6001 417.3C72.0001 411.9 76.0001 405.8 77.4001 392.5C100 392.9 126.6 393.1 143.3 393.5Z" fill="#FFC2A7"/>
<path d="M144 408.6L144.7 443.5L49.0996 442.2L67.7996 416.8C67.7996 416.8 79.1996 427.3 99.7996 420C125.9 410.8 140.2 400.5 144 408.6Z" fill="#4F3429"/>
<path d="M160.199 398.6L168.999 322.8C187.499 246.7 78.3994 227.6 76.8994 310.2L77.2994 394.2L160.199 398.6Z" fill="url(#paint7_linear_2095_2)"/>
<path d="M135.3 383.1C134.7 383.1 134.3 382.6 134.3 382L138.7 259.5C138.7 258.9 139.1 258.4 139.7 258.4C140.3 258.4 140.8 258.8 140.8 259.4C140.8 259.5 140.8 259.5 140.8 259.6L136.4 382.1C136.4 382.7 135.9 383.1 135.3 383.1Z" fill="white"/>
<path d="M146.399 376.8L261.999 344.5C341.499 315.4 375.199 430.2 286.699 441.8L146.199 443.3L146.399 376.8Z" fill="url(#paint8_linear_2095_2)"/>
<path d="M146.099 443.3C140.799 443.5 135.399 443.4 130.199 442.8C130.199 442.8 97.9993 351.7 121.899 366.2C127.299 370.7 133.399 374.6 146.699 376C146.299 398.6 146.499 426.6 146.099 443.3Z" fill="#FFC2A7"/>
<path d="M130.499 442.7L94.8994 442.4L96.8994 347.8L122.299 366.4C122.299 366.4 111.899 377.8 119.099 398.4C128.299 424.5 138.599 438.9 130.499 442.7Z" fill="#4F3429"/>
<path d="M167.4 442.2C166.8 442.2 166.3 441.7 166.3 441.1V373.5C166.3 372.9 166.8 372.4 167.4 372.4C168 372.4 168.5 372.9 168.5 373.5V441.1C168.5 441.7 168 442.2 167.4 442.2Z" fill="white"/>
<path d="M167.8 414.2C167.2 414.1 166.8 413.6 166.8 413C166.8 412.5 167.3 412.1 167.8 412H302.8C308.3 411.8 313.7 410.8 318.9 409.1C329.7 405.5 335.9 399.3 337.4 390.8C337.5 390.2 338 389.8 338.6 389.9C339.2 390 339.6 390.6 339.5 391.1C335.6 413.4 303.1 414.1 302.8 414.1L167.8 414.2Z" fill="white"/>
<path d="M146.6 377.1C146 377.1 145.5 376.6 145.5 376C145.5 375.5 145.8 375.1 146.3 375L226.9 353.9C227.5 353.8 228.1 354.1 228.2 354.7C228.4 355.3 228 355.9 227.4 356L146.8 377.1C146.8 377.1 146.7 377.1 146.6 377.1Z" fill="#4F3429"/>
<path d="M163.5 372.7H163.4C162.8 372.6 162.4 372.1 162.5 371.5L166.2 342.2C166.3 341.6 166.9 341.2 167.5 341.3C168 341.4 168.4 341.9 168.4 342.4L164.6 371.7C164.5 372.3 164 372.7 163.5 372.7Z" fill="#4F3429"/>
<path d="M159.6 352.1L210.6 401C222.2 412.9 288.6 428.6 276 363.5L262.1 318.7L161.9 304.9L159.6 352.1Z" fill="url(#paint9_linear_2095_2)"/>
<path d="M253.299 345.3C240.599 345.3 222.499 342.7 208.099 330.3C198.199 321.9 198.599 313.8 200.699 308.5C195.599 307.9 191.199 306.5 188.599 304C186.499 302.3 185.499 299.6 185.899 297C187.899 284.3 221.999 269 223.399 268.4C223.999 268.2 224.599 268.4 224.799 269C224.999 269.6 224.799 270.2 224.199 270.4C218.199 273.2 212.299 276.3 206.599 279.7C195.199 286.6 188.699 292.8 187.999 297.4C187.699 299.3 188.499 301.2 189.999 302.4C192.399 304.6 196.599 305.9 201.599 306.4C201.799 306 201.999 305.6 202.299 305.2C210.299 292.4 233.399 284.5 246.399 290.2C249.399 291.5 250.899 293.1 250.899 295C250.899 297.4 248.299 299.8 243.199 302.1C233.999 306.2 216.199 309.7 202.899 308.7C199.899 315.5 202.099 322.3 209.499 328.6C233.599 349.2 268.299 341.8 268.599 341.7C269.199 341.6 269.699 342 269.799 342.6C269.899 343.1 269.599 343.6 269.099 343.8C263.899 344.8 258.599 345.3 253.299 345.3ZM203.999 306.7C216.399 307.5 232.899 304.4 242.399 300.2C248.399 297.6 248.799 295.6 248.799 295.1C248.799 294.2 247.599 293.2 245.599 292.3C233.399 287 211.699 294.5 204.199 306.5L203.999 306.7Z" fill="#FED490"/>
<path d="M217.5 313.9H217.3L170.4 307C169.8 306.9 169.5 306.3 169.6 305.7C169.7 305.2 170.2 304.8 170.7 304.9L216.1 311.6L212.5 288.2C212.4 287.6 212.8 287.1 213.4 287C214 286.9 214.5 287.3 214.6 287.9L218.4 312.8C218.5 313.4 218.1 313.9 217.5 314C217.6 313.9 217.6 313.9 217.5 313.9Z" fill="#4F3429"/>
<path d="M238.199 319.2C237.999 319.2 237.799 319.1 237.599 319C237.499 318.9 226.999 312.1 217.699 313.9C217.099 314 216.599 313.6 216.399 313.1C216.299 312.5 216.699 312 217.199 311.8C227.399 309.8 238.299 316.9 238.699 317.3C239.199 317.6 239.299 318.3 238.999 318.8C238.899 319.1 238.599 319.2 238.199 319.2Z" fill="#4F3429"/>
<path d="M167.6 287.9H167.4C166.8 287.8 166.4 287.3 166.5 286.7L168.2 275.5C168.3 274.9 168.8 274.5 169.4 274.6C170 274.7 170.4 275.2 170.3 275.8L168.6 287.1C168.6 287.5 168.2 287.9 167.6 287.9Z" fill="#4F3429"/>
<path d="M154.899 341.5H32.0995L19.9995 273.3C19.2995 269.3 21.8995 265.5 25.8995 264.8C26.2995 264.7 26.7995 264.7 27.1995 264.7H135.099C138.599 264.7 141.699 267.2 142.299 270.7L154.899 341.5Z" fill="#4F3429"/>
<path d="M154.9 342.6H32.1001C31.6001 342.6 31.1001 342.2 31.1001 341.7L19.0001 273.5C18.2001 268.9 21.2001 264.6 25.8001 263.7C26.3001 263.6 26.8001 263.6 27.3001 263.6H135.2C139.3 263.6 142.8 266.5 143.5 270.5L156.1 341.3C156.2 341.9 155.8 342.4 155.2 342.6C155 342.6 154.9 342.6 154.9 342.6ZM33.0001 340.5H153.6L141.2 271C140.7 268 138.1 265.8 135 265.8H27.2001C23.7001 265.8 20.9001 268.6 20.9001 272.1C20.9001 272.4 20.9001 272.8 21.0001 273.1L33.0001 340.5Z" fill="#4F3429"/>
<path d="M146.099 341.5H23.2995L11.1995 273.3C10.4995 269.3 13.1995 265.5 17.0995 264.8C17.4995 264.7 17.9995 264.7 18.3995 264.7H126.299C129.799 264.7 132.899 267.2 133.499 270.7L146.099 341.5Z" fill="white"/>
<path d="M146.1 342.6H23.2997C22.7997 342.6 22.2997 342.2 22.1997 341.7L10.0997 273.5C9.29971 268.9 12.2997 264.6 16.8997 263.7C17.3997 263.6 17.8997 263.6 18.3997 263.6H126.3C130.4 263.6 133.9 266.5 134.6 270.5L147.2 341.3C147.3 341.6 147.2 341.9 147 342.2C146.8 342.5 146.5 342.6 146.1 342.6ZM24.1997 340.5H144.8L132.5 271C132 268 129.4 265.8 126.3 265.8H18.3997C14.8997 265.8 12.0997 268.6 12.0997 272C12.0997 272.4 12.0997 272.8 12.1997 273.1L24.1997 340.5Z" fill="#4F3429"/>
<path d="M70.8001 294.3C76.3001 293.4 81.7001 298 82.8001 304.6C83.9001 311.2 80.3001 317.3 74.8001 318.3C69.3001 319.3 63.9001 314.6 62.8001 308C61.6001 301.4 65.2001 295.3 70.8001 294.3Z" fill="url(#paint10_linear_2095_2)"/>
<path d="M69.7994 290.5C69.7994 290.5 60.6994 279 56.7994 284.6C53.4994 289.2 73.2994 295.5 69.7994 290.5Z" fill="url(#paint11_linear_2095_2)"/>
<path d="M143.7 341.5L133.3 274.8C131.7 265.1 126.7 265.7 126.5 265.7L126.1 263.6C127.7 263.4 129.2 263.9 130.5 264.8C132.9 266.5 134.6 269.8 135.4 274.4L145.8 341.1L143.7 341.5Z" fill="#4F3429"/>
<path d="M161.899 304.9C161.899 304.9 146.099 298.7 140.699 299.5C135.299 300.3 128.199 301 123.399 302.4C118.599 303.8 118.399 310.5 124.199 311.7C124.199 311.7 129.799 312.7 130.799 313.6C131.799 314.5 124.099 317.5 120.599 318.2C117.099 318.9 109.099 312.4 105.499 311.9C101.899 311.4 98.2994 314.2 99.0994 316.9C99.0994 316.9 93.3994 317.4 91.5994 322.3C90.4994 325 91.2994 328.1 93.6994 329.9L106.099 337.8L99.2994 341.6C94.7994 344 96.0994 348.4 101.199 348C101.199 348 107.899 348 110.099 348.2C112.299 348.4 122.799 353.2 130.499 353.4C138.199 353.6 159.599 352.1 159.599 352.1L161.899 304.9Z" fill="#FFC2A7"/>
<path d="M121.999 350.8C121.799 350.8 121.699 350.8 121.499 350.7C113.999 347.1 106.299 340 105.999 339.7C105.599 339.3 105.599 338.6 106.099 338.2C106.499 337.9 107.099 337.8 107.499 338.2C107.599 338.3 115.299 345.4 122.499 348.9C122.999 349.2 123.299 349.8 122.999 350.3C122.799 350.6 122.399 350.8 121.999 350.8Z" fill="#D88260"/>
<path d="M126.5 334.5C126.2 334.5 118.2 334 113.4 331.6C108.6 329.2 98.8001 318.2 98.4001 317.7C98.0001 317.3 98.1001 316.6 98.5001 316.2C98.9001 315.8 99.6001 315.8 100 316.3C100.1 316.4 110 327.4 114.4 329.7C118.8 332 126.5 332.4 126.6 332.4C127.2 332.5 127.6 333 127.5 333.6C127.4 334.1 127 334.5 126.5 334.5Z" fill="#D88260"/>
<path d="M140.2 316.7C139.9 316.7 139.7 316.6 139.5 316.4C136.6 313.7 131.1 314.7 131 314.7C130.4 314.8 129.9 314.4 129.7 313.8C129.6 313.2 130 312.7 130.6 312.5C130.9 312.5 137.2 311.3 140.9 314.7C141.3 315.1 141.4 315.8 141 316.2C140.8 316.5 140.5 316.7 140.2 316.7Z" fill="#D88260"/>
<path d="M451 136.3H325.4H288.9C288.9 104.7 315.6 104.4 315.6 104.4C315.6 104.4 325.4 52.0999 363 56.6999C369.1 57.2999 374.9 59.2999 380.1 62.3999C382.5 63.8999 384.8 65.6999 386.8 67.6999C387.2 68.0999 387.5 68.3999 387.8 68.7999C388.1 69.1999 388.6 69.6999 388.9 70.0999C389.6 70.8999 390.2 71.7999 390.8 72.6999C391.4 73.5999 391.8 74.1999 392.2 74.8999C394.6 79.0999 396.4 83.6999 397.4 88.3999V88.4999C398.4 92.5999 398.8 96.7999 398.8 101.1C400.7 99.3999 402.7 97.7999 404.8 96.2999C407 94.6999 409.3 93.2999 411.7 91.9999C417.4 88.9999 424.5 86.4999 431.4 87.3999C435.3 87.8999 438.9 89.3999 442 91.7999C460.4 106.4 451 136.3 451 136.3Z" fill="#FEF1E0"/>
<path d="M461.1 137.2H279.5C278.9 137.2 278.4 136.7 278.4 136.1C278.4 135.5 278.9 135 279.5 135H461.1C461.7 135 462.2 135.5 462.2 136.1C462.1 136.8 461.7 137.2 461.1 137.2Z" fill="#4F3429"/>
<path d="M350.7 136.2H360.5V154.6H370.8H371.2H371.5H381.8V136.2H391.6L371.2 119.4L350.7 136.2Z" fill="white"/>
<path d="M370.801 155.7H360.501C359.901 155.7 359.401 155.2 359.401 154.6V137.2H350.701C350.101 137.2 349.601 136.7 349.601 136.1C349.601 135.8 349.701 135.5 350.001 135.3L370.501 118.5C370.901 118.2 371.501 118.2 371.901 118.5L392.401 135.3C392.901 135.7 392.901 136.3 392.601 136.8C392.401 137.1 392.101 137.2 391.801 137.2H383.101V154.5C383.101 155.1 382.601 155.6 382.101 155.6L370.801 155.7ZM361.601 153.5H371.501H380.701V136.2C380.701 135.6 381.201 135.1 381.801 135.1H388.601L371.101 120.8L353.701 135.1H360.501C361.101 135.1 361.601 135.6 361.601 136.2V153.5Z" fill="#4F3429"/>
<path d="M405.3 163.6C405 163.6 404.8 163.5 404.6 163.3C402.4 161.4 391.2 151.6 392.3 146.7C392.6 145.5 393.6 144.5 394.8 144.3C402.7 142.1 411.2 149.4 411.6 149.7C412 150.1 412.1 150.8 411.7 151.2C411.3 151.6 410.6 151.7 410.2 151.3C410.1 151.2 402.2 144.4 395.4 146.3C394.5 146.6 394.4 146.9 394.4 147.1C393.8 149.8 400.8 157.2 406 161.6C406.5 162 406.5 162.7 406.1 163.1C405.9 163.4 405.6 163.6 405.3 163.6Z" fill="#4F3429"/>
<path d="M394.7 166.5C394.2 166.5 393.7 166.1 393.6 165.6L392.3 157.8C392.2 157.2 392.6 156.7 393.2 156.6C393.8 156.5 394.3 156.9 394.4 157.5L395.7 165.3C395.8 165.9 395.4 166.4 394.8 166.5H394.7Z" fill="#4F3429"/>
<path d="M345.301 156.6C344.701 156.6 344.201 156.1 344.201 155.5C344.201 155.2 344.301 155 344.501 154.8C346.501 152.6 349.601 148.5 349.401 146.6C349.401 146.4 349.301 146.2 349.101 146.1C347.101 144.7 342.201 146.8 340.701 147.7C340.201 148 339.501 147.8 339.201 147.3C338.901 146.8 339.101 146.1 339.601 145.8C340.301 145.4 346.801 141.8 350.301 144.3C351.001 144.8 351.401 145.5 351.501 146.3C351.901 149.8 346.601 155.6 346.001 156.2C345.901 156.4 345.601 156.6 345.301 156.6Z" fill="#4F3429"/>
<path d="M240.5 177.6H128.8H96.2998C96.2998 149.5 120.1 149.2 120.1 149.2C120.1 149.2 128.8 102.7 162.3 106.8C167.7 107.4 172.9 109.1 177.5 111.9C179.7 113.2 181.7 114.8 183.4 116.7C183.7 117 184 117.4 184.3 117.7C184.6 118 185 118.5 185.3 118.9C185.9 119.7 186.5 120.4 187 121.2C187.5 122 187.9 122.5 188.2 123.2C190.3 126.9 191.9 131 192.8 135.2V135.3C193.7 139 194.1 142.7 194 146.5C195.7 145 197.4 143.5 199.3 142.2C201.3 140.8 203.3 139.5 205.4 138.4C210.5 135.7 216.8 133.5 222.9 134.3C226.3 134.8 229.6 136.1 232.3 138.3C248.8 151 240.5 177.6 240.5 177.6Z" fill="white"/>
<path d="M240.5 178.7H96.3002C95.7002 178.7 95.2002 178.2 95.2002 177.6C95.2002 155.3 110.4 148.7 119.2 148.2C120.6 141.8 130.8 101.9 162.4 105.8C167.9 106.4 173.3 108.2 178 111C180.2 112.4 182.3 114 184.1 115.9C184.4 116.2 184.7 116.6 185 116.9C185.3 117.2 185.7 117.7 186 118.1L186.1 118.2C186.7 118.9 187.3 119.7 187.8 120.5C188.2 121.2 188.7 121.8 189.1 122.5C191.3 126.3 192.9 130.5 193.9 134.8V134.9C194.6 137.9 195 140.9 195.1 144C196 143.2 197.2 142.3 198.7 141.2C200.7 139.8 202.8 138.5 205 137.3C211.6 133.8 217.7 132.4 223.2 133.1C226.8 133.6 230.2 135 233.1 137.3C249.9 150.4 241.8 176.7 241.5 177.9C241.4 178.4 241 178.7 240.5 178.7ZM97.3002 176.5H239.6C240.8 172.1 245.8 150 231.7 139C229.2 137 226.1 135.7 222.9 135.3C217.9 134.6 212.2 136 206 139.2C203.9 140.3 201.9 141.6 200 143C198.2 144.3 196.5 145.7 194.8 147.2C194.4 147.6 193.7 147.6 193.3 147.2C193.1 147 193 146.7 193 146.4C193 142.7 192.6 139.1 191.8 135.5C190.9 131.3 189.4 127.4 187.2 123.7C186.8 123 186.4 122.4 186 121.8C185.5 121 184.9 120.3 184.4 119.6C184.1 119.2 183.8 118.8 183.4 118.4C183 118 182.8 117.8 182.5 117.5C180.8 115.7 178.9 114.2 176.8 112.9C172.3 110.2 167.2 108.5 162 108C129.9 104.1 121.1 149.1 121 149.6C120.9 150.1 120.5 150.4 120 150.5C119.1 150.3 97.9002 150.9 97.3002 176.5Z" fill="#4F3429"/>
<path d="M184.001 186.7H174.201V168.2H163.901H163.501H163.201H152.901V186.7H143.101L163.501 203.4L184.001 186.7Z" fill="url(#paint12_linear_2095_2)"/>
<path d="M181.001 169.3H146.101C145.501 169.2 145.101 168.7 145.101 168.1C145.101 167.6 145.601 167.2 146.101 167.1H181.001C181.601 167.2 182.001 167.7 182.001 168.3C181.901 168.9 181.501 169.3 181.001 169.3Z" fill="#4F3429"/>
<path d="M183.3 197.7C182.7 197.7 182.2 197.2 182.2 196.7C182.2 196.3 182.5 195.9 182.9 195.7L191.6 191.9C192.2 191.7 192.8 191.9 193 192.5C193.2 193.1 193 193.7 192.4 193.9L183.7 197.7C183.6 197.7 183.5 197.7 183.3 197.7Z" fill="#4F3429"/>
<path d="M190.1 203H190L184.5 202.5C183.9 202.4 183.5 201.8 183.6 201.2C183.7 200.7 184.2 200.3 184.7 200.3L190.2 200.9C190.8 200.9 191.2 201.4 191.2 202C191.2 202.6 190.6 203 190.1 203Z" fill="#4F3429"/>
<path d="M143.401 197.5C143.301 197.5 143.301 197.5 143.201 197.5L137.201 196.2C136.601 196.1 136.201 195.5 136.401 194.9C136.501 194.3 137.101 194 137.701 194.1L143.701 195.4C144.301 195.5 144.601 196.1 144.501 196.7C144.401 197.2 143.901 197.6 143.401 197.5Z" fill="#4F3429"/>
<path d="M478.699 160.8C470.199 161.4 463.399 168.1 462.599 176.6C461.699 168.1 454.899 161.5 446.399 160.9C454.899 160.3 461.699 153.6 462.499 145.1C463.399 153.5 470.199 160.2 478.699 160.8Z" fill="#FED490"/>
<path d="M489.999 141.4C485.499 141.7 481.799 145.3 481.399 149.8C480.899 145.3 477.299 141.7 472.699 141.4C477.199 141.1 480.899 137.5 481.399 133C481.799 137.5 485.499 141 489.999 141.4Z" fill="#FED490"/>
<path d="M155.9 218.2C151.4 218.5 147.7 222.1 147.3 226.6C146.8 222.1 143.2 218.5 138.6 218.2C143.1 217.9 146.8 214.3 147.3 209.8C147.7 214.3 151.4 217.9 155.9 218.2Z" fill="#FED490"/>
<defs>
<linearGradient id="paint0_linear_2095_2" x1="229.729" y1="163.015" x2="527.569" y2="265.585" gradientUnits="userSpaceOnUse">
<stop stop-color="#F38374"/>
<stop offset="1" stop-color="#C64234"/>
</linearGradient>
<linearGradient id="paint1_linear_2095_2" x1="291.344" y1="239.587" x2="317.044" y2="271.647" gradientUnits="userSpaceOnUse">
<stop stop-color="#F38374"/>
<stop offset="1" stop-color="#C64234"/>
</linearGradient>
<linearGradient id="paint2_linear_2095_2" x1="229.729" y1="288.925" x2="527.569" y2="391.495" gradientUnits="userSpaceOnUse">
<stop stop-color="#F38374"/>
<stop offset="1" stop-color="#C64234"/>
</linearGradient>
<linearGradient id="paint3_linear_2095_2" x1="40.3969" y1="179.804" x2="171.367" y2="340.544" gradientUnits="userSpaceOnUse">
<stop stop-color="#0A6B5B"/>
<stop offset="0.78" stop-color="#005146"/>
<stop offset="0.91" stop-color="#005045"/>
</linearGradient>
<linearGradient id="paint4_linear_2095_2" x1="261.538" y1="229.453" x2="231.858" y2="332.763" gradientUnits="userSpaceOnUse">
<stop stop-color="#F38374"/>
<stop offset="1" stop-color="#C64234"/>
</linearGradient>
<linearGradient id="paint5_linear_2095_2" x1="218.962" y1="217.228" x2="189.292" y2="320.528" gradientUnits="userSpaceOnUse">
<stop stop-color="#F38374"/>
<stop offset="1" stop-color="#C64234"/>
</linearGradient>
<linearGradient id="paint6_linear_2095_2" x1="185.947" y1="207.736" x2="156.267" y2="311.046" gradientUnits="userSpaceOnUse">
<stop stop-color="#F38374"/>
<stop offset="1" stop-color="#C64234"/>
</linearGradient>
<linearGradient id="paint7_linear_2095_2" x1="6999.2" y1="-4442.21" x2="6933.05" y2="-4396.25" gradientUnits="userSpaceOnUse">
<stop stop-color="#0A6B5B"/>
<stop offset="0.78" stop-color="#005146"/>
<stop offset="0.91" stop-color="#005045"/>
</linearGradient>
<linearGradient id="paint8_linear_2095_2" x1="50.1043" y1="171.89" x2="181.084" y2="332.63" gradientUnits="userSpaceOnUse">
<stop stop-color="#0A6B5B"/>
<stop offset="0.78" stop-color="#005146"/>
<stop offset="0.91" stop-color="#005045"/>
</linearGradient>
<linearGradient id="paint9_linear_2095_2" x1="253.627" y1="227.186" x2="223.957" y2="330.486" gradientUnits="userSpaceOnUse">
<stop stop-color="#F38374"/>
<stop offset="1" stop-color="#C64234"/>
</linearGradient>
<linearGradient id="paint10_linear_2095_2" x1="84.3438" y1="265.784" x2="67.6418" y2="324.394" gradientUnits="userSpaceOnUse">
<stop stop-color="#F38374"/>
<stop offset="1" stop-color="#C64234"/>
</linearGradient>
<linearGradient id="paint11_linear_2095_2" x1="56.9944" y1="266.136" x2="65.0944" y2="294.906" gradientUnits="userSpaceOnUse">
<stop stop-color="#F38374"/>
<stop offset="1" stop-color="#C64234"/>
</linearGradient>
<linearGradient id="paint12_linear_2095_2" x1="135.584" y1="153.867" x2="169.534" y2="188.607" gradientUnits="userSpaceOnUse">
<stop stop-color="#F38374"/>
<stop offset="1" stop-color="#C64234"/>
</linearGradient>
</defs>
</svg>
