<svg width="200" height="200" viewBox="0 0 200 200" fill="none" xmlns="http://www.w3.org/2000/svg">
<path opacity="0.18" d="M68.18 18.56C57.404 24.344 49.56 34.92 46.064 46.636C44 53.568 43.352 60.892 41 67.728C34.288 87.192 14.96 99.852 6.71604 118.716C2.12403 129.216 1.32803 141.464 5.20004 152.24C9.07204 163.016 17.716 172.168 28.492 175.96C35.112 178.296 42.26 178.644 49.26 178.864C62.432 179.284 75.656 179.332 88.592 176.996C94.76 175.888 100.828 174.236 107.048 173.516C119.08 172.12 131.364 174.24 143.328 172.32C151.656 170.968 159.544 167.688 167.088 163.904C172.744 161.068 178.312 157.916 182.984 153.608C195.336 142.28 199.908 123.908 196.592 107.48C193.276 91.052 182.824 76.62 169.72 66.172C163.944 61.592 157.656 57.712 151.604 53.512C143.812 48.096 136.412 42.14 129.452 35.684C112.816 20.268 91.352 6.14005 68.18 18.564V18.56Z" fill="#68E1FD"/>
<path d="M72.688 154.26H118.308L110.232 125.252H79.5L72.688 154.26Z" fill="#68E1FD"/>
<path d="M72.688 154.26H118.308L110.232 125.252H79.5L72.688 154.26Z" fill="url(#paint0_linear_66_883)"/>
<path d="M163.792 47.7399V122.572C163.792 127.092 160.128 130.756 155.608 130.756H37.4281C32.9121 130.756 29.2481 127.1 29.2441 122.584C29.2441 122.584 29.2441 122.576 29.2441 122.572V47.7399C29.2441 43.2199 32.9081 39.5559 37.4281 39.5559H155.628C160.14 39.5639 163.792 43.2279 163.792 47.7399Z" fill="#68E1FD"/>
<path d="M163.792 47.74V113.34H29.2441V47.74C29.2441 43.22 32.9121 39.552 37.4321 39.552H155.632C160.144 39.568 163.792 43.232 163.792 47.74Z" fill="#231F20"/>
<path d="M161.792 49.2999V111.148H31.2842V49.2999C31.3122 44.9439 34.8562 41.4319 39.2122 41.4439H153.856C158.216 41.4239 161.768 44.9399 161.796 49.2999H161.792Z" fill="#F1F1F1"/>
<path opacity="0.18" d="M161.792 49.3V111.148H31.2842V49.3C31.3122 44.944 34.8562 41.432 39.2122 41.444H153.848C158.212 41.42 161.764 44.936 161.792 49.3Z" fill="#68E1FD"/>
<path d="M160.68 81.3H31.272V111.616H160.68V81.3Z" fill="#F1F1F1"/>
<path d="M156.072 71.624H120.188V107.904H156.072V71.624Z" fill="url(#paint1_linear_66_883)"/>
<path d="M161.792 49.3V60.724H31.2842V49.3C31.3122 44.944 34.8562 41.432 39.2122 41.444H153.848C158.212 41.42 161.764 44.936 161.792 49.3Z" fill="#68E1FD"/>
<path d="M161.792 49.3V60.724H31.2842V49.3C31.3122 44.944 34.8562 41.432 39.2122 41.444H153.848C158.212 41.42 161.764 44.936 161.792 49.3Z" fill="url(#paint2_linear_66_883)"/>
<path d="M158.5 69.448H122.616V105.728H158.5V69.448Z" fill="#F1F1F1"/>
<path opacity="0.18" d="M156.628 72.1841H124.492V103.536H156.628V72.1841Z" fill="#68E1FD"/>
<path d="M150.896 81.096C152.502 81.096 153.804 79.794 153.804 78.188C153.804 76.582 152.502 75.28 150.896 75.28C149.29 75.28 147.988 76.582 147.988 78.188C147.988 79.794 149.29 81.096 150.896 81.096Z" fill="#68E1FD"/>
<path d="M124.492 89.7641L132.356 83.9761L142.356 89.7641H144.46L137.212 85.4961L143.132 80.9761L157.404 89.3401V103.532H124.492V89.7641Z" fill="#68E1FD"/>
<path d="M124.492 89.7641L132.356 83.9761L142.356 89.7641H144.46L137.212 85.4961L143.132 80.9761L157.404 89.3401V103.532H124.492V89.7641Z" fill="url(#paint3_linear_66_883)"/>
<path d="M57.792 60.8079C57.792 65.4159 54.056 69.1519 49.448 69.1519C44.84 69.1519 41.104 65.4159 41.104 60.8079C41.104 56.1999 44.84 52.4639 49.448 52.4639C54.044 52.4519 57.78 56.1639 57.792 60.7599C57.792 60.7759 57.792 60.7919 57.792 60.8079Z" fill="#F1F1F1"/>
<path d="M55.4841 66.5719C52.6401 69.5479 48.0481 70.0079 44.6721 67.6479L45.0801 66.1759C45.3681 65.1199 46.3241 64.3839 47.4201 64.3799H48.3601L51.8681 64.4439C52.9201 64.4519 53.9241 64.8839 54.6561 65.6399L55.4841 66.5679V66.5719Z" fill="#68E1FD"/>
<path d="M45.9961 62.9999L52.3161 62.7199C52.3161 62.7199 52.9161 57.3959 50.5721 56.2839C48.4041 55.2439 46.6921 56.1519 46.1881 58.0079C45.6841 59.8639 45.9921 62.9999 45.9921 62.9999H45.9961Z" fill="#C14834"/>
<path d="M48.3599 62.8121V64.4241C48.3439 64.5761 48.3439 64.7321 48.3599 64.8841C48.4999 65.2841 48.7999 65.6041 49.1919 65.7721C49.3359 65.8561 49.4959 65.9081 49.6639 65.9201C49.8359 65.9361 50.0039 65.8721 50.1199 65.7481C50.1999 65.6321 50.2519 65.5001 50.2679 65.3601C50.3879 65.0521 50.4279 64.7161 50.3799 64.3921C50.2839 64.1241 50.2319 63.8281 50.1519 63.5481L49.8719 62.4761L48.3559 62.8161L48.3599 62.8121Z" fill="#FFAA71"/>
<path d="M48.4081 63.3761C48.4081 63.3761 49.0081 64.6201 49.6881 64.4841C50.3681 64.3481 50.1001 63.2881 50.1001 63.2881L48.4041 63.3761H48.4081Z" fill="url(#paint4_linear_66_883)"/>
<path d="M51.076 61.676C50.984 62.144 50.8 62.584 50.536 62.98C50.264 63.384 49.824 63.64 49.34 63.676C49 63.676 48.672 63.572 48.396 63.376C47.332 62.692 46.88 61.348 46.808 60.076C46.672 59.064 46.996 58.044 47.696 57.3C48.752 56.492 50.26 56.68 51.092 57.72C51.8 58.744 51.348 60.592 51.08 61.676H51.076Z" fill="#FFAA71"/>
<path d="M46.816 58.148L46.656 59.944H47.256L47.488 58.82L47.62 59.944H48.728L48.824 58.788L48.98 59.828H50.136V58.744L50.46 59.868H51.536C51.536 59.868 52.172 57.76 50.72 57.02C49.272 56.276 47.276 56.6 46.816 58.144V58.148Z" fill="#C14834"/>
<path d="M63.5199 73.1919H39.1519C38.8051 73.1919 38.5239 73.4731 38.5239 73.8199V73.9119C38.5239 74.2587 38.8051 74.5399 39.1519 74.5399H63.5199C63.8667 74.5399 64.1479 74.2587 64.1479 73.9119V73.8199C64.1479 73.4731 63.8667 73.1919 63.5199 73.1919Z" fill="#68E1FD"/>
<path d="M55.4839 76.4441H39.0399C38.7549 76.4441 38.5239 76.6749 38.5239 76.9601V77.2761C38.5239 77.5609 38.7549 77.7921 39.0399 77.7921H55.4839C55.7691 77.7921 55.9999 77.5609 55.9999 77.2761V76.9601C55.9999 76.6749 55.7691 76.4441 55.4839 76.4441Z" fill="#68E1FD"/>
<path d="M75.484 76.4441H59.54C59.2596 76.4441 59.032 76.6713 59.032 76.9521V77.2841C59.032 77.5645 59.2596 77.7921 59.54 77.7921H75.484C75.7644 77.7921 75.992 77.5645 75.992 77.2841V76.9521C75.992 76.6713 75.7644 76.4441 75.484 76.4441Z" fill="#68E1FD"/>
<path d="M93.964 76.4441H78.02C77.7396 76.4441 77.512 76.6713 77.512 76.9521V77.2841C77.512 77.5645 77.7396 77.7921 78.02 77.7921H93.964C94.2444 77.7921 94.472 77.5645 94.472 77.2841V76.9521C94.472 76.6713 94.2444 76.4441 93.964 76.4441Z" fill="#68E1FD"/>
<path opacity="0.18" d="M104.556 87.584H60.884V93.78H104.556V87.584Z" fill="#68E1FD"/>
<path opacity="0.18" d="M104.556 98.428H60.884V104.624H104.556V98.428Z" fill="#68E1FD"/>
<path d="M187.988 133.48L177.28 155.576C176.24 157.732 174.404 159.404 172.156 160.232C161.64 164.084 129.656 173.72 101.82 160.628C99.5921 159.572 97.8841 157.664 97.076 155.336L72.8 86.072C78.104 82.668 83.848 79.832 87.7 74.9C92.248 69.076 93.3561 61.312 96.7401 54.728C100.124 48.144 106.072 42.908 112.94 40C114.324 40.724 115.692 41.48 117.044 42.26C121.94 45.096 126.704 49.468 132.168 51.172C138.728 53.18 146.08 52.468 152.788 54.52C159.968 56.716 166.848 60.772 170.992 67.024C180.64 81.528 172.916 101.672 178.88 118.036C180.928 123.624 184.508 128.548 187.984 133.484L187.988 133.48Z" fill="url(#paint5_linear_66_883)"/>
<path d="M141.156 153.344C151.356 154.1 161.412 156.2 171.064 159.584C171.752 159.824 172.572 160.232 172.572 160.964C172.572 161.696 171.82 162.14 171.14 162.38C168.212 163.424 165.032 163.464 161.924 163.488C149.904 163.604 137.62 163.672 126.224 159.844C125.22 159.504 123.988 158.816 124.12 157.744C124.252 156.676 125.548 156.316 126.592 156.176L144.152 153.78" fill="url(#paint6_linear_66_883)"/>
<path d="M133.252 102.024C133.376 102.132 133.532 102.2 133.7 102.208C134.704 102.3 136.348 100.924 136.912 100.476L138.976 98.84C140.296 97.796 141.536 96.088 140.232 94.52C140.192 94.472 140.152 94.424 140.108 94.38C139.98 94.248 139.836 94.132 139.676 94.044C139.336 93.852 138.94 93.772 138.552 93.82C137.66 93.932 136.976 94.672 136.416 95.396C135.336 96.804 134.408 98.312 133.452 99.816C133.224 100.148 133.052 100.52 132.948 100.912C132.84 101.312 132.956 101.736 133.248 102.028L133.252 102.024Z" fill="#B7B1B6"/>
<path d="M133.696 102.208C134.7 102.3 136.344 100.924 136.908 100.476L138.972 98.8399C140.292 97.7959 141.532 96.0879 140.228 94.5199C139.924 94.3799 139.588 94.3239 139.252 94.3639C138.348 94.4759 137.672 95.2159 137.116 95.9399C136.036 97.3519 135.108 98.8559 134.152 100.364C133.92 100.692 133.748 101.064 133.648 101.452C133.588 101.7 133.6 101.964 133.688 102.204L133.696 102.208Z" fill="url(#paint7_linear_66_883)"/>
<path d="M138.804 90.012C138.516 90.28 138.272 90.592 138.076 90.932L137.132 92.44C136.792 92.884 136.58 93.416 136.524 93.976C136.516 94.084 136.548 94.188 136.616 94.272C136.68 94.324 136.756 94.36 136.836 94.372C137.88 94.632 138.952 94.768 140.028 94.772C140.4 94.772 140.772 94.692 141.108 94.532C141.648 94.176 142.028 93.624 142.172 92.992C142.464 92.144 143.3 90.38 142.364 89.676C141.516 89.064 139.56 89.356 138.804 90.012Z" fill="#F1F1F1"/>
<path d="M138.664 90.0121C138.376 90.2801 138.132 90.5921 137.936 90.9321L136.992 92.4401C136.652 92.8841 136.44 93.4161 136.384 93.9761C136.376 94.0841 136.408 94.1881 136.476 94.2721C136.54 94.3241 136.616 94.3601 136.696 94.3721C137.74 94.6321 138.812 94.7681 139.888 94.7721C140.256 94.7961 140.624 94.7321 140.964 94.5921C141.504 94.2361 141.884 93.6841 142.028 93.0521C142.32 92.2041 143.152 90.4401 142.22 89.7361C141.372 89.0641 139.424 89.3561 138.664 90.0121Z" fill="#B7B1B6"/>
<path d="M150.08 80.552C150.104 81.44 149.86 82.316 149.38 83.064C149.256 83.22 149.148 83.388 149.052 83.568C148.912 83.988 148.892 84.436 148.992 84.868C149.148 85.916 149.324 87.032 150.032 87.824C150.076 87.864 150.108 87.916 150.132 87.968C150.176 88.108 150.052 88.248 149.94 88.348C149.584 88.676 149.216 88.992 148.844 89.308C148.464 89.656 148.036 89.948 147.58 90.18C146.92 90.476 146.18 90.528 145.484 90.324C145.384 90.308 145.296 90.248 145.244 90.164C145.22 90.092 145.22 90.016 145.244 89.944C145.432 89.024 145.576 88.096 145.672 87.16C145.7 86.96 145.7 86.76 145.672 86.564C145.628 86.392 145.568 86.224 145.496 86.06C145.324 85.56 145.224 85.04 145.196 84.512C145.084 83.424 145.172 82.32 145.452 81.264C145.732 80.196 146.316 79.236 147.136 78.492C147.708 77.988 148.792 77.436 149.508 78.02C149.716 78.252 149.844 78.54 149.876 78.848C150.008 79.404 150.08 79.972 150.08 80.544V80.552Z" fill="#B7B1B6"/>
<path d="M148.928 81.144C148.952 82.032 148.708 82.908 148.228 83.656C148.104 83.812 147.996 83.98 147.9 84.16C147.76 84.58 147.74 85.028 147.84 85.46C147.996 86.508 148.172 87.624 148.88 88.416C148.924 88.456 148.956 88.508 148.98 88.56C149.024 88.7 148.9 88.84 148.788 88.94C148.116 89.552 147.568 90.596 146.644 89.748C145.96 89.12 145.58 88.176 145.632 87.248C145.652 86.888 145.736 86.536 145.724 86.176C145.712 85.816 145.588 85.436 145.292 85.232C145.136 85.128 144.948 85.08 144.792 84.976C143.844 84.34 144.06 82.752 144.296 81.856C144.576 80.788 145.16 79.828 145.98 79.084C146.552 78.58 147.636 78.028 148.352 78.612C148.56 78.844 148.688 79.132 148.72 79.44C148.852 79.996 148.924 80.564 148.924 81.136L148.928 81.144Z" fill="url(#paint8_linear_66_883)"/>
<path d="M150.728 77.1359C150.712 76.7479 150.592 76.3719 150.388 76.0399L149.772 74.8599C149.628 74.5599 149.452 74.2799 149.24 74.0279C148.856 73.6359 148.364 73.3679 147.824 73.2639C147.008 73.1079 146.176 73.0759 145.352 73.1679C144.908 73.1839 144.472 73.2479 144.04 73.3519C142.8 73.7839 141.828 74.7599 141.404 75.9999C141 77.2279 140.832 78.5199 140.9 79.8119C140.892 80.4559 140.936 81.0999 141.032 81.7399C141.228 82.7479 141.568 83.7239 142.036 84.6359C142.24 85.1039 142.508 85.5399 142.836 85.9319C143.472 86.7639 144.664 86.9199 145.496 86.2839C145.628 86.1839 145.748 86.0639 145.848 85.9319C146.264 85.4519 146.592 84.9039 146.816 84.3079C147.124 83.7119 147.296 83.0559 147.32 82.3839C147.26 82.0039 147.236 81.6159 147.244 81.2279C147.344 80.7799 147.556 80.3679 147.856 80.0239C148.136 79.5839 148.496 79.1999 148.916 78.8879C149.3 78.6479 149.664 78.3719 150 78.0639C150.268 77.7839 150.708 77.6559 150.728 77.1279V77.1359Z" fill="#B7B1B6"/>
<path d="M139.152 104.876C139.04 105.888 139.128 106.912 139.42 107.888C139.452 108.008 139.52 108.116 139.616 108.2C139.76 108.28 139.924 108.312 140.088 108.292C141.172 108.264 142.256 108.32 143.332 108.464C143.968 108.548 144.604 108.664 145.24 108.76C145.632 108.82 146.024 108.872 146.416 108.9C147.668 108.996 148.924 108.888 150.144 108.58C150.276 108.556 150.4 108.504 150.512 108.428C150.652 108.312 150.756 108.16 150.824 107.992L153.336 102.84C153.808 101.916 154.224 100.964 154.576 99.988C154.912 98.996 155.116 97.964 155.18 96.92C155.216 96.304 155.204 95.684 155.14 95.068C155.208 94.516 154.816 94.016 154.264 93.948C154.212 93.94 154.16 93.94 154.104 93.94C153.516 93.88 152.932 93.772 152.356 93.624C151.776 93.472 151.28 93.096 150.98 92.58C150.604 91.852 150.84 90.956 151.176 90.208C151.376 89.688 151.712 89.232 152.144 88.884C152.412 88.7 152.772 88.444 152.648 88.152C152.604 88.068 152.54 88 152.464 87.952C151.42 87.22 150.36 87.664 149.52 88.404C148.544 89.22 147.264 89.584 146.004 89.408C145.284 89.316 145.584 88.62 145.624 88.068C145.036 88.232 144.46 88.428 143.888 88.64C143.344 88.816 142.832 89.084 142.38 89.432C141.996 89.8 141.668 90.228 141.404 90.692C141.116 91.144 140.836 91.596 140.584 92.064C138.476 96.04 139.272 100.56 139.156 104.88L139.152 104.876Z" fill="#B7B1B6"/>
<path d="M145.236 108.744C145.628 108.804 146.02 108.856 146.412 108.884C147.664 108.98 148.92 108.872 150.14 108.564C150.272 108.54 150.396 108.488 150.508 108.412C150.648 108.296 150.752 108.144 150.82 107.976L153.332 102.824C153.804 101.9 154.22 100.948 154.572 99.9719C154.908 98.9839 155.112 97.9599 155.176 96.9199C154.748 96.5999 154.236 96.4079 153.704 96.3679C152.92 96.2879 152.148 96.1199 151.4 95.8639C151.12 95.7639 148.888 94.9439 148.888 94.6279C148.736 95.7039 149.78 96.5279 150.68 97.1399C150.96 97.2919 151.188 97.5239 151.332 97.8079C151.42 98.1079 151.42 98.4239 151.332 98.7199C150.856 100.924 150.26 103.104 149.556 105.248C149.392 105.9 149.08 106.512 148.652 107.032C147.752 107.972 146.312 108.052 145.244 108.744H145.236Z" fill="url(#paint9_linear_66_883)"/>
<path d="M157.04 106.352C157.22 106.836 157.496 107.28 157.848 107.656C158.216 108.036 158.768 108.176 159.268 108.008C159.408 107.944 159.532 107.856 159.636 107.74C159.984 107.236 160.144 106.624 160.092 106.012C160.08 102.884 159.676 99.768 158.896 96.736C158.692 95.936 158.54 94.516 157.74 94.06C157.364 93.956 156.968 93.924 156.58 93.96C155.576 93.996 154.276 94.208 154.244 94.532C153.844 98.608 155.364 102.612 157.036 106.348L157.04 106.352Z" fill="#B7B1B6"/>
<path d="M158.496 106.196C158.672 106.68 158.948 107.124 159.304 107.5C159.404 107.596 159.516 107.676 159.636 107.74C159.984 107.236 160.144 106.624 160.092 106.012C160.08 102.884 159.676 99.768 158.896 96.736C158.692 95.936 158.54 94.516 157.74 94.06C157.364 93.956 156.968 93.924 156.58 93.96C156.076 94.064 155.72 94.2 155.7 94.376C155.292 98.452 156.808 102.456 158.492 106.192L158.496 106.196Z" fill="url(#paint10_linear_66_883)"/>
<path d="M154.012 88.504C154.964 89 155.664 89.876 155.936 90.916C156.284 91.948 156.168 93.08 155.62 94.02C154.796 95.212 153.228 95.636 151.912 95.024C151.692 94.912 151.488 94.772 151.3 94.612C150.112 93.552 149.78 91.832 150.48 90.404C151.224 88.956 152.156 87.648 154.012 88.504Z" fill="#B7B1B6"/>
<path d="M154.1 88.504C155.052 89 155.752 89.876 156.024 90.916C156.372 91.948 156.256 93.08 155.708 94.02C154.884 95.212 153.316 95.636 152 95.024C151.78 94.912 151.576 94.772 151.388 94.612C150.2 93.552 149.868 91.832 150.568 90.404C151.312 88.956 152.244 87.648 154.1 88.504Z" fill="url(#paint11_linear_66_883)"/>
<path d="M154.08 96.036C153.576 95.892 153.164 95.52 152.972 95.032C152.572 94.344 152.264 93.608 152.064 92.836C151.864 92.056 151.992 91.232 152.42 90.552C152.908 89.976 153.536 89.536 154.244 89.272C154.768 88.988 155.34 88.804 155.932 88.728C157.156 88.728 158.256 89.492 158.688 90.636C159.088 91.772 159.088 93.012 158.688 94.152C158.288 95.28 157.82 96.38 157.288 97.452C157.04 98.008 155.964 96.948 155.828 96.844C155.292 96.488 154.704 96.216 154.084 96.036H154.08Z" fill="#B7B1B6"/>
<path d="M157.26 107.152C157.696 107.056 158.148 107.036 158.592 107.096C159.032 107.16 159.428 107.4 159.692 107.76C159.836 107.976 159.912 108.224 159.912 108.484C159.92 108.712 159.824 108.936 159.644 109.08C159.512 109.16 159.364 109.2 159.212 109.196C158.704 109.232 158.2 109.072 157.804 108.748C157.408 108.416 157.236 107.888 157.364 107.388" fill="#B7B1B6"/>
<path d="M123.272 96.6719C123.284 96.7319 123.3 96.7879 123.316 96.8479C123.76 98.0079 124.5 99.0319 125.472 99.8119C126.916 101.14 128.532 102.272 130.272 103.18C131.548 103.848 133.316 104.42 134.38 103.104L134.464 102.992C135.428 101.672 134.136 100.64 133.072 99.9439C130.44 98.2079 127.276 97.5639 124.56 95.9919C124.228 95.7999 123.796 95.5959 123.48 95.8119C123.248 96.0319 123.164 96.3679 123.268 96.6719H123.272Z" fill="#B7B1B6"/>
<path d="M123.272 96.6721C123.284 96.7321 123.3 96.7881 123.316 96.8481C123.76 98.0081 124.5 99.0321 125.472 99.8121C126.916 101.14 128.532 102.272 130.272 103.18C131.548 103.848 133.316 104.42 134.38 103.104C134.44 102.176 133.472 101.432 132.648 100.884C130.02 99.1481 126.856 98.5041 124.112 96.9361C123.868 96.7601 123.576 96.6641 123.272 96.6681V96.6721Z" fill="url(#paint12_linear_66_883)"/>
<path d="M123.532 94.1961C123.376 93.2601 123.076 92.2441 122.26 91.7601C122.168 91.7001 122.036 91.7601 121.992 91.8761C121.96 91.9841 121.972 92.1001 122.024 92.2041C122.14 92.5241 122.344 92.8001 122.48 93.1161C122.644 93.4201 122.652 93.7841 122.504 94.0961C121.38 93.4521 120.536 92.4161 120.132 91.1841C120.096 91.0201 120.024 90.8681 119.928 90.7321C119.824 90.5961 119.644 90.5481 119.488 90.6161C119.6 91.6881 119.876 92.7361 120.308 93.7241L118.6 91.4601C118.62 92.4801 118.928 93.4721 119.492 94.3161C118.96 93.7761 118.472 93.1961 118.036 92.5801C117.836 93.6681 118.6 94.6761 119.316 95.5241C118.928 95.1281 118.48 94.8001 117.984 94.5441C118.876 96.4041 120.932 97.5201 122.856 98.0281C123.708 98.2521 124.524 98.1681 124.316 97.1361C124.112 96.1001 123.688 95.2161 123.528 94.2001L123.532 94.1961Z" fill="#B7B1B6"/>
<path d="M144.876 119.916C145.484 123.8 146.496 127.608 147.888 131.28C148.116 132.06 148.508 132.784 149.036 133.4C149.176 133.544 149.332 133.672 149.504 133.776C150.012 134.124 150.664 134.204 151.24 133.988C152.2 133.568 152.456 132.356 152.552 131.32C152.924 127.396 152.852 123.44 152.336 119.536C152.112 117.864 151.88 114.852 150.444 113.684C149.656 113.152 148.66 113.032 147.768 113.356C147.004 113.556 146.308 113.96 145.76 114.528C144.536 115.94 144.624 118.052 144.876 119.916Z" fill="#B7B1B6"/>
<path d="M144.876 119.916C145.484 123.8 146.496 127.608 147.888 131.28C148.116 132.06 148.508 132.784 149.036 133.4C149.176 133.544 149.332 133.672 149.504 133.776C150.176 133.244 150.384 132.216 150.468 131.32C150.84 127.396 150.768 123.44 150.248 119.536C150.028 117.864 149.796 114.852 148.356 113.684C148.18 113.544 147.98 113.432 147.768 113.356C147.004 113.556 146.308 113.96 145.76 114.528C144.536 115.94 144.624 118.052 144.876 119.916Z" fill="url(#paint13_linear_66_883)"/>
<path d="M150.7 132.296C151.06 132.336 151.404 132.46 151.704 132.656C152.004 132.82 152.264 133.056 152.456 133.34C152.816 133.984 152.692 134.792 152.148 135.3C151.6 135.784 150.832 135.936 150.14 135.696C149.988 135.648 149.844 135.58 149.712 135.484C149.368 135.172 149.168 134.724 149.168 134.26C149.112 133.356 149.64 132.236 150.696 132.296H150.7Z" fill="#B7B1B6"/>
<path d="M149.552 137.352C149.716 141.26 150.952 145.036 152.168 148.748L153.492 152.764C153.636 153.376 153.94 153.94 154.376 154.396C154.8 154.792 155.444 154.844 155.928 154.52C155.976 154.488 156.02 154.448 156.052 154.4C155.6 149.8 155.14 145.192 154.668 140.58C154.604 139.348 154.36 138.132 153.948 136.968C153.496 135.984 152.752 135.168 151.812 134.628C151.068 134.26 150.304 134.348 149.804 135.416C149.564 136.032 149.476 136.692 149.548 137.348L149.552 137.352Z" fill="#B7B1B6"/>
<path d="M150.936 137.352C151.096 141.26 152.332 145.036 153.548 148.748C153.988 150.088 154.432 151.428 154.88 152.764C155.02 153.376 155.324 153.94 155.76 154.396C155.812 154.444 155.868 154.484 155.932 154.52C155.98 154.488 156.024 154.448 156.056 154.4C155.604 149.8 155.144 145.192 154.672 140.58C154.608 139.348 154.364 138.132 153.952 136.968C153.5 135.984 152.756 135.168 151.816 134.628C151.536 134.828 151.32 135.1 151.188 135.416C150.948 136.032 150.864 136.696 150.936 137.348V137.352Z" fill="url(#paint14_linear_66_883)"/>
<path d="M138.012 135.528C138.172 139.436 139.404 143.212 140.624 146.924C141.064 148.264 141.508 149.604 141.956 150.94C142.096 151.552 142.4 152.116 142.836 152.572C142.888 152.62 142.944 152.66 143.008 152.696C143.056 152.664 143.1 152.62 143.132 152.576L141.76 138.736C141.696 137.504 141.452 136.288 141.036 135.124C140.588 134.14 139.84 133.32 138.9 132.784C138.624 132.984 138.408 133.256 138.272 133.572C138.028 134.192 137.94 134.864 138.012 135.524V135.528Z" fill="url(#paint15_linear_66_883)"/>
<path d="M154.072 154.328C154.3 154.096 154.588 153.936 154.904 153.868C155.252 153.856 155.592 153.968 155.868 154.18C156.244 154.364 156.532 154.688 156.676 155.08C156.716 155.32 156.704 155.568 156.644 155.804L156.336 157.552C156.324 157.732 156.252 157.9 156.132 158.028C156.028 158.1 155.912 158.144 155.784 158.16L154.16 158.472C153.412 158.648 152.648 158.732 151.88 158.72C151.62 158.72 151.364 158.648 151.14 158.508C150.94 158.332 150.804 158.096 150.752 157.836C150.672 157.616 150.672 157.372 150.752 157.152C150.976 156.648 151.364 157.016 151.68 156.852C151.916 156.728 152.088 156.196 152.252 155.972C152.792 155.36 153.4 154.812 154.06 154.336L154.072 154.328Z" fill="#F1F1F1"/>
<path d="M141.108 152.496C141.336 152.26 141.628 152.1 141.948 152.028C142.292 152.02 142.632 152.128 142.908 152.34C143.284 152.524 143.572 152.848 143.716 153.24C143.764 153.48 143.764 153.724 143.716 153.964L143.408 155.716C143.396 155.892 143.324 156.06 143.204 156.188C143.1 156.26 142.98 156.304 142.856 156.32L141.232 156.632C140.484 156.808 139.72 156.892 138.952 156.88C138.692 156.88 138.432 156.812 138.212 156.668C138.008 156.496 137.872 156.256 137.824 155.996C137.752 155.772 137.76 155.532 137.848 155.312C138.072 154.808 138.456 155.176 138.776 155.012C139.012 154.888 139.184 154.356 139.348 154.132C139.868 153.524 140.456 152.976 141.1 152.5L141.108 152.496Z" fill="#F1F1F1"/>
<path d="M136.192 130.26C136.228 131.072 136.428 131.864 136.784 132.596C137.168 133.34 137.96 133.776 138.792 133.704C138.896 133.684 138.996 133.656 139.092 133.62C139.924 133.304 140.392 132.316 140.704 131.44C142.036 127.728 142.936 123.876 143.384 119.96C143.58 118.288 144.096 115.308 142.988 113.824C142.752 113.516 142.44 113.28 142.08 113.136C140.82 112.664 139.412 112.8 138.264 113.504C136.704 114.56 136.256 116.628 136.056 118.5C135.696 122.416 135.74 126.356 136.192 130.26Z" fill="#B7B1B6"/>
<path d="M137.836 130.536C137.868 131.348 138.072 132.144 138.428 132.876C138.596 133.164 138.824 133.42 139.092 133.62C139.924 133.304 140.392 132.316 140.704 131.44C142.036 127.728 142.936 123.876 143.384 119.96C143.58 118.288 144.096 115.308 142.988 113.824C142.752 113.516 142.44 113.28 142.08 113.136C141.312 113.152 140.56 113.372 139.904 113.78C138.344 114.84 137.896 116.908 137.688 118.8C137.332 122.708 137.384 126.64 137.832 130.536H137.836Z" fill="url(#paint16_linear_66_883)"/>
<path d="M137.772 130.456C138.132 130.496 138.476 130.62 138.776 130.816C139.076 130.984 139.332 131.216 139.528 131.5C139.884 132.148 139.76 132.952 139.22 133.46C138.672 133.944 137.904 134.096 137.212 133.856C137.056 133.812 136.912 133.74 136.78 133.644C136.436 133.332 136.236 132.884 136.236 132.42C136.184 131.516 136.712 130.396 137.768 130.456H137.772Z" fill="#B7B1B6"/>
<path d="M141.028 135.136C141.444 136.296 141.688 137.512 141.752 138.74L143.116 152.584C142.648 153.036 141.908 153.036 141.44 152.584C141.004 152.132 140.7 151.568 140.556 150.956L139.232 146.94C138.012 143.224 136.776 139.448 136.62 135.54C136.548 134.884 136.64 134.224 136.88 133.612C138.02 131.188 140.444 133.736 141.028 135.132V135.136Z" fill="#B7B1B6"/>
<path d="M138.012 135.528C138.172 139.436 139.404 143.212 140.624 146.924C141.064 148.264 141.508 149.604 141.956 150.94C142.096 151.552 142.4 152.116 142.836 152.572C142.888 152.62 142.944 152.66 143.008 152.696C143.056 152.664 143.1 152.62 143.132 152.576L141.76 138.736C141.696 137.504 141.452 136.288 141.036 135.124C140.588 134.14 139.84 133.32 138.9 132.784C138.624 132.984 138.408 133.256 138.272 133.572C138.028 134.192 137.94 134.864 138.012 135.524V135.528Z" fill="url(#paint17_linear_66_883)"/>
<path d="M153.42 157.416C153.48 157.408 153.54 157.424 153.584 157.46C153.64 157.512 153.636 157.6 153.676 157.664C153.716 157.728 153.88 157.76 154.004 157.744C154.348 157.716 154.688 157.632 155.008 157.496C155.324 157.36 155.568 157.092 155.672 156.764C155.816 156.208 155.432 155.528 155.788 155.076C156.032 154.804 156.448 154.784 156.716 155.028C156.772 155.076 156.816 155.136 156.852 155.2C156.928 155.408 156.948 155.636 156.908 155.852C156.856 156.376 156.788 156.904 156.712 157.432C156.72 157.66 156.54 157.848 156.312 157.856C156.292 157.856 156.272 157.856 156.256 157.856L153.288 158.404C153.056 158.46 152.816 158.472 152.58 158.444C152.212 158.38 151.788 157.908 152.164 157.572C152.4 157.352 153.12 157.412 153.424 157.416H153.42Z" fill="url(#paint18_linear_66_883)"/>
<path d="M140.28 155.616C140.34 155.608 140.4 155.624 140.444 155.66C140.5 155.716 140.496 155.804 140.536 155.864C140.576 155.924 140.748 155.96 140.864 155.944C141.212 155.916 141.548 155.836 141.868 155.696C142.184 155.56 142.428 155.292 142.532 154.964C142.676 154.408 142.292 153.728 142.648 153.276C142.896 153.008 143.316 152.988 143.584 153.236C143.636 153.284 143.676 153.336 143.712 153.396C143.788 153.604 143.808 153.832 143.768 154.048C143.712 154.576 143.652 155.104 143.576 155.628C143.568 155.712 143.544 155.796 143.5 155.868C143.4 155.976 143.26 156.044 143.112 156.052L140.144 156.596C139.916 156.652 139.676 156.668 139.44 156.64C139.068 156.576 138.64 156.096 139.024 155.768C139.256 155.544 139.972 155.604 140.28 155.608V155.616Z" fill="url(#paint19_linear_66_883)"/>
<path d="M149.46 116.124C149.172 116.38 148.848 116.72 148.956 117.092C149.064 117.464 149.512 117.564 149.892 117.596C151.132 117.532 152.332 117.14 153.372 116.468C155.08 115.504 156.652 114.32 158.056 112.952C159.116 111.912 160.232 110.352 159.176 108.9C158.212 107.58 156.832 108.492 155.84 109.288C153.38 111.188 151.792 114 149.456 116.128L149.46 116.124Z" fill="#F1F1F1"/>
<path d="M148.964 117.064C149.068 117.416 149.496 117.536 149.864 117.568C151.104 117.5 152.308 117.112 153.348 116.432C155.056 115.468 156.628 114.284 158.032 112.916C159.088 111.888 160.192 110.34 159.16 108.9V108.876C158.196 107.556 156.82 108.468 155.824 109.264C153.364 111.228 151.776 114.044 149.452 116.144C149.172 116.36 148.844 116.7 148.96 117.068L148.964 117.064Z" fill="#B7B1B6"/>
<path d="M149.864 117.544C151.104 117.476 152.308 117.088 153.348 116.408C155.056 115.444 156.628 114.26 158.032 112.892C159.088 111.864 160.192 110.316 159.16 108.876C158.352 108.7 157.444 109.332 156.728 109.88C154.268 111.848 152.712 114.66 150.352 116.764C150.1 116.956 149.924 117.232 149.86 117.544H149.864Z" fill="url(#paint20_linear_66_883)"/>
<path d="M150.924 112.228C151.012 112.792 150.744 113.356 150.252 113.644C148.564 114.948 146.332 115.652 145.128 117.396C144.916 117.796 144.624 118.148 144.276 118.436C143.864 118.644 143.4 118.732 142.94 118.688C142.448 118.748 141.956 118.608 141.568 118.296C141.424 118.124 141.32 117.928 141.256 117.712C140.32 115.24 139.8 112.628 139.716 109.984C139.716 109.412 139.768 108.728 140.268 108.476C140.548 108.36 140.856 108.328 141.156 108.38L147.912 108.932C148.704 108.996 149.824 108.836 150.356 109.436C150.888 110.032 150.924 111.552 150.924 112.228Z" fill="#B7B1B6"/>
<path d="M146.524 109.596C146.796 109.956 147.08 110.308 147.376 110.652C145.94 111.012 144.984 112.368 144.364 113.716C143.732 115 143.388 116.412 143.36 117.844C143.356 117.932 143.368 118.024 143.404 118.104C143.512 118.272 143.72 118.34 143.908 118.276C144.088 118.204 144.248 118.092 144.38 117.948C145.9 116.524 147.544 115.24 149.292 114.108C149.576 113.944 149.84 113.744 150.076 113.516C150.336 113.232 150.528 112.884 150.628 112.512C150.868 111.688 150.76 110.196 149.916 109.7C149.072 109.204 147.42 109.6 146.528 109.6L146.524 109.596Z" fill="url(#paint21_linear_66_883)"/>
<path d="M147.464 116.032C146.528 115.896 145.456 115.868 144.756 116.488C144.684 116.572 144.692 116.7 144.776 116.772C144.776 116.772 144.784 116.776 144.784 116.78C144.876 116.844 144.988 116.868 145.1 116.856C145.44 116.856 145.772 116.736 146.104 116.7C146.444 116.636 146.796 116.74 147.048 116.976C146.088 117.852 144.832 118.336 143.532 118.336C143.364 118.32 143.192 118.336 143.028 118.392C142.868 118.448 142.764 118.604 142.776 118.772C143.832 119 144.916 119.06 145.988 118.956L143.3 119.876C144.28 120.18 145.328 120.192 146.312 119.912C145.632 120.248 144.928 120.532 144.208 120.76C145.184 121.264 146.376 120.872 147.4 120.448C146.904 120.696 146.452 121.02 146.064 121.412C148.104 121.132 149.8 119.524 150.876 117.852C151.38 117.108 151.524 116.312 150.48 116.184C149.436 116.056 148.476 116.184 147.452 116.028L147.464 116.032Z" fill="#B7B1B6"/>
<path d="M144.284 79.68C144.56 79.62 144.848 79.7 145.056 79.892C145.148 80.068 145.176 80.276 145.128 80.468C145.128 80.692 145.084 80.916 145.048 81.136C145.04 81.18 145.024 81.224 145.004 81.26C144.96 81.304 144.896 81.332 144.832 81.336C143.612 81.576 142.364 81.656 141.12 81.572C141.028 81.572 140.932 81.552 140.852 81.5C140.768 81.408 140.72 81.288 140.72 81.164C140.688 80.716 140.688 80.264 140.72 79.812C140.72 79.496 141 79.628 141.224 79.652C141.56 79.692 141.908 79.696 142.228 79.708C142.916 79.712 143.62 79.708 144.28 79.676L144.284 79.68Z" fill="url(#paint22_linear_66_883)"/>
<defs>
<linearGradient id="paint0_linear_66_883" x1="98.124" y1="118.848" x2="93.22" y2="184.936" gradientUnits="userSpaceOnUse">
<stop stop-color="#231F20"/>
<stop offset="0.08" stop-color="#231F20" stop-opacity="0.69"/>
<stop offset="0.21" stop-color="#231F20" stop-opacity="0.32"/>
<stop offset="1" stop-color="#231F20" stop-opacity="0"/>
</linearGradient>
<linearGradient id="paint1_linear_66_883" x1="252.208" y1="32.9599" x2="3.41605" y2="156.844" gradientUnits="userSpaceOnUse">
<stop stop-color="#231F20"/>
<stop offset="0.13" stop-color="#231F20" stop-opacity="0.69"/>
<stop offset="0.25" stop-color="#231F20" stop-opacity="0.32"/>
<stop offset="1" stop-color="#231F20" stop-opacity="0"/>
</linearGradient>
<linearGradient id="paint2_linear_66_883" x1="98.0081" y1="25.7159" x2="92.9561" y2="126.176" gradientUnits="userSpaceOnUse">
<stop stop-color="#231F20"/>
<stop offset="0.13" stop-color="#231F20" stop-opacity="0.69"/>
<stop offset="0.25" stop-color="#231F20" stop-opacity="0.32"/>
<stop offset="1" stop-color="#231F20" stop-opacity="0"/>
</linearGradient>
<linearGradient id="paint3_linear_66_883" x1="149.704" y1="112.076" x2="124.508" y2="67.0761" gradientUnits="userSpaceOnUse">
<stop stop-color="#231F20"/>
<stop offset="0.08" stop-color="#231F20" stop-opacity="0.69"/>
<stop offset="0.21" stop-color="#231F20" stop-opacity="0.32"/>
<stop offset="1" stop-color="#231F20" stop-opacity="0"/>
</linearGradient>
<linearGradient id="paint4_linear_66_883" x1="48.2041" y1="60.5641" x2="51.5961" y2="69.5001" gradientUnits="userSpaceOnUse">
<stop stop-color="#231F20"/>
<stop offset="0.13" stop-color="#231F20" stop-opacity="0.69"/>
<stop offset="0.25" stop-color="#231F20" stop-opacity="0.32"/>
<stop offset="1" stop-color="#231F20" stop-opacity="0"/>
</linearGradient>
<linearGradient id="paint5_linear_66_883" x1="128.74" y1="160.74" x2="133.04" y2="28.66" gradientUnits="userSpaceOnUse">
<stop stop-color="white"/>
<stop offset="0.13" stop-color="white" stop-opacity="0.69"/>
<stop offset="0.15" stop-color="white" stop-opacity="0.61"/>
<stop offset="0.2" stop-color="white" stop-opacity="0.47"/>
<stop offset="0.25" stop-color="white" stop-opacity="0.34"/>
<stop offset="0.3" stop-color="white" stop-opacity="0.23"/>
<stop offset="0.36" stop-color="white" stop-opacity="0.15"/>
<stop offset="0.44" stop-color="white" stop-opacity="0.08"/>
<stop offset="0.52" stop-color="white" stop-opacity="0.03"/>
<stop offset="0.65" stop-color="white" stop-opacity="0"/>
<stop offset="1" stop-color="white" stop-opacity="0"/>
</linearGradient>
<linearGradient id="paint6_linear_66_883" x1="153.192" y1="141.14" x2="140.94" y2="187.324" gradientUnits="userSpaceOnUse">
<stop stop-color="#231F20"/>
<stop offset="0.13" stop-color="#231F20" stop-opacity="0.69"/>
<stop offset="1" stop-color="#231F20" stop-opacity="0"/>
</linearGradient>
<linearGradient id="paint7_linear_66_883" x1="142.216" y1="99.5439" x2="129.02" y2="96.5279" gradientUnits="userSpaceOnUse">
<stop stop-color="#231F20"/>
<stop offset="0.13" stop-color="#231F20" stop-opacity="0.69"/>
<stop offset="1" stop-color="#231F20" stop-opacity="0"/>
</linearGradient>
<linearGradient id="paint8_linear_66_883" x1="143.184" y1="83.3" x2="153.604" y2="85.512" gradientUnits="userSpaceOnUse">
<stop/>
<stop offset="0.08" stop-opacity="0.69"/>
<stop offset="0.21" stop-opacity="0.32"/>
<stop offset="0.59" stop-opacity="0.13"/>
<stop offset="1" stop-opacity="0"/>
</linearGradient>
<linearGradient id="paint9_linear_66_883" x1="161.696" y1="104.056" x2="134.904" y2="99.7159" gradientUnits="userSpaceOnUse">
<stop stop-color="#231F20"/>
<stop offset="0.13" stop-color="#231F20" stop-opacity="0.69"/>
<stop offset="1" stop-color="#231F20" stop-opacity="0"/>
</linearGradient>
<linearGradient id="paint10_linear_66_883" x1="164.448" y1="95.764" x2="146.728" y2="109.524" gradientUnits="userSpaceOnUse">
<stop stop-color="#231F20"/>
<stop offset="0.13" stop-color="#231F20" stop-opacity="0.69"/>
<stop offset="1" stop-color="#231F20" stop-opacity="0"/>
</linearGradient>
<linearGradient id="paint11_linear_66_883" x1="161.48" y1="96.232" x2="138.94" y2="84.288" gradientUnits="userSpaceOnUse">
<stop stop-color="#231F20"/>
<stop offset="0.13" stop-color="#231F20" stop-opacity="0.69"/>
<stop offset="1" stop-color="#231F20" stop-opacity="0"/>
</linearGradient>
<linearGradient id="paint12_linear_66_883" x1="126.264" y1="107.736" x2="132.2" y2="89.5441" gradientUnits="userSpaceOnUse">
<stop stop-color="#231F20"/>
<stop offset="0.13" stop-color="#231F20" stop-opacity="0.69"/>
<stop offset="1" stop-color="#231F20" stop-opacity="0"/>
</linearGradient>
<linearGradient id="paint13_linear_66_883" x1="157.896" y1="121.532" x2="135.168" y2="126.524" gradientUnits="userSpaceOnUse">
<stop stop-color="#231F20"/>
<stop offset="0.13" stop-color="#231F20" stop-opacity="0.69"/>
<stop offset="1" stop-color="#231F20" stop-opacity="0"/>
</linearGradient>
<linearGradient id="paint14_linear_66_883" x1="165.24" y1="140.656" x2="142.476" y2="148.504" gradientUnits="userSpaceOnUse">
<stop stop-color="#231F20"/>
<stop offset="0.13" stop-color="#231F20" stop-opacity="0.69"/>
<stop offset="1" stop-color="#231F20" stop-opacity="0"/>
</linearGradient>
<linearGradient id="paint15_linear_66_883" x1="152.308" y1="138.828" x2="129.544" y2="146.676" gradientUnits="userSpaceOnUse">
<stop stop-color="#231F20"/>
<stop offset="0.13" stop-color="#231F20" stop-opacity="0.69"/>
<stop offset="1" stop-color="#231F20" stop-opacity="0"/>
</linearGradient>
<linearGradient id="paint16_linear_66_883" x1="153.132" y1="122.24" x2="121.036" y2="125.136" gradientUnits="userSpaceOnUse">
<stop stop-color="#231F20"/>
<stop offset="0.13" stop-color="#231F20" stop-opacity="0.69"/>
<stop offset="1" stop-color="#231F20" stop-opacity="0"/>
</linearGradient>
<linearGradient id="paint17_linear_66_883" x1="152.308" y1="138.828" x2="129.544" y2="146.676" gradientUnits="userSpaceOnUse">
<stop stop-color="#231F20"/>
<stop offset="0.13" stop-color="#231F20" stop-opacity="0.69"/>
<stop offset="1" stop-color="#231F20" stop-opacity="0"/>
</linearGradient>
<linearGradient id="paint18_linear_66_883" x1="160.88" y1="163.776" x2="148.156" y2="149.64" gradientUnits="userSpaceOnUse">
<stop stop-color="#231F20"/>
<stop offset="0.13" stop-color="#231F20" stop-opacity="0.69"/>
<stop offset="1" stop-color="#231F20" stop-opacity="0"/>
</linearGradient>
<linearGradient id="paint19_linear_66_883" x1="147.748" y1="161.976" x2="135.016" y2="147.84" gradientUnits="userSpaceOnUse">
<stop stop-color="#231F20"/>
<stop offset="0.13" stop-color="#231F20" stop-opacity="0.69"/>
<stop offset="1" stop-color="#231F20" stop-opacity="0"/>
</linearGradient>
<linearGradient id="paint20_linear_66_883" x1="160.6" y1="117.44" x2="147.168" y2="108.108" gradientUnits="userSpaceOnUse">
<stop stop-color="#231F20"/>
<stop offset="0.13" stop-color="#231F20" stop-opacity="0.69"/>
<stop offset="1" stop-color="#231F20" stop-opacity="0"/>
</linearGradient>
<linearGradient id="paint21_linear_66_883" x1="166.796" y1="119.86" x2="120.704" y2="106.288" gradientUnits="userSpaceOnUse">
<stop stop-color="#231F20"/>
<stop offset="0.13" stop-color="#231F20" stop-opacity="0.69"/>
<stop offset="1" stop-color="#231F20" stop-opacity="0"/>
</linearGradient>
<linearGradient id="paint22_linear_66_883" x1="147.852" y1="76.92" x2="132.864" y2="87.604" gradientUnits="userSpaceOnUse">
<stop stop-color="#231F20"/>
<stop offset="0.13" stop-color="#231F20" stop-opacity="0.69"/>
<stop offset="1" stop-color="#231F20" stop-opacity="0"/>
</linearGradient>
</defs>
</svg>
