<svg width="200" height="200" viewBox="0 0 200 200" fill="none" xmlns="http://www.w3.org/2000/svg">
<path opacity="0.18" d="M191.772 118.656C191.728 119.28 191.676 119.904 191.612 120.528C190.316 133.552 185.172 146.556 178.1 157.684C177.528 158.584 176.94 159.48 176.336 160.368C172.548 165.948 168.168 171.184 162.972 175.396C161.24 176.8 159.416 178.088 157.496 179.24C146.596 185.768 133.64 187.24 120.788 186.508C116.812 186.284 112.844 185.84 108.952 185.284C107.504 185.076 106.056 184.844 104.608 184.616C98.2719 183.584 91.9479 182.352 85.6119 181.336C81.8119 180.728 78.0079 180.196 74.1959 179.836C70.2999 179.464 66.3919 179.268 62.4759 179.344C61.4839 179.364 60.4919 179.4 59.4999 179.456C56.9919 179.6 54.5559 179.448 52.2199 179.028C39.6079 176.784 29.8999 166.792 27.6319 153.312C27.3639 151.712 27.1999 150.068 27.1479 148.38C26.9759 142.756 28.1519 137.18 29.2279 131.62C30.3399 125.852 31.3439 120.1 30.6279 114.316C29.6079 106.104 25.2599 98.8399 21.6959 91.3119C20.9119 89.6519 20.1639 87.9799 19.4999 86.2799C17.4359 81.0159 16.2879 75.6159 15.9719 70.2399C14.6479 47.9239 27.6319 26.0799 48.8599 16.5319C49.2759 16.3439 49.6919 16.1599 50.1159 15.9839C56.4159 13.3319 63.1399 11.8359 69.8639 10.6079C69.9079 10.5999 69.9479 10.5919 69.9919 10.5839C78.9439 8.95191 88.1399 7.78791 97.1159 9.25191C103.236 10.2519 108.972 12.2759 114.368 15.0319C120.344 18.0839 125.896 22.0359 131.076 26.4879C139.988 34.1479 147.796 43.2919 154.752 51.9079C156.988 54.6759 159.38 57.3319 161.792 59.9399C163.228 61.4919 164.696 63.0319 166.164 64.5759C174.388 73.1959 182.832 81.8799 187.648 92.8999C188.472 94.7839 189.168 96.6999 189.744 98.6399C191.668 105.116 192.252 111.88 191.772 118.656Z" fill="#68E1FD"/>
<path d="M123.844 164.868L120.788 186.504C116.812 186.28 112.844 185.84 108.952 185.28C107.504 185.072 106.056 184.844 104.608 184.612L100.248 162.588L85.6121 175.052V181.332C77.9241 180.1 70.2241 179.188 62.4761 179.344C63.3841 176.592 65.5121 170.072 65.7161 168.844C65.9641 167.364 88.2681 141.936 90.6361 139.232C90.7721 139.08 90.8441 139 90.8441 139C90.8441 139 100.496 138.36 109.924 138.892C118.788 139.388 127.452 140.924 127.7 144.992C128.216 153.388 123.84 164.868 123.84 164.868H123.844Z" fill="#493D46"/>
<path d="M53.3841 64.9239C53.3361 64.4119 53.2921 63.8999 53.2081 63.3919C53.1481 63.0079 53.0601 62.6199 52.8401 62.2999C52.6201 61.9799 52.244 61.7439 51.86 61.7959C51.376 61.8599 51.0561 62.3439 50.9521 62.8199C50.8481 63.2959 50.8961 63.7919 50.8201 64.2719C50.8521 64.0759 50.0801 63.3519 49.9441 63.1919C49.6281 62.8239 49.2961 62.4679 48.9521 62.1239C48.3361 61.5119 47.6601 60.9719 47.0201 60.3879C45.9241 59.3879 44.6801 58.3159 43.1881 57.9919C42.7001 57.8839 42.0641 57.8679 41.6201 58.1359C41.1761 58.4039 41.4441 58.8439 41.8241 59.0559C42.2041 59.2679 42.5881 59.4719 42.9761 59.6719C43.3641 59.8719 43.7201 60.0279 44.0401 60.3039C44.7001 60.8759 45.3641 61.4839 45.7721 62.2679C45.8041 62.3319 45.8361 62.3999 45.8321 62.4719C45.8121 62.7319 45.5281 62.5559 45.4201 62.4799C44.4081 61.7719 43.3081 61.1919 42.1521 60.7519C41.7201 60.5879 40.4881 60.1039 40.2681 60.7599C40.1081 61.2359 40.6041 61.6839 40.9721 61.8959C41.7081 62.3239 42.5241 62.5999 43.2881 62.9759C43.5921 63.1279 43.8921 63.2959 44.1681 63.4959C44.4001 63.6639 44.6561 63.7519 44.8841 63.9239C44.9761 63.9919 45.0721 64.0959 45.0401 64.2039C45.0161 64.2879 44.9241 64.3319 44.8401 64.3479C44.4721 64.4319 44.0321 64.1239 43.6961 63.9919C43.2881 63.8319 42.8761 63.6759 42.4601 63.5399C41.9961 63.3879 41.5281 63.2519 41.0521 63.1439C40.7681 63.0799 40.0241 62.7999 39.8201 63.0879C39.7601 63.1719 39.7401 63.2759 39.7361 63.3799C39.7201 63.9359 40.1 64.1599 40.536 64.3479C41.024 64.5559 41.5081 64.7959 41.9841 65.0279C42.4401 65.2479 42.8881 65.4879 43.3081 65.7679C43.5201 65.9079 43.7121 66.0719 43.9081 66.2279C44.0881 66.3679 44.2081 66.4399 43.9961 66.6359C43.9401 66.6879 43.8841 66.7399 43.8161 66.7719C43.6281 66.8599 43.3481 66.6879 43.1721 66.6239C42.5161 66.3879 41.828 66.2479 41.136 66.1999C40.784 66.1759 39.2401 66.0479 39.1681 66.4719C39.0801 66.9799 39.3321 67.3559 39.7601 67.5879C40.2201 67.8359 40.7441 67.9359 41.2521 68.0519C42.1561 68.2599 43.0441 68.5279 43.9121 68.8599C44.7321 69.1719 45.2521 69.7519 46.0281 70.1559C46.9561 70.6399 47.9481 71.0039 48.8201 71.5799C49.4641 72.0039 50.2401 72.7079 51.0321 72.2999C51.9881 71.8079 52.8201 70.9639 53.4001 70.0679C53.6681 69.6519 53.8961 69.1959 53.9561 68.7039C54.0361 68.0199 53.7881 67.3439 53.6321 66.6719C53.5001 66.0959 53.4361 65.5079 53.3801 64.9199L53.3841 64.9239Z" fill="#FFB8A7"/>
<path d="M106.096 88.3881C106.02 88.644 105.94 88.9001 105.856 89.1521C104.896 91.9881 103.292 94.6001 101.2 96.7281C100.112 97.8321 104.508 101.78 103.016 102.188C101.26 102.668 93.736 99.3281 91.968 98.8961C87.728 97.8641 83.544 96.6 79.436 95.116C75.756 93.788 71.52 93.5041 68.076 91.6641C66.024 90.576 64.332 88.944 62.672 87.336C59.9 84.644 57.124 81.96 54.348 79.268C53.248 78.208 52.116 77.084 51.348 75.792C50.948 75.124 50.636 74.412 50.472 73.636C50.188 72.232 50.512 70.768 51.252 69.548C51.256 69.544 51.256 69.54 51.26 69.536C51.876 68.524 52.764 67.684 53.832 67.192C54.032 67.096 54.24 67.012 54.452 66.944C54.628 66.884 54.812 66.84 55 66.8C57.116 68.748 59.228 70.7 61.34 72.648C63.336 74.488 65.328 76.328 67.32 78.168C71.18 81.684 78.564 80.6961 83.544 81.0961C89.884 81.6081 96.22 82.12 102.56 82.632C103.52 82.708 104.54 82.808 105.308 83.392C106.732 84.484 106.604 86.668 106.096 88.3881Z" fill="#68E2FD"/>
<path d="M106.096 88.3881C106.02 88.6441 105.94 88.9001 105.856 89.1521C102.94 89.4521 99.968 88.9601 97.072 88.4161C93.324 87.7081 89.628 86.7721 85.928 85.8601C84.244 85.4441 82.664 85.0721 80.936 84.9481C79.96 84.8761 76.112 85.1641 75.46 84.5281C71.156 84.2001 67.672 82.2401 64.232 79.7321C61.108 77.4561 57.98 75.1881 54.856 72.9121C53.62 72.0161 52.344 71.0601 51.4 69.8881C51.352 69.7721 51.304 69.6561 51.26 69.5361C51.876 68.5241 52.764 67.6841 53.832 67.1921C54.032 67.0961 54.24 67.0121 54.452 66.9441C54.488 67.3601 54.556 67.7721 54.712 68.1601C55.34 69.7281 57.104 70.4601 58.632 71.1801C59.56 71.6161 60.464 72.1081 61.34 72.6481C63.336 74.4881 65.328 76.3281 67.32 78.1681C71.18 81.6841 78.564 80.6961 83.544 81.0961C89.884 81.6081 96.22 82.1201 102.56 82.6321C103.52 82.7081 104.54 82.8081 105.308 83.3921C106.732 84.4841 106.604 86.6681 106.096 88.3881Z" fill="url(#paint0_linear_65_210)"/>
<path d="M89.156 114.5C88.868 111.08 88.644 107.652 88.544 104.224C88.412 99.7321 87.816 94.2721 89.344 90.0001C90.428 87.1601 92.748 85.7681 95.356 84.1481C97.528 82.6801 99.932 81.5921 102.468 80.9241C104.268 80.5801 106.112 80.5001 107.936 80.6921C113.552 81.1961 121.092 83.3241 125.28 87.3001C128.428 90.2881 129.224 94.9281 129.74 99.2401C130.444 105.192 130.908 111.164 131.132 117.152C131.168 118.02 131.2 118.888 131.212 119.756C131.352 126.34 131.484 133.172 130.244 139.668C129.856 141.708 129.428 143.756 127.704 145C123.644 147.932 116.912 147.2 112.192 147.012C105.924 146.744 99.492 146.448 93.716 143.992C92.524 143.612 91.512 142.812 90.864 141.74C90.252 140.444 90.692 138.936 90.972 137.528C92.224 131.252 90.156 124.98 89.544 118.756C89.404 117.34 89.272 115.92 89.152 114.504L89.156 114.5Z" fill="#68E2FD"/>
<path d="M121.684 101.14C121.108 98.516 120.932 95.764 120.776 93.072C120.812 93.7 118.6 96.028 118.212 96.708C117.38 98.156 116.7 99.696 116.184 101.284C115.324 103.944 114.848 106.968 113.704 109.5C113.332 110.32 112.844 111.108 112.156 111.688C111.124 112.556 109.752 112.868 108.512 113.396C106.052 114.44 104.008 116.432 102.896 118.86C102.308 120.144 101.976 121.536 101.352 122.808C100.668 124.2 99.196 126.064 97.86 126.936C97.184 127.38 90.86 128.2 90.98 127.032C90.772 129.036 91.42 130.916 91.336 132.868C91.248 134.912 91.008 136.96 90.844 139C90.3 145.8 101.56 144.972 105.364 142.416C107.42 141.036 109.072 138.976 111.416 138.18C113.32 137.532 115.396 137.82 117.404 137.904C120.708 138.04 124.036 137.596 127.188 136.596C128.42 136.204 129.716 135.656 130.376 134.544C130.808 133.816 130.904 132.94 130.952 132.096C131.268 126.484 129.676 121.412 127.044 116.532C126.212 114.988 125.584 112.964 125.388 111.216C125.172 109.312 124.608 108.144 123.636 106.436C122.696 104.78 122.088 102.988 121.684 101.132V101.14Z" fill="url(#paint1_linear_65_210)"/>
<path d="M98.368 72.0079C98.444 70.3639 98.604 68.6999 98.832 67.0999C99.032 65.6759 99.3 64.2479 99.628 62.8439C99.84 61.9359 99.968 61.2399 100.788 60.7119C103.032 59.4279 105.596 58.8159 108.176 58.9439C110.124 58.9999 112.204 59.5399 113.448 61.0319C114.292 62.1799 114.764 63.5599 114.8 64.9879C115.076 68.6039 114.024 72.1559 113.384 75.7279C112.888 78.4879 112.648 81.2919 112.672 84.0959C111.288 84.9479 109.716 85.4479 108.096 85.5559C107.34 85.5239 106.596 85.3719 105.888 85.1079C105.488 85.0119 105.14 84.7679 104.916 84.4279C104.816 84.1279 104.796 83.8039 104.864 83.4959C104.904 83.1999 104.964 82.9119 104.972 82.6159C105.14 80.9799 105.164 79.3359 105.036 77.6959C105.044 77.5599 104.996 77.4239 104.904 77.3239C104.804 77.2639 104.684 77.2399 104.568 77.2559L104.112 77.2399C103.292 77.2719 102.472 77.2319 101.66 77.1199C100.688 76.9839 99.796 76.5039 99.152 75.7639C98.324 74.7799 98.292 73.3199 98.372 72.0119L98.368 72.0079Z" fill="#FFB8A7"/>
<path d="M102.028 61.56C101.448 61.644 100.94 61.824 100.44 61.46C99.9759 61.124 99.4719 60.396 99.1399 59.924C98.2719 58.692 97.8399 57.144 98.0079 55.644C98.0839 54.956 98.2839 54.264 98.7199 53.724C99.1359 53.204 99.7359 52.864 100.348 52.604C101.548 52.092 102.872 51.832 104.168 51.98C106.06 52.2 107.764 53.264 109.16 54.564C109.472 54.852 109.788 55.164 110.192 55.3C110.548 55.42 110.932 55.388 111.308 55.376C113.712 55.292 116.196 56.02 117.96 57.656C118.996 58.616 119.76 59.852 120.88 60.708C121.824 61.432 123.04 61.912 123.584 62.972C124.084 63.94 123.836 65.184 123.144 66.032C122.456 66.876 121.396 67.356 120.324 67.544C120.832 68.796 120.032 70.4 118.724 70.748C118.308 70.86 117.82 70.868 117.46 71.128C117.192 71.324 117.056 71.644 116.78 71.852C116.136 72.34 115.312 72.496 115.02 73.36C114.896 73.72 114.92 74.112 114.872 74.488C114.8 75.052 114.572 75.568 114.18 75.976C113.924 76.24 113.464 76.896 113.1 76.948C112.688 77.008 112.42 76.572 112.32 76.192C111.92 74.552 112.092 72.828 112.808 71.3C113.3 70.56 113.604 69.712 113.692 68.832C113.632 67.956 112.468 67.228 111.88 67.72C111.292 68.216 111.148 69.472 110.46 69.2C111.344 66.732 110.4 63.552 108.028 62.488C106.792 61.936 105.4 61.952 104.08 61.808C103.46 61.74 102.736 61.464 102.144 61.532C102.108 61.536 102.068 61.54 102.032 61.548L102.028 61.56Z" fill="#493D46"/>
<path d="M104.12 77.244C106.032 76.948 107.908 76.46 109.716 75.78C109.688 81.568 104.952 82.612 104.952 82.612C105.12 80.976 105.144 79.332 105.016 77.692C105.024 77.556 104.976 77.42 104.884 77.32C104.784 77.26 104.664 77.236 104.548 77.252L104.092 77.236L104.124 77.244H104.12Z" fill="#F09F92"/>
<path d="M134.372 107.06C135.372 110.044 136.224 113.048 137.12 116.056C137.92 118.752 137.836 121.56 137.512 124.38C137.24 126.76 136.484 129.424 134.332 130.476C133.148 131.052 131.768 131.012 130.448 130.956C126.296 130.78 122.676 130.288 119.004 128.284C115.276 126.248 111.708 123.516 108.6 120.592C107.96 119.992 107.324 119.348 106.98 118.54C106.188 116.7 107.116 114.548 108.428 113.032C108.716 112.7 109.056 112.364 109.488 112.296C109.816 112.244 110.148 112.352 110.46 112.464C115.44 114.212 119.884 117.708 125.124 118.564C120.96 112.504 117.032 102.888 119.572 95.5559C121.004 91.4199 124.472 86.7839 127.848 91.7999C130.928 96.3759 132.636 101.884 134.368 107.068L134.372 107.06Z" fill="#68E2FD"/>
<path d="M109.928 115.976C110.22 115.436 110.732 114.68 110.688 114.036C110.648 113.452 110.14 112.868 109.916 112.344C108.896 109.976 108.628 107.608 109.556 105.132C109.732 104.664 109.948 104.192 109.94 103.688C109.932 103.184 109.62 102.644 109.124 102.58C108.784 102.536 108.46 102.716 108.18 102.912C107.492 103.404 106.92 104.052 106.512 104.792C106.024 105.68 105.76 106.712 105.076 107.456C104.208 106.94 103.336 106.424 102.468 105.908C102.12 105.7 101.728 105.488 101.336 105.576C100.584 105.744 100.092 108.036 100.852 107.948C100.404 108 99.9479 108.104 99.5799 108.364C99.2119 108.624 98.9479 109.072 99.0079 109.52C99.0399 109.756 99.1599 109.972 99.2239 110.204C99.2879 110.436 99.2919 110.708 99.1279 110.884C99.0079 111.008 98.8199 111.064 98.7319 111.212C98.6679 111.32 98.6759 111.452 98.6919 111.576C98.7879 112.24 99.1679 112.86 99.7199 113.24C98.5839 114.924 100.452 115.684 101.64 116.208C102.988 116.8 104.388 117.28 105.82 117.64C106.576 117.828 107.376 117.776 108.108 117.524C108.484 117.396 108.844 117.216 109.172 116.992C109.548 116.736 109.716 116.38 109.932 115.984L109.928 115.976Z" fill="#FFB8A7"/>
<path d="M42.0279 73.2159L48.2599 74.0879C49.3759 74.2439 50.3719 73.3759 50.3719 72.2519V56.6119C50.3719 55.6879 49.6919 54.9039 48.7759 54.7759L42.5439 53.9039C41.4279 53.7479 40.4319 54.6159 40.4319 55.7399V71.3799C40.4319 72.3039 41.1119 73.0879 42.0279 73.2159Z" fill="#493D46"/>
<path d="M42.912 55.7319L49.492 56.5799V70.7199L42.584 70.1959L42.912 55.7319Z" fill="#F1F1F1"/>
<path d="M142.516 75.36L142.588 78.064C142.596 78.348 142.744 78.608 142.98 78.764L145.248 80.24C145.848 80.628 145.74 81.536 145.068 81.776L142.516 82.68C142.248 82.776 142.044 82.996 141.972 83.268L141.272 85.884C141.088 86.576 140.192 86.752 139.756 86.188L138.108 84.04C137.936 83.812 137.664 83.688 137.38 83.704L134.676 83.848C133.964 83.884 133.516 83.088 133.92 82.5L135.452 80.268C135.612 80.032 135.648 79.736 135.544 79.472L134.572 76.944C134.316 76.276 134.936 75.604 135.62 75.808L138.216 76.572C138.488 76.652 138.784 76.592 139 76.416L141.104 74.712C141.66 74.264 142.488 74.644 142.508 75.36H142.516Z" fill="#68E2FD"/>
<path d="M71.264 104.96L72.908 106.112C73.08 106.232 73.3 106.26 73.496 106.188L75.376 105.488C75.872 105.3 76.364 105.768 76.212 106.272L75.624 108.192C75.564 108.392 75.604 108.612 75.732 108.776L76.98 110.348C77.312 110.764 77.02 111.376 76.492 111.384L74.484 111.42C74.272 111.42 74.076 111.532 73.964 111.704L72.856 113.376C72.564 113.816 71.892 113.732 71.716 113.232L71.064 111.332C70.996 111.132 70.832 110.98 70.632 110.924L68.696 110.388C68.184 110.248 68.06 109.58 68.484 109.26L70.088 108.052C70.256 107.928 70.352 107.724 70.344 107.516L70.256 105.512C70.232 104.984 70.828 104.656 71.26 104.96H71.264Z" fill="#68E2FD"/>
<path d="M152.992 117.028L152.884 118.376C152.872 118.516 152.932 118.656 153.04 118.744L154.088 119.6C154.364 119.824 154.264 120.272 153.916 120.352L152.6 120.664C152.46 120.696 152.348 120.796 152.296 120.928L151.808 122.192C151.68 122.524 151.224 122.564 151.036 122.26L150.332 121.104C150.26 120.984 150.128 120.904 149.988 120.9L148.636 120.824C148.28 120.804 148.1 120.384 148.332 120.112L149.216 119.084C149.308 118.976 149.34 118.832 149.304 118.692L148.956 117.384C148.864 117.04 149.208 116.74 149.54 116.876L150.788 117.396C150.92 117.452 151.068 117.436 151.188 117.36L152.324 116.628C152.624 116.436 153.016 116.668 152.988 117.024L152.992 117.028Z" fill="#68E2FD"/>
<path d="M85.2479 57.24L87.0519 59.256C87.2399 59.468 87.5239 59.572 87.8039 59.536L90.4879 59.192C91.1959 59.1 91.6999 59.864 91.3439 60.48L89.9839 62.82C89.8399 63.064 89.8319 63.364 89.9479 63.62L91.1039 66.068C91.4119 66.716 90.8439 67.428 90.1439 67.28L87.4959 66.708C87.2159 66.648 86.9279 66.728 86.7239 66.924L84.7559 68.78C84.2359 69.268 83.3799 68.952 83.3079 68.24L83.0359 65.548C83.0079 65.264 82.8399 65.016 82.5919 64.88L80.2159 63.58C79.5879 63.236 79.6279 62.324 80.2839 62.036L82.7599 60.94C83.0199 60.828 83.2079 60.588 83.2599 60.312L83.7639 57.652C83.8959 56.952 84.7759 56.704 85.2519 57.236L85.2479 57.24Z" fill="#68E2FD"/>
<path d="M87.8961 44.572C93.0765 44.572 97.2761 40.3724 97.2761 35.192C97.2761 30.0116 93.0765 25.812 87.8961 25.812C82.7157 25.812 78.5161 30.0116 78.5161 35.192C78.5161 40.3724 82.7157 44.572 87.8961 44.572Z" fill="#68E2FD"/>
<path d="M88.0879 35.1919C90.5679 35.1919 92.5799 37.2039 92.5799 39.6839V41.3639H83.5959V39.6839C83.5959 37.2039 85.6079 35.1919 88.0879 35.1919Z" fill="#F1F1F1"/>
<path d="M88.348 34.496C89.8856 34.496 91.132 33.2495 91.132 31.712C91.132 30.1744 89.8856 28.928 88.348 28.928C86.8104 28.928 85.564 30.1744 85.564 31.712C85.564 33.2495 86.8104 34.496 88.348 34.496Z" fill="#F1F1F1"/>
<defs>
<linearGradient id="paint0_linear_65_210" x1="54.54" y1="109.384" x2="84.884" y2="71.3761" gradientUnits="userSpaceOnUse">
<stop/>
<stop offset="0.08" stop-opacity="0.69"/>
<stop offset="0.21" stop-opacity="0.32"/>
<stop offset="1" stop-opacity="0"/>
</linearGradient>
<linearGradient id="paint1_linear_65_210" x1="144.808" y1="70.268" x2="95.8464" y2="157.183" gradientUnits="userSpaceOnUse">
<stop/>
<stop offset="0.08" stop-opacity="0.69"/>
<stop offset="0.21" stop-opacity="0.32"/>
<stop offset="1" stop-opacity="0"/>
</linearGradient>
</defs>
</svg>
