<svg width="400" height="400" viewBox="0 0 400 400" fill="none" xmlns="http://www.w3.org/2000/svg">
<path opacity="0.18" d="M206.064 24.568C172.736 37.208 151.224 70.752 118.696 85.328C101.704 92.936 81.72 95.416 68.184 108.2C56.728 119.024 52.224 135.176 49.192 150.64C41.96 187.576 40.416 226.176 49.848 262.616C59.272 299.056 80.408 333.24 111.816 353.976C143.232 374.712 185.296 380.408 219.376 364.416C243.56 353.064 262.408 332.056 287.144 321.952C302.536 315.664 319.656 313.856 334.336 306.056C356.344 294.36 370.208 268.88 368.072 244.048C364.888 207.08 331.112 179.584 322.328 143.528C313.352 106.664 324.792 66.336 294.488 36.472C274.512 16.792 230.28 15.384 206.064 24.568Z" fill="#68E2FD"/>
<path d="M264.928 51.328H131.744C121.392 51.328 113 59.72 113 70.072V331.232C113 341.584 121.392 349.976 131.744 349.976H264.928C275.28 349.976 283.672 341.584 283.672 331.232V70.072C283.672 59.72 275.28 51.328 264.928 51.328Z" fill="#68E2FD"/>
<path d="M264.928 51.328H131.744C121.392 51.328 113 59.72 113 70.072V331.232C113 341.584 121.392 349.976 131.744 349.976H264.928C275.28 349.976 283.672 341.584 283.672 331.232V70.072C283.672 59.72 275.28 51.328 264.928 51.328Z" fill="url(#paint0_linear_62_125)"/>
<path d="M258.456 61.048H137.472C131.211 61.048 126.136 66.1233 126.136 72.384V323.2C126.136 329.461 131.211 334.536 137.472 334.536H258.456C264.717 334.536 269.792 329.461 269.792 323.2V72.384C269.792 66.1233 264.717 61.048 258.456 61.048Z" fill="#F1F1F1"/>
<path d="M216.784 67.36H178.824C176.509 67.36 174.632 69.2368 174.632 71.552C174.632 73.8672 176.509 75.744 178.824 75.744H216.784C219.099 75.744 220.976 73.8672 220.976 71.552C220.976 69.2368 219.099 67.36 216.784 67.36Z" fill="#68E2FD"/>
<path d="M261.408 94.536H201.48V168.576H261.408V94.536Z" fill="#68E1FD"/>
<path opacity="0.65" d="M261.408 154.952V168.576H207.168C207.384 165.088 207.36 161.936 206.992 159.272C205.04 145.456 218.496 141.152 224.616 139.92C226.384 139.568 227.528 139.472 227.528 139.472L228.216 139.384L235.952 138.4L239.992 137.896L241.512 137.704C245.208 139.576 248.864 141.584 252.344 143.816C254.968 145.504 256.496 146.864 257.32 148.288C259.104 149.88 260.384 152.6 261.408 154.96V154.952Z" fill="#F1F1F1"/>
<path d="M240.688 136.76C240.688 136.76 243.784 137.984 243.992 138.976C244.2 139.968 237.088 147.88 230.92 146.344C224.752 144.8 221.944 140.56 221.944 140.56L225.136 139.68L240.68 136.768L240.688 136.76Z" fill="#68DEFA"/>
<path d="M240.688 136.76C240.688 136.76 243.784 137.984 243.992 138.976C244.2 139.968 237.248 146.952 230.92 146.344C221.944 145.472 221.944 140.56 221.944 140.56L225.136 139.68L240.68 136.768L240.688 136.76Z" fill="url(#paint1_linear_62_125)"/>
<path d="M226.816 137.288C226.48 138.64 225.512 139.816 224.072 140.064C224.328 141.064 225.064 141.896 225.944 142.448C226.824 142.992 227.84 143.28 228.856 143.48C230.584 143.824 232.392 143.928 234.104 143.52C236.816 142.872 239.504 141.112 241.256 138.952C241.552 138.592 241.824 138.136 241.704 137.688C241.584 137.232 241.104 136.984 240.688 136.752C240.04 136.4 239.424 135.976 238.96 135.408C238.552 134.904 238.272 134.304 238.024 133.704C237.456 132.304 237.048 130.848 236.808 129.36C236.68 128.6 236.6 127.824 236.568 127.056C236.544 126.544 236.72 125.72 236.44 125.264C236.336 125.104 236.184 125.008 236.032 124.936C235.232 124.568 234.328 124.696 233.52 125.016C232.712 125.336 231.944 125.824 231.144 126.184C230.104 126.648 228.992 126.904 228.024 127.56C226.8 128.392 226.072 129.8 226.512 131.44C226.904 132.928 227.192 134.48 227.08 136.024C227.048 136.472 226.936 136.88 226.832 137.304L226.816 137.288Z" fill="#F2BBAB"/>
<path d="M234.192 130.488C234.192 131.36 234.192 132.24 233.96 133.072C233.72 133.928 233.24 134.68 232.744 135.4C232.232 136.144 231.68 136.872 230.984 137.432C230.288 137.992 229.424 138.36 228.552 138.296C228.12 138.264 227.656 138.096 227.424 137.712C227.288 137.488 227.248 137.216 227.208 136.952C227.048 135.8 226.952 134.632 226.92 133.464C226.92 133.216 226.912 132.968 226.984 132.736C227.08 132.448 227.288 132.208 227.488 131.992C229.176 130.12 230.936 128.312 232.424 126.256C232.616 125.984 233.12 124.928 233.496 124.96C233.92 124.992 233.928 125.968 233.976 126.344C234.176 127.72 234.184 129.12 234.184 130.504L234.192 130.488Z" fill="url(#paint2_linear_62_125)"/>
<path d="M215.12 118.88C214.944 120.048 214.768 121.224 214.784 122.408C214.824 125.504 215.824 130.72 218.68 132.416C219.808 133.088 221.104 133.416 222.392 133.656C223.728 133.896 225.096 134.048 226.448 133.888C229.224 133.56 231.72 131.928 233.616 129.872C237.088 126.128 239.152 121.544 238.936 116.376C238.792 112.856 236.944 109.368 233.912 107.568C230.896 105.784 227.152 105.808 223.672 106.248C222 106.464 220.336 106.76 218.688 107.136C217.92 107.312 217.088 107.552 216.64 108.2C215.848 109.344 216.232 111.24 216.064 112.576C215.792 114.68 215.44 116.776 215.12 118.88Z" fill="#F2BBAB"/>
<path d="M244.392 108.536C242.04 103.504 234.96 102.368 230.112 100.952C229.424 100.752 228.704 100.528 228.224 100C227.744 99.472 227.648 98.528 228.224 98.096C226.864 98.576 225.512 99.048 224.152 99.528C224.28 98.6 224.408 97.664 224.544 96.736C223.104 97.568 221.592 98.288 220.04 98.88C220.152 98.056 220.256 97.224 220.368 96.4C216.632 98.392 214.448 102.888 215.008 107.056C215.592 111.384 221.888 112.856 225.48 113.216C226.472 113.312 227.472 113.368 228.424 113.648C229.376 113.928 230.296 114.456 230.832 115.296C231.672 116.624 231.344 118.336 231.44 119.896C231.44 119.992 231.456 120.096 231.52 120.168C231.568 120.216 231.632 120.24 231.696 120.264C233.384 120.752 235.072 118.568 236.544 120.384C237.184 121.168 237.248 122.312 236.904 123.272C236.56 124.232 235.88 125.016 235.136 125.704C234.968 125.864 234.784 126.04 234.776 126.272C234.776 126.408 234.832 126.544 234.888 126.672C235.456 127.936 235.608 129.384 235.328 130.744C235.656 130.336 235.992 129.92 236.32 129.512C236.216 130.032 236.104 130.552 236 131.072C237.216 130.088 238.44 129.088 239.336 127.8C240.112 126.68 240.6 125.408 241.088 124.144C241.552 122.96 242.216 121.896 242.728 120.768C243.288 119.52 243.384 117.816 243.632 116.472C243.904 114.976 244.136 113.472 244.36 111.968C244.528 110.832 244.696 109.656 244.4 108.544L244.392 108.536Z" fill="#473F47"/>
<path d="M214.128 233.664C213.992 234.168 213.856 234.672 213.712 235.176C212.92 237.928 212.48 238.984 215.712 239.952C225.016 242.752 234.32 245.552 243.624 248.344C245.632 248.952 247.72 249.56 249.8 249.296C253.184 248.864 253.76 246.4 255.272 243.968C257.064 241.072 259.752 238.608 261.824 235.896C267.608 228.312 272.808 220.312 278 212.312C280.48 208.496 282.96 204.672 285.44 200.856C286.624 199.04 287.816 197.2 288.552 195.16C289.168 193.456 289.456 191.648 290.016 189.928C290.504 188.424 291.216 186.952 291.28 185.368C291.344 183.784 290.52 182.008 288.976 181.64C287.52 181.296 286.104 182.304 285.096 183.4C284.088 184.496 283.16 185.792 281.76 186.312C279.16 187.272 276.528 185.12 274.584 183.144C272.92 185.224 274.08 188.264 275.224 190.664C276.368 193.064 278.144 195.92 276.256 197.8L245.688 232.544C245.688 232.544 218.464 217.032 218.44 217.016C218.832 217.24 216 226.392 215.816 227.104C215.248 229.288 214.728 231.488 214.144 233.672L214.128 233.664Z" fill="#ECA596"/>
<path d="M149.136 162C147.2 164.688 148.272 168.56 150.28 171.184C150.6 171.6 150.944 172.016 151.024 172.528C151.168 173.432 150.464 174.216 149.84 174.888C146.624 178.376 144.376 183.256 145.6 187.84C146.448 191.032 148.912 193.928 148.472 197.208C148.032 200.528 144.84 202.664 141.952 204.368C144.216 205.624 147.056 205.44 149.448 204.456C151.84 203.472 153.848 201.752 155.728 199.984C155.352 201.184 154.968 202.392 154.592 203.592C155.872 200.896 159.4 200.192 161.48 198.048C162.432 197.072 163.048 195.816 163.56 194.552C166.176 188.192 166.664 181.176 166.96 174.304C167.04 172.432 167.104 170.528 166.616 168.72C165.52 164.672 162.264 163.032 158.64 161.752C155.376 160.592 151.816 158.272 149.128 162H149.136Z" fill="#473F47"/>
<path d="M167.024 182.16C172.313 182.16 176.6 177.873 176.6 172.584C176.6 167.295 172.313 163.008 167.024 163.008C161.735 163.008 157.448 167.295 157.448 172.584C157.448 177.873 161.735 182.16 167.024 182.16Z" fill="#68DEFA"/>
<path d="M151.616 334.536C150.056 324.376 150.816 314.8 151.608 308.384C152.064 304.592 152.544 301.912 152.568 300.84C152.592 299.624 154.264 294.888 156.304 289.504C159.56 280.896 163.792 270.664 163.792 270.664C163.792 270.664 159.208 251.256 152.568 245.256C152.28 244.992 151.984 244.712 151.688 244.392C149.928 242.576 147.984 239.912 146.144 236.936C144.632 234.496 143.184 231.832 141.968 229.232C141.968 229.232 141.968 229.224 141.96 229.216C141.76 228.784 141.56 228.352 141.376 227.928C140.16 225.192 139.24 222.576 138.784 220.416C138.304 218.096 138.384 216.312 139.272 215.48C142.984 212.032 171.168 212.832 171.168 212.832L197.424 212.784L214.976 212.752C214.976 212.752 221.688 215.96 221.688 217.016C221.688 217.184 221.632 217.8 221.528 218.776C221.136 222.656 220.032 232.136 218.816 240.888C218.424 243.664 218.04 246.36 217.648 248.784C216.776 254.304 215.92 256.616 214.76 259.048C213.464 261.768 211.8 264.64 209.328 272.344C209.216 272.712 209.088 273.096 208.968 273.496C206.48 281.472 213.624 309.072 221.36 334.536H151.616Z" fill="#68DEFA"/>
<path d="M214.792 258.952L214.76 259.048L209.328 272.344C209.328 272.344 174.6 271.68 173.312 277.272C172.52 280.72 173.32 291.664 173.672 301.392C173.72 302.688 173.752 303.968 173.776 305.208C173.872 309.704 173.792 313.648 173.304 316.024C172.856 318.24 173.8 325.4 175.392 334.536H151.608C150.048 324.376 150.808 314.8 151.6 308.384C152.056 304.592 152.536 301.912 152.56 300.84C152.584 299.624 154.256 294.888 156.296 289.504C159.552 280.896 163.784 270.664 163.784 270.664C163.784 270.664 159.2 251.256 152.56 245.256C152.272 244.992 151.976 244.712 151.68 244.392C149.92 242.576 147.976 239.912 146.136 236.936L156.128 234.288C156.128 234.288 156.136 234.32 156.136 234.344C156.152 234.504 156.232 235.04 156.4 235.856C157.304 240.128 160.688 251.96 171.16 255.168C184.024 259.12 214.792 258.96 214.792 258.96V258.952Z" fill="url(#paint3_linear_62_125)"/>
<path d="M139.264 215.472L148.456 223.496L141.96 229.232C141.96 229.232 137.152 222.376 139.264 215.472Z" fill="url(#paint4_linear_62_125)"/>
<path d="M211.696 174.056C212.936 173.104 214.088 172.016 215.168 170.88C216.464 169.512 218.896 167.536 219.008 165.56C219.072 164.368 218.576 163.184 217.816 162.264C217.608 162.016 217.376 161.76 217.328 161.448C217.264 161.032 217.536 160.656 217.76 160.304C219.208 158.032 219.288 155.008 218.168 152.552C216.392 148.648 211.584 146.408 207.456 147.568C206.832 147.744 206.176 148.024 205.872 148.6C204.728 146.96 203.072 145.672 201.2 144.968C200.272 144.616 199.248 144.408 198.272 144.624C197.296 144.84 196.4 145.576 196.216 146.552C195.584 144.296 194.696 141.736 192.512 140.888C191.776 140.6 190.968 140.552 190.176 140.528C188.808 140.488 187.44 140.512 186.072 140.608C184.92 140.688 183.744 140.816 182.704 141.32C181.712 141.8 180.904 142.592 180.184 143.424C178.336 145.536 176.88 148 175.912 150.632C174.592 150.088 173 150.24 171.8 151.016C170.096 152.12 169.936 154.16 168.584 155.2C167.896 155.728 166.44 155.992 165.56 156.656C164.424 157.512 163.4 158.6 162.456 159.656C161.872 160.312 161.304 161.016 161.024 161.848C160.704 162.792 160.768 163.816 160.88 164.808C161.072 166.576 161.376 168.336 161.784 170.072C162.24 171.992 162.952 174.048 164.624 175.096C164.184 174.816 163.016 180.336 163.008 180.824C162.944 182.888 163.624 184.776 163.976 186.768C164.584 190.2 165.2 193.76 169.2 194.792C174.672 196.2 180.488 191.384 180.488 191.384L211.72 174.056H211.696Z" fill="#473F47"/>
<path d="M194.192 198.664C194.192 198.664 191.016 207.4 196.576 211.896C202.136 216.4 193.72 227.96 180.296 221.032C175.192 218.4 171.16 212.824 171.16 212.824C171.16 212.824 178.632 194.368 177.824 184.88C177.024 175.392 194.184 198.664 194.184 198.664H194.192Z" fill="#ECA596"/>
<path d="M178.928 186.152C178.976 188.992 179.224 191.864 179.704 194.664C180.456 198.976 181.36 203.136 183.744 206.896C183.888 207.12 184.032 207.344 184.184 207.568C185.68 209.76 187.72 211.808 190.328 212.32C190.736 212.4 191.168 212.44 191.552 212.288C192 212.12 192.32 211.728 192.536 211.304C193.224 209.944 192.936 208.368 192.52 206.976C192.16 205.768 192.184 204.52 192.096 203.256L191.848 199.68C191.832 199.44 191.92 198.248 191.736 198.08L178.92 186.152H178.928Z" fill="#D58B80"/>
<path d="M208.752 166.504C208.752 166.504 211 195.752 200.68 199.328C190.36 202.904 183.736 198.136 181.088 191.92C178.44 185.696 177.384 184.112 177.384 184.112C177.384 184.112 177.648 186.264 174.336 183.536C171.024 180.808 169.04 176.44 171.424 175.512C173.808 174.584 176.984 176.44 176.984 176.44C176.984 176.44 176.848 167.968 182.544 165.192C188.232 162.416 207.824 161.752 208.752 166.512V166.504Z" fill="#ECA596"/>
<path d="M156.472 235.728L138.488 268.288L160.712 294.76C160.712 294.76 176.328 300.928 175.536 304.064C174.744 307.2 166.8 302.776 165.744 304.064C164.688 305.352 166.008 312.408 170.064 315.848C174.12 319.288 170.944 320.44 170.504 320.256C170.064 320.072 165.032 318.936 165.032 318.936C165.032 318.936 163.8 319.728 160.624 317.968C157.448 316.2 155.592 316.112 154.536 314.44C153.48 312.768 151.888 310.296 151.008 306.056C150.128 301.816 149.864 297.936 149.864 297.936C149.864 297.936 124.184 273.712 121.536 266.104C118.888 258.496 145.888 221.56 145.888 221.56C145.888 221.56 154.888 227.256 156.48 235.728H156.472Z" fill="#ECA596"/>
<path d="M194.688 170.84C192.864 171.72 190.808 171.984 188.784 172.048C188.456 172.056 188.104 172.08 187.864 172.296C187.664 172.48 187.6 172.76 187.536 173.024C187.232 174.216 186.656 175.4 185.64 176.096C184.592 176.816 183.248 176.912 181.984 176.8C178.84 176.512 175.832 175 173.728 172.648C173.568 172.472 173.416 172.288 173.344 172.056C173.248 171.744 173.344 171.408 173.432 171.096C174.04 168.952 174.648 166.8 175.256 164.656C175.672 163.184 176.104 161.688 176.984 160.432C177.92 159.096 179.312 158.136 180.744 157.36C184.4 155.392 188.68 154.44 192.76 155.192C195.728 155.736 199.64 158.144 199.952 161.472C200.296 165.2 198.024 169.208 194.68 170.824L194.688 170.84Z" fill="#473F47"/>
<path d="M272.968 198.544L283.168 196.944C284.536 196.728 285.608 195.672 285.856 194.312L290.488 168.344C290.88 166.152 288.992 164.232 286.8 164.576L276.6 166.176C275.232 166.392 274.16 167.448 273.912 168.808L269.28 194.776C268.888 196.968 270.776 198.888 272.968 198.544Z" fill="#473F47"/>
<path d="M281.328 178.976C280.576 178.96 279.624 179.152 279.464 179.88C279.312 180.552 279.968 181.12 280.568 181.464C282.832 182.76 285.512 183.472 287.28 185.376C284.872 184.36 282.296 183.728 279.696 183.504C279.288 183.472 278.824 183.464 278.528 183.752C278.208 184.072 278.248 184.632 278.504 185.008C278.76 185.384 279.168 185.616 279.56 185.84C281.448 186.904 283.328 187.968 285.216 189.032C283.808 188.552 282.32 188.304 280.832 188.312C280.344 188.312 279.72 188.448 279.64 188.928C279.576 189.312 279.92 189.64 280.24 189.872C281.568 190.856 282.968 191.744 284.432 192.52C284.824 192.728 285.232 192.936 285.504 193.288C285.776 193.64 285.88 194.16 285.624 194.52C286.2 194.712 286.848 194.488 287.304 194.088C287.76 193.688 288.056 193.136 288.312 192.592C289.08 190.968 289.616 189.232 289.912 187.456C290.152 186.024 290.6 183.728 290.064 182.328C289.6 181.12 287.624 180.456 286.512 180.024C284.864 179.376 283.104 179.016 281.336 178.976H281.328Z" fill="#ECA596"/>
<path d="M147.832 312.768C152.069 312.768 155.504 309.333 155.504 305.096C155.504 300.859 152.069 297.424 147.832 297.424C143.595 297.424 140.16 300.859 140.16 305.096C140.16 309.333 143.595 312.768 147.832 312.768Z" fill="#68DEFA"/>
<path d="M248.104 312.768C252.341 312.768 255.776 309.333 255.776 305.096C255.776 300.859 252.341 297.424 248.104 297.424C243.867 297.424 240.432 300.859 240.432 305.096C240.432 309.333 243.867 312.768 248.104 312.768Z" fill="#68DEFA"/>
<path opacity="0.39" d="M189.672 99.976H140.536V110.2H189.672V99.976Z" fill="#68E1FD"/>
<path opacity="0.39" d="M189.672 120.24H140.536V130.464H189.672V120.24Z" fill="#68E1FD"/>
<defs>
<linearGradient id="paint0_linear_62_125" x1="189.512" y1="480.264" x2="201.344" y2="105.544" gradientUnits="userSpaceOnUse">
<stop/>
<stop offset="0.08" stop-opacity="0.69"/>
<stop offset="0.21" stop-opacity="0.32"/>
<stop offset="1" stop-opacity="0"/>
</linearGradient>
<linearGradient id="paint1_linear_62_125" x1="228.36" y1="111.36" x2="237.696" y2="168.96" gradientUnits="userSpaceOnUse">
<stop/>
<stop offset="0.08" stop-opacity="0.69"/>
<stop offset="0.21" stop-opacity="0.32"/>
<stop offset="1" stop-opacity="0"/>
</linearGradient>
<linearGradient id="paint2_linear_62_125" x1="228.392" y1="114.536" x2="231.96" y2="142.16" gradientUnits="userSpaceOnUse">
<stop/>
<stop offset="0.08" stop-opacity="0.69"/>
<stop offset="0.21" stop-opacity="0.32"/>
<stop offset="1" stop-opacity="0"/>
</linearGradient>
<linearGradient id="paint3_linear_62_125" x1="40.512" y1="242.248" x2="210" y2="305.288" gradientUnits="userSpaceOnUse">
<stop/>
<stop offset="0.08" stop-opacity="0.69"/>
<stop offset="0.21" stop-opacity="0.32"/>
<stop offset="1" stop-opacity="0"/>
</linearGradient>
<linearGradient id="paint4_linear_62_125" x1="120.224" y1="216.112" x2="181.36" y2="234.848" gradientUnits="userSpaceOnUse">
<stop/>
<stop offset="0.08" stop-opacity="0.69"/>
<stop offset="0.21" stop-opacity="0.32"/>
<stop offset="1" stop-opacity="0"/>
</linearGradient>
</defs>
</svg>
