<svg width="200" height="200" viewBox="0 0 200 200" fill="none" xmlns="http://www.w3.org/2000/svg">
<path opacity="0.18" d="M187.604 161.316C178.864 171.816 162.572 176.116 147.216 178.212C147.116 178.228 147.016 178.236 146.916 178.256C142.552 178.844 138.152 179.308 133.74 179.644C131.492 179.812 129.244 179.948 126.996 180.044C125.864 180.096 124.736 180.136 123.604 180.168C119.952 180.268 116.296 180.272 112.652 180.176C112.064 180.16 111.472 180.144 110.884 180.12C108.596 180.04 106.316 179.916 104.04 179.748C100.028 179.464 96.04 179.048 92.08 178.492C86.94 177.772 81.856 176.824 76.844 175.628C76.328 175.504 75.816 175.38 75.304 175.252C52.152 169.464 30.8041 158.116 16.6121 142.112C13.9281 139.076 11.5001 135.832 9.45209 132.436C6.65209 127.784 4.56809 122.856 3.50408 117.844C2.36408 112.432 2.40008 106.916 4.02409 101.54C7.03209 91.5759 15.0761 83.0639 23.8281 75.9279C33.1721 68.3079 35.4001 65.8079 38.0081 54.7479C40.06 46.0639 43.484 37.4679 49.544 30.1319C62.132 14.8839 85.376 6.71987 107.908 7.12787C142.356 7.74387 181.544 26.1079 185.956 55.8759C188.196 70.9799 184.64 86.3399 186.692 101.456C188.072 111.644 191.984 121.512 193.7 131.668C195.416 141.828 194.672 152.84 187.608 161.32L187.604 161.316Z" fill="#68E1FD"/>
<path d="M159.724 37.98H55.084V146.664H159.724V37.98Z" fill="#68E2FD"/>
<path d="M159.724 37.98H55.084V146.664H159.724V37.98Z" fill="url(#paint0_linear_66_613)"/>
<path d="M101.944 65.0559C104.838 65.0559 107.184 62.7099 107.184 59.8159C107.184 56.9219 104.838 54.5759 101.944 54.5759C99.0501 54.5759 96.7041 56.9219 96.7041 59.8159C96.7041 62.7099 99.0501 65.0559 101.944 65.0559Z" fill="#231F20"/>
<path d="M103.328 64.0321C104.932 64.0321 106.232 62.7321 106.232 61.1281C106.232 59.5241 104.932 58.2241 103.328 58.2241C101.724 58.2241 100.424 59.5241 100.424 61.1281C100.424 62.7321 101.724 64.0321 103.328 64.0321Z" fill="#68E2FD"/>
<path d="M126.996 180.04C125.864 180.092 124.736 180.132 123.604 180.164C119.952 180.264 116.296 180.268 112.652 180.172L108.672 152.968L108.352 150.788L108.028 152.968L104.044 179.748C100.032 179.464 96.044 179.048 92.084 178.492L92.568 158.952L92.72 152.968L92.876 146.668L92.928 144.688L93.308 129.448L99.852 129.512L101.344 129.528L113.892 129.648L115.368 129.664L121.94 129.728L122.22 136.06C122.22 136.06 122.744 140.2 123.288 144.688C123.368 145.348 123.448 146.012 123.528 146.668C123.808 148.996 124.076 151.268 124.264 152.968C124.288 153.188 124.312 153.392 124.332 153.588C124.452 154.688 124.656 156.712 124.912 159.22C125.54 165.432 126.464 174.62 127.004 180.04H126.996Z" fill="#30302D"/>
<path d="M102.236 89.324L98.9519 91.632L99.8559 129.724H115.36L116.9 91.908L111.768 89.324H102.236Z" fill="#68E2FD"/>
<path d="M114.74 89.7041C114.74 89.7041 124.684 90.6921 127.712 93.3201C131.228 96.3681 134.084 100.48 137.02 104.064C140.412 108.208 145.596 112.632 145.716 118.3C145.74 119.52 145.388 120.804 144.508 121.652C143.88 122.252 143.044 122.584 142.232 122.896C137.348 124.764 135.184 122.032 131.792 118.764C129.996 117.032 128.24 115.236 126.612 113.344L126.888 159.464L113.292 157.812L114.744 89.7081L114.74 89.7041Z" fill="#68E2FD"/>
<path d="M102.964 81.6281C102.964 81.6281 105.276 85.7441 102.232 89.3241C101.692 89.9561 101.544 90.2921 102.144 90.9081C102.644 91.4201 103.308 91.7801 103.976 92.0081C104.92 92.3321 105.928 92.4241 106.928 92.4721C108.076 92.5281 109.244 92.5361 110.348 92.2241C112.296 91.6721 111.252 90.4601 110.876 89.1361C110.336 87.2521 110.36 85.2321 110.968 83.3681C112.408 78.9521 102.964 81.6281 102.964 81.6281Z" fill="#FCB8A8"/>
<path d="M103.328 82.4519C103.328 82.4519 104.404 86.2679 106.952 86.5599C109.5 86.8519 110.676 84.5039 110.676 84.5039L111.152 82.8759L103.332 82.4519H103.328Z" fill="url(#paint1_linear_66_613)"/>
<path d="M99.9799 68.3879C99.9799 68.3879 98.6039 80.2279 105.004 83.7399C111.404 87.2519 115.26 77.4759 115.328 75.1359C115.396 72.7959 115.328 68.6639 115.328 68.6639L99.9759 68.3879H99.9799Z" fill="#FCB8A8"/>
<path d="M99.4119 73.852C98.9679 73.568 98.4319 73.388 97.9079 73.46C97.5959 73.504 97.2999 73.632 97.0399 73.812C96.3959 74.256 95.9839 75.016 95.9639 75.796C95.9439 76.576 96.3119 77.36 96.9319 77.84C97.3479 78.16 97.8559 78.344 98.3639 78.476C99.3119 78.72 100.3 78.796 101.272 78.704C101.392 78.692 101.52 78.676 101.62 78.608C101.732 78.528 101.796 78.396 101.836 78.264C102.036 77.656 101.932 76.98 101.688 76.384C101.24 75.308 100.384 74.472 99.4119 73.848V73.852Z" fill="#FCB8A8"/>
<path d="M115.82 73.852C116.264 73.568 116.8 73.388 117.324 73.46C117.636 73.504 117.932 73.632 118.192 73.812C118.836 74.256 119.248 75.016 119.268 75.796C119.288 76.576 118.92 77.36 118.3 77.84C117.884 78.16 117.376 78.344 116.868 78.476C115.92 78.72 114.932 78.796 113.96 78.704C113.84 78.692 113.712 78.676 113.612 78.608C113.5 78.528 113.436 78.396 113.396 78.264C113.196 77.656 113.3 76.98 113.544 76.384C113.992 75.308 114.848 74.472 115.82 73.848V73.852Z" fill="#FCB8A8"/>
<path d="M99.492 64.5279C100.992 61.2639 103.944 58.6559 107.32 58.2999C109.332 58.0879 111.62 58.2639 113.2 59.5639C119.264 64.5599 117.088 71.5279 117.04 74.0319C117.04 74.1759 117.028 74.3319 116.936 74.4399C116.872 74.5119 116.776 74.5479 116.688 74.5839C116.148 74.7919 115.608 74.9959 115.068 75.2039C115.1 73.6639 115.46 72.1679 115.46 70.6159C115.144 71.3919 114.964 72.2319 114.932 73.0759C114.12 73.0319 113.3 73.0599 112.492 73.1639C112.32 72.3319 112.144 71.4999 111.972 70.6679C111.78 71.3559 111.584 72.0399 111.392 72.7279C111.344 72.8959 111.288 73.0759 111.152 73.1679C111.056 73.2319 110.94 73.2399 110.828 73.2439C109.38 73.3119 107.924 73.2559 106.484 73.0839C106.188 71.8879 106.008 70.6599 105.956 69.4239C105.544 70.7239 105.304 72.0839 105.244 73.4559C103.74 73.3279 102.232 73.2719 100.728 73.2839C100.696 72.3199 100.576 71.3559 100.368 70.4159C100.136 72.1319 100.108 73.8759 100.284 75.5999C99.308 75.5399 98.48 75.4959 98.196 74.3959C97.98 73.5679 98.096 72.6719 98.084 71.8239C98.056 69.3199 98.464 66.7879 99.5 64.5319L99.492 64.5279Z" fill="#231F20"/>
<path d="M100.16 78.9119C100.368 79.4359 100.492 80.0999 100.492 80.8199C100.492 82.5199 99.8039 83.8959 98.9559 83.8959C98.1079 83.8959 97.4199 82.5199 97.4199 80.8199C97.4199 79.1199 98.1079 77.7439 98.9559 77.7439" stroke="#68E2FD" stroke-width="2.24" stroke-linecap="round" stroke-linejoin="round"/>
<path d="M115.692 78.9119C115.484 79.4359 115.36 80.0999 115.36 80.8199C115.36 82.5199 116.048 83.8959 116.896 83.8959C117.744 83.8959 118.432 82.5199 118.432 80.8199C118.432 79.1199 117.744 77.7439 116.896 77.7439" stroke="#68E2FD" stroke-width="2.24" stroke-linecap="round" stroke-linejoin="round"/>
<path d="M100.492 89.7039C100.492 89.7039 90.548 90.692 87.52 93.32C84.492 95.948 69.024 115.476 69.024 115.476L65.036 112.908L57.876 121.788C57.876 121.788 62.188 126.968 69.072 127.516C75.956 128.064 88.62 113.336 88.62 113.336L88.344 159.456L101.94 157.804L100.488 89.7L100.492 89.7039Z" fill="#68E2FD"/>
<path d="M88.6199 113.812V113.344C88.6199 113.344 75.9599 128.076 69.0759 127.52C65.0199 127.196 61.8559 125.268 59.9399 123.732C59.9359 123.728 59.9319 123.724 59.9279 123.724C59.9159 123.716 59.9039 123.704 59.8959 123.7C58.5919 122.648 57.8799 121.796 57.8799 121.796L65.0399 112.912L69.0279 115.48C69.0279 115.48 84.4959 95.948 87.5239 93.32C90.5519 90.696 100.496 89.708 100.496 89.708L101.944 157.812L88.3479 159.464L88.6199 113.812Z" fill="url(#paint2_linear_66_613)"/>
<path d="M114.74 89.7041C114.74 89.7041 124.684 90.6921 127.712 93.3201C131.228 96.3681 134.084 100.48 137.02 104.064C140.412 108.208 145.596 112.632 145.716 118.3C145.74 119.52 145.388 120.804 144.508 121.652C143.88 122.252 143.044 122.584 142.232 122.896C137.348 124.764 135.184 122.032 131.792 118.764C129.996 117.032 128.24 115.236 126.612 113.344L126.888 159.464L113.292 157.812L114.744 89.7081L114.74 89.7041Z" fill="url(#paint3_linear_66_613)"/>
<path d="M114.168 117.348L126.672 124.444V117.344L114.256 108.532L114.168 117.348Z" fill="url(#paint4_linear_66_613)"/>
<path d="M115.988 94.48H110.472C109.714 94.48 109.1 95.0944 109.1 95.852V102.16C109.1 102.918 109.714 103.532 110.472 103.532H115.988C116.746 103.532 117.36 102.918 117.36 102.16V95.852C117.36 95.0944 116.746 94.48 115.988 94.48Z" fill="#231F20"/>
<path d="M111.812 95.5439H110.464C110.252 95.5439 110.08 95.7159 110.08 95.9279V98.5519C110.08 98.7639 110.252 98.9359 110.464 98.9359H111.812C112.024 98.9359 112.196 98.7639 112.196 98.5519V95.9279C112.196 95.7159 112.024 95.5439 111.812 95.5439Z" fill="#68E2FD"/>
<path d="M119.216 103.388C118.876 102.724 118.6 102.024 118.18 101.404C117.76 100.784 117.16 100.248 116.428 100.104C116.112 100.044 115.788 100.06 115.468 100.06C113.44 100.06 111.472 99.4399 109.472 99.1159C109.1 99.0559 108.716 99.0079 108.356 99.1039C107.996 99.1999 107.656 99.4879 107.608 99.8599C107.568 100.152 107.708 100.436 107.876 100.676C108.176 101.112 108.576 101.48 109.036 101.74C108.652 102.12 108.452 102.676 108.508 103.212C108.564 103.748 108.872 104.252 109.328 104.544C108.788 105.052 108.9 106.076 109.536 106.456C109.324 106.784 109.316 107.216 109.448 107.588C109.58 107.96 109.84 108.268 110.132 108.528C111.248 109.528 112.792 109.844 114.204 110.332C116.34 111.072 118.288 112.268 120.212 113.452C120.332 113.528 121.584 111.656 121.696 111.476C122.144 110.764 122.56 110 122.856 109.208C123.1 108.556 122.992 108.152 122.528 107.652C121.956 107.04 121.376 106.444 120.848 105.796C120.232 105.044 119.668 104.244 119.224 103.376L119.216 103.388Z" fill="#FCB8A8"/>
<path d="M57.0239 104.024C56.1559 103.376 53.9799 103.136 54.8039 104.816C55.0239 105.264 55.3959 105.62 55.6399 106.056C55.7039 106.168 55.7559 106.312 55.6879 106.42C55.6399 106.5 55.5479 106.536 55.4599 106.56C54.0399 106.996 52.3519 106.116 51.8919 104.704C51.3639 105.004 51.1439 105.64 51.0119 106.232C50.7759 107.3 50.6999 108.4 50.7759 109.492C50.8399 110.388 50.9279 112.008 51.5119 112.74C52.4999 113.98 55.3279 113.132 56.6959 114.112C58.2799 115.248 59.4879 117.476 60.1959 119.236C60.1719 119.188 63.7999 114.828 63.9599 114.016C63.1679 113.872 62.5839 113.208 62.1039 112.564C60.9959 111.068 60.2399 109.444 59.4079 107.796C58.7759 106.552 58.1719 104.884 57.0199 104.02L57.0239 104.024Z" fill="#FCB8A8"/>
<path d="M155.792 34.384H59.032C54.456 34.384 50.748 38.092 50.748 42.668V144.684C50.748 149.256 54.456 152.968 59.032 152.968H155.792C160.368 152.968 164.076 149.256 164.076 144.684V42.668C164.076 38.092 160.368 34.384 155.792 34.384ZM156.16 137.56C156.16 141.496 152.968 144.684 149.036 144.684H65.792C61.856 144.684 58.668 141.492 58.668 137.56V49.792C58.668 45.856 61.86 42.668 65.792 42.668H149.036C152.972 42.668 156.16 45.86 156.16 49.792V137.56Z" fill="#F1F1F1"/>
<path d="M53.4799 103.812C53.7199 103.932 53.9719 104.076 54.1359 104.376C54.2999 104.676 54.3199 105.196 54.1159 105.432C54.0039 105.564 53.8519 105.58 53.7119 105.584C52.6679 105.612 51.628 105.296 50.644 104.772C50.444 104.664 50.24 104.548 50.076 104.336C49.78 103.96 49.7079 103.324 50.0239 102.92C50.2679 102.608 50.5639 102.756 50.8519 102.832C51.7439 103.056 52.6239 103.384 53.4799 103.812Z" fill="#FCB8A8"/>
<path d="M52.728 105.568C52.968 105.688 53.22 105.832 53.384 106.132C53.548 106.432 53.568 106.952 53.364 107.188C53.252 107.32 53.1 107.336 52.96 107.34C51.916 107.368 50.876 107.052 49.892 106.528C49.692 106.42 49.488 106.304 49.324 106.092C49.028 105.716 48.956 105.08 49.272 104.676C49.516 104.364 49.812 104.512 50.1 104.588C50.992 104.812 51.872 105.14 52.728 105.568Z" fill="#FCB8A8"/>
<path d="M53 107.488C53.24 107.608 53.492 107.752 53.656 108.052C53.82 108.352 53.84 108.872 53.636 109.108C53.524 109.24 53.372 109.256 53.232 109.26C52.188 109.288 51.148 108.972 50.164 108.448C49.964 108.34 49.76 108.224 49.596 108.012C49.3 107.636 49.228 107 49.544 106.596C49.788 106.284 50.084 106.432 50.372 106.508C51.264 106.732 52.144 107.06 53 107.488Z" fill="#FCB8A8"/>
<path d="M53.4799 109.568C53.7199 109.688 53.9719 109.832 54.1359 110.132C54.2999 110.432 54.3199 110.952 54.1159 111.188C54.0039 111.32 53.8519 111.336 53.7119 111.34C52.6679 111.368 51.628 111.052 50.644 110.528C50.444 110.42 50.24 110.304 50.076 110.092C49.78 109.716 49.7079 109.08 50.0239 108.676C50.2679 108.364 50.5639 108.512 50.8519 108.588C51.7439 108.812 52.6239 109.14 53.4799 109.568Z" fill="#FCB8A8"/>
<path d="M141.488 115.28L123.132 107.056L119.268 114.492C119.268 114.492 134.236 122.66 137.544 123.488C141.948 124.588 148.1 121.432 141.492 115.284L141.488 115.28Z" fill="#68E2FD"/>
<path d="M141.488 115.28L123.132 107.056L119.268 114.492C119.268 114.492 134.236 122.66 137.544 123.488C141.948 124.588 148.1 121.432 141.492 115.284L141.488 115.28Z" fill="url(#paint5_linear_66_613)"/>
<path d="M111.108 97.3239C111.539 97.3239 111.888 96.9747 111.888 96.5439C111.888 96.1131 111.539 95.7639 111.108 95.7639C110.677 95.7639 110.328 96.1131 110.328 96.5439C110.328 96.9747 110.677 97.3239 111.108 97.3239Z" fill="#231F20"/>
<path d="M111.108 98.62C111.428 98.62 111.688 98.3604 111.688 98.04C111.688 97.7196 111.428 97.46 111.108 97.46C110.788 97.46 110.528 97.7196 110.528 98.04C110.528 98.3604 110.788 98.62 111.108 98.62Z" fill="#231F20"/>
<path d="M89.0159 107.052V113.34L88.6199 113.808V113.34C88.6199 113.34 75.9599 128.072 69.0759 127.516C65.0199 127.192 61.8559 125.264 59.9399 123.728C60.4119 124.04 64.6519 126.428 74.4559 118.016C84.8879 109.068 89.0199 107.048 89.0199 107.048L89.0159 107.052Z" fill="url(#paint6_linear_66_613)"/>
<defs>
<linearGradient id="paint0_linear_66_613" x1="106.256" y1="133.48" x2="110.664" y2="-24.5681" gradientUnits="userSpaceOnUse">
<stop stop-color="white"/>
<stop offset="1" stop-color="white" stop-opacity="0"/>
</linearGradient>
<linearGradient id="paint1_linear_66_613" x1="105.952" y1="72.6319" x2="109.44" y2="99.8919" gradientUnits="userSpaceOnUse">
<stop/>
<stop offset="0.2" stop-opacity="0.69"/>
<stop offset="0.32" stop-opacity="0.1024"/>
<stop offset="1" stop-opacity="0"/>
</linearGradient>
<linearGradient id="paint2_linear_66_613" x1="56.5479" y1="93.752" x2="159.004" y2="177.16" gradientUnits="userSpaceOnUse">
<stop/>
<stop offset="0.2" stop-opacity="0.69"/>
<stop offset="0.32" stop-opacity="0.1024"/>
<stop offset="1" stop-opacity="0"/>
</linearGradient>
<linearGradient id="paint3_linear_66_613" x1="167.076" y1="157.456" x2="-4.74394" y2="39.7441" gradientUnits="userSpaceOnUse">
<stop/>
<stop offset="0.2" stop-opacity="0.69"/>
<stop offset="0.32" stop-opacity="0.1024"/>
<stop offset="1" stop-opacity="0"/>
</linearGradient>
<linearGradient id="paint4_linear_66_613" x1="118.592" y1="101.136" x2="123.26" y2="142.516" gradientUnits="userSpaceOnUse">
<stop/>
<stop offset="0.2" stop-opacity="0.69"/>
<stop offset="0.32" stop-opacity="0.1024"/>
<stop offset="1" stop-opacity="0"/>
</linearGradient>
<linearGradient id="paint5_linear_66_613" x1="131.368" y1="127.116" x2="133.708" y2="77.6919" gradientUnits="userSpaceOnUse">
<stop/>
<stop offset="0.2" stop-opacity="0.69"/>
<stop offset="0.32" stop-opacity="0.1024"/>
<stop offset="1" stop-opacity="0"/>
</linearGradient>
<linearGradient id="paint6_linear_66_613" x1="101.544" y1="89.7041" x2="39.04" y2="156.336" gradientUnits="userSpaceOnUse">
<stop/>
<stop offset="0.2" stop-opacity="0.69"/>
<stop offset="0.32" stop-opacity="0.1024"/>
<stop offset="1" stop-opacity="0"/>
</linearGradient>
</defs>
</svg>
