<svg width="300" height="300" viewBox="0 0 300 300" fill="none" xmlns="http://www.w3.org/2000/svg">
<path opacity="0.18" d="M137.604 32.5439C145.542 33.7679 153.27 36.1139 160.554 39.5099C170.652 44.3459 178.986 51.7739 188.478 57.5579C204.654 67.4099 224.022 72.9779 242.406 76.8359C249.75 78.3899 257.184 79.8299 263.796 83.3279C273.894 88.6859 281.124 98.4119 286.158 108.72C297.174 131.346 299.184 158.796 289.38 182.016C279.798 204.588 257.904 223.656 233.028 226.08C201.636 229.302 170.25 235.452 138.798 239.346C116.958 242.58 95.0281 245.772 72.9541 246.054C63.7741 246.156 54.3541 245.706 45.6061 242.742C29.1901 237.15 14.3701 225.63 7.94409 209.184C2.73009 195.708 3.18009 180.69 9.20409 167.556C12.8761 159.576 18.5881 152.538 21.2581 144.168C23.6701 136.602 23.4061 128.616 23.0401 120.786C22.5841 113.496 23.5021 106.182 25.7461 99.2339C30.0961 85.0139 36.9541 71.4179 46.6381 60.1079C58.5721 46.1099 75.0001 35.6279 93.0961 32.2499C100.098 31.0739 107.196 30.5699 114.294 30.7559C122.1 30.7559 129.894 31.3559 137.61 32.5559L137.604 32.5439Z" fill="#68E1FD"/>
<path opacity="0.35" d="M144.324 211.5C193.109 211.5 232.656 204.983 232.656 196.944C232.656 188.905 193.109 182.388 144.324 182.388C95.5398 182.388 55.9922 188.905 55.9922 196.944C55.9922 204.983 95.5398 211.5 144.324 211.5Z" fill="#68E1FD"/>
<path d="M88.5299 187.986C88.4999 188.904 88.6739 189.822 89.0339 190.668C89.4779 191.466 90.1619 192.102 90.9779 192.504C92.7359 193.41 94.7759 193.614 96.6779 193.062C96.9359 193.008 97.1699 192.87 97.3379 192.666C97.4279 192.492 97.4699 192.294 97.4459 192.096C97.3019 191.046 96.7739 190.092 95.9579 189.414C95.1419 188.754 94.4459 187.956 93.8999 187.062C92.9819 185.298 93.6779 180.636 90.3539 181.35C87.5819 181.926 88.4459 185.988 88.5179 187.98L88.5299 187.986Z" fill="#FFBAA8"/>
<path d="M88.0739 191.136C88.0739 191.136 87.6059 192.294 88.1819 192.972C88.7579 193.65 94.7279 197.358 98.7479 194.376C102.768 191.394 93.2939 190.998 93.2939 190.998L88.0679 191.136H88.0739Z" fill="#68E1FD"/>
<path d="M88.314 188.43C88.692 188.25 89.148 188.37 89.388 188.712C90.192 189.606 91.398 190.026 92.58 189.822C93.882 189.51 94.416 187.986 95.058 187.986C95.7 187.986 99.186 190.944 99.384 192.21C99.582 193.476 97.806 194.412 95.838 194.532C93.87 194.652 89.412 193.302 88.596 192.264C87.882 191.106 87.774 189.678 88.314 188.424V188.43Z" fill="#F1F1F1"/>
<path d="M77.1419 189.768C77.1119 190.686 77.2859 191.604 77.6459 192.45C78.0959 193.248 78.7739 193.89 79.6019 194.286C81.3599 195.198 83.3939 195.396 85.2959 194.844C85.5659 194.784 85.8059 194.634 85.9739 194.412C86.0639 194.238 86.1059 194.04 86.0819 193.842C85.9379 192.792 85.4099 191.838 84.5939 191.16C83.7779 190.5 83.0819 189.702 82.5359 188.808C81.6659 187.044 82.3139 182.382 78.9899 183.108C76.1999 183.75 77.0639 187.806 77.1359 189.762L77.1419 189.768Z" fill="#FFBAA8"/>
<path d="M76.6798 192.954C76.6798 192.954 76.2118 194.112 76.7878 194.79C77.3638 195.468 83.3338 199.176 87.3538 196.194C91.3738 193.212 81.8998 192.816 81.8998 192.816L76.6738 192.954H76.6798Z" fill="#68E1FD"/>
<path d="M76.9199 190.254C77.2979 190.068 77.754 190.182 77.994 190.53C78.792 191.43 79.9979 191.856 81.1859 191.658C82.4879 191.346 83.022 189.822 83.676 189.822C84.33 189.822 87.7979 192.78 87.9899 194.046C88.1819 195.312 86.412 196.248 84.444 196.368C82.476 196.488 78.0179 195.138 77.2019 194.1C76.4819 192.942 76.3739 191.502 76.9199 190.254Z" fill="#F1F1F1"/>
<path d="M74.7718 140.73C74.7718 140.73 74.1478 174.852 76.6738 186.234L83.0998 187.026L87.5398 140.31L74.7718 140.73Z" fill="#473F47"/>
<path d="M94.5778 137.004C94.5778 137.004 97.5958 155.364 93.9358 184.968L87.5098 185.766L83.0698 139.044L94.5838 137.004H94.5778Z" fill="#473F47"/>
<path d="M93.996 122.61C93.996 123.228 94.08 123.852 94.08 124.446C94.08 127.854 93.288 131.358 94.308 134.7C94.638 135.414 94.734 136.206 94.584 136.974C94.296 137.592 93.786 138.078 93.162 138.342C90.162 139.986 86.736 140.49 83.304 140.97C80.76 141.33 77.142 142.08 74.796 140.712C73.902 140.046 73.302 139.062 73.128 137.958C72.228 134.442 71.694 130.842 71.538 127.218C71.538 126.738 71.472 126.3 71.448 125.802C71.256 122.532 71.184 119.274 71.244 116.016C71.244 113.646 71.484 111.084 73.026 109.296C75.084 106.92 79.056 105.342 82.08 104.79C83.064 104.592 84.066 104.544 85.062 104.646C86.472 104.874 87.828 105.336 89.082 106.014C90.588 106.758 91.92 107.382 92.652 108.858C93.462 110.574 94.026 112.392 94.332 114.264C94.602 116.016 94.632 117.798 94.422 119.562C94.332 120.426 94.11 121.278 94.026 122.142C94.008 122.298 94.008 122.454 93.996 122.61Z" fill="#F1F1F1"/>
<path d="M91.1458 107.208L100.134 112.002L119.154 105.246L122.46 113.382C122.46 113.382 105.018 122.304 101.652 122.34C98.2858 122.376 89.4238 119.928 89.4238 119.928L91.1518 107.214L91.1458 107.208Z" fill="#F1F1F1"/>
<path opacity="0.1" d="M99.0299 117.138C98.0099 117.018 92.9159 114.486 92.3579 114.06C93.1379 115.704 94.1939 120.804 94.3679 120.906C96.2879 121.866 98.3759 122.442 100.518 122.604C102.666 122.76 104.82 122.358 106.758 121.428C107.712 120.87 108.696 120.366 109.704 119.916C110.31 119.688 110.946 119.556 111.54 119.358C113.13 118.758 114.618 117.93 115.974 116.91C116.418 116.688 116.754 116.292 116.892 115.818C116.982 115.212 116.442 114.696 115.89 114.432C115.02 114.054 114.084 113.856 113.136 113.856C111.888 113.694 110.628 113.724 109.392 113.94C108.612 114.162 108.036 114.858 107.274 115.236C105.072 116.202 101.418 117.42 99.0299 117.144V117.138Z" fill="#020202"/>
<path opacity="0.1" d="M80.1059 141.894C79.1159 142.176 76.8359 141.276 76.0859 141.144C75.6299 141.072 75.1679 140.844 74.7719 140.73C72.5159 140.172 72.2459 133.836 72.0179 132.126C71.4299 127.62 70.5299 122.946 70.4759 118.428C70.3799 116.688 70.5779 114.942 71.0699 113.268C71.5859 111.576 72.8279 110.196 74.4599 109.506C74.7779 109.374 75.1259 109.338 75.4619 109.404C76.8299 109.752 77.1119 112.02 77.3519 113.076C77.7659 115.002 78.7019 115.884 79.6559 117.426C80.6099 118.968 80.6759 120.894 81.5819 122.484C81.8039 122.928 82.1159 123.324 82.4999 123.642C83.2739 124.092 84.1799 124.284 85.0679 124.182H91.5479C92.0699 124.11 92.5979 124.242 93.0239 124.548C93.4019 125.046 93.5459 125.682 93.4079 126.294L93.0119 131.088C93.0179 131.298 92.9639 131.502 92.8559 131.682C92.6699 131.874 92.4239 131.994 92.1599 132.024C90.3839 132.282 88.6619 132.81 87.0479 133.596C85.4819 134.67 83.8139 135.594 82.0739 136.35C81.5699 136.578 81.1139 136.884 80.7179 137.268C80.2559 137.844 80.0219 138.576 80.0639 139.314C80.0639 139.782 80.6579 141.222 80.4839 141.564C80.4059 141.72 80.2679 141.84 80.0999 141.894H80.1059Z" fill="#020202"/>
<path d="M87.0359 101.982C86.6759 102.378 86.1839 102.63 85.6499 102.678C85.2059 102.72 84.7559 102.72 84.3119 102.678H84.0659C84.0059 102.66 83.9399 102.66 83.8799 102.678C83.8259 102.732 83.7959 102.804 83.7959 102.882C83.7179 103.776 83.7179 104.67 83.7959 105.564V106.05C83.8439 106.212 83.8439 106.392 83.7959 106.554C83.6699 106.734 83.4719 106.86 83.2559 106.902C82.8659 107.034 82.4579 107.106 82.0439 107.112C81.1559 107.046 80.2979 106.764 79.5479 106.284C79.6139 104.748 79.5299 103.212 79.3079 101.694C79.0259 99.7382 78.5099 97.7822 78.7199 95.8202C78.7739 95.0522 79.0619 94.3202 79.5479 93.7202C80.3279 92.9822 81.3839 92.5982 82.4579 92.6762C83.8679 92.6582 85.2479 93.0362 86.4539 93.7682C86.8919 94.0682 86.9399 94.4582 87.0419 94.9502C87.1979 95.7242 87.3179 96.5042 87.4079 97.2842C87.4979 98.0642 87.5519 99.0662 87.5759 99.9662C87.6479 100.68 87.4559 101.4 87.0419 101.988L87.0359 101.982Z" fill="#FFBAA8"/>
<path d="M85.4759 94.2122C84.5579 94.4582 83.3759 94.2122 82.4459 94.6142C81.1319 95.2862 80.5139 96.8282 80.9939 98.2202C80.6159 98.3582 80.5439 97.6682 80.2499 97.3922C79.9559 97.1162 79.3319 97.4822 79.2479 97.9622C79.2719 98.4422 79.4159 98.9102 79.6619 99.3182C80.0219 100.164 80.0879 101.106 79.8479 101.988C79.7819 102.198 79.6259 102.444 79.4279 102.39C79.2299 102.336 79.0679 101.976 78.9419 101.82C78.7379 101.574 78.5159 101.346 78.2699 101.142C77.8139 100.74 77.2979 100.38 76.8179 99.9842C76.3379 99.5882 76.1639 99.2102 75.6179 99.0662C75.0959 98.9642 74.5679 98.8982 74.0399 98.8742C72.7979 98.6342 71.9879 97.4342 72.2279 96.1982C72.3239 95.7122 72.5699 95.2682 72.9359 94.9382C73.1159 94.8122 73.2719 94.6502 73.3859 94.4582C73.4579 94.2422 73.4759 94.0202 73.4399 93.7982C73.4639 92.6222 74.0759 91.5362 75.0719 90.9062C76.0559 90.2882 77.1959 89.9702 78.3599 89.9882C78.6119 90.0062 78.8639 89.9762 79.1039 89.8982C79.3259 89.7842 79.5299 89.6342 79.6979 89.4602C81.5279 87.9122 84.2699 88.1402 85.8179 89.9702C86.0039 90.1922 86.1659 90.4262 86.3099 90.6842C86.6819 91.3142 86.8319 92.0522 86.7239 92.7782C86.6579 93.4742 86.1539 94.0502 85.4759 94.2122Z" fill="#231F20"/>
<path d="M84.3058 102.708H84.0598C83.9998 102.69 83.9338 102.69 83.8738 102.708C83.8198 102.762 83.7898 102.834 83.7898 102.912C83.7118 103.806 83.7118 104.7 83.7898 105.594C82.1638 105.078 81.1318 103.488 81.3118 101.796C82.2838 102.204 83.2978 102.516 84.3298 102.714H84.2998L84.3058 102.708Z" fill="#E0A091"/>
<path d="M73.8359 109.626C76.3679 108.726 79.1519 110.052 80.0459 112.584L84.4499 124.998C85.3499 127.53 84.0239 130.314 81.4919 131.208C78.9599 132.108 76.1759 130.782 75.2819 128.25L70.8779 115.836C69.9779 113.304 71.3039 110.52 73.8359 109.626Z" fill="#F1F1F1"/>
<path d="M213.564 112.956C209.628 186.78 160.224 206.076 160.224 206.076C105.378 173.394 105.654 109.578 105.654 109.578C140.61 100.14 160.602 80.8381 161.226 80.2021C174.258 99.1921 213.57 112.956 213.57 112.956H213.564Z" fill="#68E1FD"/>
<path d="M213.564 112.662C209.628 186.486 160.224 205.782 160.224 205.782C105.378 173.1 105.654 109.284 105.654 109.284C140.628 99.8641 160.62 80.5861 161.244 79.9441C174.258 98.9461 213.57 112.662 213.57 112.662H213.564Z" fill="url(#paint0_linear_66_1027)"/>
<path d="M100.656 119.142C101.112 118.8 101.574 118.428 101.958 118.056C102.954 117.156 104.082 116.412 105.3 115.842C106.524 115.272 107.892 115.098 109.218 115.344C109.5 115.398 109.842 115.572 109.806 115.866C109.77 116.16 109.602 116.178 109.428 116.268C108.654 116.694 107.838 117.042 106.998 117.294C106.65 117.396 106.248 117.522 106.08 117.864C106.362 117.894 106.65 117.864 106.914 117.762C107.958 117.498 109.044 117.42 110.118 117.534C110.22 117.534 110.34 117.534 110.394 117.66C110.448 117.786 110.394 117.936 110.226 118.02C109.2 118.836 107.658 118.782 106.674 119.664C106.5 119.808 106.374 120.12 106.566 120.24C106.644 120.27 106.734 120.27 106.812 120.24C107.232 120.24 107.646 120.066 108.072 119.994C108.744 119.862 109.44 119.844 110.118 119.94C110.208 119.94 110.298 119.982 110.358 120.048C110.46 120.204 110.25 120.378 110.082 120.462L106.53 122.016C107.016 122.058 107.508 122.058 108 122.016C108.498 121.986 108.99 122.142 109.374 122.454C109.404 122.472 109.428 122.502 109.428 122.538C109.428 122.604 109.428 122.64 109.326 122.664C108.756 122.97 108.132 123.156 107.49 123.216C107.106 123.246 106.728 123.312 106.362 123.42C106.14 123.504 105.918 123.6 105.708 123.714C105.024 124.074 104.286 124.326 103.524 124.446C102.756 124.578 101.97 124.446 101.286 124.08C101.1 123.966 100.908 123.864 100.71 123.786C99.9779 123.582 99.1559 124.344 98.4779 123.99C98.2499 123.834 98.0639 123.624 97.9439 123.372C97.5779 122.766 96.3479 121.08 97.3379 120.516C97.8959 120.3 98.4659 120.114 99.0479 119.964C99.6119 119.748 100.152 119.466 100.656 119.13V119.142Z" fill="#FFBAA8"/>
<path d="M85.2898 121.098L97.4458 119.934L99.4078 125.862C99.4078 125.862 81.6478 133.086 78.1918 131.076C74.7358 129.066 77.9458 125.79 77.9458 125.79C77.9458 125.79 78.3478 120.978 85.2898 121.098Z" fill="#F1F1F1"/>
<path d="M207.186 116.532C203.706 181.596 160.17 198.606 160.17 198.606C111.828 169.8 112.068 113.556 112.068 113.556C142.884 105.24 160.5 88.218 161.052 87.696C172.524 104.448 207.186 116.526 207.186 116.526V116.532Z" fill="#68E1FD"/>
<path d="M161.058 87.6901L160.14 198.606C111.798 169.8 112.038 113.556 112.038 113.556C142.854 105.24 160.47 88.2181 161.022 87.6961L161.058 87.6841V87.6901Z" fill="url(#paint1_linear_66_1027)"/>
<path d="M160.17 143.766C164.879 143.766 168.696 139.949 168.696 135.24C168.696 130.531 164.879 126.714 160.17 126.714C155.461 126.714 151.644 130.531 151.644 135.24C151.644 139.949 155.461 143.766 160.17 143.766Z" fill="#473F47"/>
<path d="M155.04 156.51H164.226L161.616 142.854H158.268L155.04 156.51Z" fill="#473F47"/>
<path opacity="0.18" d="M114.39 132.12H125.358V124.164H134.052" stroke="#F1F1F1" stroke-width="1.47" stroke-miterlimit="10"/>
<path opacity="0.18" d="M116.538 140.646H130.824V158.016H139.764" stroke="#F1F1F1" stroke-width="1.47" stroke-miterlimit="10"/>
<path opacity="0.18" d="M206.28 126.714H188.196V116.46H172.044" stroke="#F1F1F1" stroke-width="1.47" stroke-miterlimit="10"/>
<path opacity="0.18" d="M202.908 143.772H185.292V161.826H172.872" stroke="#F1F1F1" stroke-width="1.47" stroke-miterlimit="10"/>
<path opacity="0.18" d="M134.052 175.548H148.83V168.612H157.77" stroke="#F1F1F1" stroke-width="1.47" stroke-miterlimit="10"/>
<path d="M123.294 106.08C123.654 106.212 124.056 106.134 124.332 105.87C124.734 105.402 124.416 104.694 124.086 104.172C124.398 103.932 124.848 104.238 125.088 104.556C125.328 104.874 125.61 105.264 126.006 105.216C126.402 105.168 126.624 104.628 126.522 104.226C126.366 103.83 126.162 103.458 125.928 103.104C126.102 102.864 126.486 103.104 126.642 103.332C126.798 103.56 127.008 103.908 127.296 103.848C127.53 103.746 127.65 103.488 127.578 103.242C127.506 103.002 127.458 102.762 127.422 102.516C127.908 102.36 128.466 102.864 128.916 102.624C129.228 102.396 129.288 101.958 129.06 101.646C129.042 101.622 129.03 101.604 129.006 101.586C128.718 101.304 128.34 101.13 127.944 101.082C126.954 100.872 125.922 100.992 125.004 101.43C123.948 101.85 122.844 102.072 121.818 102.606C120.87 103.008 120.03 103.638 119.388 104.442C119.28 104.628 119.334 104.862 119.508 104.982C119.646 105.03 119.796 105.03 119.928 104.982C120.66 104.844 121.41 104.97 122.058 105.342C122.406 105.582 122.766 105.804 123.144 106.002L123.3 106.074L123.294 106.08Z" fill="#FFBAA8"/>
<path d="M260.214 111.798C250.224 90.504 204.294 74.364 149.304 74.364C87.03 74.364 36.396 95.052 36.396 120.492C36.396 145.932 87.06 166.62 149.304 166.62C191.748 166.62 228.798 157.008 248.094 142.836C250.872 140.832 253.422 138.528 255.696 135.972C258.69 132.738 260.802 128.784 261.816 124.5C262.092 123.186 262.236 121.842 262.236 120.498C262.212 117.486 261.522 114.516 260.208 111.804L260.214 111.798ZM254.808 135.882C252.828 138.054 250.644 140.034 248.292 141.792C229.398 156.096 192.114 165.84 149.292 165.84C87.45 165.84 37.128 145.5 37.128 120.486C37.128 95.472 87.45 75.12 149.31 75.12C203.598 75.12 249 90.798 259.29 111.546C260.706 114.318 261.45 117.378 261.474 120.486C261.474 121.572 261.378 122.658 261.18 123.726C260.43 127.968 258.24 132.042 254.808 135.882Z" fill="#F1F1F1"/>
<path opacity="0.18" d="M263.652 118.398C263.586 117.654 263.472 116.916 263.322 116.184C263.046 114.882 262.65 113.61 262.146 112.374L261.978 112.32C261.402 112.134 260.802 111.972 260.214 111.798C250.224 90.504 204.294 74.364 149.304 74.364C87.03 74.364 36.396 95.052 36.396 120.492C36.396 145.932 87.06 166.62 149.304 166.62C191.748 166.62 228.798 157.008 248.094 142.836C248.058 143.394 248.244 143.94 248.616 144.36C252.108 141.9 255.246 138.972 257.952 135.666C260.142 132.996 261.798 129.936 262.836 126.642C263.448 124.65 263.754 122.58 263.754 120.498C263.754 119.796 263.718 119.094 263.646 118.398H263.652ZM149.31 165.846C87.468 165.846 37.146 145.506 37.146 120.492C37.146 95.478 87.45 75.126 149.31 75.126C203.598 75.126 249 90.804 259.29 111.552C258.756 111.45 258.198 111.54 257.73 111.816C259.152 114.486 259.914 117.462 259.944 120.492C259.944 121.194 259.902 121.89 259.818 122.586C259.278 127.008 257.064 131.346 253.206 135.438C251.76 136.98 250.206 138.402 248.544 139.704C248.658 140.1 248.658 140.514 248.544 140.904C248.46 141.198 248.37 141.492 248.286 141.822C229.404 156.096 192.114 165.846 149.31 165.846Z" fill="#68E1FD"/>
<path opacity="0.18" d="M259.272 111.552C258.738 111.45 258.18 111.54 257.712 111.816C253.488 103.638 243.288 96.0361 227.988 89.8501C206.958 81.3481 179.004 76.6681 149.31 76.6681C119.616 76.6681 91.6319 81.3481 70.6019 89.8501C49.9919 98.1781 38.6579 109.044 38.6579 120.492C38.6579 131.94 49.9919 142.8 70.5839 151.122C91.6139 159.63 119.568 164.31 149.292 164.31C179.016 164.31 206.958 159.63 227.988 151.122C236.442 147.708 243.33 143.868 248.52 139.71C248.634 140.106 248.634 140.52 248.52 140.91C248.436 141.204 248.346 141.498 248.262 141.828C229.368 156.132 192.084 165.876 149.262 165.876C87.4199 165.876 37.0979 145.536 37.0979 120.522C37.0979 95.5081 87.4499 75.1201 149.31 75.1201C203.58 75.1201 248.982 90.7981 259.272 111.546V111.552Z" fill="#68E1FD"/>
<path opacity="0.18" d="M262.146 112.374L261.978 112.32C261.402 112.134 260.802 111.972 260.214 111.798C250.224 90.5041 204.294 74.3641 149.304 74.3641C87.0299 74.3641 36.3959 95.0521 36.3959 120.492C36.3959 145.932 87.0599 166.62 149.304 166.62C191.748 166.62 228.798 157.008 248.094 142.836C248.058 143.394 248.244 143.94 248.616 144.36C242.73 148.482 236.382 151.89 229.698 154.524C208.152 163.32 179.598 168.156 149.304 168.156C119.01 168.156 90.4379 163.32 68.9099 154.524C46.9319 145.548 34.8359 133.458 34.8359 120.498C34.8359 107.538 46.9139 95.4481 68.8919 86.4781C90.4199 77.6761 119.01 72.8401 149.304 72.8401C179.598 72.8401 208.17 77.6761 229.698 86.4781C246.99 93.5461 258.174 102.54 262.14 112.38L262.146 112.374Z" fill="#68E1FD"/>
<path d="M124.89 88.158H103.254V61.446H121.908L124.89 65.256V88.158Z" fill="#F1F1F1"/>
<path d="M122.97 89.7359H101.334V63.0239H119.988L122.97 66.8339V89.7359Z" fill="#F1F1F1"/>
<path d="M122.79 89.922H101.154V63.21H119.808L122.79 67.02V89.922Z" fill="url(#paint2_linear_66_1027)"/>
<path d="M120.888 92.1361H99.252V65.4121H117.906L120.888 69.2221V92.1361Z" fill="#F1F1F1"/>
<path d="M117.906 65.4121V69.1861H120.888L117.906 65.4121Z" fill="url(#paint3_linear_66_1027)"/>
<path d="M119.808 63.21V67.092H122.79L119.808 63.21Z" fill="url(#paint4_linear_66_1027)"/>
<path d="M121.908 61.446V65.328H124.89L121.908 61.446Z" fill="url(#paint5_linear_66_1027)"/>
<path d="M262.152 144.402C261.57 144.252 261.078 143.874 260.796 143.346C260.574 142.968 260.376 142.572 260.154 142.2C259.764 141.426 258.924 140.994 258.072 141.126C257.202 141.18 256.464 141.786 256.236 142.632C256.098 143.082 255.99 143.55 255.834 143.982C255.468 145.14 254.244 145.788 253.08 145.44L250.554 144.696C249.36 144.372 248.652 143.142 248.976 141.948C248.976 141.93 248.988 141.906 248.994 141.888C249.114 141.432 249.27 140.97 249.378 140.532C249.618 139.722 249.318 138.852 248.634 138.354C248.01 137.808 247.104 137.718 246.384 138.132C245.988 138.324 245.61 138.552 245.226 138.756C244.122 139.374 242.73 138.978 242.118 137.874C242.112 137.862 242.106 137.85 242.1 137.838C241.662 137.04 241.182 136.248 240.786 135.45C240.162 134.4 240.51 133.044 241.56 132.42C241.608 132.39 241.656 132.366 241.704 132.342C242.07 132.132 242.454 131.946 242.814 131.736C243.552 131.358 243.978 130.56 243.876 129.732C243.846 128.88 243.27 128.142 242.454 127.896C242.016 127.752 241.536 127.638 241.104 127.494C239.91 127.182 239.19 125.952 239.508 124.758C239.526 124.692 239.55 124.62 239.574 124.554C239.802 123.756 240.03 122.958 240.27 122.16C240.57 121.002 241.74 120.3 242.904 120.57C243.384 120.66 243.822 120.816 244.308 120.948C245.406 121.32 246.6 120.732 246.972 119.634C247.176 119.034 247.098 118.38 246.768 117.846C246.564 117.486 246.366 117.132 246.18 116.772C245.604 115.71 246 114.384 247.056 113.808C247.068 113.802 247.08 113.796 247.098 113.784C247.95 113.298 248.814 112.866 249.696 112.386C250.782 111.852 252.09 112.254 252.69 113.304C252.918 113.7 253.122 114.102 253.35 114.498C253.74 115.23 254.55 115.638 255.372 115.518C256.218 115.464 256.938 114.882 257.16 114.066C257.298 113.652 257.406 113.22 257.538 112.806C257.85 111.588 259.092 110.856 260.31 111.168C260.376 111.186 260.442 111.204 260.502 111.228L262.854 111.918C264.072 112.218 264.81 113.448 264.51 114.66C264.498 114.702 264.492 114.738 264.48 114.78C264.372 115.182 264.24 115.596 264.12 115.998C263.826 116.826 264.108 117.75 264.81 118.272C265.476 118.842 266.436 118.92 267.186 118.464C267.546 118.272 267.9 118.062 268.26 117.876C269.37 117.27 270.756 117.684 271.362 118.788C271.818 119.604 272.28 120.432 272.718 121.26C273.312 122.328 272.934 123.672 271.866 124.272C271.842 124.284 271.818 124.296 271.8 124.308C271.404 124.53 270.99 124.722 270.6 124.95C269.922 125.304 269.52 126.024 269.574 126.786C269.574 127.602 270.072 128.334 270.834 128.622C271.29 128.808 271.752 128.922 272.268 129.072C273.378 129.324 274.08 130.428 273.828 131.538C273.81 131.604 273.792 131.676 273.774 131.742C273.534 132.66 273.27 133.578 272.976 134.496C272.688 135.63 271.53 136.314 270.396 136.026C270.324 136.008 270.246 135.984 270.174 135.954C269.754 135.834 269.34 135.696 268.908 135.594C268.11 135.378 267.264 135.69 266.79 136.368C266.262 136.986 266.184 137.88 266.598 138.582C266.808 138.984 267.048 139.38 267.258 139.776C267.858 140.844 267.474 142.2 266.4 142.8C266.382 142.812 266.358 142.824 266.34 142.836C265.524 143.292 264.696 143.754 263.868 144.186C263.352 144.48 262.734 144.558 262.158 144.39L262.152 144.402ZM249.75 126.264C248.61 130.116 250.812 134.16 254.658 135.294C258.51 136.434 262.554 134.232 263.688 130.386C264.828 126.534 262.626 122.49 258.78 121.356C254.94 120.21 250.902 122.394 249.756 126.234C249.756 126.246 249.75 126.258 249.744 126.27L249.75 126.264Z" fill="#68E1FD"/>
<g opacity="0.27">
<path d="M262.152 144.402C261.57 144.252 261.078 143.874 260.796 143.346C260.574 142.968 260.376 142.572 260.154 142.2C259.764 141.426 258.924 140.994 258.072 141.126C257.202 141.18 256.464 141.786 256.236 142.632C256.098 143.082 255.99 143.55 255.834 143.982C255.468 145.14 254.244 145.788 253.08 145.44L250.554 144.696C249.36 144.372 248.652 143.142 248.976 141.948C248.976 141.93 248.988 141.906 248.994 141.888C249.114 141.432 249.27 140.97 249.378 140.532C249.618 139.722 249.318 138.852 248.634 138.354C248.01 137.808 247.104 137.718 246.384 138.132C245.988 138.324 245.61 138.552 245.226 138.756C244.122 139.374 242.73 138.978 242.118 137.874C242.112 137.862 242.106 137.85 242.1 137.838C241.662 137.04 241.182 136.248 240.786 135.45C240.162 134.4 240.51 133.044 241.56 132.42C241.608 132.39 241.656 132.366 241.704 132.342C242.07 132.132 242.454 131.946 242.814 131.736C243.552 131.358 243.978 130.56 243.876 129.732C243.846 128.88 243.27 128.142 242.454 127.896C242.016 127.752 241.536 127.638 241.104 127.494C239.91 127.182 239.19 125.952 239.508 124.758C239.526 124.692 239.55 124.62 239.574 124.554C239.802 123.756 240.03 122.958 240.27 122.16C240.57 121.002 241.74 120.3 242.904 120.57C243.384 120.66 243.822 120.816 244.308 120.948C245.406 121.32 246.6 120.732 246.972 119.634C247.176 119.034 247.098 118.38 246.768 117.846C246.564 117.486 246.366 117.132 246.18 116.772C245.604 115.71 246 114.384 247.056 113.808C247.068 113.802 247.08 113.796 247.098 113.784C247.95 113.298 248.814 112.866 249.696 112.386C250.782 111.852 252.09 112.254 252.69 113.304C252.918 113.7 253.122 114.102 253.35 114.498C253.74 115.23 254.55 115.638 255.372 115.518C256.218 115.464 256.938 114.882 257.16 114.066C257.298 113.652 257.406 113.22 257.538 112.806C257.85 111.588 259.092 110.856 260.31 111.168C260.376 111.186 260.442 111.204 260.502 111.228L262.854 111.918C264.072 112.218 264.81 113.448 264.51 114.66C264.498 114.702 264.492 114.738 264.48 114.78C264.372 115.182 264.24 115.596 264.12 115.998C263.826 116.826 264.108 117.75 264.81 118.272C265.476 118.842 266.436 118.92 267.186 118.464C267.546 118.272 267.9 118.062 268.26 117.876C269.37 117.27 270.756 117.684 271.362 118.788C271.818 119.604 272.28 120.432 272.718 121.26C273.312 122.328 272.934 123.672 271.866 124.272C271.842 124.284 271.818 124.296 271.8 124.308C271.404 124.53 270.99 124.722 270.6 124.95C269.922 125.304 269.52 126.024 269.574 126.786C269.574 127.602 270.072 128.334 270.834 128.622C271.29 128.808 271.752 128.922 272.268 129.072C273.378 129.324 274.08 130.428 273.828 131.538C273.81 131.604 273.792 131.676 273.774 131.742C273.534 132.66 273.27 133.578 272.976 134.496C272.688 135.63 271.53 136.314 270.396 136.026C270.324 136.008 270.246 135.984 270.174 135.954C269.754 135.834 269.34 135.696 268.908 135.594C268.11 135.378 267.264 135.69 266.79 136.368C266.262 136.986 266.184 137.88 266.598 138.582C266.808 138.984 267.048 139.38 267.258 139.776C267.858 140.844 267.474 142.2 266.4 142.8C266.382 142.812 266.358 142.824 266.34 142.836C265.524 143.292 264.696 143.754 263.868 144.186C263.352 144.48 262.734 144.558 262.158 144.39L262.152 144.402ZM249.75 126.264C248.61 130.116 250.812 134.16 254.658 135.294C258.51 136.434 262.554 134.232 263.688 130.386C264.828 126.534 262.626 122.49 258.78 121.356C254.94 120.21 250.902 122.394 249.756 126.234C249.756 126.246 249.75 126.258 249.744 126.27L249.75 126.264Z" fill="#020202"/>
</g>
<path d="M271.398 129.504C270.93 129.36 270.432 129.246 269.976 129.054C269.214 128.766 268.716 128.034 268.716 127.218C268.668 126.456 269.076 125.736 269.754 125.382C270.138 125.16 270.552 124.962 270.948 124.74C272.034 124.182 272.46 122.844 271.902 121.758C271.89 121.734 271.878 121.71 271.866 121.692C271.428 120.864 270.948 120.042 270.51 119.232C269.91 118.122 268.518 117.708 267.414 118.314L266.34 118.902C265.59 119.358 264.63 119.286 263.964 118.716C263.862 118.626 263.772 118.53 263.682 118.434C263.19 117.894 263.034 117.126 263.28 116.43C263.28 116.364 263.328 116.286 263.352 116.22C263.442 115.878 263.544 115.548 263.628 115.212C263.994 114.036 263.346 112.788 262.176 112.41L262.008 112.356C261.432 112.17 260.832 112.008 260.244 111.834L259.65 111.66L259.302 111.588C258.768 111.486 258.21 111.576 257.742 111.852C257.244 112.158 256.884 112.638 256.722 113.202C256.584 113.622 256.476 114.048 256.344 114.468C256.104 115.29 255.366 115.872 254.508 115.908C253.692 116.028 252.882 115.626 252.486 114.9C252.246 114.504 252.054 114.102 251.826 113.7C251.232 112.65 249.924 112.248 248.844 112.782C247.926 113.214 247.092 113.7 246.24 114.168C245.166 114.72 244.746 116.04 245.298 117.114C245.304 117.126 245.31 117.138 245.322 117.156C245.508 117.522 245.718 117.87 245.91 118.23C246.402 118.98 246.342 119.964 245.772 120.654C245.226 121.362 244.29 121.638 243.45 121.344C242.982 121.206 242.532 121.05 242.046 120.96C240.882 120.69 239.712 121.392 239.412 122.55C239.184 123.348 238.944 124.146 238.716 124.956C238.29 126.114 238.884 127.392 240.042 127.818C240.114 127.842 240.186 127.866 240.258 127.884C240.696 128.04 241.176 128.13 241.596 128.286C242.412 128.532 242.982 129.27 243.018 130.122C243.126 130.944 242.706 131.748 241.962 132.126C241.596 132.336 241.212 132.528 240.84 132.732C239.748 133.278 239.298 134.604 239.844 135.696C239.868 135.744 239.898 135.792 239.922 135.84C240.354 136.638 240.792 137.436 241.236 138.228C241.842 139.344 243.246 139.758 244.362 139.146C244.746 138.936 245.124 138.714 245.52 138.51C246.24 138.096 247.14 138.186 247.77 138.732C248.106 138.978 248.358 139.32 248.496 139.716C248.61 140.112 248.61 140.526 248.496 140.916C248.412 141.21 248.322 141.504 248.238 141.834L248.1 142.302C247.914 143.034 248.082 143.808 248.55 144.396C248.838 144.744 249.222 145.002 249.66 145.122L252.186 145.854C253.35 146.196 254.568 145.548 254.94 144.396C255.096 143.958 255.204 143.478 255.342 143.046C255.576 142.206 256.308 141.6 257.178 141.54C258.03 141.414 258.864 141.846 259.254 142.614C259.476 142.992 259.674 143.388 259.89 143.772C260.502 144.858 261.864 145.266 262.974 144.69C263.802 144.24 264.624 143.772 265.446 143.34C266.532 142.782 266.958 141.444 266.4 140.358C266.388 140.334 266.376 140.31 266.364 140.292C266.142 139.89 265.908 139.5 265.704 139.098C265.278 138.396 265.356 137.508 265.89 136.884C266.364 136.206 267.21 135.894 268.008 136.104C268.44 136.206 268.854 136.35 269.274 136.47C270.372 136.86 271.578 136.29 271.974 135.192C271.998 135.132 272.016 135.072 272.028 135.012C272.328 134.094 272.598 133.176 272.838 132.258C273.246 131.184 272.706 129.99 271.632 129.582C271.56 129.552 271.488 129.534 271.416 129.51L271.398 129.504ZM262.86 130.734C261.912 133.89 258.978 136.032 255.684 135.966C255.39 135.966 255.102 135.936 254.814 135.882C254.484 135.834 254.154 135.762 253.83 135.672C253.614 135.612 253.398 135.534 253.188 135.444C249.462 133.956 247.65 129.732 249.138 126.006C250.53 122.526 254.346 120.672 257.94 121.74C258.588 121.932 259.206 122.214 259.776 122.586C260.286 122.904 260.742 123.288 261.144 123.732C261.378 123.966 261.594 124.224 261.786 124.494C262.242 125.148 262.596 125.868 262.824 126.63C263.238 127.962 263.25 129.39 262.86 130.734Z" fill="#68E1FD"/>
<defs>
<linearGradient id="paint0_linear_66_1027" x1="292.47" y1="73.9321" x2="167.316" y2="139.488" gradientUnits="userSpaceOnUse">
<stop/>
<stop offset="1" stop-opacity="0"/>
</linearGradient>
<linearGradient id="paint1_linear_66_1027" x1="-34.2661" y1="182.4" x2="177.804" y2="139.686" gradientUnits="userSpaceOnUse">
<stop/>
<stop offset="1" stop-opacity="0"/>
</linearGradient>
<linearGradient id="paint2_linear_66_1027" x1="47.1238" y1="111.426" x2="130.326" y2="66.702" gradientUnits="userSpaceOnUse">
<stop/>
<stop offset="1" stop-opacity="0"/>
</linearGradient>
<linearGradient id="paint3_linear_66_1027" x1="113.304" y1="69.2761" x2="121.212" y2="66.7141" gradientUnits="userSpaceOnUse">
<stop/>
<stop offset="1" stop-opacity="0"/>
</linearGradient>
<linearGradient id="paint4_linear_66_1027" x1="115.182" y1="69.096" x2="122.514" y2="64.368" gradientUnits="userSpaceOnUse">
<stop/>
<stop offset="1" stop-opacity="0"/>
</linearGradient>
<linearGradient id="paint5_linear_66_1027" x1="117.288" y1="67.338" x2="124.62" y2="62.598" gradientUnits="userSpaceOnUse">
<stop/>
<stop offset="1" stop-opacity="0"/>
</linearGradient>
</defs>
</svg>
