<svg width="400" height="400" viewBox="0 0 400 400" fill="none" xmlns="http://www.w3.org/2000/svg">
<path opacity="0.22" d="M387.728 77.0881V240.16C387.728 250.136 379.648 258.224 369.672 258.232H33.7922C23.8162 258.232 15.7282 250.136 15.7202 240.16V77.0881C15.7282 67.1121 23.8162 59.0321 33.7922 59.0161H369.672C379.64 59.0321 387.72 67.1121 387.728 77.0881Z" fill="url(#paint0_linear_69_1250)"/>
<path d="M388.608 76.488V239.56C388.632 249.512 380.584 257.6 370.632 257.632H34.6643C24.6883 257.632 16.5923 249.56 16.5923 239.584V76.488C16.6083 66.512 24.6883 58.424 34.6643 58.416H370.544C379.624 58.416 387.288 65.16 388.456 74.16C388.56 74.936 388.608 75.712 388.608 76.488Z" fill="#68E1FD"/>
<path d="M388.608 76.488V239.56C388.632 249.512 380.584 257.6 370.632 257.632H34.6643C24.6883 257.632 16.5923 249.56 16.5923 239.584V76.488C16.6083 66.512 24.6883 58.424 34.6643 58.416H370.544C379.624 58.416 387.288 65.16 388.456 74.16C388.56 74.936 388.608 75.712 388.608 76.488Z" fill="url(#paint1_linear_69_1250)"/>
<path d="M387.584 74.7679H15.8721C17.0401 65.7599 24.7121 59.0239 33.7921 59.0239H369.672C378.752 59.0239 386.424 65.7599 387.592 74.7679H387.584Z" fill="url(#paint2_linear_69_1250)"/>
<path opacity="0.18" d="M374.504 295.848C371.024 335.944 260.704 323.104 181.368 306.848C102.032 290.592 36.5761 323.104 21.4801 295.848C14.7921 283.784 19.2481 268.72 26.3201 255.664C29.0081 257.168 32.0401 257.952 35.1201 257.936H368.008C372.592 268.728 375.744 281.64 374.504 295.856V295.848Z" fill="#68E1FD"/>
<path opacity="0.18" d="M86.2158 59.3279C86.2158 59.3279 161.544 11.5439 258.008 59.3279H86.2158Z" fill="#68E1FD"/>
<path opacity="0.18" d="M234.232 384.064C238.016 385.624 242.2 385.856 246.288 386.048C280.76 387.712 315.256 388.512 349.776 388.44C353.224 388.44 356.752 388.408 359.984 387.208C363.216 386.008 366.144 383.384 366.712 379.976C345.096 378.296 323.328 378.464 301.792 377.664C290.504 377.248 278.776 378.664 267.544 379.736C261.848 380.28 256.168 380.928 250.496 381.664C246.936 382.128 237.4 385.376 234.232 384.064Z" fill="#1D2741"/>
<path opacity="0.21" d="M287.2 192.264C286.952 195.888 287.152 199.528 287.784 203.112C288.184 205.328 288.72 207.76 287.576 209.712C286.992 210.768 285.936 211.504 284.984 212.288C278.984 217.216 275.52 224.536 270.392 230.368C270.048 230.848 269.56 231.2 268.992 231.36C268.408 231.4 267.832 231.232 267.36 230.896C264.24 229.096 261.616 226.544 259.728 223.48C258.808 221.976 257.968 220.264 256.384 219.496C253.448 218.056 249.896 221.12 249.568 224.392C249.24 227.664 251 230.736 252.696 233.544L260.544 246.56C262.936 250.528 265.448 254.632 269.344 257.12C272.04 258.76 275.072 259.784 278.208 260.112C282.656 260.696 287.168 260.408 291.648 260.056C299.832 259.424 308 258.608 316.152 257.616C318.944 257.272 322.12 256.664 323.536 254.24C324.488 252.608 324.36 250.592 324.192 248.72C323.616 241.92 323.032 235.112 322.432 228.312C322.112 224.456 321.632 220.264 318.912 217.52C317.288 215.888 315.008 214.96 313.568 213.16C312.536 211.72 311.872 210.04 311.632 208.28C310.24 200.944 311.576 193.064 308.696 186.152C308.112 184.752 307.32 183.368 306.024 182.592C304.832 181.976 303.496 181.704 302.16 181.808C295.736 181.992 287.656 185.056 287.184 192.256L287.2 192.264Z" fill="url(#paint3_linear_69_1250)"/>
<path d="M258.496 201.824H132.76C130.193 201.824 128.112 203.905 128.112 206.472V214.12C128.112 216.687 130.193 218.768 132.76 218.768H258.496C261.063 218.768 263.144 216.687 263.144 214.12V206.472C263.144 203.905 261.063 201.824 258.496 201.824Z" fill="#F1F1F1" stroke="#A0A0A0" stroke-width="0.65" stroke-miterlimit="10"/>
<path d="M272.264 209.512V207.56H273.8V206.304H272.264V205.368H273.8V204.112H270.72V209.512C268.632 209.936 267.288 211.976 267.712 214.064C268.136 216.152 270.176 217.496 272.264 217.072C274.352 216.648 275.696 214.608 275.272 212.52C274.96 211.008 273.776 209.824 272.264 209.512ZM271.496 215.968C270.016 215.968 268.808 214.776 268.808 213.288C268.808 211.8 270 210.6 271.488 210.6C272.976 210.6 274.176 211.792 274.176 213.28C274.176 214.76 272.976 215.96 271.496 215.968Z" fill="#68E1FD"/>
<path d="M139.12 214.216C141.156 214.216 142.808 212.565 142.808 210.528C142.808 208.491 141.156 206.84 139.12 206.84C137.083 206.84 135.432 208.491 135.432 210.528C135.432 212.565 137.083 214.216 139.12 214.216Z" fill="#68E1FD"/>
<path d="M150.608 214.216C152.645 214.216 154.296 212.565 154.296 210.528C154.296 208.491 152.645 206.84 150.608 206.84C148.571 206.84 146.92 208.491 146.92 210.528C146.92 212.565 148.571 214.216 150.608 214.216Z" fill="#68E1FD"/>
<path d="M162.096 214.216C164.133 214.216 165.784 212.565 165.784 210.528C165.784 208.491 164.133 206.84 162.096 206.84C160.059 206.84 158.408 208.491 158.408 210.528C158.408 212.565 160.059 214.216 162.096 214.216Z" fill="#68E1FD"/>
<path d="M173.584 214.216C175.621 214.216 177.272 212.565 177.272 210.528C177.272 208.491 175.621 206.84 173.584 206.84C171.547 206.84 169.896 208.491 169.896 210.528C169.896 212.565 171.547 214.216 173.584 214.216Z" fill="#68E1FD"/>
<path d="M301.736 373.448L304.392 379.976L293.656 385.056L283.736 385.776C283.736 385.776 282.04 379.248 286.672 378.664C289.376 378.352 291.96 377.352 294.168 375.768L301.736 373.448Z" fill="#68E1FD"/>
<path d="M310.264 376.4C307.52 377.536 305.624 380.08 305.32 383.032L305.032 385.784H317.224V376.392H310.256L310.264 376.4Z" fill="#68E1FD"/>
<path d="M287.84 279.184L280.616 331.8C280.312 334.016 280.544 336.272 281.288 338.376L294.2 376.392L301.744 374.048L296.048 336.208C295.928 335.424 295.976 334.624 296.2 333.864L305.992 300.04L310.256 376.328H317.224L323.224 301.056C325.256 288.472 321.536 279.184 321.536 279.184H287.832H287.84Z" fill="#231F20"/>
<path d="M324.864 265.256L317.72 219.208L316.72 213.6C316.72 213.6 330.064 221.232 333.888 234.576C338.896 252.096 324.864 265.256 324.864 265.256Z" fill="#68E1FD"/>
<path d="M324.864 265.256L317.72 219.208L316.72 213.6C316.72 213.6 330.064 221.232 333.888 234.576C338.896 252.096 324.864 265.256 324.864 265.256Z" fill="url(#paint4_linear_69_1250)"/>
<path d="M332.2 254.536C337.616 243.824 326.92 225.192 326.92 225.192L317.704 219.208L318.744 212.56C318.744 212.56 333.6 214.08 335.056 235.056C335.56 241.808 335.032 250.152 332.2 254.528V254.536Z" fill="#68E1FD"/>
<path d="M255.64 218.592C255.144 216.904 254.272 214.888 252.512 214.736C252.984 216.28 252.912 217.936 252.312 219.432C248.472 218.008 247.584 212.392 243.752 210.936C243.168 211.56 243.496 212.576 243.856 213.344C244.528 214.784 245.2 216.232 245.872 217.672C244.976 216.256 244.016 214.888 243 213.568C242.704 213.16 242.184 212.72 241.76 212.984C241.336 213.248 241.488 213.784 241.64 214.208C242.312 216.088 243.072 217.936 243.912 219.744C242.968 218.16 241.896 216.664 240.688 215.272C239.904 215.464 240.064 216.624 240.408 217.36L242.928 222.72L240.912 219.784C240.264 219.848 240.36 220.848 240.68 221.424C243.384 226.256 247.616 230.064 252.712 232.24C253.744 232.68 254.944 233.04 255.96 232.568C260.328 230.576 256.488 221.488 255.64 218.592Z" fill="#FFAA71"/>
<path d="M324.864 232.832V268.936C324.864 273.36 324.144 276.96 319.712 276.96H288.776C284.36 276.96 284.192 273.4 284.16 268.992L283.912 244.456C283.912 244.456 277.232 256.352 271.904 255.192C266.576 254.032 250.776 232.256 250.776 232.256L258.672 225.648L271.92 238.936C271.92 238.936 274.048 234.096 277.152 223.256C280.248 212.416 290.304 212.384 290.304 212.384H317.208C326.92 212.384 324.864 232.832 324.864 232.832Z" fill="#68E1FD"/>
<path d="M324.864 236.896C324.864 236.896 329.512 243.424 324.864 249.96V236.896Z" fill="#231F20"/>
<path d="M321.528 276.728H287.84V279.184H321.528V276.728Z" fill="#68E1FD"/>
<path d="M321.528 276.728H287.84V279.184H321.528V276.728Z" fill="url(#paint5_linear_69_1250)"/>
<path d="M309.04 187.832H299.312V212.56H309.04V187.832Z" fill="#FFAA71"/>
<path d="M309.04 185.12V212.56H303.912V210.888C303.912 208.848 302.248 207.192 300.208 207.184H299.912C294.824 207.184 290.696 203.056 290.696 197.968V185.112H309.04V185.12Z" fill="#FFAA71"/>
<path d="M290.696 187.832C290.696 187.832 282.184 183.192 285.232 178.104C288.28 173.024 293.24 176.224 293.24 176.224H309.672C309.672 176.224 311.552 175.928 312.28 179.12C313.008 182.312 309.088 202.128 309.088 202.128H300.928L299.88 196.976C299.88 196.976 301.504 195.216 301.36 193.344C301.392 192.504 300.736 191.792 299.896 191.76C299.288 191.736 298.728 192.072 298.464 192.624C297.728 193.928 298.024 188.408 295.416 187.832C293.864 187.472 292.248 187.472 290.696 187.832Z" fill="#231F20"/>
<path d="M306.864 212.512C306.864 212.512 303.088 217.456 297.864 217.456C292.64 217.456 277.4 232.4 276.376 236.904C275.352 241.408 271.92 238.944 271.92 238.944C271.92 238.944 274.048 234.104 277.152 223.264C280.248 212.424 290.312 212.392 290.312 212.392H303.984L306.864 212.512Z" fill="url(#paint6_linear_69_1250)"/>
<path d="M301.736 373.448L304.392 379.976L293.656 385.056L283.736 385.776C283.736 385.776 282.04 379.248 286.672 378.664C289.376 378.352 291.96 377.352 294.168 375.768L301.736 373.448Z" fill="url(#paint7_linear_69_1250)"/>
<path d="M310.264 376.4C307.52 377.536 305.624 380.08 305.32 383.032L305.032 385.784H317.224V376.392H310.256L310.264 376.4Z" fill="url(#paint8_linear_69_1250)"/>
<path d="M218.56 111.936H180.056C176.243 111.936 173.152 115.027 173.152 118.84V157.344C173.152 161.157 176.243 164.248 180.056 164.248H218.56C222.373 164.248 225.464 161.157 225.464 157.344V118.84C225.464 115.027 222.373 111.936 218.56 111.936Z" fill="url(#paint9_linear_69_1250)"/>
<path d="M218.768 111.936H183.04C179.346 111.936 176.352 114.93 176.352 118.624V157.56C176.352 161.254 179.346 164.248 183.04 164.248H218.768C222.462 164.248 225.456 161.254 225.456 157.56V118.624C225.456 114.93 222.462 111.936 218.768 111.936Z" fill="#68E1FD"/>
<path d="M227.48 138.256L224.784 140.824L223.608 141.928C221.736 139.688 218.896 138.48 215.976 138.696C215.344 138.768 214.712 138.664 214.136 138.4C212.192 137.296 215.24 133.536 215.24 133.536C215.912 133.528 216.584 133.552 217.248 133.624H217.424L217.96 133.688C220.528 134.048 224.64 135.264 227.48 138.264V138.256Z" fill="#F1F1F1"/>
<path d="M224.672 140.584L224.776 140.824L223.6 141.928C221.728 139.688 218.888 138.48 215.968 138.696C215.336 138.768 214.704 138.664 214.128 138.4L215.232 133.536C215.232 133.536 216.32 133.536 217.24 133.624H217.416C217.592 133.632 217.776 133.656 217.952 133.688C217.952 133.688 218.592 136.424 218.12 137.576C218.12 137.592 222.624 138.344 224.672 140.592V140.584Z" fill="url(#paint10_linear_69_1250)"/>
<path d="M200.216 122.96H198.4C196.938 122.96 195.752 124.146 195.752 125.608V150.568C195.752 152.03 196.938 153.216 198.4 153.216H200.216C201.678 153.216 202.864 152.03 202.864 150.568V125.608C202.864 124.146 201.678 122.96 200.216 122.96Z" fill="url(#paint11_linear_69_1250)"/>
<path d="M215.968 137.68C215.904 144.272 210.552 149.584 203.952 149.592H201.36C200.2 149.592 199.272 148.648 199.272 147.488C199.272 146.696 199.72 145.976 200.424 145.624C200.712 145.48 201.032 145.408 201.36 145.408H202.336C206.664 145.408 210.168 141.904 210.168 137.576V137.408C210.024 133.104 206.48 129.704 202.176 129.736H201C200.056 129.736 199.288 128.968 199.288 128.024V127.296C199.288 126.352 200.056 125.584 201 125.584H203.752C210.392 125.584 216.008 131.024 215.96 137.688L215.968 137.68Z" fill="#F1F1F1"/>
<path d="M212.76 138.16C212.712 143.888 208.064 148.504 202.336 148.52H200.08C199.88 148.52 199.68 148.488 199.496 148.424C198.984 147.392 199.4 146.144 200.432 145.632C200.72 145.488 201.04 145.416 201.368 145.416H202.336C206.664 145.416 210.168 141.912 210.168 137.584V137.416C210.024 133.112 206.48 129.712 202.176 129.744H201C200.056 129.744 199.288 128.976 199.288 128.032V127.712C199.44 127.664 199.6 127.64 199.76 127.632H202.152C207.976 127.632 212.72 132.336 212.76 138.16Z" fill="url(#paint12_linear_69_1250)"/>
<path d="M209.784 135.2C209.784 135.2 210.568 137.304 209.592 140.52C209.592 140.52 205.88 144.344 209.048 150.416L211.664 153.216L208.616 156.216C204.752 153.232 202.8 148.4 203.512 143.576C204.208 138.4 209.784 135.2 209.784 135.2Z" fill="#F1F1F1"/>
<path d="M206.016 158.632L230.136 135.744L250.376 153.216L225.456 177.112L206.016 158.632Z" fill="#68E1FD"/>
<path d="M206.016 158.632L207.624 167.704L225.456 184.816V177.112L206.016 158.632Z" fill="#68E1FD"/>
<path d="M250.376 153.216V161.544L225.456 184.816V177.112L250.376 153.216Z" fill="#68E1FD"/>
<path d="M206.016 158.632L207.624 167.704L225.456 184.816V177.112L206.016 158.632Z" fill="url(#paint13_linear_69_1250)"/>
<path d="M250.376 153.216V161.544L225.456 184.816V177.112L250.376 153.216Z" fill="url(#paint14_linear_69_1250)"/>
<path d="M210.464 162.864L234.816 139.776L237.064 141.72L212.76 165.04L210.464 162.864Z" fill="url(#paint15_linear_69_1250)"/>
<path d="M217.656 169.544L242.584 146.464L244.832 148.4L219.952 171.72L217.656 169.544Z" fill="url(#paint16_linear_69_1250)"/>
<defs>
<linearGradient id="paint0_linear_69_1250" x1="15.7202" y1="158.624" x2="387.728" y2="158.624" gradientUnits="userSpaceOnUse">
<stop stop-color="#68E1FD"/>
<stop offset="1" stop-color="#68E1FD"/>
</linearGradient>
<linearGradient id="paint1_linear_69_1250" x1="-37.3277" y1="109.048" x2="528.752" y2="224.592" gradientUnits="userSpaceOnUse">
<stop stop-color="white" stop-opacity="0"/>
<stop offset="1" stop-color="white"/>
</linearGradient>
<linearGradient id="paint2_linear_69_1250" x1="-16.0559" y1="71.4799" x2="648.76" y2="58.0319" gradientUnits="userSpaceOnUse">
<stop stop-color="#231F20" stop-opacity="0"/>
<stop offset="1" stop-color="#231F20"/>
</linearGradient>
<linearGradient id="paint3_linear_69_1250" x1="265.232" y1="198.824" x2="412.328" y2="337.312" gradientUnits="userSpaceOnUse">
<stop stop-opacity="0"/>
<stop offset="0.02" stop-color="#030304" stop-opacity="0.04"/>
<stop offset="0.18" stop-color="#181821" stop-opacity="0.39"/>
<stop offset="0.35" stop-color="#292839" stop-opacity="0.66"/>
<stop offset="0.53" stop-color="#363449" stop-opacity="0.85"/>
<stop offset="0.73" stop-color="#3D3B53" stop-opacity="0.96"/>
<stop offset="0.99" stop-color="#3F3D56"/>
</linearGradient>
<linearGradient id="paint4_linear_69_1250" x1="337.464" y1="234.504" x2="212.04" y2="271.536" gradientUnits="userSpaceOnUse">
<stop stop-color="#231F20" stop-opacity="0"/>
<stop offset="1" stop-color="#231F20"/>
</linearGradient>
<linearGradient id="paint5_linear_69_1250" x1="304.616" y1="279.752" x2="304.904" y2="272.112" gradientUnits="userSpaceOnUse">
<stop stop-color="#231F20" stop-opacity="0"/>
<stop offset="1" stop-color="#231F20"/>
</linearGradient>
<linearGradient id="paint6_linear_69_1250" x1="309.528" y1="233.656" x2="268.008" y2="217.4" gradientUnits="userSpaceOnUse">
<stop stop-color="white" stop-opacity="0"/>
<stop offset="1" stop-color="white"/>
</linearGradient>
<linearGradient id="paint7_linear_69_1250" x1="291.984" y1="373.704" x2="294.408" y2="384.392" gradientUnits="userSpaceOnUse">
<stop stop-color="#231F20" stop-opacity="0"/>
<stop offset="1" stop-color="#231F20"/>
</linearGradient>
<linearGradient id="paint8_linear_69_1250" x1="310.376" y1="376.608" x2="312.248" y2="387.728" gradientUnits="userSpaceOnUse">
<stop stop-color="#231F20" stop-opacity="0"/>
<stop offset="1" stop-color="#231F20"/>
</linearGradient>
<linearGradient id="paint9_linear_69_1250" x1="199.928" y1="137.848" x2="84.5359" y2="181.392" gradientUnits="userSpaceOnUse">
<stop stop-color="#231F20" stop-opacity="0"/>
<stop offset="1" stop-color="#231F20"/>
</linearGradient>
<linearGradient id="paint10_linear_69_1250" x1="223.072" y1="108.744" x2="205.224" y2="261.256" gradientUnits="userSpaceOnUse">
<stop stop-color="#231F20" stop-opacity="0"/>
<stop offset="1" stop-color="#231F20"/>
</linearGradient>
<linearGradient id="paint11_linear_69_1250" x1="191.744" y1="138.064" x2="251.936" y2="138.256" gradientUnits="userSpaceOnUse">
<stop stop-color="#231F20" stop-opacity="0"/>
<stop offset="1" stop-color="#231F20"/>
</linearGradient>
<linearGradient id="paint12_linear_69_1250" x1="209.08" y1="107.104" x2="191.232" y2="259.616" gradientUnits="userSpaceOnUse">
<stop stop-color="#231F20" stop-opacity="0"/>
<stop offset="1" stop-color="#231F20"/>
</linearGradient>
<linearGradient id="paint13_linear_69_1250" x1="211.128" y1="184.048" x2="230.808" y2="131.4" gradientUnits="userSpaceOnUse">
<stop stop-color="#231F20" stop-opacity="0"/>
<stop offset="1" stop-color="#231F20"/>
</linearGradient>
<linearGradient id="paint14_linear_69_1250" x1="240.848" y1="179.232" x2="225.904" y2="127.136" gradientUnits="userSpaceOnUse">
<stop stop-color="#231F20" stop-opacity="0"/>
<stop offset="1" stop-color="#231F20"/>
</linearGradient>
<linearGradient id="paint15_linear_69_1250" x1="233.808" y1="137.984" x2="159.2" y2="244.24" gradientUnits="userSpaceOnUse">
<stop stop-color="#231F20" stop-opacity="0"/>
<stop offset="1" stop-color="#231F20"/>
</linearGradient>
<linearGradient id="paint16_linear_69_1250" x1="241.96" y1="143.712" x2="167.352" y2="249.968" gradientUnits="userSpaceOnUse">
<stop stop-color="#231F20" stop-opacity="0"/>
<stop offset="1" stop-color="#231F20"/>
</linearGradient>
</defs>
</svg>
