<svg width="400" height="400" viewBox="0 0 400 400" fill="none" xmlns="http://www.w3.org/2000/svg">
<path opacity="0.18" d="M372.432 139.04C356.408 120.832 335.872 107.288 315.56 93.968C291.016 77.84 265.392 61.288 236.32 57.296C208.544 53.472 180.184 61.656 155.576 75.096C130.96 88.528 109.528 106.992 88.2882 125.296L38.2882 168.424C27.7682 177.496 16.9602 186.936 10.9762 199.472C5.89619 210.096 4.69619 222.256 5.66419 233.968C8.03219 260.92 21.1522 285.792 42.0722 302.96C56.6002 314.736 74.1122 322.168 91.5362 329.008C123.552 341.536 156.552 352.592 190.792 355.672C227.352 358.96 264.048 353.04 300.28 347.144C344.768 339.904 370.296 320.984 377.656 277.16C381.656 253.44 394.624 231.952 397.344 208.168C400.296 182.56 389 157.92 372.432 139.056V139.04Z" fill="#68E1FD"/>
<path d="M354.192 87.016H83.888C76.9778 87.016 71.376 92.6178 71.376 99.528V283.2C71.376 290.11 76.9778 295.712 83.888 295.712H354.192C361.102 295.712 366.704 290.11 366.704 283.2V99.528C366.704 92.6178 361.102 87.016 354.192 87.016Z" fill="#68E1FD"/>
<path d="M345.136 94.1119H93.0001C86.6113 94.1119 81.4321 99.2911 81.4321 105.68V274.088C81.4321 280.477 86.6113 285.656 93.0001 285.656H345.136C351.525 285.656 356.704 280.477 356.704 274.088V105.68C356.704 99.2911 351.525 94.1119 345.136 94.1119Z" fill="#F1F1F1"/>
<path d="M372.552 293.752H58.96C52.7699 293.752 47.752 298.77 47.752 304.96V306.168C47.752 312.358 52.7699 317.376 58.96 317.376H372.552C378.742 317.376 383.76 312.358 383.76 306.168V304.96C383.76 298.77 378.742 293.752 372.552 293.752Z" fill="#68E1FD"/>
<path d="M372.552 293.752H58.96C52.7699 293.752 47.752 298.77 47.752 304.96V306.168C47.752 312.358 52.7699 317.376 58.96 317.376H372.552C378.742 317.376 383.76 312.358 383.76 306.168V304.96C383.76 298.77 378.742 293.752 372.552 293.752Z" fill="url(#paint0_linear_69_1348)"/>
<path d="M250.672 293.968H182.504V300.968H250.672V293.968Z" fill="url(#paint1_linear_69_1348)"/>
<path d="M254.48 262.904L211.16 241.24H72.2559V191.24H271.544L253.824 227.024L254.48 262.904Z" fill="url(#paint2_linear_69_1348)"/>
<path d="M271.544 118.92V216.536C271.544 223.64 265.792 229.408 258.688 229.432H59.9758C52.8718 229.432 47.1118 223.672 47.1118 216.568C47.1118 216.56 47.1118 216.552 47.1118 216.544V118.928C47.1118 111.824 52.8718 106.064 59.9758 106.064H258.688C265.784 106.08 271.536 111.832 271.544 118.928V118.92Z" fill="#68E1FD"/>
<path d="M159.136 131.088C157.936 131.52 156.6 130.92 156.128 129.736L153.872 123.744C152.52 120.304 148.632 118.616 145.192 119.968C141.816 121.296 140.112 125.072 141.352 128.48L144.472 136.728C144.52 136.864 144.56 137.008 144.584 137.144H139.64L136.984 130.12C134.864 124.216 137.936 117.712 143.84 115.6C149.6 113.536 155.96 116.4 158.224 122.088L160.488 128.072C160.944 129.272 160.344 130.624 159.144 131.08L159.136 131.088Z" fill="#F1F1F1"/>
<path d="M215.096 228.776L254.48 262.904V221.224L215.096 228.776Z" fill="#68E1FD"/>
<path d="M234.048 175.4H81.9521C78.7665 175.4 76.1841 177.983 76.1841 181.168V197.64C76.1841 200.826 78.7665 203.408 81.9521 203.408H234.048C237.234 203.408 239.816 200.826 239.816 197.64V181.168C239.816 177.983 237.234 175.4 234.048 175.4Z" fill="#F1F1F1"/>
<path d="M166.424 137.2H135.8V165.496H166.424V137.2Z" fill="url(#paint3_linear_69_1348)"/>
<path d="M166.392 137.144H147.184V165.44H166.392V137.144Z" fill="url(#paint4_linear_69_1348)"/>
<path d="M150.376 150.4C150.376 150.4 147.352 147.88 149.992 145.736C152.632 143.592 155.584 148.064 152.792 150.4L154.76 155.648H148.12L150.376 150.4Z" fill="url(#paint5_linear_69_1348)"/>
<path d="M99.6161 194.592C102.846 194.592 105.464 191.974 105.464 188.744C105.464 185.514 102.846 182.896 99.6161 182.896C96.3863 182.896 93.7681 185.514 93.7681 188.744C93.7681 191.974 96.3863 194.592 99.6161 194.592Z" fill="black"/>
<path d="M115.384 194.592C118.614 194.592 121.232 191.974 121.232 188.744C121.232 185.514 118.614 182.896 115.384 182.896C112.154 182.896 109.536 185.514 109.536 188.744C109.536 191.974 112.154 194.592 115.384 194.592Z" fill="black"/>
<path d="M131.144 194.592C134.374 194.592 136.992 191.974 136.992 188.744C136.992 185.514 134.374 182.896 131.144 182.896C127.914 182.896 125.296 185.514 125.296 188.744C125.296 191.974 127.914 194.592 131.144 194.592Z" fill="black"/>
<path d="M146.912 194.592C150.142 194.592 152.76 191.974 152.76 188.744C152.76 185.514 150.142 182.896 146.912 182.896C143.682 182.896 141.064 185.514 141.064 188.744C141.064 191.974 143.682 194.592 146.912 194.592Z" fill="black"/>
<path d="M163.912 194.592C167.142 194.592 169.76 191.974 169.76 188.744C169.76 185.514 167.142 182.896 163.912 182.896C160.682 182.896 158.064 185.514 158.064 188.744C158.064 191.974 160.682 194.592 163.912 194.592Z" fill="black"/>
<path d="M179.68 194.592C182.91 194.592 185.528 191.974 185.528 188.744C185.528 185.514 182.91 182.896 179.68 182.896C176.45 182.896 173.832 185.514 173.832 188.744C173.832 191.974 176.45 194.592 179.68 194.592Z" fill="black"/>
<path d="M195.448 194.592C198.678 194.592 201.296 191.974 201.296 188.744C201.296 185.514 198.678 182.896 195.448 182.896C192.218 182.896 189.6 185.514 189.6 188.744C189.6 191.974 192.218 194.592 195.448 194.592Z" fill="black"/>
<path d="M211.216 194.592C214.446 194.592 217.064 191.974 217.064 188.744C217.064 185.514 214.446 182.896 211.216 182.896C207.986 182.896 205.368 185.514 205.368 188.744C205.368 191.974 207.986 194.592 211.216 194.592Z" fill="black"/>
<path d="M54.9681 96.9281C53.1121 96.9281 51.4401 95.8321 50.6961 94.1281L40.6241 70.9361C39.5921 68.5761 40.6721 65.8241 43.0401 64.7921C45.4001 63.7601 48.1521 64.8401 49.1841 67.2081L59.2401 90.416C60.2721 92.7761 59.1921 95.5201 56.8321 96.5521C56.2401 96.8081 55.6081 96.9441 54.9601 96.9441L54.9681 96.9281Z" fill="#68E1FD"/>
<path d="M9.76798 128.728C7.19198 128.816 5.03998 126.792 4.95198 124.224C4.86398 121.648 6.88798 119.496 9.45598 119.408L34.672 117.72C37.248 117.544 39.472 119.496 39.648 122.072C39.824 124.648 37.872 126.872 35.296 127.048L10.072 128.728H9.76798Z" fill="#68E1FD"/>
<path d="M36.5922 105.784C35.6722 105.784 34.7682 105.504 34.0082 104.984L13.0562 90.7761C10.9522 89.2961 10.4402 86.3921 11.9202 84.2801C13.3682 82.2161 16.1922 81.6801 18.2962 83.0641L39.2082 97.2721C41.3362 98.7201 41.8802 101.624 40.4322 103.752C39.5682 105.024 38.1282 105.784 36.5922 105.784Z" fill="#68E1FD"/>
<defs>
<linearGradient id="paint0_linear_69_1348" x1="216.104" y1="318.232" x2="214.784" y2="269.672" gradientUnits="userSpaceOnUse">
<stop stop-color="#231F20" stop-opacity="0"/>
<stop offset="1" stop-color="#231F20"/>
</linearGradient>
<linearGradient id="paint1_linear_69_1348" x1="216.752" y1="278.224" x2="216.304" y2="331.184" gradientUnits="userSpaceOnUse">
<stop stop-color="#231F20" stop-opacity="0"/>
<stop offset="1" stop-color="#231F20"/>
</linearGradient>
<linearGradient id="paint2_linear_69_1348" x1="164.064" y1="153.088" x2="196.976" y2="418.448" gradientUnits="userSpaceOnUse">
<stop stop-color="#231F20" stop-opacity="0"/>
<stop offset="1" stop-color="#231F20"/>
</linearGradient>
<linearGradient id="paint3_linear_69_1348" x1="193.992" y1="124.344" x2="107.984" y2="178.512" gradientUnits="userSpaceOnUse">
<stop stop-color="#231F20" stop-opacity="0"/>
<stop offset="1" stop-color="#231F20"/>
</linearGradient>
<linearGradient id="paint4_linear_69_1348" x1="189.552" y1="130.656" x2="123.824" y2="172.056" gradientUnits="userSpaceOnUse">
<stop stop-color="#231F20" stop-opacity="0"/>
<stop offset="1" stop-color="#231F20"/>
</linearGradient>
<linearGradient id="paint5_linear_69_1348" x1="151.568" y1="161.288" x2="151.28" y2="148.464" gradientUnits="userSpaceOnUse">
<stop stop-color="#231F20" stop-opacity="0"/>
<stop offset="1" stop-color="#231F20"/>
</linearGradient>
</defs>
</svg>
