<svg width="300" height="300" viewBox="0 0 300 300" fill="none" xmlns="http://www.w3.org/2000/svg">
<path opacity="0.18" d="M288.384 199.548C283.992 212.28 276.792 223.854 267.324 233.424C259.116 241.794 249.384 248.52 238.65 253.224C231.372 256.428 223.668 258.552 215.784 259.536C198.138 261.696 178.218 260.256 161.364 266.418C144.96 272.418 132.318 282.948 114.12 284.178C113.652 284.208 113.19 284.238 112.722 284.256C107.1 284.532 101.37 284.154 95.622 283.206C87.312 281.844 78.972 279.282 70.902 275.748C70.158 275.43 69.414 275.094 68.676 274.752C63.9 272.532 59.274 270.024 54.822 267.234C49.536 263.922 44.502 260.214 39.762 256.146C20.988 239.976 7.716 218.712 6.702 197.412C5.88599 180.45 13.728 160.602 27.654 151.212C31.632 148.536 35.256 145.53 38.586 142.26C41.4 139.506 44.016 136.566 46.47 133.488C50.406 128.556 53.94 123.27 57.27 117.816C58.716 115.434 60.132 113.022 61.518 110.592C65.826 103.05 70.176 95.2861 75.078 88.0201C75.762 87.0001 76.458 85.9921 77.166 84.9961C77.538 84.4741 77.916 83.9581 78.294 83.4421C80.916 79.8721 83.706 76.4761 86.742 73.3501C87 73.0801 87.258 72.8161 87.516 72.5581L87.918 72.1561C87.948 72.1261 87.978 72.0961 88.008 72.0721C91.866 68.2681 96.108 64.9021 100.866 62.1541C115.692 53.5921 136.314 50.4361 153.108 48.9001C157.308 48.5161 227.172 43.2361 267.45 94.0861C290.16 122.778 300.162 164.742 288.384 199.548Z" fill="#68E1FD"/>
<path d="M219.15 102.036C222.876 95.4539 220.35 87.8579 211.92 89.1839C205.8 90.1439 202.902 94.7219 199.572 99.4199C195.402 105.3 191.898 111.63 187.542 117.372C186.33 118.968 185.01 120.558 183.252 121.524C182.022 122.202 180.636 122.538 179.274 122.874C174.996 123.912 170.718 124.95 166.44 125.994C164.082 126.564 161.61 127.2 159.858 128.88C158.106 130.56 157.452 133.638 159.138 135.378C160.614 136.902 163.056 136.764 165.156 136.5C169.614 135.942 174.09 135.306 178.35 133.884C190.53 129.822 199.638 119.904 209.562 111.75C213.102 108.846 216.894 106.02 219.15 102.036Z" fill="#FFB4A3"/>
<path d="M255.384 102.984C255.264 105.558 255.126 107.958 254.7 110.376C254.496 111.504 254.232 112.644 253.878 113.808C251.622 121.182 247.536 127.884 245.712 135.414C242.694 147.846 250.368 153.894 252.48 165.516C254.286 175.452 248.226 185.172 248.016 195.27C247.884 201.696 250.122 207.906 251.382 214.212C251.592 215.268 251.748 216.462 251.124 217.344C250.494 218.232 249.306 218.472 248.232 218.634C230.874 221.202 212.988 220.188 196.032 215.67C194.616 215.292 193.128 214.842 192.15 213.762C191.13 212.634 190.848 211.032 190.758 209.514C190.284 201.666 192.474 186.468 195 179.028C198.42 168.966 201.498 166.188 202.872 155.682C204.042 146.736 206.946 137.46 207.348 128.532C207.396 127.506 207.366 126.504 207.276 125.52C206.85 120.414 204.954 115.794 204.462 110.67C204.054 106.5 205.878 102.69 207.27 98.8621C207.93 97.0501 208.746 95.2081 209.208 93.3361C209.538 92.0041 209.502 90.6901 210.642 89.6701C211.146 89.2201 211.782 88.9621 212.412 88.7161C215.382 87.5521 218.328 86.4841 221.166 85.0861C224.172 83.6041 227.25 84.0301 230.466 83.6881C231.87 83.5381 233.688 83.1901 234.966 83.9761C236.43 84.8821 236.472 86.5261 238.128 87.2821C242.652 89.3401 247.332 91.0741 251.868 93.1201C252.87 93.5701 253.884 94.0381 254.688 94.7821C257.316 97.2001 255.516 100.062 255.378 102.996L255.384 102.984Z" fill="#68E1FD"/>
<path d="M245.712 135.414C244.938 138.522 244.164 142.626 244.554 145.824C245.238 151.404 249.168 155.772 251.136 160.836C253.092 165.876 253.758 171.42 252.99 176.772C252.312 181.5 250.572 185.994 249.342 190.608C248.112 195.222 247.404 200.166 248.796 204.732C235.14 204.456 221.496 203.622 207.912 202.23C205.386 201.972 202.824 201.684 200.478 200.712C199.476 200.298 198.498 199.74 197.826 198.894C197.22 198.126 196.896 197.178 196.644 196.23C195.648 192.498 195.588 188.526 196.464 184.764C198.984 173.97 198.648 162.822 200.892 151.908C202.536 143.916 206.964 137.04 207.348 128.526C207.396 127.5 207.366 126.498 207.276 125.514C207.276 125.514 229.674 136.95 237.456 132.918C245.226 128.892 245.04 107.406 245.04 107.406L254.7 110.376C254.496 111.504 254.232 112.644 253.878 113.808C251.622 121.182 247.536 127.884 245.712 135.414Z" fill="url(#paint0_linear_66_963)"/>
<path d="M240.894 109.812L249.936 148.968L215.556 151.452L205.734 109.812H240.894Z" fill="#F1F1F1"/>
<path d="M217.302 81.978C217.104 83.136 216.984 84.282 217.386 85.368C217.956 86.91 219.498 87.942 221.112 88.248C222.492 88.512 226.23 88.59 226.494 86.814C226.818 84.636 228.156 82.53 227.652 80.388C226.734 76.536 221.31 76.128 218.208 75.294C218.034 75.246 217.824 75.21 217.692 75.33C217.608 75.408 217.584 75.54 217.572 75.654C217.458 76.698 217.728 77.748 217.734 78.798C217.74 79.848 217.488 80.916 217.308 81.972L217.302 81.978Z" fill="#231F20"/>
<path d="M234.402 89.04C231.936 90.45 229.134 91.17 226.65 92.544C225.282 93.312 223.992 94.272 222.486 94.71C220.98 95.148 219.12 94.896 218.226 93.618C217.812 93.024 217.662 92.292 217.656 91.578C217.638 90.522 217.92 89.454 218.478 88.554C219.348 87.132 220.812 86.148 221.622 84.69C222.366 83.346 222.462 81.708 222.162 80.196C221.898 78.84 220.95 78.402 219.816 78.204C218.844 78.024 217.74 78.036 216.816 77.808C215.436 77.472 214.242 76.644 213.426 75.486C212.394 73.956 212.55 71.868 212.874 70.002C213.228 67.662 213.696 65.304 214.254 63.048C214.746 61.038 215.352 59.028 216.018 57.066C216.462 55.806 216.75 54.822 218.004 54.192C221.4 52.692 225.162 52.188 228.84 52.746C231.612 53.112 234.51 54.192 236.076 56.52C237.108 58.29 237.588 60.342 237.426 62.382C237.192 65.382 236.706 67.596 235.362 70.248C234.138 72.678 232.008 74.844 231.738 77.652C231.504 80.04 232.8 82.41 234.678 83.904C235.392 84.474 236.238 85.014 236.46 85.89C236.796 87.198 235.572 88.362 234.402 89.034V89.04Z" fill="#FFB4A3"/>
<path d="M243.504 56.178C244.764 60.006 243.636 63.732 244.224 67.614C244.578 69.954 245.502 72.246 247.104 73.986C248.22 75.192 249.624 76.092 250.83 77.208C252.036 78.324 253.092 79.764 253.164 81.402C253.212 82.5 252.816 83.562 252.372 84.57C251.904 85.62 251.34 86.688 250.392 87.342C249.678 87.834 248.814 88.05 247.962 88.194C243.954 88.878 239.7 88.218 236.16 86.214C235.116 85.626 234.114 84.906 233.418 83.928C232.884 83.178 232.542 82.302 232.29 81.414C231.684 79.314 231.228 76.656 232.014 74.562C232.344 73.686 232.638 73.056 232.71 72.078C232.776 71.202 232.56 70.098 233.448 69.552C234.486 68.916 235.146 67.098 234.678 65.928C233.994 64.23 231.834 65.37 230.856 66.084C230.922 64.848 231.378 63.618 231.204 62.388C231.174 62.16 230.91 60.432 230.874 60.414C229.44 59.748 228.336 58.416 227.946 56.886C226.566 57.042 225.138 56.142 224.688 54.828C224.028 56.556 222.414 57.888 220.59 58.206C220.326 58.254 220.056 58.278 219.786 58.296C219.186 58.332 218.574 58.326 217.98 58.398C217.218 58.488 215.856 58.704 215.346 59.352C214.962 59.838 214.866 60.804 214.692 61.386C212.796 60.168 211.572 57.978 211.524 55.728C211.464 52.836 213.486 50.664 215.214 48.588C217.152 46.254 220.158 44.538 223.14 44.034C226.584 43.452 230.37 44.562 232.638 47.214C232.944 47.574 233.232 47.964 233.652 48.18C233.982 48.348 234.354 48.396 234.72 48.456C238.548 49.092 241.872 51.948 243.288 55.56C243.366 55.764 243.444 55.974 243.51 56.184L243.504 56.178Z" fill="#231F20"/>
<path d="M221.616 84.6839C222.36 83.3399 222.456 81.7019 222.156 80.1899C221.892 78.8339 220.944 78.3959 219.81 78.1979V78.1859C219.81 78.1859 225.012 77.6639 226.086 76.2839C226.086 76.2839 226.68 82.3799 221.616 84.6899V84.6839Z" fill="#FFB4A3"/>
<path d="M248.85 97.5659C246.642 99.6419 245.34 102.612 245.082 105.636C244.812 108.78 245.622 111.966 247.128 114.738C248.508 117.276 250.632 119.094 251.916 121.614C252.93 123.606 253.494 125.724 254.388 127.728C250.434 128.952 245.814 129.15 241.686 129.432C240.324 129.522 238.926 129.588 237.624 129.186C236.322 128.784 235.11 127.818 234.78 126.492C233.316 127.266 232.476 129.06 232.818 130.68C230.826 130.422 228.78 130.542 226.836 131.04C226.35 131.166 225.846 131.328 225.504 131.694C225.084 132.15 225.006 132.816 224.946 133.44C224.73 135.786 224.76 138.654 226.782 139.872C227.658 140.4 228.732 140.472 229.758 140.526C241.932 141.144 254.34 141.09 266.028 137.628C266.94 137.358 267.9 137.034 268.5 136.29C269.418 135.162 269.178 133.512 268.872 132.09C266.838 122.616 264.864 110.502 259.452 102.3C257.82 99.8279 256.11 95.1359 252.438 95.6399C251.184 95.8139 250.056 96.4979 249.108 97.3319C249.018 97.4099 248.934 97.4879 248.85 97.5659Z" fill="#FFB4A3"/>
<path d="M172.08 112.002C174.204 112.428 176.37 112.866 178.254 113.934C180.138 115.002 181.728 116.82 181.962 118.974C182.196 121.128 180.69 123.492 178.536 123.708C176.172 123.948 174.33 121.83 172.236 120.696C169.854 119.406 167.022 119.394 164.316 119.304C156.348 119.034 148.416 117.804 140.736 115.65C139.188 115.212 137.574 114.702 136.446 113.556C135.024 112.11 133.362 106.392 135.558 105.168C136.548 104.616 140.436 105.996 141.588 106.206C143.658 106.578 145.734 106.962 147.804 107.34C155.91 108.834 163.998 110.394 172.08 112.002Z" fill="#E79A8E"/>
<path d="M75.0479 83.2139C75.0479 83.2139 62.2919 88.7399 60.7919 89.9879C59.4479 91.1099 63.0839 167.712 63.3659 171.456C63.6479 175.2 84.0599 175.8 92.8919 174.12C101.724 172.434 110.112 168.852 110.112 168.852C110.112 168.852 112.908 89.7299 111.174 88.3319C109.44 86.9339 92.5499 81.6899 92.5499 81.6899L75.0479 83.2139Z" fill="#68E1FD"/>
<path d="M111.174 88.3319C111.174 88.2839 135.75 100.794 141.978 105.198C142.62 105.654 143.298 106.176 143.49 106.938C143.706 107.808 143.214 108.678 142.74 109.44C141.372 111.648 140.004 113.856 138.636 116.064C132.72 114.912 109.44 111.51 109.428 109.818C109.374 103.434 111.216 94.7219 111.174 88.3379V88.3319Z" fill="#68E1FD"/>
<path d="M141.828 103.89C141.828 103.89 133.956 115.776 136.05 117.036C138.144 118.29 141.24 118.038 141.24 118.038C141.24 118.038 146.766 104.976 145.758 104.478C144.756 103.974 141.822 103.89 141.822 103.89H141.828Z" fill="#F1F1F1"/>
<path d="M75.0301 72.5938C75.6181 75.2158 75.9241 77.9038 75.9361 80.5918C75.9481 82.2778 75.2101 83.8498 75.4261 85.5478C75.6301 87.1138 76.2541 88.6438 76.9981 90.0238C78.6001 92.9938 81.324 96.0358 84.8881 96.3598C88.2661 96.6658 90.1141 93.4858 91.0201 90.7018C91.4461 89.3998 91.7281 88.0558 91.9201 86.6998C92.1961 84.7618 91.2301 84.1618 89.9521 82.7878C87.4321 80.0878 88.3741 75.4198 86.0041 72.5878C85.5001 71.9878 84.8581 71.4958 84.1441 71.1658C83.7361 70.9798 83.304 70.8418 82.872 70.7218C80.112 69.9418 77.2021 69.6958 74.3521 70.0078C74.6101 70.8598 74.8321 71.7298 75.0301 72.5998V72.5938Z" fill="#E79A8E"/>
<path d="M77.6579 71.298H75.6299C75.6299 71.298 77.3939 80.166 83.1599 82.002C88.9199 83.838 89.5019 81.906 89.5019 81.906C89.5019 81.906 88.3619 80.88 87.9599 78.084C87.5579 75.288 78.6419 71.292 78.6419 71.292H77.6579V71.298Z" fill="url(#paint1_linear_66_963)"/>
<path d="M75.6901 84.0599C75.6901 84.0599 80.9881 94.9439 85.1221 96.3719C85.1221 96.3719 85.0021 96.4139 81.7861 97.7039C78.5701 98.9939 70.6621 90.3839 72.4141 84.7499C73.2121 82.1819 75.7801 81.6899 75.7801 81.6899L75.6961 84.0599H75.6901Z" fill="#F1F1F1"/>
<path d="M89.502 81.9059C89.502 81.9059 89.286 90.8039 85.302 96.3779C85.302 96.3779 88.89 96.9959 90.12 97.1099C91.35 97.2179 93.588 91.5779 92.862 85.9319C92.436 82.6319 90.198 81.0839 89.502 81.9059Z" fill="#F1F1F1"/>
<path d="M114.852 226.326L111.726 274.8C106.608 275.052 101.388 274.71 96.156 273.846L94.554 224.496L88.71 188.352L81.918 225.408L73.644 267.054C72.966 266.766 72.288 266.46 71.616 266.148C67.266 264.126 63.054 261.84 58.998 259.302L61.446 223.218L63.936 172.422L63.978 171.516L110.112 168.852L114.852 226.326Z" fill="#231F20"/>
<path d="M95.7539 55.3439C95.7539 55.3439 95.5679 69.3419 94.1639 72.9899C92.7599 76.6379 89.2619 79.5539 86.0519 79.2659C82.8419 78.9779 75.8939 74.4899 74.1899 69.4859C72.4859 64.4819 74.8559 54.0059 75.5339 52.4459C76.2119 50.8919 79.8959 46.1279 88.3619 47.6759C94.1939 48.7379 95.9459 53.2139 95.7539 55.3499V55.3439Z" fill="#E79A8E"/>
<path d="M91.446 42.9899C90.93 42.9599 90.408 42.9899 89.898 43.0319C89.394 43.0679 88.89 43.0979 88.392 43.0379C87.72 42.9599 87.084 42.7139 86.448 42.4859C83.25 41.3639 79.674 40.7939 76.5 41.9879C73.326 43.1759 70.806 46.5479 71.49 49.8659C70.05 49.9619 68.9039 51.2279 68.4779 52.6019C67.3619 56.2139 69.396 60.4799 71.124 63.5699C71.382 64.0319 71.736 64.5419 72.264 64.5599C72.93 64.5779 73.302 63.8159 73.5 63.1799C73.716 62.4659 73.758 61.5899 74.04 60.9179C74.406 60.0479 75.198 59.2619 75.666 58.4279C76.644 56.6759 77.3339 54.7619 77.6879 52.7819C78.4859 54.2399 80.574 54.8039 81.996 53.9519C83.364 55.7399 85.704 56.4479 87.9 56.9219C91.368 57.6719 95.07 58.0799 98.3879 56.8439C101.712 55.6079 104.484 52.2839 104.04 48.7679C103.68 45.9419 101.13 43.5539 98.292 43.3859C96.768 43.2959 95.124 43.8659 94.302 45.1499C94.26 44.2379 93.48 43.4879 92.616 43.1939C92.238 43.0619 91.848 43.0019 91.446 42.9779V42.9899Z" fill="#231F20"/>
<path d="M74.1839 63.7679C74.1839 63.7679 73.9019 60.0239 71.3279 61.0319C68.7539 62.0399 71.2199 69.0839 72.3959 69.8099C73.5719 70.5359 75.6299 70.4999 75.6299 70.4999L74.1839 63.7739V63.7679Z" fill="#E79A8E"/>
<path d="M48.2339 133.116L62.9759 153.594L63.0059 164.604L37.9319 139.092L48.2339 133.116Z" fill="#E79A8E"/>
<path d="M61.416 89.5798C61.416 89.5798 52.47 92.9578 50.07 98.9458C47.67 104.928 27.39 132.228 31.308 136.926C33.288 139.296 37.74 141.228 37.74 141.228L50.814 133.05L48.018 130.374L60.942 112.068C60.942 112.068 64.668 94.3738 61.416 89.5858V89.5798Z" fill="#68E1FD"/>
<path d="M34.782 139.26C34.782 139.26 48.294 128.682 50.028 129.432C51.762 130.188 51.852 131.622 51.852 131.622C51.852 131.622 50.7 133.908 50.028 134.526C49.356 135.144 40.002 142.464 37.926 142.248C35.85 142.032 33.714 141.978 34.782 139.26Z" fill="#F1F1F1"/>
<path d="M62.9761 153.594C62.9761 153.594 65.6041 152.832 66.7201 152.82C67.8361 152.808 75.8821 161.106 75.4501 162.18C75.0181 163.254 72.8041 166.842 71.5861 166.728C70.3741 166.62 63.0061 164.598 63.0061 164.598C63.0061 164.598 59.2321 154.368 62.9761 153.594Z" fill="#E79A8E"/>
<path d="M152.358 115.404C152.358 115.404 144.18 117.528 138.348 121.776C134.742 124.404 137.238 197.73 137.238 197.73C137.592 197.67 153.258 204.018 168.408 201.408C181.308 199.182 185.958 193.134 185.958 193.134C185.958 193.134 187.122 122.772 184.614 119.886C183.492 118.596 168.282 114.066 168.282 114.066C168.282 114.066 165.87 122.112 152.358 115.41V115.404Z" fill="#68E1FD"/>
<path opacity="0.32" d="M174.504 183.786C176.388 184.308 178.248 184.998 179.556 186.408C181.134 188.112 181.404 191.238 179.484 192.546C178.908 192.942 178.212 193.122 177.534 193.296C170.484 195.072 163.314 196.368 156.084 197.166C149.826 197.856 143.364 197.46 137.22 198.606L137.946 167.382L137.22 150.87C138.546 156.084 140.442 161.214 142.23 166.266C144.198 171.822 150.81 176.586 156.12 178.77C158.028 179.556 160.032 180.066 162.03 180.582C165.798 181.548 169.572 182.508 173.34 183.474C173.724 183.57 174.114 183.672 174.498 183.78L174.504 183.786Z" fill="url(#paint2_linear_66_963)"/>
<path d="M184.734 120.192C188.28 120.108 192.906 132.276 194.346 135.15C197.346 141.156 200.034 147.318 202.392 153.6C205.224 161.148 210.234 171.06 208.638 179.316C208.278 181.17 207.15 182.988 205.38 183.648C204.144 184.11 202.764 183.954 201.474 183.666C190.992 181.35 189.906 172.014 186.81 163.398C185.664 160.218 184.518 157.014 183.93 153.684C182.67 146.508 184.62 139.026 184.62 131.76C184.62 128.016 184.14 123.864 184.734 120.186V120.192Z" fill="#68E1FD"/>
<path d="M194.34 169.008C194.628 168.702 194.964 168.432 195.342 168.21C203.442 163.506 212.736 174.48 218.376 178.56C224.43 182.946 230.742 186.972 237.27 190.608C240.306 192.294 243.114 193.842 246.438 195.048C250.05 196.356 253.758 197.4 257.526 198.18C258.432 198.366 259.386 198.564 260.076 199.176C259.71 199.77 258.894 199.86 258.198 199.872C251.832 199.974 245.49 199.134 239.178 198.336C238.014 198.186 236.67 198.096 235.824 198.906C235.38 199.332 235.152 199.944 234.726 200.388C234.3 200.832 233.472 201.03 233.112 200.526C232.98 200.346 232.944 200.112 232.902 199.896C232.626 198.414 231.882 196.14 230.52 195.3C228.984 194.352 226.698 193.866 225.006 193.158C220.68 191.346 216.354 189.534 212.028 187.722C208.014 186.042 203.994 184.356 200.196 182.238C197.562 180.768 194.922 178.962 193.59 176.25C192.45 173.934 192.642 170.814 194.352 169.008H194.34Z" fill="#FFB4A3"/>
<path d="M148.626 80.3219C149.04 77.9999 149.724 75.9779 150.666 74.2799C150.666 74.2799 146.31 71.4419 146.352 79.9919C146.388 88.5419 145.29 89.1779 148.248 94.1699L149.184 92.4479C148.722 87.9599 147.678 85.7159 148.632 80.3219H148.626Z" fill="#231F20"/>
<path d="M155.034 99.114L152.358 115.404C152.358 115.404 158.352 124.176 165.924 122.874C173.496 121.566 169.488 115.026 169.488 115.026V101.712C169.488 101.712 163.794 105.468 155.034 99.114Z" fill="#FFB4A3"/>
<path d="M169.488 105.342L168.546 99.6179C159.786 105.972 155.25 103.272 155.25 103.272L153.138 110.664C154.416 111.912 155.91 112.698 157.638 112.824C161.832 113.124 166.074 109.842 169.482 105.336L169.488 105.342Z" fill="#BB877E"/>
<path d="M178.008 87.4381C176.43 96.3601 165.546 111.282 156.624 109.698C147.702 108.12 147.042 89.2441 148.626 80.3221C150.204 71.4001 155.79 66.8341 164.712 68.4181C173.634 69.9961 179.586 78.5161 178.008 87.4381Z" fill="#FFB4A3"/>
<path d="M172.242 69.75C172.242 69.75 170.028 64.698 161.478 64.74C152.928 64.776 150.354 70.536 148.23 69.384C146.106 68.232 141.672 71.328 144.018 75.63C146.364 79.926 150.75 81.48 156.552 79.404C162.354 77.328 169.266 77.772 170.508 79.548C171.114 80.412 170.58 82.296 170.424 83.22C170.07 85.32 169.476 87.342 169.248 89.454C169.194 89.97 169.146 90.534 169.446 90.954C169.872 90.87 170.172 90.486 170.37 90.096C170.88 89.082 171.744 87.084 173.076 86.994C176.22 86.772 175.794 93.714 173.112 95.544C171.036 96.96 170.064 102.45 170.064 102.45C170.064 102.45 180.642 96.876 181.14 85.314C181.632 73.752 177.786 69.186 172.248 69.762L172.242 69.75Z" fill="#231F20"/>
<path d="M189.492 214.266C172.104 217.302 154.392 218.448 136.758 217.674L137.22 198.612L137.244 197.736L146.544 196.854H146.568L156.39 195.924L156.636 195.9L185.946 193.134L186.414 195.9L189.48 214.272L189.492 214.266Z" fill="#231F20"/>
<path d="M139.122 120.99C139.122 120.99 134.826 123.804 131.478 128.934C129.528 131.922 128.796 136.062 127.914 139.452C126.366 145.428 125.106 151.482 124.062 157.566C123.138 162.96 122.364 168.396 122.01 173.856C121.872 176.046 121.788 178.254 121.902 180.45C122.028 183.012 121.644 185.94 123.756 187.764C124.746 188.616 125.958 189.162 127.182 189.63C131.802 191.4 136.722 192.21 141.606 193.02C142.05 193.092 142.518 193.164 142.932 192.996C143.442 192.792 143.748 192.282 144.018 191.802C145.002 190.056 145.938 188.286 146.838 186.498C147.018 186.138 147.204 185.742 147.12 185.352C147.048 185.004 146.778 184.728 146.52 184.488C144.678 182.766 142.524 181.326 141.096 179.25C138.564 175.56 138.966 171.048 139.248 166.824C139.374 164.928 139.098 162.984 139.026 161.07C138.828 155.784 138.834 150.492 138.84 145.2C138.858 137.13 138.954 129.054 139.116 120.984L139.122 120.99Z" fill="#68E1FD"/>
<path d="M276.09 202.338H29.22V213.228H276.09V202.338Z" fill="url(#paint3_linear_66_963)"/>
<path d="M267.324 213.114V233.424C259.116 241.794 249.384 248.514 238.65 253.224C231.372 256.422 223.674 258.552 215.784 259.536C198.138 261.696 178.218 260.256 161.364 266.418C144.96 272.418 132.318 282.948 114.12 284.178C99.198 285.186 83.424 281.568 68.676 274.752C58.23 269.904 48.498 263.646 39.762 256.146V213.114H267.324Z" fill="url(#paint4_linear_66_963)"/>
<path d="M267.324 213.114V233.424C259.116 241.794 249.384 248.514 238.65 253.224C231.372 256.422 223.674 258.552 215.784 259.536C198.138 261.696 178.218 260.256 161.364 266.418C144.96 272.418 132.318 282.948 114.12 284.178C99.198 285.186 83.424 281.568 68.676 274.752C58.23 269.904 48.498 263.646 39.762 256.146V213.114H267.324Z" fill="url(#paint5_linear_66_963)"/>
<path d="M175.914 198.048H107.628L101.628 152.046L180.756 153.132L175.914 198.048Z" fill="#68E1FD"/>
<path d="M175.92 198.048H107.292V203.064H175.92V198.048Z" fill="#68E1FD"/>
<path d="M175.92 198.048H107.292V203.064H175.92V198.048Z" fill="url(#paint6_linear_66_963)"/>
<path d="M175.992 198.048H107.706L101.706 152.046L180.834 153.132L175.992 198.048Z" fill="url(#paint7_linear_66_963)"/>
<path d="M104.694 149.772L101.706 152.046L180.834 153.132L178.11 150.462L104.694 149.772Z" fill="url(#paint8_linear_66_963)"/>
<defs>
<linearGradient id="paint0_linear_66_963" x1="370.446" y1="316.122" x2="207.054" y2="133.122" gradientUnits="userSpaceOnUse">
<stop stop-color="#231F20"/>
<stop offset="0.08" stop-color="#231F20" stop-opacity="0.69"/>
<stop offset="0.21" stop-color="#231F20" stop-opacity="0.32"/>
<stop offset="1" stop-color="#231F20" stop-opacity="0"/>
</linearGradient>
<linearGradient id="paint1_linear_66_963" x1="71.9339" y1="53.688" x2="106.446" y2="128.94" gradientUnits="userSpaceOnUse">
<stop/>
<stop offset="0.08" stop-opacity="0.69"/>
<stop offset="0.21" stop-opacity="0.32"/>
<stop offset="1" stop-opacity="0"/>
</linearGradient>
<linearGradient id="paint2_linear_66_963" x1="58.248" y1="133.122" x2="346.71" y2="285.138" gradientUnits="userSpaceOnUse">
<stop stop-color="#231F20"/>
<stop offset="0.08" stop-color="#231F20" stop-opacity="0.69"/>
<stop offset="0.21" stop-color="#231F20" stop-opacity="0.32"/>
<stop offset="1" stop-color="#231F20" stop-opacity="0"/>
</linearGradient>
<linearGradient id="paint3_linear_66_963" x1="150.222" y1="154.83" x2="153.18" y2="219.21" gradientUnits="userSpaceOnUse">
<stop stop-color="white"/>
<stop offset="1" stop-color="#F4F2F4"/>
</linearGradient>
<linearGradient id="paint4_linear_66_963" x1="154.134" y1="297.756" x2="153.33" y2="212.226" gradientUnits="userSpaceOnUse">
<stop stop-color="white"/>
<stop offset="1" stop-color="#F4F2F4"/>
</linearGradient>
<linearGradient id="paint5_linear_66_963" x1="142.674" y1="-127.632" x2="157.182" y2="355.986" gradientUnits="userSpaceOnUse">
<stop stop-color="#231F20"/>
<stop offset="0.08" stop-color="#231F20" stop-opacity="0.69"/>
<stop offset="0.21" stop-color="#231F20" stop-opacity="0.32"/>
<stop offset="1" stop-color="#231F20" stop-opacity="0"/>
</linearGradient>
<linearGradient id="paint6_linear_66_963" x1="141.936" y1="185.376" x2="140.952" y2="230.034" gradientUnits="userSpaceOnUse">
<stop/>
<stop offset="0.08" stop-opacity="0.69"/>
<stop offset="0.21" stop-opacity="0.32"/>
<stop offset="1" stop-opacity="0"/>
</linearGradient>
<linearGradient id="paint7_linear_66_963" x1="123.036" y1="118.668" x2="195.372" y2="312.564" gradientUnits="userSpaceOnUse">
<stop/>
<stop offset="0.08" stop-opacity="0.69"/>
<stop offset="0.21" stop-opacity="0.32"/>
<stop offset="1" stop-opacity="0"/>
</linearGradient>
<linearGradient id="paint8_linear_66_963" x1="142.086" y1="139.812" x2="138.132" y2="201.864" gradientUnits="userSpaceOnUse">
<stop/>
<stop offset="0.08" stop-opacity="0.69"/>
<stop offset="0.21" stop-opacity="0.32"/>
<stop offset="1" stop-opacity="0"/>
</linearGradient>
</defs>
</svg>
