<svg width="200" height="200" viewBox="0 0 200 200" fill="none" xmlns="http://www.w3.org/2000/svg">
<path opacity="0.25" d="M100.504 17.1359C110.536 13.6199 121.62 14.8039 131.944 17.3239C140.352 19.3799 148.772 22.4239 155.26 28.1519C163.468 35.3999 167.776 46.4479 168.164 57.3959C168.556 68.3399 165.324 79.1959 160.392 88.9599C158.584 92.5399 156.488 96.2439 156.58 100.264C156.772 108.42 165.3 113.332 170.768 119.388C176.792 126.06 179.436 135.08 181.12 143.908C181.908 148.028 182.524 152.264 181.816 156.396C181.06 160.78 178.836 164.8 176.064 168.28C168.328 177.976 156.432 183.652 144.288 186.2C132.144 188.748 119.612 188.476 107.196 188.18L67.364 187.248C54.188 186.94 39.936 186.272 29.712 177.94C21.036 170.88 16.9 159.044 18.068 147.916C19.236 136.788 25.28 126.488 33.604 119.016C36.18 116.704 39.032 114.568 40.796 111.588C43.62 106.816 43.132 100.852 42.628 95.3399C41.452 82.4759 41.38 67.6839 50.868 58.9199C58.64 51.7359 67.464 49.1599 73.828 40.4239C80.868 30.7639 88.856 21.2119 100.504 17.1359Z" fill="#68E1FD"/>
<path d="M138.7 14.968V20.824C138.7 21.664 138.012 22.344 137.172 22.34H136.004C135.164 22.34 134.484 21.66 134.484 20.82V14.964C134.484 14.124 135.164 13.444 136.004 13.44H137.164C138.008 13.436 138.696 14.112 138.7 14.956V14.964V14.968Z" fill="#68E1FD"/>
<path d="M138.7 14.9679V19.5439C138.7 20.3839 138.016 21.0639 137.176 21.0639H136.008C135.168 21.0639 134.488 20.3839 134.488 19.5439V14.9679C134.488 14.1279 135.168 13.4479 136.008 13.4439H137.168C138.012 13.4399 138.7 14.1159 138.704 14.9599V14.9679H138.7Z" fill="url(#paint0_linear_66_487)"/>
<path d="M133.192 19.512V21.32C133.192 22.472 134.124 23.404 135.276 23.404H137.86C139.012 23.404 139.944 22.472 139.944 21.32V19.512" stroke="black" stroke-width="2.44" stroke-miterlimit="10" stroke-linecap="round"/>
<path d="M136.568 23.408V50.648" stroke="black" stroke-width="2.44" stroke-miterlimit="10" stroke-linecap="round"/>
<path d="M127.356 45.092H75.9481C66.3096 45.092 58.4961 52.9056 58.4961 62.544V175.372C58.4961 185.011 66.3096 192.824 75.9481 192.824H127.356C136.995 192.824 144.808 185.011 144.808 175.372V62.544C144.808 52.9056 136.995 45.092 127.356 45.092Z" fill="#68E1FD"/>
<path d="M125.94 48.6799H77.3641C69.515 48.6799 63.1521 55.0429 63.1521 62.8919V173.792C63.1521 181.641 69.515 188.004 77.3641 188.004H125.94C133.789 188.004 140.152 181.641 140.152 173.792V62.8919C140.152 55.0429 133.789 48.6799 125.94 48.6799Z" fill="url(#paint1_linear_66_487)"/>
<path d="M123.024 48.6799H80.1922C72.712 48.6799 66.6482 54.7438 66.6482 62.2239V174.46C66.6482 181.94 72.712 188.004 80.1922 188.004H123.024C130.504 188.004 136.568 181.94 136.568 174.46V62.2239C136.568 54.7438 130.504 48.6799 123.024 48.6799Z" fill="url(#paint2_linear_66_487)"/>
<path d="M100.164 170.032C104.523 170.032 108.056 166.499 108.056 162.14C108.056 157.781 104.523 154.248 100.164 154.248C95.8053 154.248 92.272 157.781 92.272 162.14C92.272 166.499 95.8053 170.032 100.164 170.032Z" stroke="#F1F1F1" stroke-width="0.81" stroke-miterlimit="10"/>
<path d="M100.16 167.12C102.915 167.12 105.148 164.887 105.148 162.132C105.148 159.377 102.915 157.144 100.16 157.144C97.4051 157.144 95.1719 159.377 95.1719 162.132C95.1719 164.887 97.4051 167.12 100.16 167.12Z" fill="#68E1FD"/>
<path d="M122.592 24.384C122.656 24.2 123.34 22.756 123.216 25.108C123.216 25.188 122.912 25.38 122.892 25.432C122.86 25.48 122.824 25.52 122.78 25.552C122.676 25.636 122.508 25.908 122.396 25.944C122.232 25.996 122.232 25.72 122.232 25.572C122.24 25.108 122.44 24.82 122.592 24.384Z" fill="#FFB4A3"/>
<path d="M131.324 22.484C130.836 23.06 127.536 36.368 122.752 33.288C121.996 32.86 121.276 32.372 120.596 31.836C120.828 31.788 120.46 31.076 120.596 30.888C121.076 30.236 122.156 30.12 122.636 29.468C122.692 29.388 122.688 29.3 122.776 29.26C123.692 29.616 124.004 29.912 124.612 29.608C125.22 29.304 126.24 27.124 126.592 26.54C128.204 23.82 128.184 24.248 129.264 21.908C129.396 21.624 129.324 20.416 129.292 20.104C129.26 19.792 128.788 19.06 128.828 18.724C128.86 18.468 129.316 18.456 129.424 18.692C129.596 18.98 129.888 19.172 130.22 19.216C130.276 19.216 130.328 19.196 130.372 19.16C131.228 18.432 130.98 17.456 131.488 16.508C131.496 16.492 131.504 16.476 131.516 16.464C131.716 16.192 132.408 15.784 132.816 16.872C133.532 18.76 132.912 20.604 131.324 22.48V22.484Z" fill="#FFB4A3"/>
<path d="M132.388 18.0919C132.368 18.3039 132.292 18.5039 132.256 18.7119C132.184 19.0999 132.256 19.4999 132.176 19.8799C132.096 20.2599 131.784 20.6559 131.396 20.6039C131.072 20.5599 130.852 20.2199 130.7 19.9159C130.58 19.6799 130.336 19.4639 130.22 19.2239C130.276 19.2239 130.328 19.2039 130.372 19.1679C131.228 18.4399 130.98 17.4639 131.488 16.5159C131.496 16.4999 131.504 16.4839 131.516 16.4719C131.688 16.4879 131.848 16.5759 131.956 16.7079C132.072 16.8559 132.16 17.0279 132.216 17.2039C132.336 17.4839 132.396 17.7879 132.388 18.0919Z" fill="#FFB4A3"/>
<path d="M119.324 14.5318C118.92 17.3918 117.64 20.3318 118.616 23.0438L117.684 22.8238L117.664 23.5678C116.336 23.2438 114.956 23.7998 113.588 23.7718C111.532 23.7318 109.636 22.2838 108.82 20.3958C108.008 18.5038 108.212 16.2638 109.116 14.4158C110.344 11.9278 112.928 9.45984 115.784 9.45184C116.824 9.45184 117.552 9.41984 118.324 10.2158C119.452 11.3758 119.536 13.0158 119.324 14.5278V14.5318Z" fill="#231F20"/>
<path opacity="0.33" d="M134.012 63.9919C132.92 64.0119 129.984 65.1839 128.912 64.9679C128.62 64.9279 128.344 64.8239 128.096 64.6639C127.812 64.4559 127.568 62.4279 127.416 62.1119C126.156 59.5439 124.9 56.9759 123.644 54.4079C123.896 57.6239 123.92 60.8559 123.716 64.0799C123.644 65.2039 123.62 66.5239 124.504 67.2239C124.676 67.3599 126.092 67.5999 126.292 67.6879C127.16 68.0519 127.52 69.0239 127.368 69.2439C126.976 69.8039 123.116 70.2479 123.024 70.1839C121.528 69.1599 120.652 67.4559 119.996 65.7639C119.12 63.5039 118.528 61.1479 118.228 58.7439C118.144 58.0639 118.06 57.3279 117.576 56.8319C117.248 56.5359 116.864 56.3159 116.444 56.1799C115.492 55.7599 114.5 55.4319 113.488 55.2039C111.716 54.8799 109.908 55.1599 108.104 54.9799C100.472 54.1999 100.916 45.9919 101.58 45.0999H118.568C119.836 45.7999 121.18 46.3559 122.572 46.7599C124.284 47.2159 126.232 47.3599 127.452 48.6359C128.312 49.5319 128.628 50.8079 128.864 52.0239C129.404 54.7559 129.728 57.5239 129.84 60.3039C129.872 61.0959 129.944 62.0039 130.584 62.4679C131.116 62.8399 133.524 61.9879 134.012 63.9919Z" fill="#231F20"/>
<path d="M119.524 41.052L127.356 45.092L135.956 59.628L133.82 61.344L126.248 51.84L111.064 45.372C111.064 45.372 114.464 41.216 119.524 41.056V41.052Z" fill="#231F20"/>
<path d="M129.492 68.3719C129.532 68.5199 129.684 68.6119 129.832 68.5719C129.856 68.5639 129.88 68.5559 129.9 68.5439C130.8 68.2799 131.688 67.9719 132.576 67.6639C133.408 67.3759 134.276 67.0679 134.872 66.4199C134.932 66.3679 134.972 66.2959 134.984 66.2199C134.976 66.1159 134.92 66.0159 134.836 65.9559C133.832 65.0679 132.384 64.8999 131.204 65.5359C130.92 65.6959 130.588 65.9079 130.3 65.7599C130.152 65.6599 130.04 65.5199 129.976 65.3519L129.54 64.5159C129.54 64.5159 128.596 65.1079 128.52 65.1959C128.284 65.4679 128.3 65.5719 128.376 65.9119C128.568 66.7399 129.104 67.6119 129.488 68.3679L129.492 68.3719Z" fill="#231F20"/>
<path d="M135.632 63.6959C135.68 63.8079 135.74 63.9399 135.86 63.9719C135.948 63.9879 136.04 63.9719 136.116 63.9279C137.644 63.2039 139.104 62.3439 140.484 61.3599C139.268 60.3239 137.528 60.1839 136.164 61.0119C135.944 60.5879 135.788 59.8519 135.276 60.0159C134.856 60.2519 134.544 60.6439 134.408 61.1079C134.296 61.9159 135.344 62.9679 135.636 63.6959H135.632Z" fill="#231F20"/>
<path d="M117.248 22.736C118.816 23.58 119.904 25.084 120.936 26.536L122.656 28.952C122.736 29.04 122.78 29.156 122.78 29.276C122.76 29.368 122.716 29.448 122.648 29.512L120.764 31.808C120.656 31.94 120.52 32.088 120.348 32.08C120.236 32.064 120.132 32.012 120.048 31.932C119.292 31.32 118.676 30.552 118.232 29.688L119.532 40.048C119.596 40.384 119.596 40.724 119.532 41.06C119.324 41.852 118.472 42.276 117.68 42.476C116.7 42.684 115.704 42.792 114.704 42.8L109.12 43.036C108.872 43.064 108.62 43.036 108.38 42.956C107.884 42.74 107.728 42.136 107.632 41.608C107.144 38.888 106.852 36.14 106.556 33.392C106.38 32.136 106.324 30.864 106.384 29.596C106.468 28.708 106.624 27.828 106.848 26.964C107.28 25.14 108.076 22.408 110.184 21.916C112.288 21.42 115.38 21.732 117.248 22.732V22.736Z" fill="#68E1FD"/>
<path d="M122.776 29.2639C122.756 29.3559 122.712 29.4359 122.644 29.4999L120.76 31.7959C120.652 31.9279 120.516 32.0759 120.344 32.0679C120.232 32.0519 120.128 31.9999 120.044 31.9199C119.288 31.3079 118.672 30.5399 118.228 29.6759C118.66 33.1279 119.096 36.5839 119.528 40.0359C119.592 40.3719 119.592 40.7119 119.528 41.0479C119.32 41.8399 118.468 42.2639 117.676 42.4639C116.696 42.6719 115.7 42.7799 114.7 42.7879L109.116 43.0239C108.868 43.0519 108.616 43.0239 108.376 42.9439C108.228 42.8799 108.1 42.7759 108.004 42.6479C107.804 42.3319 107.676 41.9759 107.628 41.6039C107.14 38.8839 106.848 36.1359 106.552 33.3879C106.376 32.1319 106.32 30.8599 106.38 29.5919C106.464 28.7039 106.62 27.8239 106.844 26.9599C107.064 25.8999 107.424 24.8759 107.904 23.9079C108.42 22.9519 109.136 22.1599 110.18 21.9119C112.26 21.4079 115.388 21.7399 117.252 22.7399C118.82 23.5839 119.908 25.0879 120.94 26.5399L122.66 28.9559C122.732 29.0439 122.772 29.1519 122.772 29.2599H122.776V29.2639Z" fill="url(#paint3_linear_66_487)"/>
<path d="M118.228 29.6799L118.028 26.0999C118.028 26.0999 120.78 30.1399 122.312 29.9279C122.312 29.9279 121.196 31.7599 120.344 32.0919C119.672 31.6679 119.1 31.1039 118.668 30.4399C118.12 29.4639 118.228 29.6799 118.228 29.6799Z" fill="url(#paint4_linear_66_487)"/>
<path d="M112.128 42.7919L108.376 42.9479L108.004 42.6519C107.804 42.3359 107.676 41.9799 107.628 41.6079C107.14 38.8879 106.848 36.1399 106.552 33.3919C106.376 32.1359 106.32 30.8639 106.38 29.5959C106.464 28.7079 106.62 27.8279 106.844 26.9639C107.064 25.9039 107.424 24.8799 107.904 23.9119L108.12 27.4919L109.688 31.8879C109.688 31.8879 110.216 42.5199 112.128 42.7959V42.7919Z" fill="url(#paint5_linear_66_487)"/>
<path d="M114.388 19.8638C114.368 19.7718 114.412 19.6758 114.496 19.6278C114.296 20.1478 114.252 20.7118 114.364 21.2558C114.46 21.5438 114.512 21.8478 114.512 22.1558C114.448 22.8078 113.66 23.2238 113.032 23.0478C112.404 22.8718 111.5 22.5238 111.264 21.9038C111.116 21.4998 110.94 18.0478 110.968 17.9398C111.084 17.6518 111.844 18.6838 112.108 18.8478C112.372 19.0118 112.556 19.2798 112.828 19.4318C113.352 19.7278 114.128 19.5438 114.484 20.0278" fill="#FFB4A3"/>
<path d="M111.504 22.1439C111.504 22.1439 113.592 23.1799 114.04 22.5559C114.488 21.9319 114.444 21.6719 114.444 21.6719L114.768 21.9039C114.768 21.9039 115.264 23.1519 114.096 23.4959C112.928 23.8359 111.76 23.1039 111.76 23.1039L111.5 22.1439H111.504Z" fill="#68E1FD"/>
<path d="M111.504 22.1439C111.504 22.1439 113.592 23.1799 114.04 22.5559C114.488 21.9319 114.444 21.6719 114.444 21.6719L114.768 21.9039C114.768 21.9039 115.264 23.1519 114.096 23.4959C112.928 23.8359 111.76 23.1039 111.76 23.1039L111.5 22.1439H111.504Z" fill="url(#paint6_linear_66_487)"/>
<path d="M112.976 33.012C115.688 30.516 118.616 28.272 121.544 26.028C122.712 25.132 123.952 24.204 125.408 24.004C125.76 23.956 126.8 23.98 126.748 24.328C126.696 24.676 125.692 24.512 125.556 24.556C124.58 24.856 124.656 25.056 124.904 25.84C125.156 26.62 125.032 27.296 124.52 27.764C124.128 28.124 122.26 28.792 121.788 29.036C120.488 29.708 119.424 30.76 118.384 31.796L116.824 33.34C116.316 33.852 115.804 34.36 115.34 34.912C114.96 35.416 114.528 35.88 114.056 36.3C113.58 36.724 112.94 36.912 112.308 36.816C111.692 36.684 111.38 36.708 110.376 35.884C109.732 35.344 109.144 34.74 108.62 34.08C108.552 33.984 110.92 32.272 111.596 32.224C112.272 32.176 112.288 33.64 112.976 33.008V33.012Z" fill="#FFB4A3"/>
<path d="M108.376 42.9479C108.376 42.9479 108.088 48.6599 110.268 50.1239C112.452 51.5879 119.944 50.9479 119.944 50.9479C119.944 50.9479 127.856 65.7319 127.8 65.5919C127.744 65.4519 130.076 64.2919 130.076 64.2919L124.624 46.5399L114.708 42.7959L108.372 42.9519H108.376V42.9479Z" fill="#231F20"/>
<path d="M117.68 16.712C117.576 17.636 117.356 18.588 116.788 19.316C115.908 20.416 114.284 20.764 112.956 20.292C111.624 19.78 110.588 18.708 110.112 17.364C109.66 16.028 109.564 14.596 109.832 13.212C109.908 12.548 110.144 11.916 110.52 11.364C111.148 10.544 112.22 10.204 113.24 10.044C114.484 9.84801 116.424 9.91601 117.188 11.132C118.056 12.528 117.86 15.16 117.684 16.716L117.68 16.712Z" fill="#FFB4A3"/>
<path d="M117.64 11.2439C117.064 12.5439 115.592 13.0999 114.28 13.6119C112.964 14.1239 111.52 14.8599 111.172 16.2159C110.968 15.9479 110.884 15.6079 110.932 15.2759C110.716 15.3799 110.752 17.6679 110.988 18.7839C111.188 19.7359 111.192 20.7199 111.396 21.6719C111.6 22.6239 112.048 23.5839 112.868 24.0919C111.076 24.6399 109.152 23.7999 108.332 22.1159L108.612 23.5719C107.188 22.3879 106.276 20.6999 106.064 18.8559C105.868 17.0239 106.144 15.1719 106.876 13.4799C107.136 12.8519 107.308 12.1799 107.588 11.5719C109.952 6.31591 114.576 6.95191 115.996 7.60791C117.316 8.21991 118.268 9.83191 117.644 11.2439H117.64Z" fill="#231F20"/>
<path d="M111.336 28.524C111.764 30.312 111.744 30.924 112.008 32.104C111.204 33.256 110.052 34.116 108.72 34.56C108.548 34.632 108.36 34.648 108.18 34.608C107.96 34.508 107.78 34.34 107.668 34.124C106.704 32.644 106.184 30.92 106.168 29.152C106.168 27.78 106.944 23.512 108.74 23.816C109.552 23.952 109.94 24.66 110.212 25.308C110.7 26.336 111.076 27.416 111.336 28.524Z" fill="#68E1FD"/>
<path d="M111.336 28.524C111.764 30.312 111.744 30.924 112.008 32.104C111.204 33.256 110.052 34.116 108.72 34.56C108.548 34.632 108.36 34.648 108.18 34.608C107.96 34.508 107.78 34.34 107.668 34.124C106.704 32.644 106.184 30.92 106.168 29.152C106.168 27.78 106.944 23.512 108.74 23.816C109.552 23.952 109.94 24.66 110.212 25.308C110.7 26.336 111.076 27.416 111.336 28.524Z" fill="url(#paint7_linear_66_487)"/>
<path d="M112.148 85.332V108.568C112.148 114.304 107.504 118.96 101.764 118.964C96.0279 118.964 91.3719 114.32 91.3679 108.58V85.332C91.3679 79.596 96.0119 74.94 101.752 74.936C107.488 74.936 112.144 79.58 112.148 85.32V85.336V85.332Z" fill="#F1F1F1"/>
<path d="M101.784 123.6C93.6599 123.6 86.9919 117.056 86.8679 108.908V108.468C86.8679 107.84 87.3759 107.332 88.0039 107.332C88.6319 107.332 89.1399 107.84 89.1399 108.468V108.892C89.2439 115.78 94.8959 121.324 101.78 121.324C101.844 121.324 101.912 121.324 101.976 121.324C105.352 121.272 108.504 119.908 110.856 117.484C113.208 115.06 114.472 111.864 114.424 108.488C114.416 107.86 114.916 107.344 115.544 107.332H115.56C116.18 107.332 116.688 107.832 116.696 108.452C116.756 112.436 115.264 116.208 112.488 119.068C109.712 121.928 105.992 123.536 102.008 123.6C101.932 123.6 101.852 123.6 101.776 123.6H101.784Z" fill="#F1F1F1"/>
<path d="M101.788 140.444C101.16 140.444 100.652 139.936 100.652 139.308V122.252C100.652 121.624 101.16 121.116 101.788 121.116C102.416 121.116 102.924 121.624 102.924 122.252V139.308C102.924 139.936 102.416 140.444 101.788 140.444Z" fill="#F1F1F1"/>
<path d="M111.888 88.2001C111.976 88.2001 112.064 88.2081 112.148 88.2241V85.3361C112.148 84.5681 112.068 83.8041 111.896 83.0601C110.988 83.0601 110.248 82.3241 110.248 81.4161C110.248 80.9481 110.448 80.5001 110.796 80.1881C110.5 79.6641 110.16 79.1681 109.776 78.7041C108.944 79.0721 107.968 78.7041 107.6 77.8681C107.436 77.4961 107.412 77.0761 107.54 76.6881C103.996 74.3201 99.364 74.3561 95.86 76.7841C95.896 76.9201 95.916 77.0601 95.916 77.2001C95.916 78.1121 95.176 78.8481 94.268 78.8481C94.084 78.8481 93.9 78.8161 93.728 78.7521C93.416 79.1321 93.136 79.5321 92.884 79.9481C93.692 80.3721 94 81.3681 93.58 82.1761C93.296 82.7201 92.732 83.0601 92.12 83.0601C91.96 83.0601 91.804 83.0361 91.652 82.9921C91.476 83.7561 91.388 84.5401 91.388 85.3241V88.3641C91.616 88.2521 91.864 88.1921 92.12 88.1921C93.032 88.1521 93.8 88.8561 93.84 89.7681C93.88 90.6801 93.176 91.4481 92.264 91.4881H92.116C91.86 91.4881 91.612 91.4281 91.384 91.3161V96.7921C91.612 96.6801 91.86 96.6201 92.116 96.6201C93.028 96.6201 93.764 97.3601 93.764 98.2681C93.764 99.1761 93.024 99.9161 92.116 99.9161C91.86 99.9161 91.612 99.8561 91.384 99.7441V105.056H112.164V99.9041C112.08 99.9201 111.992 99.9281 111.904 99.9281C110.992 99.9281 110.256 99.1881 110.256 98.2801C110.256 97.3721 110.996 96.6321 111.904 96.6321C111.992 96.6321 112.08 96.6401 112.164 96.6561V91.4801C112.08 91.4961 111.992 91.5041 111.904 91.5041C110.992 91.4641 110.288 90.6921 110.328 89.7841C110.364 88.9321 111.048 88.2481 111.904 88.2081H111.896L111.888 88.2001ZM108.592 81.4161C108.592 82.3281 107.852 83.0641 106.944 83.0641C106.036 83.0641 105.296 82.3241 105.296 81.4161C105.296 80.5081 106.036 79.7681 106.944 79.7681C107.852 79.7681 108.592 80.5081 108.592 81.4161ZM98.696 89.8441C98.696 90.7561 97.96 91.4961 97.048 91.4961C96.136 91.4961 95.396 90.7601 95.396 89.8481C95.396 88.9361 96.132 88.1961 97.044 88.1961C97.952 88.1961 98.692 88.9321 98.692 89.8441H98.696ZM97.552 85.6321C97.552 84.7201 98.292 83.9841 99.2 83.9841C100.108 83.9841 100.848 84.7241 100.848 85.6321C100.848 86.5401 100.108 87.2801 99.2 87.2801C98.292 87.2801 97.552 86.5401 97.552 85.6321ZM99.2 92.4121C100.112 92.4121 100.848 93.1521 100.848 94.0601C100.848 94.9681 100.108 95.7081 99.2 95.7081C98.292 95.7081 97.552 94.9681 97.552 94.0601C97.552 93.1521 98.292 92.4121 99.2 92.4121ZM100.348 89.8441C100.348 88.9321 101.088 88.1961 101.996 88.1961C102.904 88.1961 103.644 88.9361 103.644 89.8441C103.644 90.7521 102.904 91.4921 101.996 91.4921C101.088 91.4921 100.348 90.7601 100.348 89.8481V89.8401V89.8441ZM102.496 85.6321C102.496 84.7201 103.236 83.9841 104.144 83.9841C105.052 83.9841 105.792 84.7241 105.792 85.6321C105.792 86.5401 105.052 87.2801 104.144 87.2801C103.236 87.2801 102.496 86.5401 102.496 85.6321ZM104.148 92.4121C105.06 92.4121 105.796 93.1521 105.796 94.0601C105.796 94.9681 105.056 95.7081 104.148 95.7081C103.24 95.7081 102.5 94.9681 102.5 94.0601C102.5 93.1521 103.24 92.4121 104.148 92.4121ZM105.292 89.8441C105.292 88.9321 106.032 88.1961 106.94 88.1961C107.848 88.1961 108.588 88.9361 108.588 89.8441C108.588 90.7521 107.848 91.4921 106.94 91.4921C106.032 91.4921 105.292 90.7601 105.292 89.8481V89.8401V89.8441ZM104.148 75.5561C105.06 75.5561 105.796 76.2961 105.796 77.2041C105.796 78.1121 105.056 78.8521 104.148 78.8521C103.24 78.8521 102.5 78.1121 102.5 77.2041C102.5 76.2961 103.24 75.5561 104.148 75.5561ZM101.996 79.7841C102.908 79.7841 103.644 80.5241 103.644 81.4321C103.644 82.3401 102.904 83.0801 101.996 83.0801C101.088 83.0801 100.348 82.3401 100.348 81.4321C100.336 80.5241 101.064 79.7761 101.976 79.7681H102V79.7841H101.996ZM99.2 75.5561C100.112 75.5561 100.848 76.2961 100.848 77.2041C100.848 78.1121 100.108 78.8521 99.2 78.8521C98.292 78.8521 97.552 78.1121 97.552 77.2041C97.552 76.2961 98.292 75.5561 99.2 75.5561ZM97.048 79.7841C97.96 79.7841 98.696 80.5241 98.696 81.4321C98.696 82.3401 97.956 83.0801 97.048 83.0801C96.14 83.0801 95.4 82.3401 95.4 81.4321C95.392 80.5201 96.124 79.7761 97.032 79.7681H97.048V79.7841ZM92.604 85.6401C92.604 84.7281 93.344 83.9921 94.252 83.9921C95.16 83.9921 95.9 84.7321 95.9 85.6401C95.9 86.5481 95.16 87.2881 94.252 87.2881C93.34 87.2881 92.604 86.5481 92.604 85.6361V85.6401ZM92.604 94.0721C92.604 93.1601 93.34 92.4201 94.252 92.4201C95.164 92.4201 95.904 93.1561 95.904 94.0681C95.904 94.9801 95.168 95.7201 94.256 95.7201H94.248C93.336 95.7201 92.6 94.9801 92.6 94.0681V94.0761L92.604 94.0721ZM94.252 104.16C93.34 104.16 92.604 103.42 92.604 102.512C92.604 101.604 93.344 100.864 94.252 100.864C95.16 100.864 95.9 101.604 95.9 102.512C95.888 103.416 95.152 104.144 94.252 104.144V104.164V104.16ZM95.396 98.3001C95.396 97.3881 96.136 96.6521 97.044 96.6521C97.952 96.6521 98.692 97.3921 98.692 98.3001C98.692 99.2081 97.952 99.9481 97.044 99.9481C96.136 99.9481 95.396 99.2081 95.396 98.3001ZM99.2 104.16C98.288 104.16 97.552 103.42 97.552 102.512C97.552 101.604 98.292 100.864 99.2 100.864C100.108 100.864 100.848 101.604 100.848 102.512C100.836 103.416 100.1 104.144 99.2 104.144V104.164V104.16ZM100.348 98.3001C100.348 97.3881 101.088 96.6521 101.996 96.6521C102.904 96.6521 103.644 97.3921 103.644 98.3001C103.644 99.2081 102.904 99.9481 101.996 99.9481C101.088 99.9481 100.348 99.2081 100.348 98.3001ZM104.148 104.16C103.236 104.16 102.5 103.42 102.5 102.512C102.5 101.604 103.24 100.864 104.148 100.864C105.056 100.864 105.796 101.604 105.796 102.512C105.784 103.416 105.048 104.144 104.148 104.144V104.164V104.16ZM105.292 98.3001C105.292 97.3881 106.032 96.6521 106.94 96.6521C107.848 96.6521 108.588 97.3921 108.588 98.3001C108.588 99.2081 107.848 99.9481 106.94 99.9481C106.032 99.9481 105.292 99.2081 105.292 98.3001ZM110.744 102.516C110.744 103.428 110.004 104.164 109.096 104.164C108.188 104.164 107.448 103.424 107.448 102.516C107.448 101.608 108.188 100.868 109.096 100.868C110.004 100.868 110.732 101.592 110.744 102.492V102.52V102.516ZM110.744 94.0881C110.744 95.0001 110.004 95.7361 109.096 95.7361C108.188 95.7361 107.448 94.9961 107.448 94.0881C107.448 93.1801 108.188 92.4401 109.096 92.4401C110.004 92.4401 110.732 93.1641 110.744 94.0641V94.0921V94.0881ZM109.096 87.3081C108.184 87.3081 107.448 86.5681 107.448 85.6601C107.448 84.7521 108.188 84.0121 109.096 84.0121C110.004 84.0121 110.744 84.7521 110.744 85.6601C110.728 86.5601 109.996 87.2841 109.096 87.2841V87.3121V87.3081Z" fill="url(#paint8_linear_66_487)"/>
<defs>
<linearGradient id="paint0_linear_66_487" x1="134.836" y1="17.1479" x2="145.38" y2="17.7799" gradientUnits="userSpaceOnUse">
<stop stop-opacity="0"/>
<stop offset="0.97"/>
</linearGradient>
<linearGradient id="paint1_linear_66_487" x1="102.888" y1="2.32793" x2="100.144" y2="259.584" gradientUnits="userSpaceOnUse">
<stop stop-opacity="0"/>
<stop offset="0.97"/>
</linearGradient>
<linearGradient id="paint2_linear_66_487" x1="102.848" y1="2.37993" x2="100.1" y2="259.52" gradientUnits="userSpaceOnUse">
<stop stop-opacity="0"/>
<stop offset="0.97"/>
</linearGradient>
<linearGradient id="paint3_linear_66_487" x1="115.312" y1="31.9599" x2="100.976" y2="34.2959" gradientUnits="userSpaceOnUse">
<stop stop-opacity="0"/>
<stop offset="0.97"/>
</linearGradient>
<linearGradient id="paint4_linear_66_487" x1="121.804" y1="28.1199" x2="107.084" y2="33.6198" gradientUnits="userSpaceOnUse">
<stop stop-opacity="0"/>
<stop offset="0.97"/>
</linearGradient>
<linearGradient id="paint5_linear_66_487" x1="103.072" y1="35.6959" x2="130.336" y2="26.5039" gradientUnits="userSpaceOnUse">
<stop stop-opacity="0"/>
<stop offset="0.97"/>
</linearGradient>
<linearGradient id="paint6_linear_66_487" x1="114.192" y1="21.6679" x2="108.532" y2="26.6879" gradientUnits="userSpaceOnUse">
<stop stop-opacity="0"/>
<stop offset="0.97"/>
</linearGradient>
<linearGradient id="paint7_linear_66_487" x1="110.56" y1="29.124" x2="103.596" y2="29.432" gradientUnits="userSpaceOnUse">
<stop stop-opacity="0"/>
<stop offset="0.97"/>
</linearGradient>
<linearGradient id="paint8_linear_66_487" x1="101.54" y1="138.364" x2="102.636" y2="-61.1759" gradientUnits="userSpaceOnUse">
<stop stop-opacity="0"/>
<stop offset="0.97"/>
</linearGradient>
</defs>
</svg>
